<svg width="596" height="842" viewBox="0 0 596 842" fill="none" xmlns="http://www.w3.org/2000/svg">
<path d="M149.886 122.782H417.366V124.222H149.886V122.782Z" fill="black"/>
<path d="M168.606 124.222H168.716V147.252H168.606V124.222Z" stroke="black" stroke-width="0.34" stroke-miterlimit="10"/>
<path d="M149.886 147.261H169.326V148.701H149.886V147.261Z" fill="black"/>
<path d="M186.511 147.261H205.951V148.701H186.511V147.261Z" fill="black"/>
<path d="M168.573 281.914H188.013V283.354H168.573V281.914Z" fill="black"/>
<path d="M169 221H384V222H169V221Z" fill="black"/>
<path d="M383.166 98.291H384.605V222.131H383.166V98.291Z" fill="black"/>
<path d="M415.926 99.742H417.356V124.222H415.926V99.742Z" fill="black"/>
<path d="M167.886 148.702H169.326V222.142H167.886V148.702Z" fill="black"/>
<path d="M149.886 281.901H169.326V283.341H149.886V281.901Z" fill="black"/>
<path d="M168.606 258.861H168.716V281.891H168.606V258.861Z" stroke="black" stroke-width="0.34" stroke-miterlimit="10"/>
<path d="M205.326 147.261H206.766V222.141H205.326V147.261Z" fill="black"/>
<path d="M261.486 148.702H262.926V222.142H261.486V148.702Z" fill="black"/>
<path d="M490.806 258.861H492.237V375.141H490.806V258.861Z" fill="black"/>
<path d="M383.166 232.941H384.605V375.141H383.166V232.941Z" fill="black"/>
<path d="M415.926 234.381H417.356V258.861H415.926V234.381Z" fill="black"/>
<path d="M168 283H169V359H168V283Z" fill="black"/>
<path d="M205.326 281.901H206.766V356.771H205.326V281.901Z" fill="black"/>
<path d="M261.486 283.341H262.926V356.771H261.486V283.341Z" fill="black"/>
<path d="M504.846 258.861H506.286V289.451H504.846V258.861Z" fill="black"/>
<path d="M233.406 283.341H234.846V356.771H233.406V283.341Z" fill="black"/>
<path d="M289.566 283.341H291.006V356.771H289.566V283.341Z" fill="black"/>
<path d="M384.605 98.291H417.355V99.731H384.605V98.291Z" fill="black"/>
<path d="M206.766 147.261H384.596V148.701H206.766V147.261Z" fill="black"/>
<path d="M384.605 232.941H417.355V234.381H384.605V232.941Z" fill="black"/>
<path d="M149.886 257.421H506.286V258.861H149.886V257.421Z" fill="black"/>
<path d="M206.766 281.901H384.596V283.341H206.766V281.901Z" fill="black"/>
<path d="M492.246 288.021H506.286V289.451H492.246V288.021Z" fill="black"/>
<path d="M169.326 318.622H206.766V320.062H169.326V318.622Z" fill="black"/>
<path d="M169 357H385V359H169V357Z" fill="black"/>
<path d="M384.605 373.702H492.236V375.142H384.605V373.702Z" fill="black"/>
<path fill-rule="evenodd" clip-rule="evenodd" d="M144.845 265.941L152.165 269.781L144.845 273.621V265.941Z" fill="black"/>
<path d="M144.605 265.581L152.885 269.781L144.605 274.101V265.581ZM145.205 273.621L144.725 273.381L152.045 269.541V270.141L144.725 266.291L145.205 265.941V273.621Z" fill="black"/>
<path fill-rule="evenodd" clip-rule="evenodd" d="M509.885 277.222L502.085 273.382L509.885 269.542V277.222Z" fill="black"/>
<path d="M426.044 317.616C426.716 319.277 428.377 320.374 431.028 320.906C430.589 321.401 430.249 321.891 430.006 322.376C429.763 322.861 429.488 323.505 429.18 324.308C428.172 324.009 427.197 323.501 426.254 322.782C425.321 322.054 424.569 321.144 424 320.052C423.431 321.135 422.675 322.04 421.732 322.768C420.789 323.496 419.819 324.009 418.82 324.308C418.512 323.505 418.237 322.861 417.994 322.376C417.751 321.891 417.411 321.401 416.972 320.906C419.613 320.393 421.265 319.296 421.928 317.616H417.616V314.522H422.278L422.292 313.234L425.722 313.262L425.708 314.522H430.384V317.616H426.044ZM443.824 320.472C444.095 320.649 444.482 320.85 444.986 321.074C444.687 321.578 444.468 322.035 444.328 322.446C444.188 322.857 444.02 323.417 443.824 324.126C443.189 323.715 442.625 323.258 442.13 322.754C441.421 323.277 440.459 323.734 439.246 324.126C439.19 323.557 439.106 323.029 438.994 322.544C438.882 322.049 438.714 321.578 438.49 321.13C438.042 321.186 437.729 321.223 437.552 321.242C437.729 321.513 437.818 321.811 437.818 322.138C437.818 322.689 437.533 323.132 436.964 323.468C436.395 323.804 435.457 323.972 434.15 323.972C433.581 323.972 432.983 323.939 432.358 323.874C432.293 323.342 432.227 322.913 432.162 322.586C432.106 322.259 431.989 321.947 431.812 321.648C432.811 321.816 433.576 321.9 434.108 321.9C434.435 321.9 434.682 321.872 434.85 321.816C435.027 321.76 435.116 321.681 435.116 321.578V321.466C434.08 321.531 433.044 321.573 432.008 321.592L431.812 320.374C431.737 320.402 431.583 320.449 431.35 320.514C431.294 319.973 431.233 319.534 431.168 319.198C431.103 318.862 430.991 318.521 430.832 318.176C431.952 317.933 432.89 317.621 433.646 317.238H431.322V315.642H432.862V315.348H431.868V313.752H432.862V313.234H435.424V313.752H437.244V314.158L437.65 313.598L437.818 313.346L439.274 314.018C439.274 313.701 439.269 313.458 439.26 313.29H441.584L441.598 313.71H444.636V316.594H444.37C444.351 317.406 444.3 318.125 444.216 318.75C444.141 319.375 444.011 319.949 443.824 320.472ZM439.246 314.746C439.106 314.933 438.873 315.231 438.546 315.642H438.7V316.916C439.017 316.403 439.199 315.679 439.246 314.746ZM436.236 315.348H435.424V315.642H435.942L436.236 315.348ZM441.892 318.47C441.957 318.106 441.99 317.663 441.99 317.14C441.99 316.897 441.985 316.715 441.976 316.594H441.29L441.206 316.93C441.411 317.527 441.64 318.041 441.892 318.47ZM437.132 317.238L436.628 317.728H438.35V318.918C438.257 318.946 438.168 318.993 438.084 319.058C438.009 319.123 437.963 319.161 437.944 319.17L437.37 319.604L439.12 319.394C438.905 318.666 438.649 317.989 438.35 317.364L438.462 317.238H437.132ZM434.696 319.17C434.183 319.469 433.651 319.721 433.1 319.926C433.604 319.917 434.117 319.889 434.64 319.842L434.472 319.562C434.528 319.543 434.668 319.501 434.892 319.436C435.116 319.361 435.331 319.273 435.536 319.17H434.696ZM438.952 320.934C439.54 320.925 440.063 320.799 440.52 320.556C440.38 320.285 440.24 319.973 440.1 319.618C439.904 319.926 439.68 320.22 439.428 320.5L439.218 319.73L438.952 320.934ZM453.596 313.71H458.692V316.692H457.376V317.364H456.942C457.297 317.971 457.693 318.559 458.132 319.128C457.665 319.184 457.152 319.287 456.592 319.436C456.032 319.585 455.556 319.749 455.164 319.926C455.005 319.674 454.903 319.506 454.856 319.422L446.47 319.73C446.433 319.413 446.381 319.137 446.316 318.904C446.26 318.661 446.153 318.325 445.994 317.896L447.87 317.854L448.206 317.364H446.624V316.692H445.294V313.71H450.39V313.248H453.596V313.71ZM455.78 315.88V315.586H448.22V315.88H455.78ZM454.1 317.742L453.96 317.364H451.146L450.852 317.812L454.1 317.742ZM458.3 321.788H453.498V322.068H458.636V323.944H445.364V322.068H450.502V321.788H445.7V320.08H450.502V319.772H453.498V320.08H458.3V321.788Z" fill="black"/>
<path d="M187.116 334.992C187.116 335.264 187.041 335.469 186.892 335.608C186.748 335.741 186.452 335.837 186.004 335.896C185.561 335.955 184.868 335.984 183.924 335.984C183.903 335.707 183.863 335.472 183.804 335.28C183.751 335.088 183.673 334.915 183.572 334.76C183.417 334.936 183.241 335.096 183.044 335.24C182.74 335.464 182.364 335.645 181.916 335.784C181.473 335.917 180.911 336.035 180.228 336.136C180.111 335.869 179.983 335.624 179.844 335.4C179.705 335.171 179.524 334.941 179.3 334.712C179.828 334.691 180.327 334.645 180.796 334.576C181.271 334.507 181.655 334.413 181.948 334.296H179.804V333.184H182.708L182.724 332.984H180.012V329.992H187.012V332.984H184.324L184.3 333.184H187.116V334.992ZM182.716 331.208V330.992H181.7V331.208H182.716ZM184.308 331.208H185.324V330.992H184.308V331.208ZM182.716 331.776H181.7V331.984H182.716V331.776ZM184.308 331.776V331.984H185.324V331.776H184.308ZM184.94 334.528C185.095 334.512 185.185 334.435 185.212 334.296H183.916C183.841 334.413 183.783 334.499 183.74 334.552C184.407 334.552 184.807 334.544 184.94 334.528ZM195.292 332.096V333.68H192.868C192.996 333.835 193.084 333.992 193.132 334.152C193.18 334.312 193.204 334.491 193.204 334.688C193.204 335.077 193.041 335.387 192.716 335.616C192.396 335.84 192.007 335.963 191.548 335.984C191.447 335.989 191.295 335.992 191.092 335.992C190.665 335.992 190.017 335.944 189.148 335.848C189.148 335.496 189.135 335.192 189.108 334.936C189.081 334.675 189.015 334.371 188.908 334.024C189.676 334.232 190.279 334.336 190.716 334.336C190.956 334.336 191.127 334.307 191.228 334.248C191.329 334.184 191.38 334.107 191.38 334.016C191.38 333.931 191.375 333.819 191.364 333.68H187.708V332.096H191.084L190.852 331.84C191.193 331.829 191.503 331.739 191.78 331.568H188.236V330.024H194.972V331.504C194.999 331.531 194.943 331.56 194.804 331.592C194.671 331.624 194.596 331.643 194.58 331.648C193.903 331.872 193.412 332.021 193.108 332.096H195.292ZM183.268 344.584C183.087 344.872 182.948 345.157 182.852 345.44C182.756 345.717 182.649 346.083 182.532 346.536C181.433 346.141 180.143 345.795 178.66 345.496V348.04H176.404C176.441 347.144 176.463 346.248 176.468 345.352C176.479 344.456 176.484 343.336 176.484 341.992H178.66V343.648C179.364 343.733 180.132 343.861 180.964 344.032C181.801 344.203 182.569 344.387 183.268 344.584ZM191.468 342.744C191.105 343.224 190.745 343.621 190.388 343.936C190.036 344.245 189.615 344.525 189.124 344.776V347.968H186.908V345.472C186.167 345.605 185.22 345.712 184.068 345.792C184.025 345.376 183.975 345.016 183.916 344.712C183.863 344.408 183.767 344.091 183.628 343.76C184.471 343.765 185.215 343.739 185.86 343.68C186.505 343.621 187.036 343.515 187.452 343.36C188.311 343.035 188.977 342.544 189.452 341.888L191.468 342.744ZM197.828 342.808C198.068 343.101 198.316 343.357 198.572 343.576C198.833 343.795 199.127 344 199.452 344.192C198.887 345.104 198.116 345.912 197.14 346.616C196.169 347.315 194.956 347.795 193.5 348.056L192.012 347.008V342.128H194.164V345.848C194.884 345.683 195.559 345.344 196.188 344.832C196.823 344.32 197.369 343.645 197.828 342.808Z" fill="black"/>
<path d="M223.928 306.28C223.555 306.835 223.299 307.411 223.16 308.008C222.339 307.619 221.595 307.285 220.928 307.008C220.485 307.269 219.949 307.477 219.32 307.632C218.696 307.787 217.907 307.925 216.952 308.048C216.877 307.904 216.792 307.72 216.696 307.496C216.675 307.453 216.6 307.296 216.472 307.024C216.344 306.747 216.197 306.459 216.032 306.16C216.48 306.245 216.936 306.288 217.4 306.288C217.853 306.288 218.301 306.248 218.744 306.168C218.008 305.912 217.336 305.712 216.728 305.568C217.096 305.099 217.435 304.595 217.744 304.056H216.288V302.368H218.552C218.595 302.256 218.653 302.088 218.728 301.864L220.808 301.92L220.632 302.368H223.792V304.056H221.544L222.944 304.448C222.677 305.003 222.443 305.437 222.24 305.752L223.928 306.28ZM219.792 304.056L219.288 304.912C219.651 305.003 220.037 305.107 220.448 305.224C220.688 304.851 220.869 304.461 220.992 304.056H219.792ZM223.792 312.096V313.68H221.368C221.496 313.835 221.584 313.992 221.632 314.152C221.68 314.312 221.704 314.491 221.704 314.688C221.704 315.077 221.541 315.387 221.216 315.616C220.896 315.84 220.507 315.963 220.048 315.984C219.947 315.989 219.795 315.992 219.592 315.992C219.165 315.992 218.517 315.944 217.648 315.848C217.648 315.496 217.635 315.192 217.608 314.936C217.581 314.675 217.515 314.371 217.408 314.024C218.176 314.232 218.779 314.336 219.216 314.336C219.456 314.336 219.627 314.307 219.728 314.248C219.829 314.184 219.88 314.107 219.88 314.016C219.88 313.931 219.875 313.819 219.864 313.68H216.208V312.096H219.584L219.352 311.84C219.693 311.829 220.003 311.739 220.28 311.568H216.736V310.024H223.472V311.504C223.499 311.531 223.443 311.56 223.304 311.592C223.171 311.624 223.096 311.643 223.08 311.648C222.403 311.872 221.912 312.021 221.608 312.096H223.792ZM223.768 320.584C223.587 320.872 223.448 321.157 223.352 321.44C223.256 321.717 223.149 322.083 223.032 322.536C221.933 322.141 220.643 321.795 219.16 321.496V324.04H216.904C216.941 323.144 216.963 322.248 216.968 321.352C216.979 320.456 216.984 319.336 216.984 317.992H219.16V319.648C219.864 319.733 220.632 319.861 221.464 320.032C222.301 320.203 223.069 320.387 223.768 320.584ZM223.968 326.744C223.605 327.224 223.245 327.621 222.888 327.936C222.536 328.245 222.115 328.525 221.624 328.776V331.968H219.408V329.472C218.667 329.605 217.72 329.712 216.568 329.792C216.525 329.376 216.475 329.016 216.416 328.712C216.363 328.408 216.267 328.091 216.128 327.76C216.971 327.765 217.715 327.739 218.36 327.68C219.005 327.621 219.536 327.515 219.952 327.36C220.811 327.035 221.477 326.544 221.952 325.888L223.968 326.744ZM222.328 334.808C222.568 335.101 222.816 335.357 223.072 335.576C223.333 335.795 223.627 336 223.952 336.192C223.387 337.104 222.616 337.912 221.64 338.616C220.669 339.315 219.456 339.795 218 340.056L216.512 339.008V334.128H218.664V337.848C219.384 337.683 220.059 337.344 220.688 336.832C221.323 336.32 221.869 335.645 222.328 334.808Z" fill="black"/>
<path d="M388.536 108.84C389.144 108.84 389.595 108.891 389.888 108.992C390.181 109.088 390.381 109.267 390.488 109.528C390.6 109.789 390.656 110.192 390.656 110.736C390.656 111.435 390.645 111.957 390.624 112.304C390.603 112.645 390.56 112.907 390.496 113.088C390.437 113.269 390.344 113.429 390.216 113.568C390.077 113.717 389.824 113.835 389.456 113.92C389.088 114 388.565 114.059 387.888 114.096C387.803 113.509 387.693 113.053 387.56 112.728C387.443 113.091 387.285 113.52 387.088 114.016C386.416 113.776 385.723 113.589 385.008 113.456C385.349 112.944 385.616 112.464 385.808 112.016C386 111.563 386.141 111.064 386.232 110.52L385.248 110.616C385.259 110.019 385.187 109.456 385.032 108.928C385.608 108.907 386.056 108.893 386.376 108.888C386.381 108.68 386.384 108.349 386.384 107.896H388.352C388.341 108.157 388.32 108.472 388.288 108.84H388.536ZM392.16 108.264C392.4 109.08 392.573 109.776 392.68 110.352C392.787 110.928 392.88 111.688 392.96 112.632L391.08 112.896C391.053 112.011 390.981 111.243 390.864 110.592C390.752 109.941 390.563 109.211 390.296 108.4L392.16 108.264ZM388.68 112.216C388.749 112.163 388.803 112.037 388.84 111.84C388.883 111.643 388.904 111.389 388.904 111.08C388.904 110.861 388.891 110.707 388.864 110.616C388.843 110.525 388.795 110.467 388.72 110.44C388.651 110.408 388.528 110.392 388.352 110.392C388.251 110.392 388.168 110.395 388.104 110.4C387.992 111.093 387.856 111.712 387.696 112.256C387.925 112.283 388.107 112.296 388.24 112.296C388.475 112.296 388.621 112.269 388.68 112.216ZM398.72 113.328C398.597 112.261 398.413 111.347 398.168 110.584C397.923 109.816 397.605 109.099 397.216 108.432L399.088 108.152C399.525 108.824 399.877 109.509 400.144 110.208C400.411 110.907 400.653 111.784 400.872 112.84L398.72 113.328ZM397.352 112.536C397.027 112.915 396.608 113.237 396.096 113.504C395.589 113.771 395.117 113.904 394.68 113.904C394.435 113.904 394.203 113.848 393.984 113.736C393.771 113.624 393.592 113.445 393.448 113.2C393.309 112.949 393.237 112.632 393.232 112.248C393.227 111.709 393.259 111.219 393.328 110.776C393.397 110.328 393.517 109.725 393.688 108.968L393.832 108.336L395.976 108.432C395.789 109.072 395.651 109.587 395.56 109.976C395.469 110.365 395.384 110.845 395.304 111.416C395.293 111.512 395.288 111.573 395.288 111.6C395.288 111.712 395.315 111.768 395.368 111.768C395.443 111.768 395.576 111.664 395.768 111.456C395.965 111.248 396.261 110.896 396.656 110.4C396.72 110.88 396.805 111.288 396.912 111.624C397.024 111.955 397.171 112.259 397.352 112.536ZM408.064 108.488C407.947 108.104 407.771 107.717 407.536 107.328L408.272 107.136C408.512 107.515 408.693 107.901 408.816 108.296L408.064 108.488ZM407.096 108.728C406.979 108.344 406.803 107.96 406.568 107.576L407.304 107.384C407.533 107.752 407.712 108.139 407.84 108.544L407.096 108.728ZM405.368 109.848L404.376 109.92C404.205 110.757 403.944 111.525 403.592 112.224C403.245 112.923 402.816 113.52 402.304 114.016C402.08 113.605 401.867 113.267 401.664 113C401.461 112.733 401.248 112.496 401.024 112.288C401.387 112 401.677 111.675 401.896 111.312C402.115 110.944 402.285 110.499 402.408 109.976H401.672L401.656 108.384L402.64 108.376L402.672 107.888H404.6C404.6 107.984 404.595 108.123 404.584 108.304C405.128 108.267 405.565 108.232 405.896 108.2V109.152C406.632 109.035 407.373 108.976 408.12 108.976H408.408L408.632 110.656C408.541 110.651 408.403 110.648 408.216 110.648C407.341 110.648 406.392 110.739 405.368 110.92V109.848ZM405.76 111.248C405.723 111.472 405.704 111.629 405.704 111.72C405.704 111.933 405.752 112.077 405.848 112.152C405.944 112.227 406.096 112.264 406.304 112.264C406.683 112.264 407.107 112.235 407.576 112.176C408.051 112.117 408.411 112.045 408.656 111.96C408.512 112.408 408.411 113.037 408.352 113.848C408.128 113.901 407.861 113.944 407.552 113.976C407.243 114.003 406.928 114.016 406.608 114.016C406.464 114.016 406.275 114.011 406.04 114C404.648 113.925 403.952 113.475 403.952 112.648C403.952 112.344 404.045 111.989 404.232 111.584C404.563 111.547 404.861 111.499 405.128 111.44C405.4 111.376 405.611 111.312 405.76 111.248ZM416.896 110.792C416.917 111.411 416.805 111.965 416.56 112.456C416.32 112.941 415.984 113.323 415.552 113.6C415.125 113.872 414.656 114.008 414.144 114.008C413.573 114.008 413.149 113.896 412.872 113.672C412.595 113.443 412.456 113.101 412.456 112.648C412.456 112.595 412.461 112.499 412.472 112.36C412.493 112.157 412.504 112.021 412.504 111.952C412.504 111.803 412.483 111.691 412.44 111.616C412.397 111.536 412.325 111.496 412.224 111.496C412.091 111.496 411.965 111.573 411.848 111.728C411.736 111.883 411.645 112.123 411.576 112.448L411.256 113.96C411.181 113.949 411.123 113.944 411.08 113.944C410.259 113.853 409.613 113.811 409.144 113.816C409.293 113.144 409.597 112.163 410.056 110.872C410.515 109.581 410.915 108.533 411.256 107.728L413.544 107.952C413.416 108.197 413.272 108.456 413.112 108.728C412.904 109.101 412.741 109.397 412.624 109.616C412.512 109.835 412.411 110.064 412.32 110.304C412.677 110.197 412.963 110.144 413.176 110.144C413.528 110.144 413.813 110.237 414.032 110.424C414.251 110.611 414.36 110.861 414.36 111.176C414.36 111.299 414.349 111.411 414.328 111.512C414.307 111.613 414.277 111.725 414.24 111.848C414.208 111.965 414.192 112.032 414.192 112.048C414.192 112.096 414.216 112.12 414.264 112.12C414.403 112.12 414.517 112.083 414.608 112.008C414.699 111.933 414.779 111.773 414.848 111.528C414.923 111.283 414.989 110.907 415.048 110.4C415.331 110.549 415.621 110.653 415.92 110.712C416.224 110.765 416.549 110.792 416.896 110.792Z" fill="black"/>
<path d="M388.536 243.84C389.144 243.84 389.595 243.891 389.888 243.992C390.181 244.088 390.381 244.267 390.488 244.528C390.6 244.789 390.656 245.192 390.656 245.736C390.656 246.435 390.645 246.957 390.624 247.304C390.603 247.645 390.56 247.907 390.496 248.088C390.437 248.269 390.344 248.429 390.216 248.568C390.077 248.717 389.824 248.835 389.456 248.92C389.088 249 388.565 249.059 387.888 249.096C387.803 248.509 387.693 248.053 387.56 247.728C387.443 248.091 387.285 248.52 387.088 249.016C386.416 248.776 385.723 248.589 385.008 248.456C385.349 247.944 385.616 247.464 385.808 247.016C386 246.563 386.141 246.064 386.232 245.52L385.248 245.616C385.259 245.019 385.187 244.456 385.032 243.928C385.608 243.907 386.056 243.893 386.376 243.888C386.381 243.68 386.384 243.349 386.384 242.896H388.352C388.341 243.157 388.32 243.472 388.288 243.84H388.536ZM392.16 243.264C392.4 244.08 392.573 244.776 392.68 245.352C392.787 245.928 392.88 246.688 392.96 247.632L391.08 247.896C391.053 247.011 390.981 246.243 390.864 245.592C390.752 244.941 390.563 244.211 390.296 243.4L392.16 243.264ZM388.68 247.216C388.749 247.163 388.803 247.037 388.84 246.84C388.883 246.643 388.904 246.389 388.904 246.08C388.904 245.861 388.891 245.707 388.864 245.616C388.843 245.525 388.795 245.467 388.72 245.44C388.651 245.408 388.528 245.392 388.352 245.392C388.251 245.392 388.168 245.395 388.104 245.4C387.992 246.093 387.856 246.712 387.696 247.256C387.925 247.283 388.107 247.296 388.24 247.296C388.475 247.296 388.621 247.269 388.68 247.216ZM398.72 248.328C398.597 247.261 398.413 246.347 398.168 245.584C397.923 244.816 397.605 244.099 397.216 243.432L399.088 243.152C399.525 243.824 399.877 244.509 400.144 245.208C400.411 245.907 400.653 246.784 400.872 247.84L398.72 248.328ZM397.352 247.536C397.027 247.915 396.608 248.237 396.096 248.504C395.589 248.771 395.117 248.904 394.68 248.904C394.435 248.904 394.203 248.848 393.984 248.736C393.771 248.624 393.592 248.445 393.448 248.2C393.309 247.949 393.237 247.632 393.232 247.248C393.227 246.709 393.259 246.219 393.328 245.776C393.397 245.328 393.517 244.725 393.688 243.968L393.832 243.336L395.976 243.432C395.789 244.072 395.651 244.587 395.56 244.976C395.469 245.365 395.384 245.845 395.304 246.416C395.293 246.512 395.288 246.573 395.288 246.6C395.288 246.712 395.315 246.768 395.368 246.768C395.443 246.768 395.576 246.664 395.768 246.456C395.965 246.248 396.261 245.896 396.656 245.4C396.72 245.88 396.805 246.288 396.912 246.624C397.024 246.955 397.171 247.259 397.352 247.536ZM408.064 243.488C407.947 243.104 407.771 242.717 407.536 242.328L408.272 242.136C408.512 242.515 408.693 242.901 408.816 243.296L408.064 243.488ZM407.096 243.728C406.979 243.344 406.803 242.96 406.568 242.576L407.304 242.384C407.533 242.752 407.712 243.139 407.84 243.544L407.096 243.728ZM405.368 244.848L404.376 244.92C404.205 245.757 403.944 246.525 403.592 247.224C403.245 247.923 402.816 248.52 402.304 249.016C402.08 248.605 401.867 248.267 401.664 248C401.461 247.733 401.248 247.496 401.024 247.288C401.387 247 401.677 246.675 401.896 246.312C402.115 245.944 402.285 245.499 402.408 244.976H401.672L401.656 243.384L402.64 243.376L402.672 242.888H404.6C404.6 242.984 404.595 243.123 404.584 243.304C405.128 243.267 405.565 243.232 405.896 243.2V244.152C406.632 244.035 407.373 243.976 408.12 243.976H408.408L408.632 245.656C408.541 245.651 408.403 245.648 408.216 245.648C407.341 245.648 406.392 245.739 405.368 245.92V244.848ZM405.76 246.248C405.723 246.472 405.704 246.629 405.704 246.72C405.704 246.933 405.752 247.077 405.848 247.152C405.944 247.227 406.096 247.264 406.304 247.264C406.683 247.264 407.107 247.235 407.576 247.176C408.051 247.117 408.411 247.045 408.656 246.96C408.512 247.408 408.411 248.037 408.352 248.848C408.128 248.901 407.861 248.944 407.552 248.976C407.243 249.003 406.928 249.016 406.608 249.016C406.464 249.016 406.275 249.011 406.04 249C404.648 248.925 403.952 248.475 403.952 247.648C403.952 247.344 404.045 246.989 404.232 246.584C404.563 246.547 404.861 246.499 405.128 246.44C405.4 246.376 405.611 246.312 405.76 246.248ZM416.896 245.792C416.917 246.411 416.805 246.965 416.56 247.456C416.32 247.941 415.984 248.323 415.552 248.6C415.125 248.872 414.656 249.008 414.144 249.008C413.573 249.008 413.149 248.896 412.872 248.672C412.595 248.443 412.456 248.101 412.456 247.648C412.456 247.595 412.461 247.499 412.472 247.36C412.493 247.157 412.504 247.021 412.504 246.952C412.504 246.803 412.483 246.691 412.44 246.616C412.397 246.536 412.325 246.496 412.224 246.496C412.091 246.496 411.965 246.573 411.848 246.728C411.736 246.883 411.645 247.123 411.576 247.448L411.256 248.96C411.181 248.949 411.123 248.944 411.08 248.944C410.259 248.853 409.613 248.811 409.144 248.816C409.293 248.144 409.597 247.163 410.056 245.872C410.515 244.581 410.915 243.533 411.256 242.728L413.544 242.952C413.416 243.197 413.272 243.456 413.112 243.728C412.904 244.101 412.741 244.397 412.624 244.616C412.512 244.835 412.411 245.064 412.32 245.304C412.677 245.197 412.963 245.144 413.176 245.144C413.528 245.144 413.813 245.237 414.032 245.424C414.251 245.611 414.36 245.861 414.36 246.176C414.36 246.299 414.349 246.411 414.328 246.512C414.307 246.613 414.277 246.725 414.24 246.848C414.208 246.965 414.192 247.032 414.192 247.048C414.192 247.096 414.216 247.12 414.264 247.12C414.403 247.12 414.517 247.083 414.608 247.008C414.699 246.933 414.779 246.773 414.848 246.528C414.923 246.283 414.989 245.907 415.048 245.4C415.331 245.549 415.621 245.653 415.92 245.712C416.224 245.765 416.549 245.792 416.896 245.792Z" fill="black"/>
<path d="M174.536 182.84C175.144 182.84 175.595 182.891 175.888 182.992C176.181 183.088 176.381 183.267 176.488 183.528C176.6 183.789 176.656 184.192 176.656 184.736C176.656 185.435 176.645 185.957 176.624 186.304C176.603 186.645 176.56 186.907 176.496 187.088C176.437 187.269 176.344 187.429 176.216 187.568C176.077 187.717 175.824 187.835 175.456 187.92C175.088 188 174.565 188.059 173.888 188.096C173.803 187.509 173.693 187.053 173.56 186.728C173.443 187.091 173.285 187.52 173.088 188.016C172.416 187.776 171.723 187.589 171.008 187.456C171.349 186.944 171.616 186.464 171.808 186.016C172 185.563 172.141 185.064 172.232 184.52L171.248 184.616C171.259 184.019 171.187 183.456 171.032 182.928C171.608 182.907 172.056 182.893 172.376 182.888C172.381 182.68 172.384 182.349 172.384 181.896H174.352C174.341 182.157 174.32 182.472 174.288 182.84H174.536ZM178.16 182.264C178.4 183.08 178.573 183.776 178.68 184.352C178.787 184.928 178.88 185.688 178.96 186.632L177.08 186.896C177.053 186.011 176.981 185.243 176.864 184.592C176.752 183.941 176.563 183.211 176.296 182.4L178.16 182.264ZM174.68 186.216C174.749 186.163 174.803 186.037 174.84 185.84C174.883 185.643 174.904 185.389 174.904 185.08C174.904 184.861 174.891 184.707 174.864 184.616C174.843 184.525 174.795 184.467 174.72 184.44C174.651 184.408 174.528 184.392 174.352 184.392C174.251 184.392 174.168 184.395 174.104 184.4C173.992 185.093 173.856 185.712 173.696 186.256C173.925 186.283 174.107 186.296 174.24 186.296C174.475 186.296 174.621 186.269 174.68 186.216ZM184.72 187.328C184.597 186.261 184.413 185.347 184.168 184.584C183.923 183.816 183.605 183.099 183.216 182.432L185.088 182.152C185.525 182.824 185.877 183.509 186.144 184.208C186.411 184.907 186.653 185.784 186.872 186.84L184.72 187.328ZM183.352 186.536C183.027 186.915 182.608 187.237 182.096 187.504C181.589 187.771 181.117 187.904 180.68 187.904C180.435 187.904 180.203 187.848 179.984 187.736C179.771 187.624 179.592 187.445 179.448 187.2C179.309 186.949 179.237 186.632 179.232 186.248C179.227 185.709 179.259 185.219 179.328 184.776C179.397 184.328 179.517 183.725 179.688 182.968L179.832 182.336L181.976 182.432C181.789 183.072 181.651 183.587 181.56 183.976C181.469 184.365 181.384 184.845 181.304 185.416C181.293 185.512 181.288 185.573 181.288 185.6C181.288 185.712 181.315 185.768 181.368 185.768C181.443 185.768 181.576 185.664 181.768 185.456C181.965 185.248 182.261 184.896 182.656 184.4C182.72 184.88 182.805 185.288 182.912 185.624C183.024 185.955 183.171 186.259 183.352 186.536ZM194.064 182.488C193.947 182.104 193.771 181.717 193.536 181.328L194.272 181.136C194.512 181.515 194.693 181.901 194.816 182.296L194.064 182.488ZM193.096 182.728C192.979 182.344 192.803 181.96 192.568 181.576L193.304 181.384C193.533 181.752 193.712 182.139 193.84 182.544L193.096 182.728ZM191.368 183.848L190.376 183.92C190.205 184.757 189.944 185.525 189.592 186.224C189.245 186.923 188.816 187.52 188.304 188.016C188.08 187.605 187.867 187.267 187.664 187C187.461 186.733 187.248 186.496 187.024 186.288C187.387 186 187.677 185.675 187.896 185.312C188.115 184.944 188.285 184.499 188.408 183.976H187.672L187.656 182.384L188.64 182.376L188.672 181.888H190.6C190.6 181.984 190.595 182.123 190.584 182.304C191.128 182.267 191.565 182.232 191.896 182.2V183.152C192.632 183.035 193.373 182.976 194.12 182.976H194.408L194.632 184.656C194.541 184.651 194.403 184.648 194.216 184.648C193.341 184.648 192.392 184.739 191.368 184.92V183.848ZM191.76 185.248C191.723 185.472 191.704 185.629 191.704 185.72C191.704 185.933 191.752 186.077 191.848 186.152C191.944 186.227 192.096 186.264 192.304 186.264C192.683 186.264 193.107 186.235 193.576 186.176C194.051 186.117 194.411 186.045 194.656 185.96C194.512 186.408 194.411 187.037 194.352 187.848C194.128 187.901 193.861 187.944 193.552 187.976C193.243 188.003 192.928 188.016 192.608 188.016C192.464 188.016 192.275 188.011 192.04 188C190.648 187.925 189.952 187.475 189.952 186.648C189.952 186.344 190.045 185.989 190.232 185.584C190.563 185.547 190.861 185.499 191.128 185.44C191.4 185.376 191.611 185.312 191.76 185.248ZM202.896 184.792C202.917 185.411 202.805 185.965 202.56 186.456C202.32 186.941 201.984 187.323 201.552 187.6C201.125 187.872 200.656 188.008 200.144 188.008C199.573 188.008 199.149 187.896 198.872 187.672C198.595 187.443 198.456 187.101 198.456 186.648C198.456 186.595 198.461 186.499 198.472 186.36C198.493 186.157 198.504 186.021 198.504 185.952C198.504 185.803 198.483 185.691 198.44 185.616C198.397 185.536 198.325 185.496 198.224 185.496C198.091 185.496 197.965 185.573 197.848 185.728C197.736 185.883 197.645 186.123 197.576 186.448L197.256 187.96C197.181 187.949 197.123 187.944 197.08 187.944C196.259 187.853 195.613 187.811 195.144 187.816C195.293 187.144 195.597 186.163 196.056 184.872C196.515 183.581 196.915 182.533 197.256 181.728L199.544 181.952C199.416 182.197 199.272 182.456 199.112 182.728C198.904 183.101 198.741 183.397 198.624 183.616C198.512 183.835 198.411 184.064 198.32 184.304C198.677 184.197 198.963 184.144 199.176 184.144C199.528 184.144 199.813 184.237 200.032 184.424C200.251 184.611 200.36 184.861 200.36 185.176C200.36 185.299 200.349 185.411 200.328 185.512C200.307 185.613 200.277 185.725 200.24 185.848C200.208 185.965 200.192 186.032 200.192 186.048C200.192 186.096 200.216 186.12 200.264 186.12C200.403 186.12 200.517 186.083 200.608 186.008C200.699 185.933 200.779 185.773 200.848 185.528C200.923 185.283 200.989 184.907 201.048 184.4C201.331 184.549 201.621 184.653 201.92 184.712C202.224 184.765 202.549 184.792 202.896 184.792Z" fill="black"/>
<path d="M75.0533 245.56C76.4933 245.528 77.5573 245.496 78.2453 245.464V250H65.5493V245.464C67.2773 245.528 68.5813 245.56 69.4613 245.56V237.28C68.8853 238.544 67.7093 239.36 65.9333 239.728C65.8853 237.84 65.7093 236.12 65.4053 234.568C66.6853 234.392 67.5733 234.176 68.0693 233.92C68.5813 233.648 68.9733 233.352 69.2453 233.032C69.5333 232.712 69.7253 232.496 69.8213 232.384V232.336H75.0533V245.56ZM96.8667 240.232H101.403V250.024H96.9867V249.592H92.5467V250.024H88.1067V246.184C87.8507 247.08 87.4107 247.76 86.7867 248.224C86.1627 248.688 85.3947 248.904 84.4827 248.872C84.2587 247.24 83.9627 246.024 83.5947 245.224V249.904H79.4907V231.976H87.3627L88.4667 235.48L88.1067 236.536L88.7307 236.512V231.592H92.8347V232.48H94.3947V235.264H92.8347V236.104L94.2267 235.84L94.4907 238.96C94.2507 239.024 94.0427 239.064 93.8667 239.08L95.2587 239.176C95.0987 239.064 94.9867 238.912 94.9227 238.72C94.8747 238.512 94.8507 238.224 94.8507 237.856V231.592H98.9787V232.456L101.475 232.288V234.952L98.9787 235.048V235.768C98.9787 235.944 99.0027 236.064 99.0507 236.128C99.0987 236.176 99.1787 236.2 99.2907 236.2C99.4187 236.2 99.4827 236.12 99.4827 235.96C99.4827 235.816 99.4347 235.568 99.3387 235.216C99.6587 235.36 99.9787 235.456 100.299 235.504C100.619 235.552 101.131 235.608 101.835 235.672C101.803 236.824 101.747 237.64 101.667 238.12C101.603 238.584 101.483 238.904 101.307 239.08C101.131 239.256 100.819 239.392 100.371 239.488C100.083 239.536 99.5227 239.56 98.6907 239.56C97.9707 239.56 97.4507 239.552 97.1307 239.536L96.8667 240.232ZM83.5947 236.032V238.864C84.0747 237.76 84.3227 236.816 84.3387 236.032H83.5947ZM86.8587 240.04C87.4827 241.08 87.8987 242 88.1067 242.8V240.232H92.4987L92.8347 239.272C91.6507 239.448 90.2187 239.616 88.5387 239.776L87.9627 239.848L87.4347 238.528C87.1787 239.232 86.9867 239.736 86.8587 240.04ZM83.5947 244.408C83.8027 244.312 83.9627 244.168 84.0747 243.976C84.2027 243.784 84.2667 243.552 84.2667 243.28C84.2667 242.768 84.0427 242.152 83.5947 241.432V244.408ZM92.5467 243.856H96.9867V243.352H92.5467V243.856ZM92.5467 246.544H96.9867V246.04H92.5467V246.544Z" fill="black"/>
<path d="M68.4645 114.8C73.6645 114.512 77.6965 114.192 80.5605 113.84C80.2885 114.672 80.0805 115.552 79.9365 116.48C79.7925 117.408 79.7205 118.248 79.7205 119H62.5605L62.5365 118.496C62.5365 116.928 62.9925 115.568 63.9045 114.416C64.8325 113.264 66.1205 112.2 67.7685 111.224C68.2485 110.936 69.0005 110.568 70.0245 110.12C71.3525 109.544 72.3765 109.04 73.0965 108.608C73.8165 108.16 74.1765 107.72 74.1765 107.288C74.1765 106.744 73.9525 106.312 73.5045 105.992C73.0565 105.672 72.3605 105.512 71.4165 105.512C70.3765 105.512 69.5845 105.776 69.0405 106.304C68.5125 106.832 68.2485 107.504 68.2485 108.32C68.2485 108.576 68.2725 108.84 68.3205 109.112C66.3045 108.856 64.3445 108.68 62.4405 108.584C62.4405 107.224 62.7925 106 63.4965 104.912C64.2165 103.808 65.2885 102.936 66.7125 102.296C68.1525 101.656 69.9125 101.336 71.9925 101.336C73.8965 101.336 75.4805 101.6 76.7445 102.128C78.0245 102.64 78.9605 103.296 79.5525 104.096C80.1605 104.88 80.4645 105.688 80.4645 106.52C80.4645 107.48 80.2485 108.304 79.8165 108.992C79.4005 109.68 78.7925 110.296 77.9925 110.84C77.2085 111.368 76.1525 111.944 74.8245 112.568C74.6325 112.664 74.3205 112.776 73.8885 112.904C73.4565 113.016 73.1845 113.088 73.0725 113.12C71.9365 113.456 71.0325 113.736 70.3605 113.96C69.6885 114.184 69.0565 114.464 68.4645 114.8ZM99.8315 109.232H104.368V119.024H99.9515V118.592H95.5115V119.024H91.0715V115.184C90.8155 116.08 90.3755 116.76 89.7515 117.224C89.1275 117.688 88.3595 117.904 87.4475 117.872C87.2235 116.24 86.9275 115.024 86.5595 114.224V118.904H82.4555V100.976H90.3275L91.4315 104.48L91.0715 105.536L91.6955 105.512V100.592H95.7995V101.48H97.3595V104.264H95.7995V105.104L97.1915 104.84L97.4555 107.96C97.2155 108.024 97.0075 108.064 96.8315 108.08L98.2235 108.176C98.0635 108.064 97.9515 107.912 97.8875 107.72C97.8395 107.512 97.8155 107.224 97.8155 106.856V100.592H101.944V101.456L104.44 101.288V103.952L101.944 104.048V104.768C101.944 104.944 101.968 105.064 102.016 105.128C102.064 105.176 102.144 105.2 102.256 105.2C102.384 105.2 102.448 105.12 102.448 104.96C102.448 104.816 102.4 104.568 102.304 104.216C102.624 104.36 102.944 104.456 103.264 104.504C103.584 104.552 104.096 104.608 104.8 104.672C104.768 105.824 104.712 106.64 104.632 107.12C104.568 107.584 104.448 107.904 104.272 108.08C104.096 108.256 103.784 108.392 103.336 108.488C103.048 108.536 102.488 108.56 101.656 108.56C100.936 108.56 100.416 108.552 100.096 108.536L99.8315 109.232ZM86.5595 105.032V107.864C87.0395 106.76 87.2875 105.816 87.3035 105.032H86.5595ZM89.8235 109.04C90.4475 110.08 90.8635 111 91.0715 111.8V109.232H95.4635L95.7995 108.272C94.6155 108.448 93.1835 108.616 91.5035 108.776L90.9275 108.848L90.3995 107.528C90.1435 108.232 89.9515 108.736 89.8235 109.04ZM86.5595 113.408C86.7675 113.312 86.9275 113.168 87.0395 112.976C87.1675 112.784 87.2315 112.552 87.2315 112.28C87.2315 111.768 87.0075 111.152 86.5595 110.432V113.408ZM95.5115 112.856H99.9515V112.352H95.5115V112.856ZM95.5115 115.544H99.9515V115.04H95.5115V115.544Z" fill="black"/>
<path d="M18.036 42.36C15.492 42.36 13.152 41.736 11.016 40.488C8.88 39.216 7.176 37.512 5.904 35.376C4.656 33.24 4.032 30.9 4.032 28.356C4.032 25.812 4.656 23.472 5.904 21.336C7.176 19.2 8.88 17.508 11.016 16.26C13.152 15.012 15.492 14.388 18.036 14.388C20.556 14.388 22.884 15.012 25.02 16.26C27.18 17.508 28.884 19.2 30.132 21.336C31.38 23.472 32.004 25.812 32.004 28.356C32.004 30.9 31.38 33.24 30.132 35.376C28.884 37.512 27.18 39.216 25.02 40.488C22.884 41.736 20.556 42.36 18.036 42.36ZM53.928 23.604C56.664 23.604 58.956 23.988 60.804 24.756C62.676 25.5 64.068 26.52 64.98 27.816C65.916 29.088 66.384 30.516 66.384 32.1C66.384 35.7 65.124 38.316 62.604 39.948C60.108 41.556 56.76 42.36 52.56 42.36C49.032 42.36 45.924 41.772 43.236 40.596C40.572 39.396 38.64 37.392 37.44 34.584C38.76 34.392 40.2 34.08 41.76 33.648C43.344 33.216 44.772 32.772 46.044 32.316C46.548 33.348 47.256 34.104 48.168 34.584C49.08 35.04 50.304 35.268 51.84 35.268C53.472 35.268 54.816 35.004 55.872 34.476C56.952 33.948 57.492 33.216 57.492 32.28C57.492 31.32 57.024 30.516 56.088 29.868C55.152 29.22 53.724 28.896 51.804 28.896C50.556 28.896 49.416 29.124 48.384 29.58C47.352 30.012 46.608 30.636 46.152 31.452H37.836C38.412 28.98 38.916 26.316 39.348 23.46C39.804 20.604 40.08 18.072 40.176 15.864H65.448V22.848C62.784 22.68 60.264 22.584 57.888 22.56C55.536 22.512 52.236 22.488 47.988 22.488L47.628 24.504C49.452 23.904 51.552 23.604 53.928 23.604ZM70.3724 14.964H101.26V24.468H70.3724V14.964ZM80.0564 20.256H91.6124V19.104H80.0564V20.256ZM102.772 29.904H78.8324C78.7844 30.24 78.7364 30.492 78.6884 30.66H101.404C101.404 32.964 101.284 34.8 101.044 36.168C100.804 37.512 100.264 38.652 99.4244 39.588C98.6084 40.5 97.3364 41.16 95.6084 41.568C94.6484 41.808 93.4124 41.964 91.9004 42.036C90.3884 42.132 88.4804 42.18 86.1764 42.18C85.0244 42.18 82.9364 42.156 79.9124 42.108L75.4844 42.072C74.9804 40.104 74.4404 38.532 73.8644 37.356L69.1124 36.672C69.8804 34.488 70.4444 32.232 70.8044 29.904H68.6804V25.116H102.772V29.904ZM77.6444 35.376L77.4284 36.132C81.3164 36.252 84.2924 36.312 86.3564 36.312C88.3004 36.312 89.8124 36.252 90.8924 36.132C92.2844 36.012 93.1844 35.76 93.5924 35.376H77.6444ZM137.98 31.344H128.332V32.1H138.556V42.072H132.148V41.568H128.332V42.072H122.14V38.076C121.396 39.108 120.544 40.56 119.584 42.432C118.096 41.424 117.028 40.644 116.38 40.092C115.228 40.356 112.72 40.884 108.856 41.676C106.792 42.084 105.796 42.276 105.868 42.252C105.556 40.836 105.256 39.636 104.968 38.652C104.704 37.644 104.344 36.6 103.888 35.52C104.272 35.544 104.872 35.556 105.688 35.556V25.404L104.752 25.908C104.68 24.804 104.5 23.64 104.212 22.416C103.924 21.168 103.552 20.028 103.096 18.996C104.608 18.66 106.108 18.048 107.596 17.16C109.108 16.248 110.236 15.324 110.98 14.388H118.036C117.796 14.82 117.52 15.276 117.208 15.756C118.432 16.38 119.692 16.944 120.988 17.448V16.296H125.956V14.532H133.048V16.296H139.096V24.432H137.98V31.344ZM115.696 20.256L114.436 19.14L113.248 20.256H115.696ZM120.988 22.704V20.904C120.58 21.528 120.232 22.128 119.944 22.704H120.988ZM132.688 21.804V21.084H127.144V21.804H132.688ZM111.916 21.372C111.052 22.02 110.44 22.464 110.08 22.704H111.916V21.372ZM118.576 22.704L116.992 21.408V22.704H118.576ZM118.108 34.08C119.572 35.16 120.916 36.06 122.14 36.78V24.432H120.988V34.08H118.108ZM115.084 25.476H111.988V26.34H115.084V25.476ZM128.332 27.06H131.536V25.944H128.332V27.06ZM111.988 29.4V30.264H115.084V29.4H111.988ZM116.452 34.08H111.988V35.34C113.452 35.196 114.772 35.016 115.948 34.8L116.452 34.08ZM132.148 37.104V35.988H128.332V37.104H132.148Z" fill="black"/>
</svg>
