<svg width="596" height="842" viewBox="0 0 596 842" fill="none" xmlns="http://www.w3.org/2000/svg">
<path d="M292.874 692.765V608.765" stroke="black" stroke-width="1.43" stroke-miterlimit="10"/>
<path d="M329.354 692.765V608.765" stroke="black" stroke-width="1.43" stroke-miterlimit="10"/>
<path d="M111.199 710.046H366.549" stroke="black" stroke-width="1.44" stroke-miterlimit="10"/>
<path d="M438.799 692.765V608.765" stroke="black" stroke-width="1.439" stroke-miterlimit="10"/>
<path d="M220.639 728.045H257.109" stroke="black" stroke-width="1.44" stroke-miterlimit="10"/>
<path d="M110.479 758.765V607.325" stroke="black" stroke-width="1.44" stroke-miterlimit="10"/>
<path d="M292.874 758.765V710.765" stroke="black" stroke-width="1.43" stroke-miterlimit="10"/>
<path d="M438.799 758.765V710.045" stroke="black" stroke-width="1.439" stroke-miterlimit="10"/>
<path d="M475.28 758.765V608.765" stroke="black" stroke-width="1.44" stroke-miterlimit="10"/>
<path d="M219.919 758.765V710.765" stroke="black" stroke-width="1.44" stroke-miterlimit="10"/>
<path d="M256.394 758.765V710.765" stroke="black" stroke-width="1.43" stroke-miterlimit="10"/>
<path d="M365.839 758.765V710.765" stroke="black" stroke-width="1.439" stroke-miterlimit="10"/>
<path d="M388.639 758.765V709.325" stroke="black" stroke-width="1.439" stroke-miterlimit="10"/>
<path d="M397.759 728.765V710.765" stroke="black" stroke-width="1.439" stroke-miterlimit="10"/>
<path d="M415.999 728.765V710.765" stroke="black" stroke-width="1.439" stroke-miterlimit="10"/>
<path d="M429.679 740.155V710.765" stroke="black" stroke-width="1.439" stroke-miterlimit="10"/>
<path d="M146.959 692.765V608.765" stroke="black" stroke-width="1.44" stroke-miterlimit="10"/>
<path d="M329.354 758.765V710.765" stroke="black" stroke-width="1.43" stroke-miterlimit="10"/>
<path d="M111.199 608.046H475.999" stroke="black" stroke-width="1.44" stroke-miterlimit="10"/>
<path d="M293.599 674.046H330.079" stroke="black" stroke-width="1.44" stroke-miterlimit="10"/>
<path d="M111.199 692.046H439.519" stroke="black" stroke-width="1.44" stroke-miterlimit="10"/>
<path d="M389.359 710.046H430.389" stroke="black" stroke-width="1.44" stroke-miterlimit="10"/>
<path d="M416.719 722.045H430.389" stroke="black" stroke-width="1.44" stroke-miterlimit="10"/>
<path d="M398.479 728.045H416.709" stroke="black" stroke-width="1.44" stroke-miterlimit="10"/>
<path d="M366.559 734.045H389.359" stroke="black" stroke-width="1.44" stroke-miterlimit="10"/>
<path d="M111.199 758.045H475.999" stroke="black" stroke-width="1.44" stroke-miterlimit="10"/>
<path fill-rule="evenodd" clip-rule="evenodd" d="M484.039 700.685L474.438 696.965L484.039 693.246V700.685Z" fill="black"/>
<path d="M484.399 701.166L473.719 696.966L484.399 692.886V701.166ZM483.799 693.246L484.16 693.605L474.559 697.325V696.726L484.16 700.445L483.799 700.686V693.246Z" fill="black"/>
<path fill-rule="evenodd" clip-rule="evenodd" d="M453.2 763.206L457.04 753.726L460.76 763.206H453.2Z" fill="black"/>
<path d="M452.839 763.555L457.039 753.005L461.239 763.555H452.839ZM460.759 762.965L460.519 763.325L456.799 753.845H457.279L453.559 763.325L453.199 762.965H460.759Z" fill="black"/>
<path fill-rule="evenodd" clip-rule="evenodd" d="M484.039 700.685L474.438 696.965L484.039 693.246V700.685Z" fill="black"/>
<path d="M484.399 701.166L473.719 696.966L484.399 692.886V701.166ZM483.799 693.246L484.16 693.605L474.559 697.325V696.726L484.16 700.445L483.799 700.686V693.246Z" fill="black"/>
<path fill-rule="evenodd" clip-rule="evenodd" d="M453.2 763.206L457.04 753.726L460.76 763.206H453.2Z" fill="black"/>
<path d="M452.839 763.555L457.039 753.005L461.239 763.555H452.839ZM460.759 762.965L460.519 763.325L456.799 753.845H457.279L453.559 763.325L453.199 762.965H460.759Z" fill="black"/>
<path d="M439 662L457 662" stroke="black" stroke-width="0.721"/>
<path d="M448.013 661.963L449.806 658.537L448.013 661.963Z" fill="white"/>
<path d="M447.805 661.962L446.013 658.538L447.805 661.962Z" fill="white"/>
<path d="M110.479 449.996V439.325" stroke="black" stroke-width="1.44" stroke-miterlimit="10"/>
<path d="M292.874 449.996V440.766" stroke="black" stroke-width="1.43" stroke-miterlimit="10"/>
<path d="M438.799 449.996V440.766" stroke="black" stroke-width="1.439" stroke-miterlimit="10"/>
<path d="M475.28 449.996V440.766" stroke="black" stroke-width="1.44" stroke-miterlimit="10"/>
<path d="M183.439 449.996V440.766" stroke="black" stroke-width="1.44" stroke-miterlimit="10"/>
<path d="M111.199 440.045H475.999" stroke="black" stroke-width="1.44" stroke-miterlimit="10"/>
<path d="M183.439 524.765V450.005" stroke="black" stroke-width="1.44" stroke-miterlimit="10"/>
<path d="M292.874 524.765V450.005" stroke="black" stroke-width="1.43" stroke-miterlimit="10"/>
<path d="M111.199 542.045H366.549" stroke="black" stroke-width="1.44" stroke-miterlimit="10"/>
<path d="M389.359 542.045H430.389" stroke="black" stroke-width="1.44" stroke-miterlimit="10"/>
<path d="M438.799 524.765V450.005" stroke="black" stroke-width="1.439" stroke-miterlimit="10"/>
<path d="M110.479 590.765V450.005" stroke="black" stroke-width="1.44" stroke-miterlimit="10"/>
<path d="M292.874 590.765V542.765" stroke="black" stroke-width="1.43" stroke-miterlimit="10"/>
<path d="M438.799 590.765V541.325" stroke="black" stroke-width="1.439" stroke-miterlimit="10"/>
<path d="M475.28 590.765V450.005" stroke="black" stroke-width="1.44" stroke-miterlimit="10"/>
<path d="M219.919 590.765V542.765" stroke="black" stroke-width="1.44" stroke-miterlimit="10"/>
<path d="M256.394 590.765V542.765" stroke="black" stroke-width="1.43" stroke-miterlimit="10"/>
<path d="M365.839 590.765V542.765" stroke="black" stroke-width="1.439" stroke-miterlimit="10"/>
<path d="M388.639 590.765V541.325" stroke="black" stroke-width="1.439" stroke-miterlimit="10"/>
<path d="M397.759 560.765V542.765" stroke="black" stroke-width="1.439" stroke-miterlimit="10"/>
<path d="M415.999 560.765V542.765" stroke="black" stroke-width="1.439" stroke-miterlimit="10"/>
<path d="M429.679 572.155V542.765" stroke="black" stroke-width="1.439" stroke-miterlimit="10"/>
<path d="M183.439 590.765V542.765" stroke="black" stroke-width="1.44" stroke-miterlimit="10"/>
<path d="M160.639 590.765V542.765" stroke="black" stroke-width="1.44" stroke-miterlimit="10"/>
<path d="M111.199 524.045H439.519" stroke="black" stroke-width="1.44" stroke-miterlimit="10"/>
<path d="M439.519 542.045H475.999" stroke="black" stroke-width="1.44" stroke-miterlimit="10"/>
<path d="M416.719 554.045H430.389" stroke="black" stroke-width="1.44" stroke-miterlimit="10"/>
<path d="M398.479 560.045H416.709" stroke="black" stroke-width="1.44" stroke-miterlimit="10"/>
<path d="M366.559 566.045H389.359" stroke="black" stroke-width="1.44" stroke-miterlimit="10"/>
<path d="M111.199 590.046H475.999" stroke="black" stroke-width="1.44" stroke-miterlimit="10"/>
<path fill-rule="evenodd" clip-rule="evenodd" d="M484.039 532.685L474.438 528.965L484.039 525.246V532.685Z" fill="black"/>
<path d="M484.399 533.166L473.719 528.966L484.399 524.886V533.166ZM483.799 525.246L484.16 525.605L474.559 529.325V528.726L484.16 532.445L483.799 532.686V525.246Z" fill="black"/>
<path fill-rule="evenodd" clip-rule="evenodd" d="M484.039 532.685L474.438 528.965L484.039 525.246V532.685Z" fill="black"/>
<path d="M484.399 533.166L473.719 528.966L484.399 524.886V533.166ZM483.799 525.246L484.16 525.605L474.559 529.325V528.726L484.16 532.445L483.799 532.686V525.246Z" fill="black"/>
<path d="M439 494L457 494" stroke="black" stroke-width="0.721"/>
<path d="M292.874 356.765V272.765" stroke="black" stroke-width="1.43" stroke-miterlimit="10"/>
<path d="M111.199 374.046H366.549" stroke="black" stroke-width="1.44" stroke-miterlimit="10"/>
<path d="M389.359 374.046H430.389" stroke="black" stroke-width="1.44" stroke-miterlimit="10"/>
<path d="M438.799 356.765V272.765" stroke="black" stroke-width="1.439" stroke-miterlimit="10"/>
<path d="M110.479 422.765V271.325" stroke="black" stroke-width="1.44" stroke-miterlimit="10"/>
<path d="M183.439 422.765V374.765" stroke="black" stroke-width="1.44" stroke-miterlimit="10"/>
<path d="M292.874 422.765V374.765" stroke="black" stroke-width="1.43" stroke-miterlimit="10"/>
<path d="M438.799 422.765V373.325" stroke="black" stroke-width="1.439" stroke-miterlimit="10"/>
<path d="M475.28 422.765V272.765" stroke="black" stroke-width="1.44" stroke-miterlimit="10"/>
<path d="M329.354 422.765V374.765" stroke="black" stroke-width="1.43" stroke-miterlimit="10"/>
<path d="M146.959 422.765V374.765" stroke="black" stroke-width="1.44" stroke-miterlimit="10"/>
<path d="M219.919 422.765V374.765" stroke="black" stroke-width="1.44" stroke-miterlimit="10"/>
<path d="M256.394 422.765V374.765" stroke="black" stroke-width="1.43" stroke-miterlimit="10"/>
<path d="M365.839 422.765V374.765" stroke="black" stroke-width="1.439" stroke-miterlimit="10"/>
<path d="M388.639 422.765V373.325" stroke="black" stroke-width="1.439" stroke-miterlimit="10"/>
<path d="M397.759 392.765V374.765" stroke="black" stroke-width="1.439" stroke-miterlimit="10"/>
<path d="M415.999 392.765V374.765" stroke="black" stroke-width="1.439" stroke-miterlimit="10"/>
<path d="M429.679 404.155V374.765" stroke="black" stroke-width="1.439" stroke-miterlimit="10"/>
<path d="M111.199 272.046H475.999" stroke="black" stroke-width="1.44" stroke-miterlimit="10"/>
<path d="M111.199 356.045H439.519" stroke="black" stroke-width="1.44" stroke-miterlimit="10"/>
<path d="M439.519 374.046H475.999" stroke="black" stroke-width="1.44" stroke-miterlimit="10"/>
<path d="M416.719 386.045H430.389" stroke="black" stroke-width="1.44" stroke-miterlimit="10"/>
<path d="M398.479 392.045H416.709" stroke="black" stroke-width="1.44" stroke-miterlimit="10"/>
<path d="M366.559 398.045H389.359" stroke="black" stroke-width="1.44" stroke-miterlimit="10"/>
<path d="M111.199 422.045H475.999" stroke="black" stroke-width="1.44" stroke-miterlimit="10"/>
<path d="M439 326L457 326" stroke="black" stroke-width="0.72"/>
<path d="M448.013 326.245L449.806 322.82L448.013 326.245Z" fill="white"/>
<path d="M447.805 326.244L446.013 322.82L447.805 326.244Z" fill="white"/>
<path d="M292.874 188.765V104.765" stroke="black" stroke-width="1.43" stroke-miterlimit="10"/>
<path d="M329.354 188.765V104.765" stroke="black" stroke-width="1.43" stroke-miterlimit="10"/>
<path d="M111.199 206.046H366.549" stroke="black" stroke-width="1.44" stroke-miterlimit="10"/>
<path d="M389.359 206.046H430.389" stroke="black" stroke-width="1.44" stroke-miterlimit="10"/>
<path d="M438.799 188.765V104.765" stroke="black" stroke-width="1.439" stroke-miterlimit="10"/>
<path d="M110.479 254.765V103.325" stroke="black" stroke-width="1.44" stroke-miterlimit="10"/>
<path d="M292.874 254.765V206.765" stroke="black" stroke-width="1.43" stroke-miterlimit="10"/>
<path d="M438.799 254.765V205.325" stroke="black" stroke-width="1.439" stroke-miterlimit="10"/>
<path d="M475.28 254.765V104.765" stroke="black" stroke-width="1.44" stroke-miterlimit="10"/>
<path d="M146.959 254.765V206.765" stroke="black" stroke-width="1.44" stroke-miterlimit="10"/>
<path d="M183.439 254.765V206.765" stroke="black" stroke-width="1.44" stroke-miterlimit="10"/>
<path d="M219.919 254.765V206.765" stroke="black" stroke-width="1.44" stroke-miterlimit="10"/>
<path d="M256.394 254.765V206.765" stroke="black" stroke-width="1.43" stroke-miterlimit="10"/>
<path d="M329.354 254.765V206.765" stroke="black" stroke-width="1.43" stroke-miterlimit="10"/>
<path d="M365.839 254.765V206.765" stroke="black" stroke-width="1.439" stroke-miterlimit="10"/>
<path d="M388.639 254.765V205.325" stroke="black" stroke-width="1.439" stroke-miterlimit="10"/>
<path d="M397.759 224.765V206.765" stroke="black" stroke-width="1.439" stroke-miterlimit="10"/>
<path d="M415.999 224.765V206.765" stroke="black" stroke-width="1.439" stroke-miterlimit="10"/>
<path d="M429.679 236.155V206.765" stroke="black" stroke-width="1.439" stroke-miterlimit="10"/>
<path d="M111.199 104.046H475.999" stroke="black" stroke-width="1.44" stroke-miterlimit="10"/>
<path d="M111.199 188.046H439.519" stroke="black" stroke-width="1.44" stroke-miterlimit="10"/>
<path d="M439.519 206.046H475.999" stroke="black" stroke-width="1.44" stroke-miterlimit="10"/>
<path d="M416.719 218.046H430.389" stroke="black" stroke-width="1.44" stroke-miterlimit="10"/>
<path d="M398.479 224.046H416.709" stroke="black" stroke-width="1.44" stroke-miterlimit="10"/>
<path d="M366.559 230.046H389.359" stroke="black" stroke-width="1.44" stroke-miterlimit="10"/>
<path d="M111.199 254.046H475.999" stroke="black" stroke-width="1.44" stroke-miterlimit="10"/>
<path d="M448.013 158.245L449.806 154.82L448.013 158.245Z" fill="white"/>
<path d="M447.805 158.244L446.013 154.82L447.805 158.244Z" fill="white"/>
<path d="M439 158L457 158" stroke="black" stroke-width="0.72" stroke-miterlimit="10"/>
<path d="M23.0533 600.56C24.4933 600.528 25.5573 600.496 26.2453 600.464V605H13.5493V600.464C15.2773 600.528 16.5813 600.56 17.4613 600.56V592.28C16.8853 593.544 15.7093 594.36 13.9333 594.728C13.8853 592.84 13.7093 591.12 13.4053 589.568C14.6853 589.392 15.5733 589.176 16.0693 588.92C16.5813 588.648 16.9733 588.352 17.2453 588.032C17.5333 587.712 17.7253 587.496 17.8213 587.384V587.336H23.0533V600.56ZM44.8667 595.232H49.4027V605.024H44.9867V604.592H40.5467V605.024H36.1067V601.184C35.8507 602.08 35.4107 602.76 34.7867 603.224C34.1627 603.688 33.3947 603.904 32.4827 603.872C32.2587 602.24 31.9627 601.024 31.5947 600.224V604.904H27.4907V586.976H35.3627L36.4667 590.48L36.1067 591.536L36.7307 591.512V586.592H40.8347V587.48H42.3947V590.264H40.8347V591.104L42.2267 590.84L42.4907 593.96C42.2507 594.024 42.0427 594.064 41.8667 594.08L43.2587 594.176C43.0987 594.064 42.9867 593.912 42.9227 593.72C42.8747 593.512 42.8507 593.224 42.8507 592.856V586.592H46.9787V587.456L49.4747 587.288V589.952L46.9787 590.048V590.768C46.9787 590.944 47.0027 591.064 47.0507 591.128C47.0987 591.176 47.1787 591.2 47.2907 591.2C47.4187 591.2 47.4827 591.12 47.4827 590.96C47.4827 590.816 47.4347 590.568 47.3387 590.216C47.6587 590.36 47.9787 590.456 48.2987 590.504C48.6187 590.552 49.1307 590.608 49.8347 590.672C49.8027 591.824 49.7467 592.64 49.6667 593.12C49.6027 593.584 49.4827 593.904 49.3067 594.08C49.1307 594.256 48.8187 594.392 48.3707 594.488C48.0827 594.536 47.5227 594.56 46.6907 594.56C45.9707 594.56 45.4507 594.552 45.1307 594.536L44.8667 595.232ZM31.5947 591.032V593.864C32.0747 592.76 32.3227 591.816 32.3387 591.032H31.5947ZM34.8587 595.04C35.4827 596.08 35.8987 597 36.1067 597.8V595.232H40.4987L40.8347 594.272C39.6507 594.448 38.2187 594.616 36.5387 594.776L35.9627 594.848L35.4347 593.528C35.1787 594.232 34.9867 594.736 34.8587 595.04ZM31.5947 599.408C31.8027 599.312 31.9627 599.168 32.0747 598.976C32.2027 598.784 32.2667 598.552 32.2667 598.28C32.2667 597.768 32.0427 597.152 31.5947 596.432V599.408ZM40.5467 598.856H44.9867V598.352H40.5467V598.856ZM40.5467 601.544H44.9867V601.04H40.5467V601.544Z" fill="black"/>
<path d="M16.4645 431.8C21.6645 431.512 25.6965 431.192 28.5605 430.84C28.2885 431.672 28.0805 432.552 27.9365 433.48C27.7925 434.408 27.7205 435.248 27.7205 436H10.5605L10.5365 435.496C10.5365 433.928 10.9925 432.568 11.9045 431.416C12.8325 430.264 14.1205 429.2 15.7685 428.224C16.2485 427.936 17.0005 427.568 18.0245 427.12C19.3525 426.544 20.3765 426.04 21.0965 425.608C21.8165 425.16 22.1765 424.72 22.1765 424.288C22.1765 423.744 21.9525 423.312 21.5045 422.992C21.0565 422.672 20.3605 422.512 19.4165 422.512C18.3765 422.512 17.5845 422.776 17.0405 423.304C16.5125 423.832 16.2485 424.504 16.2485 425.32C16.2485 425.576 16.2725 425.84 16.3205 426.112C14.3045 425.856 12.3445 425.68 10.4405 425.584C10.4405 424.224 10.7925 423 11.4965 421.912C12.2165 420.808 13.2885 419.936 14.7125 419.296C16.1525 418.656 17.9125 418.336 19.9925 418.336C21.8965 418.336 23.4805 418.6 24.7445 419.128C26.0245 419.64 26.9605 420.296 27.5525 421.096C28.1605 421.88 28.4645 422.688 28.4645 423.52C28.4645 424.48 28.2485 425.304 27.8165 425.992C27.4005 426.68 26.7925 427.296 25.9925 427.84C25.2085 428.368 24.1525 428.944 22.8245 429.568C22.6325 429.664 22.3205 429.776 21.8885 429.904C21.4565 430.016 21.1845 430.088 21.0725 430.12C19.9365 430.456 19.0325 430.736 18.3605 430.96C17.6885 431.184 17.0565 431.464 16.4645 431.8ZM47.8315 426.232H52.3675V436.024H47.9515V435.592H43.5115V436.024H39.0715V432.184C38.8155 433.08 38.3755 433.76 37.7515 434.224C37.1275 434.688 36.3595 434.904 35.4475 434.872C35.2235 433.24 34.9275 432.024 34.5595 431.224V435.904H30.4555V417.976H38.3275L39.4315 421.48L39.0715 422.536L39.6955 422.512V417.592H43.7995V418.48H45.3595V421.264H43.7995V422.104L45.1915 421.84L45.4555 424.96C45.2155 425.024 45.0075 425.064 44.8315 425.08L46.2235 425.176C46.0635 425.064 45.9515 424.912 45.8875 424.72C45.8395 424.512 45.8155 424.224 45.8155 423.856V417.592H49.9435V418.456L52.4395 418.288V420.952L49.9435 421.048V421.768C49.9435 421.944 49.9675 422.064 50.0155 422.128C50.0635 422.176 50.1435 422.2 50.2555 422.2C50.3835 422.2 50.4475 422.12 50.4475 421.96C50.4475 421.816 50.3995 421.568 50.3035 421.216C50.6235 421.36 50.9435 421.456 51.2635 421.504C51.5835 421.552 52.0955 421.608 52.7995 421.672C52.7675 422.824 52.7115 423.64 52.6315 424.12C52.5675 424.584 52.4475 424.904 52.2715 425.08C52.0955 425.256 51.7835 425.392 51.3355 425.488C51.0475 425.536 50.4875 425.56 49.6555 425.56C48.9355 425.56 48.4155 425.552 48.0955 425.536L47.8315 426.232ZM34.5595 422.032V424.864C35.0395 423.76 35.2875 422.816 35.3035 422.032H34.5595ZM37.8235 426.04C38.4475 427.08 38.8635 428 39.0715 428.8V426.232H43.4635L43.7995 425.272C42.6155 425.448 41.1835 425.616 39.5035 425.776L38.9275 425.848L38.3995 424.528C38.1435 425.232 37.9515 425.736 37.8235 426.04ZM34.5595 430.408C34.7675 430.312 34.9275 430.168 35.0395 429.976C35.1675 429.784 35.2315 429.552 35.2315 429.28C35.2315 428.768 35.0075 428.152 34.5595 427.432V430.408ZM43.5115 429.856H47.9515V429.352H43.5115V429.856ZM43.5115 432.544H47.9515V432.04H43.5115V432.544Z" fill="black"/>
<path d="M23.2817 263.168C23.8577 263.056 24.4257 263 24.9857 263C25.9617 263 26.7537 263.168 27.3617 263.504C27.9857 263.824 28.4337 264.24 28.7057 264.752C28.9777 265.248 29.1137 265.768 29.1137 266.312C29.1137 267.576 28.6977 268.656 27.8657 269.552C27.0337 270.432 25.9057 271.104 24.4817 271.568C23.0577 272.016 21.4737 272.24 19.7297 272.24C14.6737 272.24 11.4017 270.48 9.91369 266.96L11.2577 266.624C12.2497 266.384 13.0897 266.16 13.7777 265.952C14.4817 265.728 15.0977 265.48 15.6257 265.208C15.9457 266.008 16.4017 266.584 16.9937 266.936C17.6017 267.272 18.4337 267.44 19.4897 267.44C20.6097 267.44 21.5217 267.312 22.2257 267.056C22.9297 266.8 23.2817 266.416 23.2817 265.904C23.2817 265.632 23.1457 265.424 22.8737 265.28C22.6017 265.136 22.1697 265.04 21.5777 264.992C20.9857 264.928 20.1537 264.896 19.0817 264.896H17.2577V260.696H18.3617C19.5777 260.696 20.5697 260.648 21.3377 260.552C22.1057 260.44 22.4897 260.208 22.4897 259.856C22.4897 259.456 22.2817 259.136 21.8657 258.896C21.4657 258.64 20.8337 258.512 19.9697 258.512C18.8497 258.512 17.9377 258.744 17.2337 259.208C16.5457 259.672 16.0097 260.344 15.6257 261.224C13.9137 260.536 12.0897 260.048 10.1537 259.76C10.9217 258.032 12.0977 256.696 13.6817 255.752C15.2817 254.808 17.3377 254.336 19.8497 254.336C21.4817 254.336 22.9457 254.552 24.2417 254.984C25.5537 255.4 26.5777 255.984 27.3137 256.736C28.0657 257.488 28.4417 258.328 28.4417 259.256C28.4417 259.8 28.3137 260.288 28.0577 260.72C27.8017 261.136 27.2977 261.552 26.5457 261.968C25.7937 262.368 24.7057 262.768 23.2817 263.168ZM48.3823 262.232H52.9183V272.024H48.5023V271.592H44.0623V272.024H39.6223V268.184C39.3663 269.08 38.9263 269.76 38.3023 270.224C37.6783 270.688 36.9103 270.904 35.9983 270.872C35.7743 269.24 35.4783 268.024 35.1103 267.224V271.904H31.0063V253.976H38.8783L39.9823 257.48L39.6223 258.536L40.2463 258.512V253.592H44.3503V254.48H45.9103V257.264H44.3503V258.104L45.7423 257.84L46.0063 260.96C45.7663 261.024 45.5583 261.064 45.3823 261.08L46.7743 261.176C46.6143 261.064 46.5023 260.912 46.4383 260.72C46.3903 260.512 46.3663 260.224 46.3663 259.856V253.592H50.4943V254.456L52.9903 254.288V256.952L50.4943 257.048V257.768C50.4943 257.944 50.5183 258.064 50.5663 258.128C50.6143 258.176 50.6943 258.2 50.8063 258.2C50.9343 258.2 50.9983 258.12 50.9983 257.96C50.9983 257.816 50.9503 257.568 50.8543 257.216C51.1743 257.36 51.4943 257.456 51.8143 257.504C52.1343 257.552 52.6463 257.608 53.3503 257.672C53.3183 258.824 53.2623 259.64 53.1823 260.12C53.1183 260.584 52.9983 260.904 52.8223 261.08C52.6463 261.256 52.3343 261.392 51.8863 261.488C51.5983 261.536 51.0383 261.56 50.2063 261.56C49.4863 261.56 48.9663 261.552 48.6463 261.536L48.3823 262.232ZM35.1103 258.032V260.864C35.5903 259.76 35.8383 258.816 35.8543 258.032H35.1103ZM38.3743 262.04C38.9983 263.08 39.4143 264 39.6223 264.8V262.232H44.0143L44.3503 261.272C43.1663 261.448 41.7343 261.616 40.0543 261.776L39.4783 261.848L38.9503 260.528C38.6943 261.232 38.5023 261.736 38.3743 262.04ZM35.1103 266.408C35.3183 266.312 35.4783 266.168 35.5903 265.976C35.7183 265.784 35.7823 265.552 35.7823 265.28C35.7823 264.768 35.5583 264.152 35.1103 263.432V266.408ZM44.0623 265.856H48.5023V265.352H44.0623V265.856ZM44.0623 268.544H48.5023V268.04H44.0623V268.544Z" fill="black"/>
<path d="M29.6301 91.44V95.952H26.3661V99H20.6301C20.6941 98.328 20.7421 97.312 20.7741 95.952H9.37406V91.104C13.1021 88.24 16.4301 85.064 19.3581 81.576H26.3661V91.44H29.6301ZM20.8941 86.328C19.7901 87.464 18.8381 88.416 18.0381 89.184C17.2381 89.936 16.3341 90.688 15.3261 91.44H20.8221L20.8941 86.328ZM48.8979 89.232H53.4339V99.024H49.0179V98.592H44.5779V99.024H40.1379V95.184C39.8819 96.08 39.4419 96.76 38.8179 97.224C38.1939 97.688 37.4259 97.904 36.5139 97.872C36.2899 96.24 35.9939 95.024 35.6259 94.224V98.904H31.5219V80.976H39.3939L40.4979 84.48L40.1379 85.536L40.7619 85.512V80.592H44.8659V81.48H46.4259V84.264H44.8659V85.104L46.2579 84.84L46.5219 87.96C46.2819 88.024 46.0739 88.064 45.8979 88.08L47.2899 88.176C47.1299 88.064 47.0179 87.912 46.9539 87.72C46.9059 87.512 46.8819 87.224 46.8819 86.856V80.592H51.0099V81.456L53.5059 81.288V83.952L51.0099 84.048V84.768C51.0099 84.944 51.0339 85.064 51.0819 85.128C51.1299 85.176 51.2099 85.2 51.3219 85.2C51.4499 85.2 51.5139 85.12 51.5139 84.96C51.5139 84.816 51.4659 84.568 51.3699 84.216C51.6899 84.36 52.0099 84.456 52.3299 84.504C52.6499 84.552 53.1619 84.608 53.8659 84.672C53.8339 85.824 53.7779 86.64 53.6979 87.12C53.6339 87.584 53.5139 87.904 53.3379 88.08C53.1619 88.256 52.8499 88.392 52.4019 88.488C52.1139 88.536 51.5539 88.56 50.7219 88.56C50.0019 88.56 49.4819 88.552 49.1619 88.536L48.8979 89.232ZM35.6259 85.032V87.864C36.1059 86.76 36.3539 85.816 36.3699 85.032H35.6259ZM38.8899 89.04C39.5139 90.08 39.9299 91 40.1379 91.8V89.232H44.5299L44.8659 88.272C43.6819 88.448 42.2499 88.616 40.5699 88.776L39.9939 88.848L39.4659 87.528C39.2099 88.232 39.0179 88.736 38.8899 89.04ZM35.6259 93.408C35.8339 93.312 35.9939 93.168 36.1059 92.976C36.2339 92.784 36.2979 92.552 36.2979 92.28C36.2979 91.768 36.0739 91.152 35.6259 90.432V93.408ZM44.5779 92.856H49.0179V92.352H44.5779V92.856ZM44.5779 95.544H49.0179V95.04H44.5779V95.544Z" fill="black"/>
<path d="M449.188 118.97C450.252 118.97 451.041 119.059 451.554 119.236C452.067 119.404 452.417 119.717 452.604 120.174C452.8 120.631 452.898 121.336 452.898 122.288C452.898 123.511 452.879 124.425 452.842 125.032C452.805 125.629 452.73 126.087 452.618 126.404C452.515 126.721 452.352 127.001 452.128 127.244C451.885 127.505 451.442 127.711 450.798 127.86C450.154 128 449.239 128.103 448.054 128.168C447.905 127.141 447.713 126.343 447.48 125.774C447.275 126.409 446.999 127.16 446.654 128.028C445.478 127.608 444.265 127.281 443.014 127.048C443.611 126.152 444.078 125.312 444.414 124.528C444.75 123.735 444.997 122.862 445.156 121.91L443.434 122.078C443.453 121.033 443.327 120.048 443.056 119.124C444.064 119.087 444.848 119.063 445.408 119.054C445.417 118.69 445.422 118.111 445.422 117.318H448.866C448.847 117.775 448.81 118.326 448.754 118.97H449.188ZM455.53 117.962C455.95 119.39 456.253 120.608 456.44 121.616C456.627 122.624 456.79 123.954 456.93 125.606L453.64 126.068C453.593 124.519 453.467 123.175 453.262 122.036C453.066 120.897 452.735 119.619 452.268 118.2L455.53 117.962ZM449.44 124.878C449.561 124.785 449.655 124.565 449.72 124.22C449.795 123.875 449.832 123.431 449.832 122.89C449.832 122.507 449.809 122.237 449.762 122.078C449.725 121.919 449.641 121.817 449.51 121.77C449.389 121.714 449.174 121.686 448.866 121.686C448.689 121.686 448.544 121.691 448.432 121.7C448.236 122.913 447.998 123.996 447.718 124.948C448.119 124.995 448.437 125.018 448.67 125.018C449.081 125.018 449.337 124.971 449.44 124.878ZM467.01 126.824C466.795 124.957 466.473 123.357 466.044 122.022C465.615 120.678 465.059 119.423 464.378 118.256L467.654 117.766C468.419 118.942 469.035 120.141 469.502 121.364C469.969 122.587 470.393 124.122 470.776 125.97L467.01 126.824ZM464.616 125.438C464.047 126.101 463.314 126.665 462.418 127.132C461.531 127.599 460.705 127.832 459.94 127.832C459.511 127.832 459.105 127.734 458.722 127.538C458.349 127.342 458.036 127.029 457.784 126.6C457.541 126.161 457.415 125.606 457.406 124.934C457.397 123.991 457.453 123.133 457.574 122.358C457.695 121.574 457.905 120.519 458.204 119.194L458.456 118.088L462.208 118.256C461.881 119.376 461.639 120.277 461.48 120.958C461.321 121.639 461.172 122.479 461.032 123.478C461.013 123.646 461.004 123.753 461.004 123.8C461.004 123.996 461.051 124.094 461.144 124.094C461.275 124.094 461.508 123.912 461.844 123.548C462.189 123.184 462.707 122.568 463.398 121.7C463.51 122.54 463.659 123.254 463.846 123.842C464.042 124.421 464.299 124.953 464.616 125.438ZM455.362 138.354C455.157 137.682 454.849 137.005 454.438 136.324L455.726 135.988C456.146 136.651 456.463 137.327 456.678 138.018L455.362 138.354ZM453.668 138.774C453.463 138.102 453.155 137.43 452.744 136.758L454.032 136.422C454.433 137.066 454.746 137.743 454.97 138.452L453.668 138.774ZM450.644 140.734L448.908 140.86C448.609 142.325 448.152 143.669 447.536 144.892C446.929 146.115 446.178 147.16 445.282 148.028C444.89 147.309 444.517 146.717 444.162 146.25C443.807 145.783 443.434 145.368 443.042 145.004C443.677 144.5 444.185 143.931 444.568 143.296C444.951 142.652 445.249 141.873 445.464 140.958H444.176L444.148 138.172L445.87 138.158L445.926 137.304H449.3C449.3 137.472 449.291 137.715 449.272 138.032C450.224 137.967 450.989 137.906 451.568 137.85V139.516C452.856 139.311 454.153 139.208 455.46 139.208H455.964L456.356 142.148C456.197 142.139 455.955 142.134 455.628 142.134C454.097 142.134 452.436 142.293 450.644 142.61V140.734ZM451.33 143.184C451.265 143.576 451.232 143.851 451.232 144.01C451.232 144.383 451.316 144.635 451.484 144.766C451.652 144.897 451.918 144.962 452.282 144.962C452.945 144.962 453.687 144.911 454.508 144.808C455.339 144.705 455.969 144.579 456.398 144.43C456.146 145.214 455.969 146.315 455.866 147.734C455.474 147.827 455.007 147.902 454.466 147.958C453.925 148.005 453.374 148.028 452.814 148.028C452.562 148.028 452.231 148.019 451.82 148C449.384 147.869 448.166 147.081 448.166 145.634C448.166 145.102 448.329 144.481 448.656 143.772C449.235 143.707 449.757 143.623 450.224 143.52C450.7 143.408 451.069 143.296 451.33 143.184ZM470.818 142.386C470.855 143.469 470.659 144.439 470.23 145.298C469.81 146.147 469.222 146.815 468.466 147.3C467.719 147.776 466.898 148.014 466.002 148.014C465.003 148.014 464.261 147.818 463.776 147.426C463.291 147.025 463.048 146.427 463.048 145.634C463.048 145.541 463.057 145.373 463.076 145.13C463.113 144.775 463.132 144.537 463.132 144.416C463.132 144.155 463.095 143.959 463.02 143.828C462.945 143.688 462.819 143.618 462.642 143.618C462.409 143.618 462.189 143.753 461.984 144.024C461.788 144.295 461.629 144.715 461.508 145.284L460.948 147.93C460.817 147.911 460.715 147.902 460.64 147.902C459.203 147.743 458.073 147.669 457.252 147.678C457.513 146.502 458.045 144.785 458.848 142.526C459.651 140.267 460.351 138.433 460.948 137.024L464.952 137.416C464.728 137.845 464.476 138.298 464.196 138.774C463.832 139.427 463.547 139.945 463.342 140.328C463.146 140.711 462.969 141.112 462.81 141.532C463.435 141.345 463.935 141.252 464.308 141.252C464.924 141.252 465.423 141.415 465.806 141.742C466.189 142.069 466.38 142.507 466.38 143.058C466.38 143.273 466.361 143.469 466.324 143.646C466.287 143.823 466.235 144.019 466.17 144.234C466.114 144.439 466.086 144.556 466.086 144.584C466.086 144.668 466.128 144.71 466.212 144.71C466.455 144.71 466.655 144.645 466.814 144.514C466.973 144.383 467.113 144.103 467.234 143.674C467.365 143.245 467.481 142.587 467.584 141.7C468.079 141.961 468.587 142.143 469.11 142.246C469.642 142.339 470.211 142.386 470.818 142.386Z" fill="black"/>
<path d="M449.188 286.97C450.252 286.97 451.041 287.059 451.554 287.236C452.067 287.404 452.417 287.717 452.604 288.174C452.8 288.631 452.898 289.336 452.898 290.288C452.898 291.511 452.879 292.425 452.842 293.032C452.805 293.629 452.73 294.087 452.618 294.404C452.515 294.721 452.352 295.001 452.128 295.244C451.885 295.505 451.442 295.711 450.798 295.86C450.154 296 449.239 296.103 448.054 296.168C447.905 295.141 447.713 294.343 447.48 293.774C447.275 294.409 446.999 295.16 446.654 296.028C445.478 295.608 444.265 295.281 443.014 295.048C443.611 294.152 444.078 293.312 444.414 292.528C444.75 291.735 444.997 290.862 445.156 289.91L443.434 290.078C443.453 289.033 443.327 288.048 443.056 287.124C444.064 287.087 444.848 287.063 445.408 287.054C445.417 286.69 445.422 286.111 445.422 285.318H448.866C448.847 285.775 448.81 286.326 448.754 286.97H449.188ZM455.53 285.962C455.95 287.39 456.253 288.608 456.44 289.616C456.627 290.624 456.79 291.954 456.93 293.606L453.64 294.068C453.593 292.519 453.467 291.175 453.262 290.036C453.066 288.897 452.735 287.619 452.268 286.2L455.53 285.962ZM449.44 292.878C449.561 292.785 449.655 292.565 449.72 292.22C449.795 291.875 449.832 291.431 449.832 290.89C449.832 290.507 449.809 290.237 449.762 290.078C449.725 289.919 449.641 289.817 449.51 289.77C449.389 289.714 449.174 289.686 448.866 289.686C448.689 289.686 448.544 289.691 448.432 289.7C448.236 290.913 447.998 291.996 447.718 292.948C448.119 292.995 448.437 293.018 448.67 293.018C449.081 293.018 449.337 292.971 449.44 292.878ZM467.01 294.824C466.795 292.957 466.473 291.357 466.044 290.022C465.615 288.678 465.059 287.423 464.378 286.256L467.654 285.766C468.419 286.942 469.035 288.141 469.502 289.364C469.969 290.587 470.393 292.122 470.776 293.97L467.01 294.824ZM464.616 293.438C464.047 294.101 463.314 294.665 462.418 295.132C461.531 295.599 460.705 295.832 459.94 295.832C459.511 295.832 459.105 295.734 458.722 295.538C458.349 295.342 458.036 295.029 457.784 294.6C457.541 294.161 457.415 293.606 457.406 292.934C457.397 291.991 457.453 291.133 457.574 290.358C457.695 289.574 457.905 288.519 458.204 287.194L458.456 286.088L462.208 286.256C461.881 287.376 461.639 288.277 461.48 288.958C461.321 289.639 461.172 290.479 461.032 291.478C461.013 291.646 461.004 291.753 461.004 291.8C461.004 291.996 461.051 292.094 461.144 292.094C461.275 292.094 461.508 291.912 461.844 291.548C462.189 291.184 462.707 290.568 463.398 289.7C463.51 290.54 463.659 291.254 463.846 291.842C464.042 292.421 464.299 292.953 464.616 293.438ZM455.362 306.354C455.157 305.682 454.849 305.005 454.438 304.324L455.726 303.988C456.146 304.651 456.463 305.327 456.678 306.018L455.362 306.354ZM453.668 306.774C453.463 306.102 453.155 305.43 452.744 304.758L454.032 304.422C454.433 305.066 454.746 305.743 454.97 306.452L453.668 306.774ZM450.644 308.734L448.908 308.86C448.609 310.325 448.152 311.669 447.536 312.892C446.929 314.115 446.178 315.16 445.282 316.028C444.89 315.309 444.517 314.717 444.162 314.25C443.807 313.783 443.434 313.368 443.042 313.004C443.677 312.5 444.185 311.931 444.568 311.296C444.951 310.652 445.249 309.873 445.464 308.958H444.176L444.148 306.172L445.87 306.158L445.926 305.304H449.3C449.3 305.472 449.291 305.715 449.272 306.032C450.224 305.967 450.989 305.906 451.568 305.85V307.516C452.856 307.311 454.153 307.208 455.46 307.208H455.964L456.356 310.148C456.197 310.139 455.955 310.134 455.628 310.134C454.097 310.134 452.436 310.293 450.644 310.61V308.734ZM451.33 311.184C451.265 311.576 451.232 311.851 451.232 312.01C451.232 312.383 451.316 312.635 451.484 312.766C451.652 312.897 451.918 312.962 452.282 312.962C452.945 312.962 453.687 312.911 454.508 312.808C455.339 312.705 455.969 312.579 456.398 312.43C456.146 313.214 455.969 314.315 455.866 315.734C455.474 315.827 455.007 315.902 454.466 315.958C453.925 316.005 453.374 316.028 452.814 316.028C452.562 316.028 452.231 316.019 451.82 316C449.384 315.869 448.166 315.081 448.166 313.634C448.166 313.102 448.329 312.481 448.656 311.772C449.235 311.707 449.757 311.623 450.224 311.52C450.7 311.408 451.069 311.296 451.33 311.184ZM470.818 310.386C470.855 311.469 470.659 312.439 470.23 313.298C469.81 314.147 469.222 314.815 468.466 315.3C467.719 315.776 466.898 316.014 466.002 316.014C465.003 316.014 464.261 315.818 463.776 315.426C463.291 315.025 463.048 314.427 463.048 313.634C463.048 313.541 463.057 313.373 463.076 313.13C463.113 312.775 463.132 312.537 463.132 312.416C463.132 312.155 463.095 311.959 463.02 311.828C462.945 311.688 462.819 311.618 462.642 311.618C462.409 311.618 462.189 311.753 461.984 312.024C461.788 312.295 461.629 312.715 461.508 313.284L460.948 315.93C460.817 315.911 460.715 315.902 460.64 315.902C459.203 315.743 458.073 315.669 457.252 315.678C457.513 314.502 458.045 312.785 458.848 310.526C459.651 308.267 460.351 306.433 460.948 305.024L464.952 305.416C464.728 305.845 464.476 306.298 464.196 306.774C463.832 307.427 463.547 307.945 463.342 308.328C463.146 308.711 462.969 309.112 462.81 309.532C463.435 309.345 463.935 309.252 464.308 309.252C464.924 309.252 465.423 309.415 465.806 309.742C466.189 310.069 466.38 310.507 466.38 311.058C466.38 311.273 466.361 311.469 466.324 311.646C466.287 311.823 466.235 312.019 466.17 312.234C466.114 312.439 466.086 312.556 466.086 312.584C466.086 312.668 466.128 312.71 466.212 312.71C466.455 312.71 466.655 312.645 466.814 312.514C466.973 312.383 467.113 312.103 467.234 311.674C467.365 311.245 467.481 310.587 467.584 309.7C468.079 309.961 468.587 310.143 469.11 310.246C469.642 310.339 470.211 310.386 470.818 310.386Z" fill="black"/>
<path d="M449.188 454.97C450.252 454.97 451.041 455.059 451.554 455.236C452.067 455.404 452.417 455.717 452.604 456.174C452.8 456.631 452.898 457.336 452.898 458.288C452.898 459.511 452.879 460.425 452.842 461.032C452.805 461.629 452.73 462.087 452.618 462.404C452.515 462.721 452.352 463.001 452.128 463.244C451.885 463.505 451.442 463.711 450.798 463.86C450.154 464 449.239 464.103 448.054 464.168C447.905 463.141 447.713 462.343 447.48 461.774C447.275 462.409 446.999 463.16 446.654 464.028C445.478 463.608 444.265 463.281 443.014 463.048C443.611 462.152 444.078 461.312 444.414 460.528C444.75 459.735 444.997 458.862 445.156 457.91L443.434 458.078C443.453 457.033 443.327 456.048 443.056 455.124C444.064 455.087 444.848 455.063 445.408 455.054C445.417 454.69 445.422 454.111 445.422 453.318H448.866C448.847 453.775 448.81 454.326 448.754 454.97H449.188ZM455.53 453.962C455.95 455.39 456.253 456.608 456.44 457.616C456.627 458.624 456.79 459.954 456.93 461.606L453.64 462.068C453.593 460.519 453.467 459.175 453.262 458.036C453.066 456.897 452.735 455.619 452.268 454.2L455.53 453.962ZM449.44 460.878C449.561 460.785 449.655 460.565 449.72 460.22C449.795 459.875 449.832 459.431 449.832 458.89C449.832 458.507 449.809 458.237 449.762 458.078C449.725 457.919 449.641 457.817 449.51 457.77C449.389 457.714 449.174 457.686 448.866 457.686C448.689 457.686 448.544 457.691 448.432 457.7C448.236 458.913 447.998 459.996 447.718 460.948C448.119 460.995 448.437 461.018 448.67 461.018C449.081 461.018 449.337 460.971 449.44 460.878ZM467.01 462.824C466.795 460.957 466.473 459.357 466.044 458.022C465.615 456.678 465.059 455.423 464.378 454.256L467.654 453.766C468.419 454.942 469.035 456.141 469.502 457.364C469.969 458.587 470.393 460.122 470.776 461.97L467.01 462.824ZM464.616 461.438C464.047 462.101 463.314 462.665 462.418 463.132C461.531 463.599 460.705 463.832 459.94 463.832C459.511 463.832 459.105 463.734 458.722 463.538C458.349 463.342 458.036 463.029 457.784 462.6C457.541 462.161 457.415 461.606 457.406 460.934C457.397 459.991 457.453 459.133 457.574 458.358C457.695 457.574 457.905 456.519 458.204 455.194L458.456 454.088L462.208 454.256C461.881 455.376 461.639 456.277 461.48 456.958C461.321 457.639 461.172 458.479 461.032 459.478C461.013 459.646 461.004 459.753 461.004 459.8C461.004 459.996 461.051 460.094 461.144 460.094C461.275 460.094 461.508 459.912 461.844 459.548C462.189 459.184 462.707 458.568 463.398 457.7C463.51 458.54 463.659 459.254 463.846 459.842C464.042 460.421 464.299 460.953 464.616 461.438ZM455.362 474.354C455.157 473.682 454.849 473.005 454.438 472.324L455.726 471.988C456.146 472.651 456.463 473.327 456.678 474.018L455.362 474.354ZM453.668 474.774C453.463 474.102 453.155 473.43 452.744 472.758L454.032 472.422C454.433 473.066 454.746 473.743 454.97 474.452L453.668 474.774ZM450.644 476.734L448.908 476.86C448.609 478.325 448.152 479.669 447.536 480.892C446.929 482.115 446.178 483.16 445.282 484.028C444.89 483.309 444.517 482.717 444.162 482.25C443.807 481.783 443.434 481.368 443.042 481.004C443.677 480.5 444.185 479.931 444.568 479.296C444.951 478.652 445.249 477.873 445.464 476.958H444.176L444.148 474.172L445.87 474.158L445.926 473.304H449.3C449.3 473.472 449.291 473.715 449.272 474.032C450.224 473.967 450.989 473.906 451.568 473.85V475.516C452.856 475.311 454.153 475.208 455.46 475.208H455.964L456.356 478.148C456.197 478.139 455.955 478.134 455.628 478.134C454.097 478.134 452.436 478.293 450.644 478.61V476.734ZM451.33 479.184C451.265 479.576 451.232 479.851 451.232 480.01C451.232 480.383 451.316 480.635 451.484 480.766C451.652 480.897 451.918 480.962 452.282 480.962C452.945 480.962 453.687 480.911 454.508 480.808C455.339 480.705 455.969 480.579 456.398 480.43C456.146 481.214 455.969 482.315 455.866 483.734C455.474 483.827 455.007 483.902 454.466 483.958C453.925 484.005 453.374 484.028 452.814 484.028C452.562 484.028 452.231 484.019 451.82 484C449.384 483.869 448.166 483.081 448.166 481.634C448.166 481.102 448.329 480.481 448.656 479.772C449.235 479.707 449.757 479.623 450.224 479.52C450.7 479.408 451.069 479.296 451.33 479.184ZM470.818 478.386C470.855 479.469 470.659 480.439 470.23 481.298C469.81 482.147 469.222 482.815 468.466 483.3C467.719 483.776 466.898 484.014 466.002 484.014C465.003 484.014 464.261 483.818 463.776 483.426C463.291 483.025 463.048 482.427 463.048 481.634C463.048 481.541 463.057 481.373 463.076 481.13C463.113 480.775 463.132 480.537 463.132 480.416C463.132 480.155 463.095 479.959 463.02 479.828C462.945 479.688 462.819 479.618 462.642 479.618C462.409 479.618 462.189 479.753 461.984 480.024C461.788 480.295 461.629 480.715 461.508 481.284L460.948 483.93C460.817 483.911 460.715 483.902 460.64 483.902C459.203 483.743 458.073 483.669 457.252 483.678C457.513 482.502 458.045 480.785 458.848 478.526C459.651 476.267 460.351 474.433 460.948 473.024L464.952 473.416C464.728 473.845 464.476 474.298 464.196 474.774C463.832 475.427 463.547 475.945 463.342 476.328C463.146 476.711 462.969 477.112 462.81 477.532C463.435 477.345 463.935 477.252 464.308 477.252C464.924 477.252 465.423 477.415 465.806 477.742C466.189 478.069 466.38 478.507 466.38 479.058C466.38 479.273 466.361 479.469 466.324 479.646C466.287 479.823 466.235 480.019 466.17 480.234C466.114 480.439 466.086 480.556 466.086 480.584C466.086 480.668 466.128 480.71 466.212 480.71C466.455 480.71 466.655 480.645 466.814 480.514C466.973 480.383 467.113 480.103 467.234 479.674C467.365 479.245 467.481 478.587 467.584 477.7C468.079 477.961 468.587 478.143 469.11 478.246C469.642 478.339 470.211 478.386 470.818 478.386Z" fill="black"/>
<path d="M449.188 622.97C450.252 622.97 451.041 623.059 451.554 623.236C452.067 623.404 452.417 623.717 452.604 624.174C452.8 624.631 452.898 625.336 452.898 626.288C452.898 627.511 452.879 628.425 452.842 629.032C452.805 629.629 452.73 630.087 452.618 630.404C452.515 630.721 452.352 631.001 452.128 631.244C451.885 631.505 451.442 631.711 450.798 631.86C450.154 632 449.239 632.103 448.054 632.168C447.905 631.141 447.713 630.343 447.48 629.774C447.275 630.409 446.999 631.16 446.654 632.028C445.478 631.608 444.265 631.281 443.014 631.048C443.611 630.152 444.078 629.312 444.414 628.528C444.75 627.735 444.997 626.862 445.156 625.91L443.434 626.078C443.453 625.033 443.327 624.048 443.056 623.124C444.064 623.087 444.848 623.063 445.408 623.054C445.417 622.69 445.422 622.111 445.422 621.318H448.866C448.847 621.775 448.81 622.326 448.754 622.97H449.188ZM455.53 621.962C455.95 623.39 456.253 624.608 456.44 625.616C456.627 626.624 456.79 627.954 456.93 629.606L453.64 630.068C453.593 628.519 453.467 627.175 453.262 626.036C453.066 624.897 452.735 623.619 452.268 622.2L455.53 621.962ZM449.44 628.878C449.561 628.785 449.655 628.565 449.72 628.22C449.795 627.875 449.832 627.431 449.832 626.89C449.832 626.507 449.809 626.237 449.762 626.078C449.725 625.919 449.641 625.817 449.51 625.77C449.389 625.714 449.174 625.686 448.866 625.686C448.689 625.686 448.544 625.691 448.432 625.7C448.236 626.913 447.998 627.996 447.718 628.948C448.119 628.995 448.437 629.018 448.67 629.018C449.081 629.018 449.337 628.971 449.44 628.878ZM467.01 630.824C466.795 628.957 466.473 627.357 466.044 626.022C465.615 624.678 465.059 623.423 464.378 622.256L467.654 621.766C468.419 622.942 469.035 624.141 469.502 625.364C469.969 626.587 470.393 628.122 470.776 629.97L467.01 630.824ZM464.616 629.438C464.047 630.101 463.314 630.665 462.418 631.132C461.531 631.599 460.705 631.832 459.94 631.832C459.511 631.832 459.105 631.734 458.722 631.538C458.349 631.342 458.036 631.029 457.784 630.6C457.541 630.161 457.415 629.606 457.406 628.934C457.397 627.991 457.453 627.133 457.574 626.358C457.695 625.574 457.905 624.519 458.204 623.194L458.456 622.088L462.208 622.256C461.881 623.376 461.639 624.277 461.48 624.958C461.321 625.639 461.172 626.479 461.032 627.478C461.013 627.646 461.004 627.753 461.004 627.8C461.004 627.996 461.051 628.094 461.144 628.094C461.275 628.094 461.508 627.912 461.844 627.548C462.189 627.184 462.707 626.568 463.398 625.7C463.51 626.54 463.659 627.254 463.846 627.842C464.042 628.421 464.299 628.953 464.616 629.438ZM455.362 642.354C455.157 641.682 454.849 641.005 454.438 640.324L455.726 639.988C456.146 640.651 456.463 641.327 456.678 642.018L455.362 642.354ZM453.668 642.774C453.463 642.102 453.155 641.43 452.744 640.758L454.032 640.422C454.433 641.066 454.746 641.743 454.97 642.452L453.668 642.774ZM450.644 644.734L448.908 644.86C448.609 646.325 448.152 647.669 447.536 648.892C446.929 650.115 446.178 651.16 445.282 652.028C444.89 651.309 444.517 650.717 444.162 650.25C443.807 649.783 443.434 649.368 443.042 649.004C443.677 648.5 444.185 647.931 444.568 647.296C444.951 646.652 445.249 645.873 445.464 644.958H444.176L444.148 642.172L445.87 642.158L445.926 641.304H449.3C449.3 641.472 449.291 641.715 449.272 642.032C450.224 641.967 450.989 641.906 451.568 641.85V643.516C452.856 643.311 454.153 643.208 455.46 643.208H455.964L456.356 646.148C456.197 646.139 455.955 646.134 455.628 646.134C454.097 646.134 452.436 646.293 450.644 646.61V644.734ZM451.33 647.184C451.265 647.576 451.232 647.851 451.232 648.01C451.232 648.383 451.316 648.635 451.484 648.766C451.652 648.897 451.918 648.962 452.282 648.962C452.945 648.962 453.687 648.911 454.508 648.808C455.339 648.705 455.969 648.579 456.398 648.43C456.146 649.214 455.969 650.315 455.866 651.734C455.474 651.827 455.007 651.902 454.466 651.958C453.925 652.005 453.374 652.028 452.814 652.028C452.562 652.028 452.231 652.019 451.82 652C449.384 651.869 448.166 651.081 448.166 649.634C448.166 649.102 448.329 648.481 448.656 647.772C449.235 647.707 449.757 647.623 450.224 647.52C450.7 647.408 451.069 647.296 451.33 647.184ZM470.818 646.386C470.855 647.469 470.659 648.439 470.23 649.298C469.81 650.147 469.222 650.815 468.466 651.3C467.719 651.776 466.898 652.014 466.002 652.014C465.003 652.014 464.261 651.818 463.776 651.426C463.291 651.025 463.048 650.427 463.048 649.634C463.048 649.541 463.057 649.373 463.076 649.13C463.113 648.775 463.132 648.537 463.132 648.416C463.132 648.155 463.095 647.959 463.02 647.828C462.945 647.688 462.819 647.618 462.642 647.618C462.409 647.618 462.189 647.753 461.984 648.024C461.788 648.295 461.629 648.715 461.508 649.284L460.948 651.93C460.817 651.911 460.715 651.902 460.64 651.902C459.203 651.743 458.073 651.669 457.252 651.678C457.513 650.502 458.045 648.785 458.848 646.526C459.651 644.267 460.351 642.433 460.948 641.024L464.952 641.416C464.728 641.845 464.476 642.298 464.196 642.774C463.832 643.427 463.547 643.945 463.342 644.328C463.146 644.711 462.969 645.112 462.81 645.532C463.435 645.345 463.935 645.252 464.308 645.252C464.924 645.252 465.423 645.415 465.806 645.742C466.189 646.069 466.38 646.507 466.38 647.058C466.38 647.273 466.361 647.469 466.324 647.646C466.287 647.823 466.235 648.019 466.17 648.234C466.114 648.439 466.086 648.556 466.086 648.584C466.086 648.668 466.128 648.71 466.212 648.71C466.455 648.71 466.655 648.645 466.814 648.514C466.973 648.383 467.113 648.103 467.234 647.674C467.365 647.245 467.481 646.587 467.584 645.7C468.079 645.961 468.587 646.143 469.11 646.246C469.642 646.339 470.211 646.386 470.818 646.386Z" fill="black"/>
<path d="M410.02 406.74C410.02 407.08 409.927 407.337 409.74 407.51C409.56 407.677 409.19 407.797 408.63 407.87C408.077 407.943 407.21 407.98 406.03 407.98C406.003 407.633 405.953 407.34 405.88 407.1C405.813 406.86 405.717 406.643 405.59 406.45C405.397 406.67 405.177 406.87 404.93 407.05C404.55 407.33 404.08 407.557 403.52 407.73C402.967 407.897 402.263 408.043 401.41 408.17C401.263 407.837 401.103 407.53 400.93 407.25C400.757 406.963 400.53 406.677 400.25 406.39C400.91 406.363 401.533 406.307 402.12 406.22C402.713 406.133 403.193 406.017 403.56 405.87H400.88V404.48H404.51L404.53 404.23H401.14V400.49H409.89V404.23H406.53L406.5 404.48H410.02V406.74ZM404.52 402.01V401.74H403.25V402.01H404.52ZM406.51 402.01H407.78V401.74H406.51V402.01ZM404.52 402.72H403.25V402.98H404.52V402.72ZM406.51 402.72V402.98H407.78V402.72H406.51ZM407.3 406.16C407.493 406.14 407.607 406.043 407.64 405.87H406.02C405.927 406.017 405.853 406.123 405.8 406.19C406.633 406.19 407.133 406.18 407.3 406.16ZM420.24 403.12V405.1H417.21C417.37 405.293 417.48 405.49 417.54 405.69C417.6 405.89 417.63 406.113 417.63 406.36C417.63 406.847 417.427 407.233 417.02 407.52C416.62 407.8 416.133 407.953 415.56 407.98C415.433 407.987 415.243 407.99 414.99 407.99C414.457 407.99 413.647 407.93 412.56 407.81C412.56 407.37 412.543 406.99 412.51 406.67C412.477 406.343 412.393 405.963 412.26 405.53C413.22 405.79 413.973 405.92 414.52 405.92C414.82 405.92 415.033 405.883 415.16 405.81C415.287 405.73 415.35 405.633 415.35 405.52C415.35 405.413 415.343 405.273 415.33 405.1H410.76V403.12H414.98L414.69 402.8C415.117 402.787 415.503 402.673 415.85 402.46H411.42V400.53H419.84V402.38C419.873 402.413 419.803 402.45 419.63 402.49C419.463 402.53 419.37 402.553 419.35 402.56C418.503 402.84 417.89 403.027 417.51 403.12H420.24ZM405.21 411.73C404.983 412.09 404.81 412.447 404.69 412.8C404.57 413.147 404.437 413.603 404.29 414.17C402.917 413.677 401.303 413.243 399.45 412.87V416.05H396.63C396.677 414.93 396.703 413.81 396.71 412.69C396.723 411.57 396.73 410.17 396.73 408.49H399.45V410.56C400.33 410.667 401.29 410.827 402.33 411.04C403.377 411.253 404.337 411.483 405.21 411.73ZM415.46 409.43C415.007 410.03 414.557 410.527 414.11 410.92C413.67 411.307 413.143 411.657 412.53 411.97V415.96H409.76V412.84C408.833 413.007 407.65 413.14 406.21 413.24C406.157 412.72 406.093 412.27 406.02 411.89C405.953 411.51 405.833 411.113 405.66 410.7C406.713 410.707 407.643 410.673 408.45 410.6C409.257 410.527 409.92 410.393 410.44 410.2C411.513 409.793 412.347 409.18 412.94 408.36L415.46 409.43ZM423.41 409.51C423.71 409.877 424.02 410.197 424.34 410.47C424.667 410.743 425.033 411 425.44 411.24C424.733 412.38 423.77 413.39 422.55 414.27C421.337 415.143 419.82 415.743 418 416.07L416.14 414.76V408.66H418.83V413.31C419.73 413.103 420.573 412.68 421.36 412.04C422.153 411.4 422.837 410.557 423.41 409.51Z" fill="black"/>
<path d="M410.02 742.74C410.02 743.08 409.927 743.337 409.74 743.51C409.56 743.677 409.19 743.797 408.63 743.87C408.077 743.943 407.21 743.98 406.03 743.98C406.003 743.633 405.953 743.34 405.88 743.1C405.813 742.86 405.717 742.643 405.59 742.45C405.397 742.67 405.177 742.87 404.93 743.05C404.55 743.33 404.08 743.557 403.52 743.73C402.967 743.897 402.263 744.043 401.41 744.17C401.263 743.837 401.103 743.53 400.93 743.25C400.757 742.963 400.53 742.677 400.25 742.39C400.91 742.363 401.533 742.307 402.12 742.22C402.713 742.133 403.193 742.017 403.56 741.87H400.88V740.48H404.51L404.53 740.23H401.14V736.49H409.89V740.23H406.53L406.5 740.48H410.02V742.74ZM404.52 738.01V737.74H403.25V738.01H404.52ZM406.51 738.01H407.78V737.74H406.51V738.01ZM404.52 738.72H403.25V738.98H404.52V738.72ZM406.51 738.72V738.98H407.78V738.72H406.51ZM407.3 742.16C407.493 742.14 407.607 742.043 407.64 741.87H406.02C405.927 742.017 405.853 742.123 405.8 742.19C406.633 742.19 407.133 742.18 407.3 742.16ZM420.24 739.12V741.1H417.21C417.37 741.293 417.48 741.49 417.54 741.69C417.6 741.89 417.63 742.113 417.63 742.36C417.63 742.847 417.427 743.233 417.02 743.52C416.62 743.8 416.133 743.953 415.56 743.98C415.433 743.987 415.243 743.99 414.99 743.99C414.457 743.99 413.647 743.93 412.56 743.81C412.56 743.37 412.543 742.99 412.51 742.67C412.477 742.343 412.393 741.963 412.26 741.53C413.22 741.79 413.973 741.92 414.52 741.92C414.82 741.92 415.033 741.883 415.16 741.81C415.287 741.73 415.35 741.633 415.35 741.52C415.35 741.413 415.343 741.273 415.33 741.1H410.76V739.12H414.98L414.69 738.8C415.117 738.787 415.503 738.673 415.85 738.46H411.42V736.53H419.84V738.38C419.873 738.413 419.803 738.45 419.63 738.49C419.463 738.53 419.37 738.553 419.35 738.56C418.503 738.84 417.89 739.027 417.51 739.12H420.24ZM405.21 747.73C404.983 748.09 404.81 748.447 404.69 748.8C404.57 749.147 404.437 749.603 404.29 750.17C402.917 749.677 401.303 749.243 399.45 748.87V752.05H396.63C396.677 750.93 396.703 749.81 396.71 748.69C396.723 747.57 396.73 746.17 396.73 744.49H399.45V746.56C400.33 746.667 401.29 746.827 402.33 747.04C403.377 747.253 404.337 747.483 405.21 747.73ZM415.46 745.43C415.007 746.03 414.557 746.527 414.11 746.92C413.67 747.307 413.143 747.657 412.53 747.97V751.96H409.76V748.84C408.833 749.007 407.65 749.14 406.21 749.24C406.157 748.72 406.093 748.27 406.02 747.89C405.953 747.51 405.833 747.113 405.66 746.7C406.713 746.707 407.643 746.673 408.45 746.6C409.257 746.527 409.92 746.393 410.44 746.2C411.513 745.793 412.347 745.18 412.94 744.36L415.46 745.43ZM423.41 745.51C423.71 745.877 424.02 746.197 424.34 746.47C424.667 746.743 425.033 747 425.44 747.24C424.733 748.38 423.77 749.39 422.55 750.27C421.337 751.143 419.82 751.743 418 752.07L416.14 750.76V744.66H418.83V749.31C419.73 749.103 420.573 748.68 421.36 748.04C422.153 747.4 422.837 746.557 423.41 745.51Z" fill="black"/>
<path d="M410.41 237.85C409.943 238.543 409.623 239.263 409.45 240.01C408.423 239.523 407.493 239.107 406.66 238.76C406.107 239.087 405.437 239.347 404.65 239.54C403.87 239.733 402.883 239.907 401.69 240.06C401.597 239.88 401.49 239.65 401.37 239.37C401.343 239.317 401.25 239.12 401.09 238.78C400.93 238.433 400.747 238.073 400.54 237.7C401.1 237.807 401.67 237.86 402.25 237.86C402.817 237.86 403.377 237.81 403.93 237.71C403.01 237.39 402.17 237.14 401.41 236.96C401.87 236.373 402.293 235.743 402.68 235.07H400.86V232.96H403.69C403.743 232.82 403.817 232.61 403.91 232.33L406.51 232.4L406.29 232.96H410.24V235.07H407.43L409.18 235.56C408.847 236.253 408.553 236.797 408.3 237.19L410.41 237.85ZM405.24 235.07L404.61 236.14C405.063 236.253 405.547 236.383 406.06 236.53C406.36 236.063 406.587 235.577 406.74 235.07H405.24ZM420.24 235.12V237.1H417.21C417.37 237.293 417.48 237.49 417.54 237.69C417.6 237.89 417.63 238.113 417.63 238.36C417.63 238.847 417.427 239.233 417.02 239.52C416.62 239.8 416.133 239.953 415.56 239.98C415.433 239.987 415.243 239.99 414.99 239.99C414.457 239.99 413.647 239.93 412.56 239.81C412.56 239.37 412.543 238.99 412.51 238.67C412.477 238.343 412.393 237.963 412.26 237.53C413.22 237.79 413.973 237.92 414.52 237.92C414.82 237.92 415.033 237.883 415.16 237.81C415.287 237.73 415.35 237.633 415.35 237.52C415.35 237.413 415.343 237.273 415.33 237.1H410.76V235.12H414.98L414.69 234.8C415.117 234.787 415.503 234.673 415.85 234.46H411.42V232.53H419.84V234.38C419.873 234.413 419.803 234.45 419.63 234.49C419.463 234.53 419.37 234.553 419.35 234.56C418.503 234.84 417.89 235.027 417.51 235.12H420.24ZM405.21 243.73C404.983 244.09 404.81 244.447 404.69 244.8C404.57 245.147 404.437 245.603 404.29 246.17C402.917 245.677 401.303 245.243 399.45 244.87V248.05H396.63C396.677 246.93 396.703 245.81 396.71 244.69C396.723 243.57 396.73 242.17 396.73 240.49H399.45V242.56C400.33 242.667 401.29 242.827 402.33 243.04C403.377 243.253 404.337 243.483 405.21 243.73ZM415.46 241.43C415.007 242.03 414.557 242.527 414.11 242.92C413.67 243.307 413.143 243.657 412.53 243.97V247.96H409.76V244.84C408.833 245.007 407.65 245.14 406.21 245.24C406.157 244.72 406.093 244.27 406.02 243.89C405.953 243.51 405.833 243.113 405.66 242.7C406.713 242.707 407.643 242.673 408.45 242.6C409.257 242.527 409.92 242.393 410.44 242.2C411.513 241.793 412.347 241.18 412.94 240.36L415.46 241.43ZM423.41 241.51C423.71 241.877 424.02 242.197 424.34 242.47C424.667 242.743 425.033 243 425.44 243.24C424.733 244.38 423.77 245.39 422.55 246.27C421.337 247.143 419.82 247.743 418 248.07L416.14 246.76V240.66H418.83V245.31C419.73 245.103 420.573 244.68 421.36 244.04C422.153 243.4 422.837 242.557 423.41 241.51Z" fill="black"/>
<path d="M410.41 573.85C409.943 574.543 409.623 575.263 409.45 576.01C408.423 575.523 407.493 575.107 406.66 574.76C406.107 575.087 405.437 575.347 404.65 575.54C403.87 575.733 402.883 575.907 401.69 576.06C401.597 575.88 401.49 575.65 401.37 575.37C401.343 575.317 401.25 575.12 401.09 574.78C400.93 574.433 400.747 574.073 400.54 573.7C401.1 573.807 401.67 573.86 402.25 573.86C402.817 573.86 403.377 573.81 403.93 573.71C403.01 573.39 402.17 573.14 401.41 572.96C401.87 572.373 402.293 571.743 402.68 571.07H400.86V568.96H403.69C403.743 568.82 403.817 568.61 403.91 568.33L406.51 568.4L406.29 568.96H410.24V571.07H407.43L409.18 571.56C408.847 572.253 408.553 572.797 408.3 573.19L410.41 573.85ZM405.24 571.07L404.61 572.14C405.063 572.253 405.547 572.383 406.06 572.53C406.36 572.063 406.587 571.577 406.74 571.07H405.24ZM420.24 571.12V573.1H417.21C417.37 573.293 417.48 573.49 417.54 573.69C417.6 573.89 417.63 574.113 417.63 574.36C417.63 574.847 417.427 575.233 417.02 575.52C416.62 575.8 416.133 575.953 415.56 575.98C415.433 575.987 415.243 575.99 414.99 575.99C414.457 575.99 413.647 575.93 412.56 575.81C412.56 575.37 412.543 574.99 412.51 574.67C412.477 574.343 412.393 573.963 412.26 573.53C413.22 573.79 413.973 573.92 414.52 573.92C414.82 573.92 415.033 573.883 415.16 573.81C415.287 573.73 415.35 573.633 415.35 573.52C415.35 573.413 415.343 573.273 415.33 573.1H410.76V571.12H414.98L414.69 570.8C415.117 570.787 415.503 570.673 415.85 570.46H411.42V568.53H419.84V570.38C419.873 570.413 419.803 570.45 419.63 570.49C419.463 570.53 419.37 570.553 419.35 570.56C418.503 570.84 417.89 571.027 417.51 571.12H420.24ZM405.21 579.73C404.983 580.09 404.81 580.447 404.69 580.8C404.57 581.147 404.437 581.603 404.29 582.17C402.917 581.677 401.303 581.243 399.45 580.87V584.05H396.63C396.677 582.93 396.703 581.81 396.71 580.69C396.723 579.57 396.73 578.17 396.73 576.49H399.45V578.56C400.33 578.667 401.29 578.827 402.33 579.04C403.377 579.253 404.337 579.483 405.21 579.73ZM415.46 577.43C415.007 578.03 414.557 578.527 414.11 578.92C413.67 579.307 413.143 579.657 412.53 579.97V583.96H409.76V580.84C408.833 581.007 407.65 581.14 406.21 581.24C406.157 580.72 406.093 580.27 406.02 579.89C405.953 579.51 405.833 579.113 405.66 578.7C406.713 578.707 407.643 578.673 408.45 578.6C409.257 578.527 409.92 578.393 410.44 578.2C411.513 577.793 412.347 577.18 412.94 576.36L415.46 577.43ZM423.41 577.51C423.71 577.877 424.02 578.197 424.34 578.47C424.667 578.743 425.033 579 425.44 579.24C424.733 580.38 423.77 581.39 422.55 582.27C421.337 583.143 419.82 583.743 418 584.07L416.14 582.76V576.66H418.83V581.31C419.73 581.103 420.573 580.68 421.36 580.04C422.153 579.4 422.837 578.557 423.41 577.51Z" fill="black"/>
<path d="M325.89 532.87C326.83 532.87 327.593 532.83 328.18 532.75L328.01 532.55C327.523 532.663 326.987 532.747 326.4 532.8C326.36 532.547 326.297 532.29 326.21 532.03C326.13 531.77 326.013 531.44 325.86 531.04C326.74 531.04 327.483 530.987 328.09 530.88C328.703 530.767 329.277 530.59 329.81 530.35H332.45C332.343 530.443 332.23 530.537 332.11 530.63H333.67L333.9 531.84C333.653 532.053 333.307 532.283 332.86 532.53C332.42 532.77 332.073 532.95 331.82 533.07C331.047 533.43 330.213 533.723 329.32 533.95C328.427 534.17 327.403 534.353 326.25 534.5C326.097 534.047 325.863 533.503 325.55 532.87H325.89ZM329.63 532.05C329.73 532.143 329.847 532.233 329.98 532.32C330.313 532.2 330.617 532.057 330.89 531.89H330.02C329.927 531.937 329.797 531.99 329.63 532.05ZM334.9 533.38L335.45 535.11C334.77 535.763 333.987 536.32 333.1 536.78C332.24 537.22 331.28 537.53 330.22 537.71C329.167 537.883 327.927 537.987 326.5 538.02C326.36 537.28 326.113 536.597 325.76 535.97C326.173 536.017 326.643 536.053 327.17 536.08C327.023 535.827 326.867 535.597 326.7 535.39C326.54 535.177 326.34 534.963 326.1 534.75C327.54 534.59 328.88 534.317 330.12 533.93C331.367 533.543 332.403 533.08 333.23 532.54L334.64 532.88C334.567 532.947 334.373 533.113 334.06 533.38H334.9ZM331.93 534.77L331.55 534.96C331.67 535.087 331.797 535.203 331.93 535.31C332.237 535.19 332.543 535.01 332.85 534.77H331.93ZM330.13 535.84C330.057 535.767 329.99 535.69 329.93 535.61C329.343 535.803 328.783 535.96 328.25 536.08C328.903 536.053 329.53 535.973 330.13 535.84ZM336.07 538.03V530.5H345.03V538.03H342.65V537.9H338.45V538.03H336.07ZM342.65 532.57V532.2H338.45V532.57H342.65ZM342.65 534.31V533.94H338.45V534.31H342.65ZM338.45 535.68V536.05H342.65V535.68H338.45ZM355.09 530.59C355.11 531.437 355.12 532.263 355.12 533.07C355.12 533.863 355.11 534.627 355.09 535.36C355.077 535.913 354.983 536.377 354.81 536.75C354.637 537.123 354.253 537.443 353.66 537.71C353.073 537.977 352.193 538.14 351.02 538.2C351.02 537.84 350.963 537.473 350.85 537.1C350.743 536.727 350.587 536.387 350.38 536.08V537.71H347.92V537.86H345.95V530.89H347.21L347.31 530.35H349.21L349.1 530.89H350.38V532.22C350.533 531.987 350.64 531.723 350.7 531.43C350.767 531.137 350.803 530.78 350.81 530.36H352.85V530.59H355.09ZM352.6 532.45C352.487 532.903 352.367 533.27 352.24 533.55C352.507 533.943 352.763 534.41 353.01 534.95C353.03 534.497 353.04 534.05 353.04 533.61L353.03 532.45H352.6ZM348.42 533.41V532.6H347.92V533.41H348.42ZM350.38 535.96C351.153 535.947 351.713 535.92 352.06 535.88C352.407 535.84 352.647 535.77 352.78 535.67C352.913 535.563 352.987 535.397 353 535.17L351.49 535.86C351.357 535.5 351.187 535.123 350.98 534.73C350.773 534.337 350.583 534.02 350.41 533.78L350.97 533.52C350.817 533.3 350.62 533.07 350.38 532.83V535.96ZM347.92 535.04V535.9H348.42V535.04H347.92ZM365.21 533.73C364.983 534.09 364.81 534.447 364.69 534.8C364.57 535.147 364.437 535.603 364.29 536.17C362.917 535.677 361.303 535.243 359.45 534.87V538.05H356.63C356.677 536.93 356.703 535.81 356.71 534.69C356.723 533.57 356.73 532.17 356.73 530.49H359.45V532.56C360.33 532.667 361.29 532.827 362.33 533.04C363.377 533.253 364.337 533.483 365.21 533.73ZM375.46 531.43C375.007 532.03 374.557 532.527 374.11 532.92C373.67 533.307 373.143 533.657 372.53 533.97V537.96H369.76V534.84C368.833 535.007 367.65 535.14 366.21 535.24C366.157 534.72 366.093 534.27 366.02 533.89C365.953 533.51 365.833 533.113 365.66 532.7C366.713 532.707 367.643 532.673 368.45 532.6C369.257 532.527 369.92 532.393 370.44 532.2C371.513 531.793 372.347 531.18 372.94 530.36L375.46 531.43ZM383.41 531.51C383.71 531.877 384.02 532.197 384.34 532.47C384.667 532.743 385.033 533 385.44 533.24C384.733 534.38 383.77 535.39 382.55 536.27C381.337 537.143 379.82 537.743 378 538.07L376.14 536.76V530.66H378.83V535.31C379.73 535.103 380.573 534.68 381.36 534.04C382.153 533.4 382.837 532.557 383.41 531.51Z" fill="black"/>
<line x1="386" y1="533.5" x2="406" y2="533.5" stroke="#65636D"/>
<line x1="406.5" y1="533" x2="406.5" y2="553" stroke="#65636D"/>
<path d="M325.89 195.87C326.83 195.87 327.593 195.83 328.18 195.75L328.01 195.55C327.523 195.663 326.987 195.747 326.4 195.8C326.36 195.547 326.297 195.29 326.21 195.03C326.13 194.77 326.013 194.44 325.86 194.04C326.74 194.04 327.483 193.987 328.09 193.88C328.703 193.767 329.277 193.59 329.81 193.35H332.45C332.343 193.443 332.23 193.537 332.11 193.63H333.67L333.9 194.84C333.653 195.053 333.307 195.283 332.86 195.53C332.42 195.77 332.073 195.95 331.82 196.07C331.047 196.43 330.213 196.723 329.32 196.95C328.427 197.17 327.403 197.353 326.25 197.5C326.097 197.047 325.863 196.503 325.55 195.87H325.89ZM329.63 195.05C329.73 195.143 329.847 195.233 329.98 195.32C330.313 195.2 330.617 195.057 330.89 194.89H330.02C329.927 194.937 329.797 194.99 329.63 195.05ZM334.9 196.38L335.45 198.11C334.77 198.763 333.987 199.32 333.1 199.78C332.24 200.22 331.28 200.53 330.22 200.71C329.167 200.883 327.927 200.987 326.5 201.02C326.36 200.28 326.113 199.597 325.76 198.97C326.173 199.017 326.643 199.053 327.17 199.08C327.023 198.827 326.867 198.597 326.7 198.39C326.54 198.177 326.34 197.963 326.1 197.75C327.54 197.59 328.88 197.317 330.12 196.93C331.367 196.543 332.403 196.08 333.23 195.54L334.64 195.88C334.567 195.947 334.373 196.113 334.06 196.38H334.9ZM331.93 197.77L331.55 197.96C331.67 198.087 331.797 198.203 331.93 198.31C332.237 198.19 332.543 198.01 332.85 197.77H331.93ZM330.13 198.84C330.057 198.767 329.99 198.69 329.93 198.61C329.343 198.803 328.783 198.96 328.25 199.08C328.903 199.053 329.53 198.973 330.13 198.84ZM336.07 201.03V193.5H345.03V201.03H342.65V200.9H338.45V201.03H336.07ZM342.65 195.57V195.2H338.45V195.57H342.65ZM342.65 197.31V196.94H338.45V197.31H342.65ZM338.45 198.68V199.05H342.65V198.68H338.45ZM355.09 193.59C355.11 194.437 355.12 195.263 355.12 196.07C355.12 196.863 355.11 197.627 355.09 198.36C355.077 198.913 354.983 199.377 354.81 199.75C354.637 200.123 354.253 200.443 353.66 200.71C353.073 200.977 352.193 201.14 351.02 201.2C351.02 200.84 350.963 200.473 350.85 200.1C350.743 199.727 350.587 199.387 350.38 199.08V200.71H347.92V200.86H345.95V193.89H347.21L347.31 193.35H349.21L349.1 193.89H350.38V195.22C350.533 194.987 350.64 194.723 350.7 194.43C350.767 194.137 350.803 193.78 350.81 193.36H352.85V193.59H355.09ZM352.6 195.45C352.487 195.903 352.367 196.27 352.24 196.55C352.507 196.943 352.763 197.41 353.01 197.95C353.03 197.497 353.04 197.05 353.04 196.61L353.03 195.45H352.6ZM348.42 196.41V195.6H347.92V196.41H348.42ZM350.38 198.96C351.153 198.947 351.713 198.92 352.06 198.88C352.407 198.84 352.647 198.77 352.78 198.67C352.913 198.563 352.987 198.397 353 198.17L351.49 198.86C351.357 198.5 351.187 198.123 350.98 197.73C350.773 197.337 350.583 197.02 350.41 196.78L350.97 196.52C350.817 196.3 350.62 196.07 350.38 195.83V198.96ZM347.92 198.04V198.9H348.42V198.04H347.92ZM365.21 196.73C364.983 197.09 364.81 197.447 364.69 197.8C364.57 198.147 364.437 198.603 364.29 199.17C362.917 198.677 361.303 198.243 359.45 197.87V201.05H356.63C356.677 199.93 356.703 198.81 356.71 197.69C356.723 196.57 356.73 195.17 356.73 193.49H359.45V195.56C360.33 195.667 361.29 195.827 362.33 196.04C363.377 196.253 364.337 196.483 365.21 196.73ZM375.46 194.43C375.007 195.03 374.557 195.527 374.11 195.92C373.67 196.307 373.143 196.657 372.53 196.97V200.96H369.76V197.84C368.833 198.007 367.65 198.14 366.21 198.24C366.157 197.72 366.093 197.27 366.02 196.89C365.953 196.51 365.833 196.113 365.66 195.7C366.713 195.707 367.643 195.673 368.45 195.6C369.257 195.527 369.92 195.393 370.44 195.2C371.513 194.793 372.347 194.18 372.94 193.36L375.46 194.43ZM383.41 194.51C383.71 194.877 384.02 195.197 384.34 195.47C384.667 195.743 385.033 196 385.44 196.24C384.733 197.38 383.77 198.39 382.55 199.27C381.337 200.143 379.82 200.743 378 201.07L376.14 199.76V193.66H378.83V198.31C379.73 198.103 380.573 197.68 381.36 197.04C382.153 196.4 382.837 195.557 383.41 194.51Z" fill="black"/>
<line x1="386" y1="196.5" x2="406" y2="196.5" stroke="#65636D"/>
<line x1="406.5" y1="196" x2="406.5" y2="216" stroke="#65636D"/>
<path d="M18.036 42.36C15.492 42.36 13.152 41.736 11.016 40.488C8.88 39.216 7.176 37.512 5.904 35.376C4.656 33.24 4.032 30.9 4.032 28.356C4.032 25.812 4.656 23.472 5.904 21.336C7.176 19.2 8.88 17.508 11.016 16.26C13.152 15.012 15.492 14.388 18.036 14.388C20.556 14.388 22.884 15.012 25.02 16.26C27.18 17.508 28.884 19.2 30.132 21.336C31.38 23.472 32.004 25.812 32.004 28.356C32.004 30.9 31.38 33.24 30.132 35.376C28.884 37.512 27.18 39.216 25.02 40.488C22.884 41.736 20.556 42.36 18.036 42.36ZM67.824 30.66V37.428H62.928V42H54.324C54.42 40.992 54.492 39.468 54.54 37.428H37.44V30.156C43.032 25.86 48.024 21.096 52.416 15.864H62.928V30.66H67.824ZM54.72 22.992C53.064 24.696 51.636 26.124 50.436 27.276C49.236 28.404 47.88 29.532 46.368 30.66H54.612L54.72 22.992ZM71.8138 14.964H102.702V24.468H71.8138V14.964ZM81.4978 20.256H93.0538V19.104H81.4978V20.256ZM104.214 29.904H80.2738C80.2258 30.24 80.1778 30.492 80.1298 30.66H102.846C102.846 32.964 102.726 34.8 102.486 36.168C102.246 37.512 101.706 38.652 100.866 39.588C100.05 40.5 98.7778 41.16 97.0498 41.568C96.0898 41.808 94.8538 41.964 93.3418 42.036C91.8298 42.132 89.9218 42.18 87.6178 42.18C86.4658 42.18 84.3778 42.156 81.3538 42.108L76.9258 42.072C76.4218 40.104 75.8818 38.532 75.3058 37.356L70.5538 36.672C71.3218 34.488 71.8858 32.232 72.2458 29.904H70.1218V25.116H104.214V29.904ZM79.0858 35.376L78.8698 36.132C82.7578 36.252 85.7338 36.312 87.7978 36.312C89.7418 36.312 91.2538 36.252 92.3338 36.132C93.7258 36.012 94.6258 35.76 95.0338 35.376H79.0858ZM139.422 31.344H129.774V32.1H139.998V42.072H133.59V41.568H129.774V42.072H123.582V38.076C122.838 39.108 121.986 40.56 121.026 42.432C119.538 41.424 118.47 40.644 117.822 40.092C116.67 40.356 114.162 40.884 110.298 41.676C108.234 42.084 107.238 42.276 107.31 42.252C106.998 40.836 106.698 39.636 106.41 38.652C106.146 37.644 105.786 36.6 105.33 35.52C105.714 35.544 106.314 35.556 107.13 35.556V25.404L106.194 25.908C106.122 24.804 105.942 23.64 105.654 22.416C105.366 21.168 104.994 20.028 104.538 18.996C106.05 18.66 107.55 18.048 109.038 17.16C110.55 16.248 111.678 15.324 112.422 14.388H119.478C119.238 14.82 118.962 15.276 118.65 15.756C119.874 16.38 121.134 16.944 122.43 17.448V16.296H127.398V14.532H134.49V16.296H140.538V24.432H139.422V31.344ZM117.138 20.256L115.878 19.14L114.69 20.256H117.138ZM122.43 22.704V20.904C122.022 21.528 121.674 22.128 121.386 22.704H122.43ZM134.13 21.804V21.084H128.586V21.804H134.13ZM113.358 21.372C112.494 22.02 111.882 22.464 111.522 22.704H113.358V21.372ZM120.018 22.704L118.434 21.408V22.704H120.018ZM119.55 34.08C121.014 35.16 122.358 36.06 123.582 36.78V24.432H122.43V34.08H119.55ZM116.526 25.476H113.43V26.34H116.526V25.476ZM129.774 27.06H132.978V25.944H129.774V27.06ZM113.43 29.4V30.264H116.526V29.4H113.43ZM117.894 34.08H113.43V35.34C114.894 35.196 116.214 35.016 117.39 34.8L117.894 34.08ZM133.59 37.104V35.988H129.774V37.104H133.59Z" fill="black"/>
<path d="M356.59 308.85V310.73H355.23V312H352.84C352.867 311.72 352.887 311.297 352.9 310.73H348.15V308.71C349.703 307.517 351.09 306.193 352.31 304.74H355.23V308.85H356.59ZM352.95 306.72C352.49 307.193 352.093 307.59 351.76 307.91C351.427 308.223 351.05 308.537 350.63 308.85H352.92L352.95 306.72ZM361.588 309.57H357.288V307.62H361.588V309.57ZM367.871 308.32C368.111 308.273 368.347 308.25 368.581 308.25C368.987 308.25 369.317 308.32 369.571 308.46C369.831 308.593 370.017 308.767 370.131 308.98C370.244 309.187 370.301 309.403 370.301 309.63C370.301 310.157 370.127 310.607 369.781 310.98C369.434 311.347 368.964 311.627 368.371 311.82C367.777 312.007 367.117 312.1 366.391 312.1C364.284 312.1 362.921 311.367 362.301 309.9L362.861 309.76C363.274 309.66 363.624 309.567 363.911 309.48C364.204 309.387 364.461 309.283 364.681 309.17C364.814 309.503 365.004 309.743 365.251 309.89C365.504 310.03 365.851 310.1 366.291 310.1C366.757 310.1 367.137 310.047 367.431 309.94C367.724 309.833 367.871 309.673 367.871 309.46C367.871 309.347 367.814 309.26 367.701 309.2C367.587 309.14 367.407 309.1 367.161 309.08C366.914 309.053 366.567 309.04 366.121 309.04H365.361V307.29H365.821C366.327 307.29 366.741 307.27 367.061 307.23C367.381 307.183 367.541 307.087 367.541 306.94C367.541 306.773 367.454 306.64 367.281 306.54C367.114 306.433 366.851 306.38 366.491 306.38C366.024 306.38 365.644 306.477 365.351 306.67C365.064 306.863 364.841 307.143 364.681 307.51C363.967 307.223 363.207 307.02 362.401 306.9C362.721 306.18 363.211 305.623 363.871 305.23C364.537 304.837 365.394 304.64 366.441 304.64C367.121 304.64 367.731 304.73 368.271 304.91C368.817 305.083 369.244 305.327 369.551 305.64C369.864 305.953 370.021 306.303 370.021 306.69C370.021 306.917 369.967 307.12 369.861 307.3C369.754 307.473 369.544 307.647 369.231 307.82C368.917 307.987 368.464 308.153 367.871 308.32ZM375.119 310.15C375.719 310.137 376.163 310.123 376.449 310.11V312H371.159V310.11C371.879 310.137 372.423 310.15 372.789 310.15V306.7C372.549 307.227 372.059 307.567 371.319 307.72C371.299 306.933 371.226 306.217 371.099 305.57C371.633 305.497 372.003 305.407 372.209 305.3C372.423 305.187 372.586 305.063 372.699 304.93C372.819 304.797 372.899 304.707 372.939 304.66V304.64H375.119V310.15ZM380.67 312.1C379.237 312.1 378.18 311.77 377.5 311.11C376.82 310.45 376.48 309.533 376.48 308.36C376.48 307.193 376.82 306.283 377.5 305.63C378.187 304.97 379.243 304.64 380.67 304.64C382.097 304.64 383.15 304.97 383.83 305.63C384.51 306.283 384.85 307.193 384.85 308.36C384.85 309.533 384.51 310.45 383.83 311.11C383.15 311.77 382.097 312.1 380.67 312.1ZM380.68 310.35C381.293 310.35 381.74 310.163 382.02 309.79C382.3 309.41 382.44 308.933 382.44 308.36C382.44 307.793 382.3 307.323 382.02 306.95C381.74 306.57 381.293 306.38 380.68 306.38C380.047 306.38 379.587 306.57 379.3 306.95C379.02 307.323 378.88 307.793 378.88 308.36C378.88 308.927 379.02 309.4 379.3 309.78C379.587 310.16 380.047 310.35 380.68 310.35ZM346.906 322.39V324.07H344.526C344.686 324.237 344.766 324.41 344.766 324.59C344.766 324.857 344.642 325.097 344.396 325.31C344.149 325.523 343.789 325.693 343.316 325.82C342.842 325.94 342.279 326 341.626 326C341.339 326 341.006 325.987 340.626 325.96C340.246 325.927 339.722 325.873 339.056 325.8C339.056 325.44 339.029 325.127 338.976 324.86C338.922 324.593 338.839 324.33 338.726 324.07H337.286V322.39H342.336C342.489 322.337 342.642 322.263 342.796 322.17H338.746V321.87H337.556V319.16H338.476L338.296 318.56L340.376 318.4L340.576 319.16H341.096L340.896 318.36L342.976 318.2L343.196 319.16H343.596L343.796 318.4L345.876 318.56L345.696 319.16H346.636V321.87H345.456L345.496 322.05L345.096 322.13C344.896 322.19 344.616 322.277 344.256 322.39H346.906ZM339.546 320.77H344.646V320.59H339.546V320.77ZM339.096 324.07C339.996 324.237 340.739 324.32 341.326 324.32C341.906 324.32 342.239 324.237 342.326 324.07H339.096ZM353.456 323.99H356.646V325.92H347.546V323.99H350.856V323.41H348.316V322.6L348.066 322.83C347.899 322.343 347.739 321.927 347.586 321.58C347.439 321.227 347.262 320.887 347.056 320.56C347.396 320.327 347.666 320.02 347.866 319.64C348.072 319.26 348.179 318.833 348.186 318.36L350.446 318.38C350.392 318.76 350.352 319.003 350.326 319.11H350.856V318.38H353.456V319.11H356.446V320.97H353.456V321.55H356.176V323.41H353.456V323.99ZM350.856 321.55V320.97H349.606C349.492 321.17 349.369 321.363 349.236 321.55H350.856ZM363.096 324.1C363.602 324.193 364.046 324.263 364.426 324.31C364.812 324.35 365.242 324.37 365.716 324.37C366.142 324.37 366.579 324.357 367.026 324.33C366.739 324.63 366.512 324.913 366.346 325.18C366.179 325.44 366.049 325.717 365.956 326.01C364.569 325.843 363.299 325.477 362.146 324.91C361.666 325.19 361.079 325.423 360.386 325.61C359.699 325.797 359.022 325.93 358.356 326.01C358.169 325.517 357.772 324.957 357.166 324.33C357.566 324.35 357.942 324.36 358.296 324.36C358.909 324.36 359.446 324.337 359.906 324.29C360.366 324.243 360.696 324.18 360.896 324.1H357.286V322.83H361.066V322.63H357.926V321.65H361.066V321.45H357.856V320.69H357.306V318.6H360.946V318.31H363.236V318.6H366.876V320.69H366.336V321.45H363.126V321.65H366.266V322.63H363.126V322.83H366.906V324.1H363.096ZM359.526 320.12V320.45H361.066V320.28H363.126V320.45H364.666V320.12H359.526ZM376.586 323.88H375.026C375.266 323.987 375.542 324.06 375.856 324.1C376.176 324.133 376.589 324.15 377.096 324.15C376.956 324.41 376.826 324.703 376.706 325.03C376.586 325.357 376.516 325.547 376.496 325.6L376.316 326.1C375.876 325.993 375.489 325.837 375.156 325.63C374.822 325.417 374.489 325.113 374.156 324.72C373.796 325.127 373.422 325.44 373.036 325.66C372.656 325.88 372.276 326.007 371.896 326.04L371.656 325.4L371.466 324.9C371.466 325.187 371.422 325.407 371.336 325.56C371.249 325.707 371.116 325.813 370.936 325.88C370.756 325.94 370.492 325.983 370.146 326.01L370.126 325.71L369.856 325.76C369.816 325.473 369.762 325.167 369.696 324.84C369.629 324.507 369.569 324.233 369.516 324.02H369.996L370.086 324.36C370.146 324.3 370.176 324.203 370.176 324.07C370.176 324.03 370.169 323.957 370.156 323.85H368.316C368.309 323.89 368.306 323.947 368.306 324.02H368.756C368.796 324.28 368.839 324.59 368.886 324.95C368.939 325.31 368.969 325.633 368.976 325.92L368.446 325.98C368.432 325.767 368.396 325.38 368.336 324.82C368.322 324.747 368.309 324.643 368.296 324.51L368.286 324.72C368.272 325.227 368.242 325.657 368.196 326.01C367.889 325.95 367.576 325.91 367.256 325.89C367.342 325.45 367.399 325.1 367.426 324.84C367.452 324.58 367.472 324.25 367.486 323.85H367.406V318.51H371.416V319.09C371.669 319.083 371.879 319.073 372.046 319.06C372.212 319.04 372.379 319.007 372.546 318.96C372.732 318.907 372.862 318.833 372.936 318.74C373.016 318.64 373.066 318.5 373.086 318.32H374.936C374.909 318.46 374.866 318.61 374.806 318.77C375.126 318.89 375.462 318.97 375.816 319.01C376.176 319.05 376.606 319.077 377.106 319.09C377.079 319.197 376.996 319.57 376.856 320.21L376.756 320.68C376.676 320.667 376.622 320.653 376.596 320.64V321.06H375.036V321.22H376.586V323.88ZM374.536 319.95C374.436 319.897 374.292 319.803 374.106 319.67C373.992 319.757 373.852 319.85 373.686 319.95H374.536ZM369.706 320.12V319.87H369.026V320.12H369.706ZM370.906 319.87V320.12H371.286C371.279 320.08 371.262 319.997 371.236 319.87H370.906ZM371.466 324.16L371.696 324.17C371.982 324.17 372.249 324.143 372.496 324.09C372.749 324.03 372.949 323.96 373.096 323.88H371.626V321.22H373.176V321.06H371.716V320.63L371.366 320.68L371.346 320.53V321.16H370.906V321.42H371.346V322.43H370.906V322.69H371.466V324.16ZM369.026 321.16V321.42H369.706V321.16H369.026ZM373.056 322.23V322.73H373.456V322.23H373.056ZM374.756 322.73H375.126V322.23H374.756V322.73ZM369.706 322.43H369.026V322.69H369.706V322.43ZM369.376 324.02C369.496 324.527 369.602 325.113 369.696 325.78L369.146 325.89C369.119 325.497 369.052 325 368.946 324.4C368.939 324.333 368.929 324.267 368.916 324.2C368.902 324.133 368.892 324.073 368.886 324.02H369.376ZM383.236 318.65H386.876V320.78H385.936V321.26H385.626C385.879 321.693 386.162 322.113 386.476 322.52C386.142 322.56 385.776 322.633 385.376 322.74C384.976 322.847 384.636 322.963 384.356 323.09C384.242 322.91 384.169 322.79 384.136 322.73L378.146 322.95C378.119 322.723 378.082 322.527 378.036 322.36C377.996 322.187 377.919 321.947 377.806 321.64L379.146 321.61L379.386 321.26H378.256V320.78H377.306V318.65H380.946V318.32H383.236V318.65ZM384.796 320.2V319.99H379.396V320.2H384.796ZM383.596 321.53L383.496 321.26H381.486L381.276 321.58L383.596 321.53ZM386.596 324.42H383.166V324.62H386.836V325.96H377.356V324.62H381.026V324.42H377.596V323.2H381.026V322.98H383.166V323.2H386.596V324.42ZM393.076 322.32C393.316 322.273 393.552 322.25 393.786 322.25C394.192 322.25 394.522 322.32 394.776 322.46C395.036 322.593 395.222 322.767 395.336 322.98C395.449 323.187 395.506 323.403 395.506 323.63C395.506 324.157 395.332 324.607 394.986 324.98C394.639 325.347 394.169 325.627 393.576 325.82C392.982 326.007 392.322 326.1 391.596 326.1C389.489 326.1 388.126 325.367 387.506 323.9L388.066 323.76C388.479 323.66 388.829 323.567 389.116 323.48C389.409 323.387 389.666 323.283 389.886 323.17C390.019 323.503 390.209 323.743 390.456 323.89C390.709 324.03 391.056 324.1 391.496 324.1C391.962 324.1 392.342 324.047 392.636 323.94C392.929 323.833 393.076 323.673 393.076 323.46C393.076 323.347 393.019 323.26 392.906 323.2C392.792 323.14 392.612 323.1 392.366 323.08C392.119 323.053 391.772 323.04 391.326 323.04H390.566V321.29H391.026C391.532 321.29 391.946 321.27 392.266 321.23C392.586 321.183 392.746 321.087 392.746 320.94C392.746 320.773 392.659 320.64 392.486 320.54C392.319 320.433 392.056 320.38 391.696 320.38C391.229 320.38 390.849 320.477 390.556 320.67C390.269 320.863 390.046 321.143 389.886 321.51C389.172 321.223 388.412 321.02 387.606 320.9C387.926 320.18 388.416 319.623 389.076 319.23C389.742 318.837 390.599 318.64 391.646 318.64C392.326 318.64 392.936 318.73 393.476 318.91C394.022 319.083 394.449 319.327 394.756 319.64C395.069 319.953 395.226 320.303 395.226 320.69C395.226 320.917 395.172 321.12 395.066 321.3C394.959 321.473 394.749 321.647 394.436 321.82C394.122 321.987 393.669 322.153 393.076 322.32Z" fill="black"/>
<path d="M356.819 476.85V478.73H355.459V480H353.069C353.096 479.72 353.116 479.297 353.129 478.73H348.379V476.71C349.933 475.517 351.319 474.193 352.539 472.74H355.459V476.85H356.819ZM353.179 474.72C352.719 475.193 352.323 475.59 351.989 475.91C351.656 476.223 351.279 476.537 350.859 476.85H353.149L353.179 474.72ZM361.818 477.57H357.518V475.62H361.818V477.57ZM365.03 478.25C367.197 478.13 368.877 477.997 370.07 477.85C369.957 478.197 369.87 478.563 369.81 478.95C369.75 479.337 369.72 479.687 369.72 480H362.57L362.56 479.79C362.56 479.137 362.75 478.57 363.13 478.09C363.517 477.61 364.053 477.167 364.74 476.76C364.94 476.64 365.253 476.487 365.68 476.3C366.233 476.06 366.66 475.85 366.96 475.67C367.26 475.483 367.41 475.3 367.41 475.12C367.41 474.893 367.317 474.713 367.13 474.58C366.943 474.447 366.653 474.38 366.26 474.38C365.827 474.38 365.497 474.49 365.27 474.71C365.05 474.93 364.94 475.21 364.94 475.55C364.94 475.657 364.95 475.767 364.97 475.88C364.13 475.773 363.313 475.7 362.52 475.66C362.52 475.093 362.667 474.583 362.96 474.13C363.26 473.67 363.707 473.307 364.3 473.04C364.9 472.773 365.633 472.64 366.5 472.64C367.293 472.64 367.953 472.75 368.48 472.97C369.013 473.183 369.403 473.457 369.65 473.79C369.903 474.117 370.03 474.453 370.03 474.8C370.03 475.2 369.94 475.543 369.76 475.83C369.587 476.117 369.333 476.373 369 476.6C368.673 476.82 368.233 477.06 367.68 477.32C367.6 477.36 367.47 477.407 367.29 477.46C367.11 477.507 366.997 477.537 366.95 477.55C366.477 477.69 366.1 477.807 365.82 477.9C365.54 477.993 365.277 478.11 365.03 478.25ZM374.89 478.15C375.49 478.137 375.933 478.123 376.22 478.11V480H370.93V478.11C371.65 478.137 372.193 478.15 372.56 478.15V474.7C372.32 475.227 371.83 475.567 371.09 475.72C371.07 474.933 370.996 474.217 370.87 473.57C371.403 473.497 371.773 473.407 371.98 473.3C372.193 473.187 372.356 473.063 372.47 472.93C372.59 472.797 372.67 472.707 372.71 472.66V472.64H374.89V478.15ZM380.441 480.1C379.007 480.1 377.951 479.77 377.271 479.11C376.591 478.45 376.251 477.533 376.251 476.36C376.251 475.193 376.591 474.283 377.271 473.63C377.957 472.97 379.014 472.64 380.441 472.64C381.867 472.64 382.921 472.97 383.601 473.63C384.281 474.283 384.621 475.193 384.621 476.36C384.621 477.533 384.281 478.45 383.601 479.11C382.921 479.77 381.867 480.1 380.441 480.1ZM380.451 478.35C381.064 478.35 381.511 478.163 381.791 477.79C382.071 477.41 382.211 476.933 382.211 476.36C382.211 475.793 382.071 475.323 381.791 474.95C381.511 474.57 381.064 474.38 380.451 474.38C379.817 474.38 379.357 474.57 379.071 474.95C378.791 475.323 378.651 475.793 378.651 476.36C378.651 476.927 378.791 477.4 379.071 477.78C379.357 478.16 379.817 478.35 380.451 478.35ZM347.135 490.39V492.07H344.755C344.915 492.237 344.995 492.41 344.995 492.59C344.995 492.857 344.872 493.097 344.625 493.31C344.379 493.523 344.019 493.693 343.545 493.82C343.072 493.94 342.509 494 341.855 494C341.569 494 341.235 493.987 340.855 493.96C340.475 493.927 339.952 493.873 339.285 493.8C339.285 493.44 339.259 493.127 339.205 492.86C339.152 492.593 339.069 492.33 338.955 492.07H337.515V490.39H342.565C342.719 490.337 342.872 490.263 343.025 490.17H338.975V489.87H337.785V487.16H338.705L338.525 486.56L340.605 486.4L340.805 487.16H341.325L341.125 486.36L343.205 486.2L343.425 487.16H343.825L344.025 486.4L346.105 486.56L345.925 487.16H346.865V489.87H345.685L345.725 490.05L345.325 490.13C345.125 490.19 344.845 490.277 344.485 490.39H347.135ZM339.775 488.77H344.875V488.59H339.775V488.77ZM339.325 492.07C340.225 492.237 340.969 492.32 341.555 492.32C342.135 492.32 342.469 492.237 342.555 492.07H339.325ZM353.685 491.99H356.875V493.92H347.775V491.99H351.085V491.41H348.545V490.6L348.295 490.83C348.129 490.343 347.969 489.927 347.815 489.58C347.669 489.227 347.492 488.887 347.285 488.56C347.625 488.327 347.895 488.02 348.095 487.64C348.302 487.26 348.409 486.833 348.415 486.36L350.675 486.38C350.622 486.76 350.582 487.003 350.555 487.11H351.085V486.38H353.685V487.11H356.675V488.97H353.685V489.55H356.405V491.41H353.685V491.99ZM351.085 489.55V488.97H349.835C349.722 489.17 349.599 489.363 349.465 489.55H351.085ZM363.325 492.1C363.832 492.193 364.275 492.263 364.655 492.31C365.042 492.35 365.472 492.37 365.945 492.37C366.372 492.37 366.809 492.357 367.255 492.33C366.969 492.63 366.742 492.913 366.575 493.18C366.409 493.44 366.279 493.717 366.185 494.01C364.799 493.843 363.529 493.477 362.375 492.91C361.895 493.19 361.309 493.423 360.615 493.61C359.929 493.797 359.252 493.93 358.585 494.01C358.399 493.517 358.002 492.957 357.395 492.33C357.795 492.35 358.172 492.36 358.525 492.36C359.139 492.36 359.675 492.337 360.135 492.29C360.595 492.243 360.925 492.18 361.125 492.1H357.515V490.83H361.295V490.63H358.155V489.65H361.295V489.45H358.085V488.69H357.535V486.6H361.175V486.31H363.465V486.6H367.105V488.69H366.565V489.45H363.355V489.65H366.495V490.63H363.355V490.83H367.135V492.1H363.325ZM359.755 488.12V488.45H361.295V488.28H363.355V488.45H364.895V488.12H359.755ZM376.815 491.88H375.255C375.495 491.987 375.772 492.06 376.085 492.1C376.405 492.133 376.819 492.15 377.325 492.15C377.185 492.41 377.055 492.703 376.935 493.03C376.815 493.357 376.745 493.547 376.725 493.6L376.545 494.1C376.105 493.993 375.719 493.837 375.385 493.63C375.052 493.417 374.719 493.113 374.385 492.72C374.025 493.127 373.652 493.44 373.265 493.66C372.885 493.88 372.505 494.007 372.125 494.04L371.885 493.4L371.695 492.9C371.695 493.187 371.652 493.407 371.565 493.56C371.479 493.707 371.345 493.813 371.165 493.88C370.985 493.94 370.722 493.983 370.375 494.01L370.355 493.71L370.085 493.76C370.045 493.473 369.992 493.167 369.925 492.84C369.859 492.507 369.799 492.233 369.745 492.02H370.225L370.315 492.36C370.375 492.3 370.405 492.203 370.405 492.07C370.405 492.03 370.399 491.957 370.385 491.85H368.545C368.539 491.89 368.535 491.947 368.535 492.02H368.985C369.025 492.28 369.069 492.59 369.115 492.95C369.169 493.31 369.199 493.633 369.205 493.92L368.675 493.98C368.662 493.767 368.625 493.38 368.565 492.82C368.552 492.747 368.539 492.643 368.525 492.51L368.515 492.72C368.502 493.227 368.472 493.657 368.425 494.01C368.119 493.95 367.805 493.91 367.485 493.89C367.572 493.45 367.629 493.1 367.655 492.84C367.682 492.58 367.702 492.25 367.715 491.85H367.635V486.51H371.645V487.09C371.899 487.083 372.109 487.073 372.275 487.06C372.442 487.04 372.609 487.007 372.775 486.96C372.962 486.907 373.092 486.833 373.165 486.74C373.245 486.64 373.295 486.5 373.315 486.32H375.165C375.139 486.46 375.095 486.61 375.035 486.77C375.355 486.89 375.692 486.97 376.045 487.01C376.405 487.05 376.835 487.077 377.335 487.09C377.309 487.197 377.225 487.57 377.085 488.21L376.985 488.68C376.905 488.667 376.852 488.653 376.825 488.64V489.06H375.265V489.22H376.815V491.88ZM374.765 487.95C374.665 487.897 374.522 487.803 374.335 487.67C374.222 487.757 374.082 487.85 373.915 487.95H374.765ZM369.935 488.12V487.87H369.255V488.12H369.935ZM371.135 487.87V488.12H371.515C371.509 488.08 371.492 487.997 371.465 487.87H371.135ZM371.695 492.16L371.925 492.17C372.212 492.17 372.479 492.143 372.725 492.09C372.979 492.03 373.179 491.96 373.325 491.88H371.855V489.22H373.405V489.06H371.945V488.63L371.595 488.68L371.575 488.53V489.16H371.135V489.42H371.575V490.43H371.135V490.69H371.695V492.16ZM369.255 489.16V489.42H369.935V489.16H369.255ZM373.285 490.23V490.73H373.685V490.23H373.285ZM374.985 490.73H375.355V490.23H374.985V490.73ZM369.935 490.43H369.255V490.69H369.935V490.43ZM369.605 492.02C369.725 492.527 369.832 493.113 369.925 493.78L369.375 493.89C369.349 493.497 369.282 493 369.175 492.4C369.169 492.333 369.159 492.267 369.145 492.2C369.132 492.133 369.122 492.073 369.115 492.02H369.605ZM383.465 486.65H387.105V488.78H386.165V489.26H385.855C386.109 489.693 386.392 490.113 386.705 490.52C386.372 490.56 386.005 490.633 385.605 490.74C385.205 490.847 384.865 490.963 384.585 491.09C384.472 490.91 384.399 490.79 384.365 490.73L378.375 490.95C378.349 490.723 378.312 490.527 378.265 490.36C378.225 490.187 378.149 489.947 378.035 489.64L379.375 489.61L379.615 489.26H378.485V488.78H377.535V486.65H381.175V486.32H383.465V486.65ZM385.025 488.2V487.99H379.625V488.2H385.025ZM383.825 489.53L383.725 489.26H381.715L381.505 489.58L383.825 489.53ZM386.825 492.42H383.395V492.62H387.065V493.96H377.585V492.62H381.255V492.42H377.825V491.2H381.255V490.98H383.395V491.2H386.825V492.42ZM390.235 492.25C392.402 492.13 394.082 491.997 395.275 491.85C395.162 492.197 395.075 492.563 395.015 492.95C394.955 493.337 394.925 493.687 394.925 494H387.775L387.765 493.79C387.765 493.137 387.955 492.57 388.335 492.09C388.722 491.61 389.259 491.167 389.945 490.76C390.145 490.64 390.459 490.487 390.885 490.3C391.439 490.06 391.865 489.85 392.165 489.67C392.465 489.483 392.615 489.3 392.615 489.12C392.615 488.893 392.522 488.713 392.335 488.58C392.149 488.447 391.859 488.38 391.465 488.38C391.032 488.38 390.702 488.49 390.475 488.71C390.255 488.93 390.145 489.21 390.145 489.55C390.145 489.657 390.155 489.767 390.175 489.88C389.335 489.773 388.519 489.7 387.725 489.66C387.725 489.093 387.872 488.583 388.165 488.13C388.465 487.67 388.912 487.307 389.505 487.04C390.105 486.773 390.839 486.64 391.705 486.64C392.499 486.64 393.159 486.75 393.685 486.97C394.219 487.183 394.609 487.457 394.855 487.79C395.109 488.117 395.235 488.453 395.235 488.8C395.235 489.2 395.145 489.543 394.965 489.83C394.792 490.117 394.539 490.373 394.205 490.6C393.879 490.82 393.439 491.06 392.885 491.32C392.805 491.36 392.675 491.407 392.495 491.46C392.315 491.507 392.202 491.537 392.155 491.55C391.682 491.69 391.305 491.807 391.025 491.9C390.745 491.993 390.482 492.11 390.235 492.25Z" fill="black"/>
<path d="M316.83 566.86V566.31C316.15 566.53 315.487 566.653 314.84 566.68C314.833 566.367 314.807 566.003 314.76 565.59C314.72 565.177 314.673 564.813 314.62 564.5C314.687 564.507 314.793 564.51 314.94 564.51C315.327 564.51 315.743 564.48 316.19 564.42C316.643 564.353 317.04 564.26 317.38 564.14C317.68 564.027 317.897 563.91 318.03 563.79C318.17 563.663 318.253 563.5 318.28 563.3H320.75C320.697 563.493 320.63 563.673 320.55 563.84C321.13 564.06 321.75 564.227 322.41 564.34C323.07 564.453 323.743 564.507 324.43 564.5C324.283 565.267 324.183 565.993 324.13 566.68C323.49 566.607 322.837 566.473 322.17 566.28V566.86H316.83ZM320.26 565.54C319.867 565.34 319.563 565.173 319.35 565.04C319.083 565.24 318.83 565.407 318.59 565.54H320.26ZM323.83 568.44H322.41C322.857 568.693 323.463 568.907 324.23 569.08C324.203 569.127 324.17 569.197 324.13 569.29C323.95 569.65 323.807 569.96 323.7 570.22C323.593 570.473 323.503 570.747 323.43 571.04C323.097 570.893 322.863 570.787 322.73 570.72C319.737 570.8 317.247 570.89 315.26 570.99C315.22 570.617 315.173 570.283 315.12 569.99C315.067 569.69 314.983 569.353 314.87 568.98L316.19 569L316.53 568.44H315.17V567.07H323.83V568.44ZM320.14 568.66L320.79 568.44H318.97L318.63 569H320.46L320.14 568.66ZM334.19 567.59V568.54H333.64L333.74 568.62L333.54 568.89C333.733 568.97 333.927 569.03 334.12 569.07L334.14 569.51C334.16 569.87 334.17 570.18 334.17 570.44C334.17 570.64 334.09 570.773 333.93 570.84C333.777 570.9 333.557 570.93 333.27 570.93C332.797 570.93 332.373 570.743 332 570.37C331.62 570.643 331.197 570.853 330.73 571L330.2 570.32C330.193 570.473 330.133 570.597 330.02 570.69C329.907 570.783 329.71 570.857 329.43 570.91C329.15 570.957 328.76 570.987 328.26 571C328.193 570.573 328.077 570.203 327.91 569.89C328.143 569.89 328.3 569.88 328.38 569.86C328.467 569.833 328.517 569.787 328.53 569.72C328.43 569.72 328.287 569.727 328.1 569.74C328.1 569.427 328.05 569.08 327.95 568.7C328.203 568.713 328.397 568.72 328.53 568.72V568.54H328V567.59H328.53V567.41C328.41 567.417 328.233 567.42 328 567.42C328 567.267 327.993 567.147 327.98 567.06C327.973 566.973 327.95 566.873 327.91 566.76C329.203 566.747 330.16 566.733 330.78 566.72V567.38L330.2 567.39V567.59H331C330.987 567.363 330.98 567.173 330.98 567.02L330.97 566.74H332.5V567.02L332.98 566.62H327.95V565.75H324.78V564.64H328V565.73H330.13V565.56H328.16V564.74H330.13V564.57H328.18V563.68H329.24L329.16 563.37L330.76 563.28C330.773 563.367 330.803 563.5 330.85 563.68H331.26C331.3 563.54 331.327 563.407 331.34 563.28L332.95 563.37L332.88 563.68H333.95V564.57H331.98V564.74H333.95V565.56H331.98V565.73H334.16V566.62H333.37C333.67 566.767 333.93 566.923 334.15 567.09L333.56 567.59H334.19ZM324.94 563.47H327.77V564.47H324.94V563.47ZM324.94 565.92H327.77V566.95H324.94V565.92ZM327.77 568.15H324.94V567.1H327.77V568.15ZM332.51 567.59H333.11C332.917 567.443 332.713 567.323 332.5 567.23L332.51 567.59ZM326.26 571.06H324.89V568.32H327.88V570.94H326.26V571.06ZM330.2 569.75C330.64 569.697 331.027 569.61 331.36 569.49C331.233 569.23 331.14 568.913 331.08 568.54H330.2V568.69C330.36 568.677 330.65 568.65 331.07 568.61C331.03 568.737 331.003 568.867 330.99 569C330.983 569.133 330.98 569.297 330.98 569.49L330.2 569.58V569.75ZM332.7 568.8C332.807 568.72 332.913 568.633 333.02 568.54H332.63L332.7 568.8ZM333.2 569.61C333.207 569.61 333.21 569.597 333.21 569.57L333.19 569.3C333.163 569.327 333.137 569.357 333.11 569.39C333.083 569.423 333.05 569.457 333.01 569.49C333.043 569.543 333.107 569.583 333.2 569.61ZM326.51 569.78V569.33H326.26V569.78H326.51ZM340.64 563.65H344.28V565.78H343.34V566.26H343.03C343.283 566.693 343.567 567.113 343.88 567.52C343.547 567.56 343.18 567.633 342.78 567.74C342.38 567.847 342.04 567.963 341.76 568.09C341.647 567.91 341.573 567.79 341.54 567.73L335.55 567.95C335.523 567.723 335.487 567.527 335.44 567.36C335.4 567.187 335.323 566.947 335.21 566.64L336.55 566.61L336.79 566.26H335.66V565.78H334.71V563.65H338.35V563.32H340.64V563.65ZM342.2 565.2V564.99H336.8V565.2H342.2ZM341 566.53L340.9 566.26H338.89L338.68 566.58L341 566.53ZM344 569.42H340.57V569.62H344.24V570.96H334.76V569.62H338.43V569.42H335V568.2H338.43V567.98H340.57V568.2H344V569.42Z" fill="black"/>
</svg>
