<svg width="596" height="842" viewBox="0 0 596 842" fill="none" xmlns="http://www.w3.org/2000/svg">
<path d="M277.265 98.127V732.417" stroke="black" stroke-width="2.835" stroke-miterlimit="10" stroke-dasharray="8.5 5.67"/>
<path d="M459.807 589.146H459.917V636.993" stroke="black" stroke-width="0.567" stroke-miterlimit="10"/>
<path d="M256.586 721.779V673.78H257.296V721.779" fill="black"/>
<path d="M237.345 672.543H257.308V673.974H237.345" fill="black"/>
<path d="M237.746 720.871H257.417V721.581H237.746" fill="black"/>
<path d="M237.625 673.061H257.296V673.771H237.625" fill="black"/>
<path d="M237.345 720.626H257.308V722.056H237.345" fill="black"/>
<path d="M244.895 696.77H256.817V697.479H244.895V696.77Z" fill="black"/>
<path d="M75.926 588.57H78.086V587.86H75.926V588.57Z" fill="black"/>
<path d="M78.086 588.569H255.916V587.859H78.086V588.569Z" fill="black"/>
<path d="M100.165 638.019H145.366V637.299H100.165V638.019Z" fill="black"/>
<path d="M145.766 638.008H146.476V637.298H145.766V638.008Z" fill="black"/>
<path d="M257.366 590.02H258.076V587.86H257.366V590.02Z" fill="black"/>
<path d="M146.486 638.008H255.916V637.299H146.486V638.008Z" fill="black"/>
<path d="M145.046 637.738H145.766V588.132H145.046V637.738Z" fill="black"/>
<path d="M145.766 638.008H146.476V637.298H145.766V638.008Z" fill="black"/>
<path d="M145.766 672.569H146.476V671.859H145.766V672.569Z" fill="black"/>
<path d="M146.486 672.568H235.516V671.858H146.486V672.568Z" fill="black"/>
<path d="M277.046 637.299H277.766V588.578H277.046V637.299Z" fill="black"/>
<path d="M391.046 637.299H391.766V589.298H391.046V637.299Z" fill="black"/>
<path d="M436.645 637.299H437.355V589.298H436.645V637.299Z" fill="black"/>
<path d="M145.053 673.36H145.763V636.509H145.053V673.36Z" fill="black"/>
<path d="M167.846 637.738H168.556V588.132H167.846V637.738Z" fill="black"/>
<path d="M190.646 637.738H191.356V588.132H190.646V637.738Z" fill="black"/>
<path d="M213.446 637.738H214.156V588.132H213.446V637.738Z" fill="black"/>
<path d="M257.366 635.848H258.076V590.019H257.366V635.848Z" fill="black"/>
<path d="M75.926 590.02H76.646V587.86H75.926V590.02Z" fill="black"/>
<path d="M75.926 722.009H78.086V721.299H75.926V722.009Z" fill="black"/>
<path d="M236.965 674.019H237.675V671.859H236.965V674.019Z" fill="black"/>
<path d="M78.086 722.009H235.526V721.299H78.086V722.009Z" fill="black"/>
<path d="M145.766 672.569H146.476V671.859H145.766V672.569Z" fill="black"/>
<path d="M236.965 722.02H237.675V719.86H236.965V722.02Z" fill="black"/>
<path d="M145.046 721.737H145.766V672.131H145.046V721.737Z" fill="black"/>
<path d="M236.965 719.849H237.675V674.019H236.965V719.849Z" fill="black"/>
<path d="M345.446 721.299H346.157V673.299H345.446V721.299Z" fill="black"/>
<path d="M75.926 719.849H76.646V590.02H75.926V719.849Z" fill="black"/>
<path d="M167.846 721.737H168.556V672.131H167.846V721.737Z" fill="black"/>
<path d="M190.646 721.737H191.356V672.131H190.646V721.737Z" fill="black"/>
<path d="M213.446 721.737H214.156V672.131H213.446V721.737Z" fill="black"/>
<path d="M277.046 721.299H277.766V672.579H277.046V721.299Z" fill="black"/>
<path d="M299.846 721.299H300.556V673.299H299.846V721.299Z" fill="black"/>
<path d="M322.645 721.299H323.355V673.299H322.645V721.299Z" fill="black"/>
<path d="M368.246 721.299H368.967V673.299H368.246V721.299Z" fill="black"/>
<path d="M391.046 721.299H391.766V673.299H391.046V721.299Z" fill="black"/>
<path d="M413.846 721.299H414.556V673.299H413.846V721.299Z" fill="black"/>
<path d="M436.645 721.299H437.355V673.299H436.645V721.299Z" fill="black"/>
<path d="M527.846 721.299H528.555V589.299H527.846V721.299Z" fill="black"/>
<path d="M75.926 722.02H76.646V719.86H75.926V722.02Z" fill="black"/>
<path d="M257.366 638.019H258.076V635.859H257.366V638.019Z" fill="black"/>
<path d="M336.326 637.299H337.036V589.298H336.326V637.299Z" fill="black"/>
<path d="M505.047 721.299H505.767V589.299H505.047V721.299Z" fill="black"/>
<path d="M99.445 638.018H100.155V588.25H99.445V638.018Z" fill="black"/>
<path d="M122.246 638.018H122.966V588.25H122.246V638.018Z" fill="black"/>
<path d="M277.766 589.3H528.556V588.58H277.766V589.3Z" fill="black"/>
<path d="M258.086 595.299H277.766V594.579H258.086V595.299Z" fill="black"/>
<path d="M277.766 637.299H528.556V636.579H277.766V637.299Z" fill="black"/>
<path d="M277.766 673.299H505.766V672.579H277.766V673.299Z" fill="black"/>
<path d="M257.366 715.3H277.766V714.58H257.366V715.3Z" fill="black"/>
<path d="M277.766 721.299H528.556V720.579H277.766V721.299Z" fill="black"/>
<path fill-rule="evenodd" clip-rule="evenodd" d="M263.846 725.14L267.206 715.539L270.446 725.14H263.846Z" fill="black"/>
<path d="M263.486 725.499L267.206 714.699L270.926 725.499H263.486ZM270.446 724.899L270.206 725.259L266.966 715.659H267.446L264.206 725.259L263.846 724.899H270.446Z" fill="black"/>
<path fill-rule="evenodd" clip-rule="evenodd" d="M270.446 584.619L267.206 594.098L263.846 584.619H270.446Z" fill="black"/>
<path d="M270.926 584.379L267.206 594.929L263.486 584.379H270.926ZM263.846 584.98L264.206 584.619L267.446 594.099H266.966L270.206 584.619L270.446 584.98H263.846Z" fill="black"/>
<path d="M436.707 673.374V636.14H437.418V673.374" fill="black"/>
<path d="M482.245 395.351H482.966V347.728H482.245V395.351Z" fill="black"/>
<path d="M256.646 394.977H257.356V347.444H256.646V394.977Z" fill="black"/>
<path d="M277.766 431.85H301.951V431.14H277.766V431.85Z" fill="black"/>
<path d="M167.846 394.977H168.556V347.444H167.846V394.977Z" fill="black"/>
<path d="M213.446 394.977H214.156V347.444H213.446V394.977Z" fill="black"/>
<path d="M236.246 394.977H236.966V347.444H236.246V394.977Z" fill="black"/>
<path d="M276.802 394.977H277.512V347.444H276.802V394.977Z" fill="black"/>
<path d="M368.246 395.351H368.967V347.728H368.246V395.351Z" fill="black"/>
<path d="M391.046 395.351H391.766V347.728H391.046V395.351Z" fill="black"/>
<path d="M436.645 395.351H437.355V347.728H436.645V395.351Z" fill="black"/>
<path d="M482.245 431.446H482.966V395.444H482.245V431.446Z" fill="black"/>
<path d="M368.246 454.487H368.967V431.447H368.246V454.487Z" fill="black"/>
<path d="M527.845 455.619H528.566V347.125H527.845V455.619Z" fill="black"/>
<path d="M277.046 455.619H277.766V431.14H277.046V455.619Z" fill="black"/>
<path d="M322.921 455.622H323.223V431.57H322.921V455.622Z" fill="black"/>
<path d="M391.046 454.487H391.766V431.447H391.046V454.487Z" fill="black"/>
<path d="M436.645 454.487H437.355V431.447H436.645V454.487Z" fill="black"/>
<path d="M122.246 395.576H122.966V347.445H122.246V395.576Z" fill="black"/>
<path d="M299.846 455.615H300.566V431.4H299.846V455.615Z" fill="black"/>
<path d="M459.445 454.487H460.156V431.447H459.445V454.487Z" fill="black"/>
<path d="M482.245 454.487H482.966V431.447H482.245V454.487Z" fill="black"/>
<path d="M167.846 455.619H168.556V431.446H167.846V455.619Z" fill="black"/>
<path d="M190.646 455.619H191.356V431.446H190.646V455.619Z" fill="black"/>
<path d="M213.446 455.619H214.156V431.446H213.446V455.619Z" fill="black"/>
<path d="M345.446 454.487H346.157V431.447H345.446V454.487Z" fill="black"/>
<path d="M99.445 395.576H100.155V347.445H99.445V395.576Z" fill="black"/>
<path d="M413.846 454.487H414.556V431.447H413.846V454.487Z" fill="black"/>
<path d="M237.686 479.849H257.356V479.138H237.686V479.849Z" fill="black"/>
<path d="M277.766 479.849H301.951V479.138H277.766V479.849Z" fill="black"/>
<path d="M277.046 491.619H277.766V449.499H277.046V491.619Z" fill="black"/>
<path d="M391.046 479.825H391.766V450.915H391.046V479.825Z" fill="black"/>
<path d="M436.645 479.825H437.355V450.915H436.645V479.825Z" fill="black"/>
<path d="M527.845 479.876H528.566V449.499H527.845V479.876Z" fill="black"/>
<path d="M145.046 479.483H145.766V449.499H145.046V479.483Z" fill="black"/>
<path d="M167.846 479.483H168.556V449.499H167.846V479.483Z" fill="black"/>
<path d="M190.646 479.483H191.356V449.499H190.646V479.483Z" fill="black"/>
<path d="M213.446 479.483H214.156V449.499H213.446V479.483Z" fill="black"/>
<path d="M236.268 455.619H236.978V431.446H236.268V455.619Z" fill="black"/>
<path d="M236.268 479.483H236.978V449.499H236.268V479.483Z" fill="black"/>
<path d="M299.846 479.589H300.566V449.734H299.846V479.589Z" fill="black"/>
<path d="M322.921 479.412H323.223V449.233H322.921V479.412Z" fill="black"/>
<path d="M345.446 479.825H346.157V450.915H345.446V479.825Z" fill="black"/>
<path d="M368.246 479.825H368.967V450.915H368.246V479.825Z" fill="black"/>
<path d="M413.846 479.825H414.556V450.915H413.846V479.825Z" fill="black"/>
<path d="M459.445 479.825H460.156V450.915H459.445V479.825Z" fill="black"/>
<path d="M482.245 479.825H482.966V450.915H482.245V479.825Z" fill="black"/>
<path d="M301.286 479.86H528.595V479.139H301.286V479.86Z" fill="black"/>
<path d="M277.351 347.139H528.595V347.859H277.351" fill="black"/>
<path d="M301.285 431.139H482.543V431.86H301.285" fill="black"/>
<path d="M267.206 493.54H266.606V455.14H267.206V493.54ZM269.126 492.82L266.846 497.139L264.686 492.82H269.126Z" fill="black"/>
<path d="M237.565 431.328H257.235V432.038H237.565" fill="black"/>
<path d="M256.525 492.529V432.048H257.235V492.529" fill="black"/>
<path d="M244.835 455.748H256.757V455.039H244.835V455.748Z" fill="black"/>
<path d="M267.206 493.54H266.606V455.14H267.206V493.54ZM269.126 492.82L266.846 497.139L264.686 492.82H269.126Z" fill="black"/>
<path d="M322.708 479.651H323.419V431.462H322.708V479.651Z" fill="black"/>
<path d="M145.046 452.417V347.718H145.766V452.417" fill="black"/>
<path d="M145.406 431.129H257.387V431.839H145.406" fill="black"/>
<path d="M277.766 431.129H440.126V431.839H277.766" fill="black"/>
<path d="M257.053 479.839H76.637V479.129H256.97" fill="black"/>
<path d="M277.512 479.129H440.137V479.839H277.512" fill="black"/>
<path d="M75.9262 479.839V347.129H76.6462V479.839" fill="black"/>
<path d="M527.846 479.849V347.849H528.556V479.849" fill="black"/>
<path d="M76.0531 347.129H528.566V347.839H76.0531" fill="black"/>
<path d="M99.6781 394.773H528.201V395.483H99.6781" fill="black"/>
<path d="M438.086 431.129H482.72V431.839H438.086" fill="black"/>
<path d="M438.086 479.129H528.565V479.839H438.086" fill="black"/>
<path d="M145.046 205.417V118.288H145.766V205.417" fill="black"/>
<path d="M76.3837 201.699H257.387V202.409H76.3837" fill="black"/>
<path d="M256.646 165.537V118.288H257.356V165.537" fill="black"/>
<path d="M237.686 201.699H257.356V202.409H237.686" fill="black"/>
<path d="M277.046 165.537V118.288H277.766V165.537" fill="black"/>
<path d="M277.766 201.699H440.126V202.409H277.766" fill="black"/>
<path d="M322.645 165.537V118.288H323.355V165.537" fill="black"/>
<path d="M391.045 165.698V118.004H391.765V165.698" fill="black"/>
<path d="M368.268 165.698V118.004H368.988V165.698" fill="black"/>
<path d="M436.645 250.042V118.167H437.355V250.042" fill="black"/>
<path d="M76.6366 249.699H440.137V250.409H76.6366" fill="black"/>
<path d="M277.046 250.409V201.699H277.766V250.409" fill="black"/>
<path d="M75.9262 248.969V119.139H76.6462V248.969" fill="black"/>
<path d="M122.246 250.114V202.419H122.966V250.114" fill="black"/>
<path d="M145.046 250.104V203.139H145.766V250.104" fill="black"/>
<path d="M167.846 250.193V202.004H168.556V250.193" fill="black"/>
<path d="M213.446 250.193V202.004H214.156V250.193" fill="black"/>
<path d="M256.646 250.418V202.419H257.356V250.418" fill="black"/>
<path d="M368.245 250.193V202.004H368.966V250.193" fill="black"/>
<path d="M391.045 250.193V202.004H391.765V250.193" fill="black"/>
<path d="M482.245 250.419V202.419H482.966V250.419" fill="black"/>
<path d="M527.846 250.419V118.419H528.556V250.419" fill="black"/>
<path d="M190.646 250.193V202.004H191.356V250.193" fill="black"/>
<path d="M322.645 250.193V202.004H323.355V250.193" fill="black"/>
<path d="M298.535 250.193V202.004H299.245V250.193" fill="black"/>
<path d="M236.66 250.193V202.004H237.37V250.193" fill="black"/>
<path d="M345.446 250.193V202.004H346.157V250.193" fill="black"/>
<path d="M459.807 249.699V202.419H459.917V249.699" fill="black"/>
<path d="M459.807 249.699V202.419H459.917V249.699" stroke="black" stroke-width="0.2" stroke-miterlimit="10"/>
<path d="M204.326 165.537V118.288H205.036V165.537" fill="black"/>
<path d="M76.0531 117.699H528.566V118.409H76.0531" fill="black"/>
<path d="M144.95 165.343H437.27V166.053H144.95" fill="black"/>
<path d="M438.086 201.699H528.565V202.409H438.086" fill="black"/>
<path d="M438.086 249.699H528.565V250.409H438.086" fill="black"/>
<path d="M244.957 226.119H257.021V225.41H244.957V226.119Z" fill="black"/>
<path d="M244.956 225.409V225.012H257.417V226.118V226.515H244.559V225.409V225.012H244.956V225.409H245.353V225.721H256.623V225.409H257.02V225.806H244.956V225.409Z" fill="black"/>
<path d="M157.915 137.25C160.082 137.13 161.762 136.997 162.955 136.85C162.842 137.197 162.755 137.563 162.695 137.95C162.635 138.337 162.605 138.687 162.605 139H155.455L155.445 138.79C155.445 138.137 155.635 137.57 156.015 137.09C156.402 136.61 156.938 136.167 157.625 135.76C157.825 135.64 158.138 135.487 158.565 135.3C159.118 135.06 159.545 134.85 159.845 134.67C160.145 134.483 160.295 134.3 160.295 134.12C160.295 133.893 160.202 133.713 160.015 133.58C159.828 133.447 159.538 133.38 159.145 133.38C158.712 133.38 158.382 133.49 158.155 133.71C157.935 133.93 157.825 134.21 157.825 134.55C157.825 134.657 157.835 134.767 157.855 134.88C157.015 134.773 156.198 134.7 155.405 134.66C155.405 134.093 155.552 133.583 155.845 133.13C156.145 132.67 156.592 132.307 157.185 132.04C157.785 131.773 158.518 131.64 159.385 131.64C160.178 131.64 160.838 131.75 161.365 131.97C161.898 132.183 162.288 132.457 162.535 132.79C162.788 133.117 162.915 133.453 162.915 133.8C162.915 134.2 162.825 134.543 162.645 134.83C162.472 135.117 162.218 135.373 161.885 135.6C161.558 135.82 161.118 136.06 160.565 136.32C160.485 136.36 160.355 136.407 160.175 136.46C159.995 136.507 159.882 136.537 159.835 136.55C159.362 136.69 158.985 136.807 158.705 136.9C158.425 136.993 158.162 137.11 157.915 137.25ZM167.954 136.57H163.654V134.62H167.954V136.57ZM174.237 135.32C174.477 135.273 174.714 135.25 174.947 135.25C175.354 135.25 175.684 135.32 175.937 135.46C176.197 135.593 176.384 135.767 176.497 135.98C176.61 136.187 176.667 136.403 176.667 136.63C176.667 137.157 176.494 137.607 176.147 137.98C175.8 138.347 175.33 138.627 174.737 138.82C174.144 139.007 173.484 139.1 172.757 139.1C170.65 139.1 169.287 138.367 168.667 136.9L169.227 136.76C169.64 136.66 169.99 136.567 170.277 136.48C170.57 136.387 170.827 136.283 171.047 136.17C171.18 136.503 171.37 136.743 171.617 136.89C171.87 137.03 172.217 137.1 172.657 137.1C173.124 137.1 173.504 137.047 173.797 136.94C174.09 136.833 174.237 136.673 174.237 136.46C174.237 136.347 174.18 136.26 174.067 136.2C173.954 136.14 173.774 136.1 173.527 136.08C173.28 136.053 172.934 136.04 172.487 136.04H171.727V134.29H172.187C172.694 134.29 173.107 134.27 173.427 134.23C173.747 134.183 173.907 134.087 173.907 133.94C173.907 133.773 173.82 133.64 173.647 133.54C173.48 133.433 173.217 133.38 172.857 133.38C172.39 133.38 172.01 133.477 171.717 133.67C171.43 133.863 171.207 134.143 171.047 134.51C170.334 134.223 169.574 134.02 168.767 133.9C169.087 133.18 169.577 132.623 170.237 132.23C170.904 131.837 171.76 131.64 172.807 131.64C173.487 131.64 174.097 131.73 174.637 131.91C175.184 132.083 175.61 132.327 175.917 132.64C176.23 132.953 176.387 133.303 176.387 133.69C176.387 133.917 176.334 134.12 176.227 134.3C176.12 134.473 175.91 134.647 175.597 134.82C175.284 134.987 174.83 135.153 174.237 135.32ZM181.655 139.1C180.222 139.1 179.165 138.77 178.485 138.11C177.805 137.45 177.465 136.533 177.465 135.36C177.465 134.193 177.805 133.283 178.485 132.63C179.172 131.97 180.229 131.64 181.655 131.64C183.082 131.64 184.135 131.97 184.815 132.63C185.495 133.283 185.835 134.193 185.835 135.36C185.835 136.533 185.495 137.45 184.815 138.11C184.135 138.77 183.082 139.1 181.655 139.1ZM181.665 137.35C182.279 137.35 182.725 137.163 183.005 136.79C183.285 136.41 183.425 135.933 183.425 135.36C183.425 134.793 183.285 134.323 183.005 133.95C182.725 133.57 182.279 133.38 181.665 133.38C181.032 133.38 180.572 133.57 180.285 133.95C180.005 134.323 179.865 134.793 179.865 135.36C179.865 135.927 180.005 136.4 180.285 136.78C180.572 137.16 181.032 137.35 181.665 137.35ZM193.235 135.08C193.529 135.187 193.779 135.337 193.985 135.53C194.192 135.723 194.345 135.937 194.445 136.17C194.545 136.397 194.595 136.61 194.595 136.81C194.595 137.597 194.245 138.177 193.545 138.55C192.852 138.917 191.879 139.1 190.625 139.1C189.365 139.1 188.385 138.917 187.685 138.55C186.985 138.177 186.635 137.597 186.635 136.81C186.635 136.49 186.749 136.163 186.975 135.83C187.209 135.49 187.532 135.24 187.945 135.08C187.579 134.907 187.302 134.717 187.115 134.51C186.935 134.297 186.845 134.013 186.845 133.66C186.845 133.247 186.989 132.88 187.275 132.56C187.562 132.233 187.989 131.98 188.555 131.8C189.129 131.62 189.819 131.53 190.625 131.53C191.425 131.53 192.109 131.62 192.675 131.8C193.242 131.98 193.669 132.233 193.955 132.56C194.242 132.88 194.385 133.247 194.385 133.66C194.385 134.02 194.289 134.303 194.095 134.51C193.909 134.717 193.622 134.907 193.235 135.08ZM190.645 134.49C191.032 134.49 191.352 134.423 191.605 134.29C191.865 134.157 191.995 133.98 191.995 133.76C191.995 133.54 191.865 133.367 191.605 133.24C191.345 133.107 191.025 133.04 190.645 133.04C190.259 133.04 189.935 133.107 189.675 133.24C189.415 133.367 189.285 133.54 189.285 133.76C189.285 133.987 189.415 134.167 189.675 134.3C189.935 134.427 190.259 134.49 190.645 134.49ZM190.645 137.29C191.032 137.29 191.352 137.223 191.605 137.09C191.865 136.957 191.995 136.78 191.995 136.56C191.995 136.34 191.865 136.167 191.605 136.04C191.345 135.907 191.025 135.84 190.645 135.84C190.259 135.84 189.935 135.907 189.675 136.04C189.415 136.167 189.285 136.34 189.285 136.56C189.285 136.787 189.415 136.967 189.675 137.1C189.935 137.227 190.259 137.29 190.645 137.29ZM174.885 149.85V151.73H173.525V153H171.135C171.162 152.72 171.182 152.297 171.195 151.73H166.445V149.71C167.998 148.517 169.385 147.193 170.605 145.74H173.525V149.85H174.885ZM171.245 147.72C170.785 148.193 170.388 148.59 170.055 148.91C169.722 149.223 169.345 149.537 168.925 149.85H171.215L171.245 147.72ZM178.043 151.17C180.577 151.157 182.413 151.12 183.553 151.06C183.507 151.333 183.477 151.617 183.463 151.91C183.457 152.197 183.453 152.56 183.453 153H175.683C175.737 151.707 175.763 150.497 175.763 149.37C175.763 148.243 175.737 147.033 175.683 145.74H183.453V147.55H178.043V148.51C178.363 148.517 178.837 148.52 179.463 148.52C180.523 148.52 181.62 148.5 182.753 148.46V150.18C181.62 150.14 180.523 150.12 179.463 150.12C178.837 150.12 178.363 150.123 178.043 150.13V151.17Z" fill="black"/>
<path d="M214.013 137.25C216.179 137.13 217.859 136.997 219.053 136.85C218.939 137.197 218.853 137.563 218.793 137.95C218.733 138.337 218.703 138.687 218.703 139H211.553L211.543 138.79C211.543 138.137 211.733 137.57 212.113 137.09C212.499 136.61 213.036 136.167 213.723 135.76C213.923 135.64 214.236 135.487 214.663 135.3C215.216 135.06 215.643 134.85 215.943 134.67C216.243 134.483 216.393 134.3 216.393 134.12C216.393 133.893 216.299 133.713 216.113 133.58C215.926 133.447 215.636 133.38 215.243 133.38C214.809 133.38 214.479 133.49 214.253 133.71C214.033 133.93 213.923 134.21 213.923 134.55C213.923 134.657 213.933 134.767 213.953 134.88C213.113 134.773 212.296 134.7 211.503 134.66C211.503 134.093 211.649 133.583 211.943 133.13C212.243 132.67 212.689 132.307 213.283 132.04C213.883 131.773 214.616 131.64 215.483 131.64C216.276 131.64 216.936 131.75 217.463 131.97C217.996 132.183 218.386 132.457 218.633 132.79C218.886 133.117 219.013 133.453 219.013 133.8C219.013 134.2 218.923 134.543 218.743 134.83C218.569 135.117 218.316 135.373 217.983 135.6C217.656 135.82 217.216 136.06 216.663 136.32C216.583 136.36 216.453 136.407 216.273 136.46C216.093 136.507 215.979 136.537 215.933 136.55C215.459 136.69 215.083 136.807 214.803 136.9C214.523 136.993 214.259 137.11 214.013 137.25ZM224.052 136.57H219.752V134.62H224.052V136.57ZM230.334 135.32C230.574 135.273 230.811 135.25 231.044 135.25C231.451 135.25 231.781 135.32 232.034 135.46C232.294 135.593 232.481 135.767 232.594 135.98C232.708 136.187 232.764 136.403 232.764 136.63C232.764 137.157 232.591 137.607 232.244 137.98C231.898 138.347 231.428 138.627 230.834 138.82C230.241 139.007 229.581 139.1 228.854 139.1C226.748 139.1 225.384 138.367 224.764 136.9L225.324 136.76C225.738 136.66 226.088 136.567 226.374 136.48C226.668 136.387 226.924 136.283 227.144 136.17C227.278 136.503 227.468 136.743 227.714 136.89C227.968 137.03 228.314 137.1 228.754 137.1C229.221 137.1 229.601 137.047 229.894 136.94C230.188 136.833 230.334 136.673 230.334 136.46C230.334 136.347 230.278 136.26 230.164 136.2C230.051 136.14 229.871 136.1 229.624 136.08C229.378 136.053 229.031 136.04 228.584 136.04H227.824V134.29H228.284C228.791 134.29 229.204 134.27 229.524 134.23C229.844 134.183 230.004 134.087 230.004 133.94C230.004 133.773 229.918 133.64 229.744 133.54C229.578 133.433 229.314 133.38 228.954 133.38C228.488 133.38 228.108 133.477 227.814 133.67C227.528 133.863 227.304 134.143 227.144 134.51C226.431 134.223 225.671 134.02 224.864 133.9C225.184 133.18 225.674 132.623 226.334 132.23C227.001 131.837 227.858 131.64 228.904 131.64C229.584 131.64 230.194 131.73 230.734 131.91C231.281 132.083 231.708 132.327 232.014 132.64C232.328 132.953 232.484 133.303 232.484 133.69C232.484 133.917 232.431 134.12 232.324 134.3C232.218 134.473 232.008 134.647 231.694 134.82C231.381 134.987 230.928 135.153 230.334 135.32ZM237.753 139.1C236.32 139.1 235.263 138.77 234.583 138.11C233.903 137.45 233.563 136.533 233.563 135.36C233.563 134.193 233.903 133.283 234.583 132.63C235.27 131.97 236.326 131.64 237.753 131.64C239.18 131.64 240.233 131.97 240.913 132.63C241.593 133.283 241.933 134.193 241.933 135.36C241.933 136.533 241.593 137.45 240.913 138.11C240.233 138.77 239.18 139.1 237.753 139.1ZM237.763 137.35C238.376 137.35 238.823 137.163 239.103 136.79C239.383 136.41 239.523 135.933 239.523 135.36C239.523 134.793 239.383 134.323 239.103 133.95C238.823 133.57 238.376 133.38 237.763 133.38C237.13 133.38 236.67 133.57 236.383 133.95C236.103 134.323 235.963 134.793 235.963 135.36C235.963 135.927 236.103 136.4 236.383 136.78C236.67 137.16 237.13 137.35 237.763 137.35ZM246.653 131.64C247.4 131.64 248.063 131.79 248.643 132.09C249.23 132.383 249.683 132.793 250.003 133.32C250.33 133.847 250.493 134.447 250.493 135.12C250.493 136.46 250.12 137.46 249.373 138.12C248.633 138.773 247.633 139.1 246.373 139.1C244.84 139.1 243.63 138.713 242.743 137.94C243.143 137.513 243.51 137.043 243.843 136.53C244.103 136.743 244.473 136.91 244.953 137.03C245.433 137.143 245.87 137.2 246.263 137.2C246.843 137.2 247.33 137.057 247.723 136.77C248.116 136.477 248.356 136.06 248.443 135.52C248.45 135.487 248.453 135.44 248.453 135.38C248.133 135.847 247.71 136.19 247.183 136.41C246.656 136.623 246.12 136.73 245.573 136.73C245.04 136.73 244.556 136.633 244.123 136.44C243.69 136.247 243.35 135.983 243.103 135.65C242.856 135.31 242.733 134.93 242.733 134.51C242.733 133.903 242.903 133.383 243.243 132.95C243.59 132.517 244.06 132.19 244.653 131.97C245.246 131.75 245.913 131.64 246.653 131.64ZM246.553 135.16C246.806 135.16 247.04 135.123 247.253 135.05C247.473 134.97 247.646 134.867 247.773 134.74C247.906 134.613 247.973 134.477 247.973 134.33C247.973 134.103 247.833 133.91 247.553 133.75C247.28 133.59 246.946 133.51 246.553 133.51C246.16 133.51 245.823 133.59 245.543 133.75C245.27 133.91 245.133 134.103 245.133 134.33C245.133 134.563 245.27 134.76 245.543 134.92C245.823 135.08 246.16 135.16 246.553 135.16ZM227.225 147.89C227.985 147.89 228.622 147.997 229.135 148.21C229.655 148.417 230.042 148.7 230.295 149.06C230.555 149.413 230.685 149.81 230.685 150.25C230.685 151.25 230.335 151.977 229.635 152.43C228.942 152.877 228.012 153.1 226.845 153.1C225.865 153.1 225.002 152.937 224.255 152.61C223.515 152.277 222.978 151.72 222.645 150.94C223.012 150.887 223.412 150.8 223.845 150.68C224.285 150.56 224.682 150.437 225.035 150.31C225.175 150.597 225.372 150.807 225.625 150.94C225.878 151.067 226.218 151.13 226.645 151.13C227.098 151.13 227.472 151.057 227.765 150.91C228.065 150.763 228.215 150.56 228.215 150.3C228.215 150.033 228.085 149.81 227.825 149.63C227.565 149.45 227.168 149.36 226.635 149.36C226.288 149.36 225.972 149.423 225.685 149.55C225.398 149.67 225.192 149.843 225.065 150.07H222.755C222.915 149.383 223.055 148.643 223.175 147.85C223.302 147.057 223.378 146.353 223.405 145.74H230.425V147.68C229.685 147.633 228.985 147.607 228.325 147.6C227.672 147.587 226.755 147.58 225.575 147.58L225.475 148.14C225.982 147.973 226.565 147.89 227.225 147.89ZM233.843 151.17C236.376 151.157 238.213 151.12 239.353 151.06C239.306 151.333 239.276 151.617 239.263 151.91C239.256 152.197 239.253 152.56 239.253 153H231.483C231.536 151.707 231.563 150.497 231.563 149.37C231.563 148.243 231.536 147.033 231.483 145.74H239.253V147.55H233.843V148.51C234.163 148.517 234.636 148.52 235.263 148.52C236.323 148.52 237.42 148.5 238.553 148.46V150.18C237.42 150.14 236.323 150.12 235.263 150.12C234.636 150.12 234.163 150.123 233.843 150.13V151.17Z" fill="black"/>
<path d="M288.52 685.74C288.52 686.08 288.427 686.337 288.24 686.51C288.06 686.677 287.69 686.797 287.13 686.87C286.577 686.943 285.71 686.98 284.53 686.98C284.503 686.633 284.453 686.34 284.38 686.1C284.313 685.86 284.217 685.643 284.09 685.45C283.897 685.67 283.677 685.87 283.43 686.05C283.05 686.33 282.58 686.557 282.02 686.73C281.467 686.897 280.763 687.043 279.91 687.17C279.763 686.837 279.603 686.53 279.43 686.25C279.257 685.963 279.03 685.677 278.75 685.39C279.41 685.363 280.033 685.307 280.62 685.22C281.213 685.133 281.693 685.017 282.06 684.87H279.38V683.48H283.01L283.03 683.23H279.64V679.49H288.39V683.23H285.03L285 683.48H288.52V685.74ZM283.02 681.01V680.74H281.75V681.01H283.02ZM285.01 681.01H286.28V680.74H285.01V681.01ZM283.02 681.72H281.75V681.98H283.02V681.72ZM285.01 681.72V681.98H286.28V681.72H285.01ZM285.8 685.16C285.993 685.14 286.107 685.043 286.14 684.87H284.52C284.427 685.017 284.353 685.123 284.3 685.19C285.133 685.19 285.633 685.18 285.8 685.16ZM298.74 682.12V684.1H295.71C295.87 684.293 295.98 684.49 296.04 684.69C296.1 684.89 296.13 685.113 296.13 685.36C296.13 685.847 295.927 686.233 295.52 686.52C295.12 686.8 294.633 686.953 294.06 686.98C293.933 686.987 293.743 686.99 293.49 686.99C292.957 686.99 292.147 686.93 291.06 686.81C291.06 686.37 291.043 685.99 291.01 685.67C290.977 685.343 290.893 684.963 290.76 684.53C291.72 684.79 292.473 684.92 293.02 684.92C293.32 684.92 293.533 684.883 293.66 684.81C293.787 684.73 293.85 684.633 293.85 684.52C293.85 684.413 293.843 684.273 293.83 684.1H289.26V682.12H293.48L293.19 681.8C293.617 681.787 294.003 681.673 294.35 681.46H289.92V679.53H298.34V681.38C298.373 681.413 298.303 681.45 298.13 681.49C297.963 681.53 297.87 681.553 297.85 681.56C297.003 681.84 296.39 682.027 296.01 682.12H298.74ZM288.71 696.73C288.483 697.09 288.31 697.447 288.19 697.8C288.07 698.147 287.937 698.603 287.79 699.17C286.417 698.677 284.803 698.243 282.95 697.87V701.05H280.13C280.177 699.93 280.203 698.81 280.21 697.69C280.223 696.57 280.23 695.17 280.23 693.49H282.95V695.56C283.83 695.667 284.79 695.827 285.83 696.04C286.877 696.253 287.837 696.483 288.71 696.73ZM298.96 694.43C298.507 695.03 298.057 695.527 297.61 695.92C297.17 696.307 296.643 696.657 296.03 696.97V700.96H293.26V697.84C292.333 698.007 291.15 698.14 289.71 698.24C289.657 697.72 289.593 697.27 289.52 696.89C289.453 696.51 289.333 696.113 289.16 695.7C290.213 695.707 291.143 695.673 291.95 695.6C292.757 695.527 293.42 695.393 293.94 695.2C295.013 694.793 295.847 694.18 296.44 693.36L298.96 694.43ZM291.91 708.51C292.21 708.877 292.52 709.197 292.84 709.47C293.167 709.743 293.533 710 293.94 710.24C293.233 711.38 292.27 712.39 291.05 713.27C289.837 714.143 288.32 714.743 286.5 715.07L284.64 713.76V707.66H287.33V712.31C288.23 712.103 289.073 711.68 289.86 711.04C290.653 710.4 291.337 709.557 291.91 708.51Z" fill="black"/>
<path d="M288.52 215.74C288.52 216.08 288.427 216.337 288.24 216.51C288.06 216.677 287.69 216.797 287.13 216.87C286.577 216.943 285.71 216.98 284.53 216.98C284.503 216.633 284.453 216.34 284.38 216.1C284.313 215.86 284.217 215.643 284.09 215.45C283.897 215.67 283.677 215.87 283.43 216.05C283.05 216.33 282.58 216.557 282.02 216.73C281.467 216.897 280.763 217.043 279.91 217.17C279.763 216.837 279.603 216.53 279.43 216.25C279.257 215.963 279.03 215.677 278.75 215.39C279.41 215.363 280.033 215.307 280.62 215.22C281.213 215.133 281.693 215.017 282.06 214.87H279.38V213.48H283.01L283.03 213.23H279.64V209.49H288.39V213.23H285.03L285 213.48H288.52V215.74ZM283.02 211.01V210.74H281.75V211.01H283.02ZM285.01 211.01H286.28V210.74H285.01V211.01ZM283.02 211.72H281.75V211.98H283.02V211.72ZM285.01 211.72V211.98H286.28V211.72H285.01ZM285.8 215.16C285.993 215.14 286.107 215.043 286.14 214.87H284.52C284.427 215.017 284.353 215.123 284.3 215.19C285.133 215.19 285.633 215.18 285.8 215.16ZM298.74 212.12V214.1H295.71C295.87 214.293 295.98 214.49 296.04 214.69C296.1 214.89 296.13 215.113 296.13 215.36C296.13 215.847 295.927 216.233 295.52 216.52C295.12 216.8 294.633 216.953 294.06 216.98C293.933 216.987 293.743 216.99 293.49 216.99C292.957 216.99 292.147 216.93 291.06 216.81C291.06 216.37 291.043 215.99 291.01 215.67C290.977 215.343 290.893 214.963 290.76 214.53C291.72 214.79 292.473 214.92 293.02 214.92C293.32 214.92 293.533 214.883 293.66 214.81C293.787 214.73 293.85 214.633 293.85 214.52C293.85 214.413 293.843 214.273 293.83 214.1H289.26V212.12H293.48L293.19 211.8C293.617 211.787 294.003 211.673 294.35 211.46H289.92V209.53H298.34V211.38C298.373 211.413 298.303 211.45 298.13 211.49C297.963 211.53 297.87 211.553 297.85 211.56C297.003 211.84 296.39 212.027 296.01 212.12H298.74ZM288.71 226.73C288.483 227.09 288.31 227.447 288.19 227.8C288.07 228.147 287.937 228.603 287.79 229.17C286.417 228.677 284.803 228.243 282.95 227.87V231.05H280.13C280.177 229.93 280.203 228.81 280.21 227.69C280.223 226.57 280.23 225.17 280.23 223.49H282.95V225.56C283.83 225.667 284.79 225.827 285.83 226.04C286.877 226.253 287.837 226.483 288.71 226.73ZM298.96 224.43C298.507 225.03 298.057 225.527 297.61 225.92C297.17 226.307 296.643 226.657 296.03 226.97V230.96H293.26V227.84C292.333 228.007 291.15 228.14 289.71 228.24C289.657 227.72 289.593 227.27 289.52 226.89C289.453 226.51 289.333 226.113 289.16 225.7C290.213 225.707 291.143 225.673 291.95 225.6C292.757 225.527 293.42 225.393 293.94 225.2C295.013 224.793 295.847 224.18 296.44 223.36L298.96 224.43ZM291.91 238.51C292.21 238.877 292.52 239.197 292.84 239.47C293.167 239.743 293.533 240 293.94 240.24C293.233 241.38 292.27 242.39 291.05 243.27C289.837 244.143 288.32 244.743 286.5 245.07L284.64 243.76V237.66H287.33V242.31C288.23 242.103 289.073 241.68 289.86 241.04C290.653 240.4 291.337 239.557 291.91 238.51Z" fill="black"/>
<path d="M288.91 444.85C288.443 445.543 288.123 446.263 287.95 447.01C286.923 446.523 285.993 446.107 285.16 445.76C284.607 446.087 283.937 446.347 283.15 446.54C282.37 446.733 281.383 446.907 280.19 447.06C280.097 446.88 279.99 446.65 279.87 446.37C279.843 446.317 279.75 446.12 279.59 445.78C279.43 445.433 279.247 445.073 279.04 444.7C279.6 444.807 280.17 444.86 280.75 444.86C281.317 444.86 281.877 444.81 282.43 444.71C281.51 444.39 280.67 444.14 279.91 443.96C280.37 443.373 280.793 442.743 281.18 442.07H279.36V439.96H282.19C282.243 439.82 282.317 439.61 282.41 439.33L285.01 439.4L284.79 439.96H288.74V442.07H285.93L287.68 442.56C287.347 443.253 287.053 443.797 286.8 444.19L288.91 444.85ZM283.74 442.07L283.11 443.14C283.563 443.253 284.047 443.383 284.56 443.53C284.86 443.063 285.087 442.577 285.24 442.07H283.74ZM298.74 442.12V444.1H295.71C295.87 444.293 295.98 444.49 296.04 444.69C296.1 444.89 296.13 445.113 296.13 445.36C296.13 445.847 295.927 446.233 295.52 446.52C295.12 446.8 294.633 446.953 294.06 446.98C293.933 446.987 293.743 446.99 293.49 446.99C292.957 446.99 292.147 446.93 291.06 446.81C291.06 446.37 291.043 445.99 291.01 445.67C290.977 445.343 290.893 444.963 290.76 444.53C291.72 444.79 292.473 444.92 293.02 444.92C293.32 444.92 293.533 444.883 293.66 444.81C293.787 444.73 293.85 444.633 293.85 444.52C293.85 444.413 293.843 444.273 293.83 444.1H289.26V442.12H293.48L293.19 441.8C293.617 441.787 294.003 441.673 294.35 441.46H289.92V439.53H298.34V441.38C298.373 441.413 298.303 441.45 298.13 441.49C297.963 441.53 297.87 441.553 297.85 441.56C297.003 441.84 296.39 442.027 296.01 442.12H298.74ZM288.71 456.73C288.483 457.09 288.31 457.447 288.19 457.8C288.07 458.147 287.937 458.603 287.79 459.17C286.417 458.677 284.803 458.243 282.95 457.87V461.05H280.13C280.177 459.93 280.203 458.81 280.21 457.69C280.223 456.57 280.23 455.17 280.23 453.49H282.95V455.56C283.83 455.667 284.79 455.827 285.83 456.04C286.877 456.253 287.837 456.483 288.71 456.73ZM298.96 454.43C298.507 455.03 298.057 455.527 297.61 455.92C297.17 456.307 296.643 456.657 296.03 456.97V460.96H293.26V457.84C292.333 458.007 291.15 458.14 289.71 458.24C289.657 457.72 289.593 457.27 289.52 456.89C289.453 456.51 289.333 456.113 289.16 455.7C290.213 455.707 291.143 455.673 291.95 455.6C292.757 455.527 293.42 455.393 293.94 455.2C295.013 454.793 295.847 454.18 296.44 453.36L298.96 454.43ZM291.91 468.51C292.21 468.877 292.52 469.197 292.84 469.47C293.167 469.743 293.533 470 293.94 470.24C293.233 471.38 292.27 472.39 291.05 473.27C289.837 474.143 288.32 474.743 286.5 475.07L284.64 473.76V467.66H287.33V472.31C288.23 472.103 289.073 471.68 289.86 471.04C290.653 470.4 291.337 469.557 291.91 468.51Z" fill="black"/>
<path d="M18.036 42.36C15.492 42.36 13.152 41.736 11.016 40.488C8.88 39.216 7.176 37.512 5.904 35.376C4.656 33.24 4.032 30.9 4.032 28.356C4.032 25.812 4.656 23.472 5.904 21.336C7.176 19.2 8.88 17.508 11.016 16.26C13.152 15.012 15.492 14.388 18.036 14.388C20.556 14.388 22.884 15.012 25.02 16.26C27.18 17.508 28.884 19.2 30.132 21.336C31.38 23.472 32.004 25.812 32.004 28.356C32.004 30.9 31.38 33.24 30.132 35.376C28.884 37.512 27.18 39.216 25.02 40.488C22.884 41.736 20.556 42.36 18.036 42.36ZM46.476 35.7C54.276 35.268 60.324 34.788 64.62 34.26C64.212 35.508 63.9 36.828 63.684 38.22C63.468 39.612 63.36 40.872 63.36 42H37.62L37.584 41.244C37.584 38.892 38.268 36.852 39.636 35.124C41.028 33.396 42.96 31.8 45.432 30.336C46.152 29.904 47.28 29.352 48.816 28.68C50.808 27.816 52.344 27.06 53.424 26.412C54.504 25.74 55.044 25.08 55.044 24.432C55.044 23.616 54.708 22.968 54.036 22.488C53.364 22.008 52.32 21.768 50.904 21.768C49.344 21.768 48.156 22.164 47.34 22.956C46.548 23.748 46.152 24.756 46.152 25.98C46.152 26.364 46.188 26.76 46.26 27.168C43.236 26.784 40.296 26.52 37.44 26.376C37.44 24.336 37.968 22.5 39.024 20.868C40.104 19.212 41.712 17.904 43.848 16.944C46.008 15.984 48.648 15.504 51.768 15.504C54.624 15.504 57 15.9 58.896 16.692C60.816 17.46 62.22 18.444 63.108 19.644C64.02 20.82 64.476 22.032 64.476 23.28C64.476 24.72 64.152 25.956 63.504 26.988C62.88 28.02 61.968 28.944 60.768 29.76C59.592 30.552 58.008 31.416 56.016 32.352C55.728 32.496 55.26 32.664 54.612 32.856C53.964 33.024 53.556 33.132 53.388 33.18C51.684 33.684 50.328 34.104 49.32 34.44C48.312 34.776 47.364 35.196 46.476 35.7ZM68.6146 14.964H99.5026V24.468H68.6146V14.964ZM78.2986 20.256H89.8546V19.104H78.2986V20.256ZM101.015 29.904H77.0746C77.0266 30.24 76.9786 30.492 76.9306 30.66H99.6466C99.6466 32.964 99.5266 34.8 99.2866 36.168C99.0466 37.512 98.5066 38.652 97.6666 39.588C96.8506 40.5 95.5786 41.16 93.8506 41.568C92.8906 41.808 91.6546 41.964 90.1426 42.036C88.6306 42.132 86.7226 42.18 84.4186 42.18C83.2666 42.18 81.1786 42.156 78.1546 42.108L73.7266 42.072C73.2226 40.104 72.6826 38.532 72.1066 37.356L67.3546 36.672C68.1226 34.488 68.6866 32.232 69.0466 29.904H66.9226V25.116H101.015V29.904ZM75.8866 35.376L75.6706 36.132C79.5586 36.252 82.5346 36.312 84.5986 36.312C86.5426 36.312 88.0546 36.252 89.1346 36.132C90.5266 36.012 91.4266 35.76 91.8346 35.376H75.8866ZM136.223 31.344H126.575V32.1H136.799V42.072H130.391V41.568H126.575V42.072H120.383V38.076C119.639 39.108 118.787 40.56 117.827 42.432C116.339 41.424 115.271 40.644 114.623 40.092C113.471 40.356 110.963 40.884 107.099 41.676C105.035 42.084 104.039 42.276 104.111 42.252C103.799 40.836 103.499 39.636 103.211 38.652C102.947 37.644 102.587 36.6 102.131 35.52C102.515 35.544 103.115 35.556 103.931 35.556V25.404L102.995 25.908C102.923 24.804 102.743 23.64 102.455 22.416C102.167 21.168 101.795 20.028 101.339 18.996C102.851 18.66 104.351 18.048 105.839 17.16C107.351 16.248 108.479 15.324 109.223 14.388H116.279C116.039 14.82 115.763 15.276 115.451 15.756C116.675 16.38 117.935 16.944 119.231 17.448V16.296H124.199V14.532H131.291V16.296H137.339V24.432H136.223V31.344ZM113.939 20.256L112.679 19.14L111.491 20.256H113.939ZM119.231 22.704V20.904C118.823 21.528 118.475 22.128 118.187 22.704H119.231ZM130.931 21.804V21.084H125.387V21.804H130.931ZM110.159 21.372C109.295 22.02 108.683 22.464 108.323 22.704H110.159V21.372ZM116.819 22.704L115.235 21.408V22.704H116.819ZM116.351 34.08C117.815 35.16 119.159 36.06 120.383 36.78V24.432H119.231V34.08H116.351ZM113.327 25.476H110.231V26.34H113.327V25.476ZM126.575 27.06H129.779V25.944H126.575V27.06ZM110.231 29.4V30.264H113.327V29.4H110.231ZM114.695 34.08H110.231V35.34C111.695 35.196 113.015 35.016 114.191 34.8L114.695 34.08ZM130.391 37.104V35.988H126.575V37.104H130.391Z" fill="black"/>
<path d="M296.036 42.36C293.492 42.36 291.152 41.736 289.016 40.488C286.88 39.216 285.176 37.512 283.904 35.376C282.656 33.24 282.032 30.9 282.032 28.356C282.032 25.812 282.656 23.472 283.904 21.336C285.176 19.2 286.88 17.508 289.016 16.26C291.152 15.012 293.492 14.388 296.036 14.388C298.556 14.388 300.884 15.012 303.02 16.26C305.18 17.508 306.884 19.2 308.132 21.336C309.38 23.472 310.004 25.812 310.004 28.356C310.004 30.9 309.38 33.24 308.132 35.376C306.884 37.512 305.18 39.216 303.02 40.488C300.884 41.736 298.556 42.36 296.036 42.36ZM335.528 28.752C336.392 28.584 337.244 28.5 338.084 28.5C339.548 28.5 340.736 28.752 341.648 29.256C342.584 29.736 343.256 30.36 343.664 31.128C344.072 31.872 344.276 32.652 344.276 33.468C344.276 35.364 343.652 36.984 342.404 38.328C341.156 39.648 339.464 40.656 337.328 41.352C335.192 42.024 332.816 42.36 330.2 42.36C322.616 42.36 317.708 39.72 315.476 34.44L317.492 33.936C318.98 33.576 320.24 33.24 321.272 32.928C322.328 32.592 323.252 32.22 324.044 31.812C324.524 33.012 325.208 33.876 326.096 34.404C327.008 34.908 328.256 35.16 329.84 35.16C331.52 35.16 332.888 34.968 333.944 34.584C335 34.2 335.528 33.624 335.528 32.856C335.528 32.448 335.324 32.136 334.916 31.92C334.508 31.704 333.86 31.56 332.972 31.488C332.084 31.392 330.836 31.344 329.228 31.344H326.492V25.044H328.148C329.972 25.044 331.46 24.972 332.612 24.828C333.764 24.66 334.34 24.312 334.34 23.784C334.34 23.184 334.028 22.704 333.404 22.344C332.804 21.96 331.856 21.768 330.56 21.768C328.88 21.768 327.512 22.116 326.456 22.812C325.424 23.508 324.62 24.516 324.044 25.836C321.476 24.804 318.74 24.072 315.836 23.64C316.988 21.048 318.752 19.044 321.128 17.628C323.528 16.212 326.612 15.504 330.38 15.504C332.828 15.504 335.024 15.828 336.968 16.476C338.936 17.1 340.472 17.976 341.576 19.104C342.704 20.232 343.268 21.492 343.268 22.884C343.268 23.7 343.076 24.432 342.692 25.08C342.308 25.704 341.552 26.328 340.424 26.952C339.296 27.552 337.664 28.152 335.528 28.752ZM348.267 14.964H379.155V24.468H348.267V14.964ZM357.951 20.256H369.507V19.104H357.951V20.256ZM380.667 29.904H356.727C356.679 30.24 356.631 30.492 356.583 30.66H379.299C379.299 32.964 379.179 34.8 378.939 36.168C378.699 37.512 378.159 38.652 377.319 39.588C376.503 40.5 375.231 41.16 373.503 41.568C372.543 41.808 371.307 41.964 369.795 42.036C368.283 42.132 366.375 42.18 364.071 42.18C362.919 42.18 360.831 42.156 357.807 42.108L353.379 42.072C352.875 40.104 352.335 38.532 351.759 37.356L347.007 36.672C347.775 34.488 348.339 32.232 348.699 29.904H346.575V25.116H380.667V29.904ZM355.539 35.376L355.323 36.132C359.211 36.252 362.187 36.312 364.251 36.312C366.195 36.312 367.707 36.252 368.787 36.132C370.179 36.012 371.079 35.76 371.487 35.376H355.539ZM415.875 31.344H406.227V32.1H416.451V42.072H410.043V41.568H406.227V42.072H400.035V38.076C399.291 39.108 398.439 40.56 397.479 42.432C395.991 41.424 394.923 40.644 394.275 40.092C393.123 40.356 390.615 40.884 386.751 41.676C384.687 42.084 383.691 42.276 383.763 42.252C383.451 40.836 383.151 39.636 382.863 38.652C382.599 37.644 382.239 36.6 381.783 35.52C382.167 35.544 382.767 35.556 383.583 35.556V25.404L382.647 25.908C382.575 24.804 382.395 23.64 382.107 22.416C381.819 21.168 381.447 20.028 380.991 18.996C382.503 18.66 384.003 18.048 385.491 17.16C387.003 16.248 388.131 15.324 388.875 14.388H395.931C395.691 14.82 395.415 15.276 395.103 15.756C396.327 16.38 397.587 16.944 398.883 17.448V16.296H403.851V14.532H410.943V16.296H416.991V24.432H415.875V31.344ZM393.591 20.256L392.331 19.14L391.143 20.256H393.591ZM398.883 22.704V20.904C398.475 21.528 398.127 22.128 397.839 22.704H398.883ZM410.583 21.804V21.084H405.039V21.804H410.583ZM389.811 21.372C388.947 22.02 388.335 22.464 387.975 22.704H389.811V21.372ZM396.471 22.704L394.887 21.408V22.704H396.471ZM396.003 34.08C397.467 35.16 398.811 36.06 400.035 36.78V24.432H398.883V34.08H396.003ZM392.979 25.476H389.883V26.34H392.979V25.476ZM406.227 27.06H409.431V25.944H406.227V27.06ZM389.883 29.4V30.264H392.979V29.4H389.883ZM394.347 34.08H389.883V35.34C391.347 35.196 392.667 35.016 393.843 34.8L394.347 34.08ZM410.043 37.104V35.988H406.227V37.104H410.043Z" fill="black"/>
<path d="M23.0533 579.56C24.4933 579.528 25.5573 579.496 26.2453 579.464V584H13.5493V579.464C15.2773 579.528 16.5813 579.56 17.4613 579.56V571.28C16.8853 572.544 15.7093 573.36 13.9333 573.728C13.8853 571.84 13.7093 570.12 13.4053 568.568C14.6853 568.392 15.5733 568.176 16.0693 567.92C16.5813 567.648 16.9733 567.352 17.2453 567.032C17.5333 566.712 17.7253 566.496 17.8213 566.384V566.336H23.0533V579.56ZM44.8667 574.232H49.4027V584.024H44.9867V583.592H40.5467V584.024H36.1067V580.184C35.8507 581.08 35.4107 581.76 34.7867 582.224C34.1627 582.688 33.3947 582.904 32.4827 582.872C32.2587 581.24 31.9627 580.024 31.5947 579.224V583.904H27.4907V565.976H35.3627L36.4667 569.48L36.1067 570.536L36.7307 570.512V565.592H40.8347V566.48H42.3947V569.264H40.8347V570.104L42.2267 569.84L42.4907 572.96C42.2507 573.024 42.0427 573.064 41.8667 573.08L43.2587 573.176C43.0987 573.064 42.9867 572.912 42.9227 572.72C42.8747 572.512 42.8507 572.224 42.8507 571.856V565.592H46.9787V566.456L49.4747 566.288V568.952L46.9787 569.048V569.768C46.9787 569.944 47.0027 570.064 47.0507 570.128C47.0987 570.176 47.1787 570.2 47.2907 570.2C47.4187 570.2 47.4827 570.12 47.4827 569.96C47.4827 569.816 47.4347 569.568 47.3387 569.216C47.6587 569.36 47.9787 569.456 48.2987 569.504C48.6187 569.552 49.1307 569.608 49.8347 569.672C49.8027 570.824 49.7467 571.64 49.6667 572.12C49.6027 572.584 49.4827 572.904 49.3067 573.08C49.1307 573.256 48.8187 573.392 48.3707 573.488C48.0827 573.536 47.5227 573.56 46.6907 573.56C45.9707 573.56 45.4507 573.552 45.1307 573.536L44.8667 574.232ZM31.5947 570.032V572.864C32.0747 571.76 32.3227 570.816 32.3387 570.032H31.5947ZM34.8587 574.04C35.4827 575.08 35.8987 576 36.1067 576.8V574.232H40.4987L40.8347 573.272C39.6507 573.448 38.2187 573.616 36.5387 573.776L35.9627 573.848L35.4347 572.528C35.1787 573.232 34.9867 573.736 34.8587 574.04ZM31.5947 578.408C31.8027 578.312 31.9627 578.168 32.0747 577.976C32.2027 577.784 32.2667 577.552 32.2667 577.28C32.2667 576.768 32.0427 576.152 31.5947 575.432V578.408ZM40.5467 577.856H44.9867V577.352H40.5467V577.856ZM40.5467 580.544H44.9867V580.04H40.5467V580.544Z" fill="black"/>
<path d="M16.4645 339.8C21.6645 339.512 25.6965 339.192 28.5605 338.84C28.2885 339.672 28.0805 340.552 27.9365 341.48C27.7925 342.408 27.7205 343.248 27.7205 344H10.5605L10.5365 343.496C10.5365 341.928 10.9925 340.568 11.9045 339.416C12.8325 338.264 14.1205 337.2 15.7685 336.224C16.2485 335.936 17.0005 335.568 18.0245 335.12C19.3525 334.544 20.3765 334.04 21.0965 333.608C21.8165 333.16 22.1765 332.72 22.1765 332.288C22.1765 331.744 21.9525 331.312 21.5045 330.992C21.0565 330.672 20.3605 330.512 19.4165 330.512C18.3765 330.512 17.5845 330.776 17.0405 331.304C16.5125 331.832 16.2485 332.504 16.2485 333.32C16.2485 333.576 16.2725 333.84 16.3205 334.112C14.3045 333.856 12.3445 333.68 10.4405 333.584C10.4405 332.224 10.7925 331 11.4965 329.912C12.2165 328.808 13.2885 327.936 14.7125 327.296C16.1525 326.656 17.9125 326.336 19.9925 326.336C21.8965 326.336 23.4805 326.6 24.7445 327.128C26.0245 327.64 26.9605 328.296 27.5525 329.096C28.1605 329.88 28.4645 330.688 28.4645 331.52C28.4645 332.48 28.2485 333.304 27.8165 333.992C27.4005 334.68 26.7925 335.296 25.9925 335.84C25.2085 336.368 24.1525 336.944 22.8245 337.568C22.6325 337.664 22.3205 337.776 21.8885 337.904C21.4565 338.016 21.1845 338.088 21.0725 338.12C19.9365 338.456 19.0325 338.736 18.3605 338.96C17.6885 339.184 17.0565 339.464 16.4645 339.8ZM47.8315 334.232H52.3675V344.024H47.9515V343.592H43.5115V344.024H39.0715V340.184C38.8155 341.08 38.3755 341.76 37.7515 342.224C37.1275 342.688 36.3595 342.904 35.4475 342.872C35.2235 341.24 34.9275 340.024 34.5595 339.224V343.904H30.4555V325.976H38.3275L39.4315 329.48L39.0715 330.536L39.6955 330.512V325.592H43.7995V326.48H45.3595V329.264H43.7995V330.104L45.1915 329.84L45.4555 332.96C45.2155 333.024 45.0075 333.064 44.8315 333.08L46.2235 333.176C46.0635 333.064 45.9515 332.912 45.8875 332.72C45.8395 332.512 45.8155 332.224 45.8155 331.856V325.592H49.9435V326.456L52.4395 326.288V328.952L49.9435 329.048V329.768C49.9435 329.944 49.9675 330.064 50.0155 330.128C50.0635 330.176 50.1435 330.2 50.2555 330.2C50.3835 330.2 50.4475 330.12 50.4475 329.96C50.4475 329.816 50.3995 329.568 50.3035 329.216C50.6235 329.36 50.9435 329.456 51.2635 329.504C51.5835 329.552 52.0955 329.608 52.7995 329.672C52.7675 330.824 52.7115 331.64 52.6315 332.12C52.5675 332.584 52.4475 332.904 52.2715 333.08C52.0955 333.256 51.7835 333.392 51.3355 333.488C51.0475 333.536 50.4875 333.56 49.6555 333.56C48.9355 333.56 48.4155 333.552 48.0955 333.536L47.8315 334.232ZM34.5595 330.032V332.864C35.0395 331.76 35.2875 330.816 35.3035 330.032H34.5595ZM37.8235 334.04C38.4475 335.08 38.8635 336 39.0715 336.8V334.232H43.4635L43.7995 333.272C42.6155 333.448 41.1835 333.616 39.5035 333.776L38.9275 333.848L38.3995 332.528C38.1435 333.232 37.9515 333.736 37.8235 334.04ZM34.5595 338.408C34.7675 338.312 34.9275 338.168 35.0395 337.976C35.1675 337.784 35.2315 337.552 35.2315 337.28C35.2315 336.768 35.0075 336.152 34.5595 335.432V338.408ZM43.5115 337.856H47.9515V337.352H43.5115V337.856ZM43.5115 340.544H47.9515V340.04H43.5115V340.544Z" fill="black"/>
<path d="M23.2817 105.168C23.8577 105.056 24.4257 105 24.9857 105C25.9617 105 26.7537 105.168 27.3617 105.504C27.9857 105.824 28.4337 106.24 28.7057 106.752C28.9777 107.248 29.1137 107.768 29.1137 108.312C29.1137 109.576 28.6977 110.656 27.8657 111.552C27.0337 112.432 25.9057 113.104 24.4817 113.568C23.0577 114.016 21.4737 114.24 19.7297 114.24C14.6737 114.24 11.4017 112.48 9.91369 108.96L11.2577 108.624C12.2497 108.384 13.0897 108.16 13.7777 107.952C14.4817 107.728 15.0977 107.48 15.6257 107.208C15.9457 108.008 16.4017 108.584 16.9937 108.936C17.6017 109.272 18.4337 109.44 19.4897 109.44C20.6097 109.44 21.5217 109.312 22.2257 109.056C22.9297 108.8 23.2817 108.416 23.2817 107.904C23.2817 107.632 23.1457 107.424 22.8737 107.28C22.6017 107.136 22.1697 107.04 21.5777 106.992C20.9857 106.928 20.1537 106.896 19.0817 106.896H17.2577V102.696H18.3617C19.5777 102.696 20.5697 102.648 21.3377 102.552C22.1057 102.44 22.4897 102.208 22.4897 101.856C22.4897 101.456 22.2817 101.136 21.8657 100.896C21.4657 100.64 20.8337 100.512 19.9697 100.512C18.8497 100.512 17.9377 100.744 17.2337 101.208C16.5457 101.672 16.0097 102.344 15.6257 103.224C13.9137 102.536 12.0897 102.048 10.1537 101.76C10.9217 100.032 12.0977 98.696 13.6817 97.752C15.2817 96.808 17.3377 96.336 19.8497 96.336C21.4817 96.336 22.9457 96.552 24.2417 96.984C25.5537 97.4 26.5777 97.984 27.3137 98.736C28.0657 99.488 28.4417 100.328 28.4417 101.256C28.4417 101.8 28.3137 102.288 28.0577 102.72C27.8017 103.136 27.2977 103.552 26.5457 103.968C25.7937 104.368 24.7057 104.768 23.2817 105.168ZM48.3823 104.232H52.9183V114.024H48.5023V113.592H44.0623V114.024H39.6223V110.184C39.3663 111.08 38.9263 111.76 38.3023 112.224C37.6783 112.688 36.9103 112.904 35.9983 112.872C35.7743 111.24 35.4783 110.024 35.1103 109.224V113.904H31.0063V95.976H38.8783L39.9823 99.48L39.6223 100.536L40.2463 100.512V95.592H44.3503V96.48H45.9103V99.264H44.3503V100.104L45.7423 99.84L46.0063 102.96C45.7663 103.024 45.5583 103.064 45.3823 103.08L46.7743 103.176C46.6143 103.064 46.5023 102.912 46.4383 102.72C46.3903 102.512 46.3663 102.224 46.3663 101.856V95.592H50.4943V96.456L52.9903 96.288V98.952L50.4943 99.048V99.768C50.4943 99.944 50.5183 100.064 50.5663 100.128C50.6143 100.176 50.6943 100.2 50.8063 100.2C50.9343 100.2 50.9983 100.12 50.9983 99.96C50.9983 99.816 50.9503 99.568 50.8543 99.216C51.1743 99.36 51.4943 99.456 51.8143 99.504C52.1343 99.552 52.6463 99.608 53.3503 99.672C53.3183 100.824 53.2623 101.64 53.1823 102.12C53.1183 102.584 52.9983 102.904 52.8223 103.08C52.6463 103.256 52.3343 103.392 51.8863 103.488C51.5983 103.536 51.0383 103.56 50.2063 103.56C49.4863 103.56 48.9663 103.552 48.6463 103.536L48.3823 104.232ZM35.1103 100.032V102.864C35.5903 101.76 35.8383 100.816 35.8543 100.032H35.1103ZM38.3743 104.04C38.9983 105.08 39.4143 106 39.6223 106.8V104.232H44.0143L44.3503 103.272C43.1663 103.448 41.7343 103.616 40.0543 103.776L39.4783 103.848L38.9503 102.528C38.6943 103.232 38.5023 103.736 38.3743 104.04ZM35.1103 108.408C35.3183 108.312 35.4783 108.168 35.5903 107.976C35.7183 107.784 35.7823 107.552 35.7823 107.28C35.7823 106.768 35.5583 106.152 35.1103 105.432V108.408ZM44.0623 107.856H48.5023V107.352H44.0623V107.856ZM44.0623 110.544H48.5023V110.04H44.0623V110.544Z" fill="black"/>
<path d="M246.42 207.55C247.18 207.55 247.743 207.613 248.11 207.74C248.477 207.86 248.727 208.083 248.86 208.41C249 208.737 249.07 209.24 249.07 209.92C249.07 210.793 249.057 211.447 249.03 211.88C249.003 212.307 248.95 212.633 248.87 212.86C248.797 213.087 248.68 213.287 248.52 213.46C248.347 213.647 248.03 213.793 247.57 213.9C247.11 214 246.457 214.073 245.61 214.12C245.503 213.387 245.367 212.817 245.2 212.41C245.053 212.863 244.857 213.4 244.61 214.02C243.77 213.72 242.903 213.487 242.01 213.32C242.437 212.68 242.77 212.08 243.01 211.52C243.25 210.953 243.427 210.33 243.54 209.65L242.31 209.77C242.323 209.023 242.233 208.32 242.04 207.66C242.76 207.633 243.32 207.617 243.72 207.61C243.727 207.35 243.73 206.937 243.73 206.37H246.19C246.177 206.697 246.15 207.09 246.11 207.55H246.42ZM250.95 206.83C251.25 207.85 251.467 208.72 251.6 209.44C251.733 210.16 251.85 211.11 251.95 212.29L249.6 212.62C249.567 211.513 249.477 210.553 249.33 209.74C249.19 208.927 248.953 208.013 248.62 207L250.95 206.83ZM246.6 211.77C246.687 211.703 246.753 211.547 246.8 211.3C246.853 211.053 246.88 210.737 246.88 210.35C246.88 210.077 246.863 209.883 246.83 209.77C246.803 209.657 246.743 209.583 246.65 209.55C246.563 209.51 246.41 209.49 246.19 209.49C246.063 209.49 245.96 209.493 245.88 209.5C245.74 210.367 245.57 211.14 245.37 211.82C245.657 211.853 245.883 211.87 246.05 211.87C246.343 211.87 246.527 211.837 246.6 211.77ZM249.15 223.16C248.997 221.827 248.767 220.683 248.46 219.73C248.153 218.77 247.757 217.873 247.27 217.04L249.61 216.69C250.157 217.53 250.597 218.387 250.93 219.26C251.263 220.133 251.567 221.23 251.84 222.55L249.15 223.16ZM247.44 222.17C247.033 222.643 246.51 223.047 245.87 223.38C245.237 223.713 244.647 223.88 244.1 223.88C243.793 223.88 243.503 223.81 243.23 223.67C242.963 223.53 242.74 223.307 242.56 223C242.387 222.687 242.297 222.29 242.29 221.81C242.283 221.137 242.323 220.523 242.41 219.97C242.497 219.41 242.647 218.657 242.86 217.71L243.04 216.92L245.72 217.04C245.487 217.84 245.313 218.483 245.2 218.97C245.087 219.457 244.98 220.057 244.88 220.77C244.867 220.89 244.86 220.967 244.86 221C244.86 221.14 244.893 221.21 244.96 221.21C245.053 221.21 245.22 221.08 245.46 220.82C245.707 220.56 246.077 220.12 246.57 219.5C246.65 220.1 246.757 220.61 246.89 221.03C247.03 221.443 247.213 221.823 247.44 222.17ZM250.83 227.11C250.683 226.63 250.463 226.147 250.17 225.66L251.09 225.42C251.39 225.893 251.617 226.377 251.77 226.87L250.83 227.11ZM249.62 227.41C249.473 226.93 249.253 226.45 248.96 225.97L249.88 225.73C250.167 226.19 250.39 226.673 250.55 227.18L249.62 227.41ZM247.46 228.81L246.22 228.9C246.007 229.947 245.68 230.907 245.24 231.78C244.807 232.653 244.27 233.4 243.63 234.02C243.35 233.507 243.083 233.083 242.83 232.75C242.577 232.417 242.31 232.12 242.03 231.86C242.483 231.5 242.847 231.093 243.12 230.64C243.393 230.18 243.607 229.623 243.76 228.97H242.84L242.82 226.98L244.05 226.97L244.09 226.36H246.5C246.5 226.48 246.493 226.653 246.48 226.88C247.16 226.833 247.707 226.79 248.12 226.75V227.94C249.04 227.793 249.967 227.72 250.9 227.72H251.26L251.54 229.82C251.427 229.813 251.253 229.81 251.02 229.81C249.927 229.81 248.74 229.923 247.46 230.15V228.81ZM247.95 230.56C247.903 230.84 247.88 231.037 247.88 231.15C247.88 231.417 247.94 231.597 248.06 231.69C248.18 231.783 248.37 231.83 248.63 231.83C249.103 231.83 249.633 231.793 250.22 231.72C250.813 231.647 251.263 231.557 251.57 231.45C251.39 232.01 251.263 232.797 251.19 233.81C250.91 233.877 250.577 233.93 250.19 233.97C249.803 234.003 249.41 234.02 249.01 234.02C248.83 234.02 248.593 234.013 248.3 234C246.56 233.907 245.69 233.343 245.69 232.31C245.69 231.93 245.807 231.487 246.04 230.98C246.453 230.933 246.827 230.873 247.16 230.8C247.5 230.72 247.763 230.64 247.95 230.56ZM251.87 239.99C251.897 240.763 251.757 241.457 251.45 242.07C251.15 242.677 250.73 243.153 250.19 243.5C249.657 243.84 249.07 244.01 248.43 244.01C247.717 244.01 247.187 243.87 246.84 243.59C246.493 243.303 246.32 242.877 246.32 242.31C246.32 242.243 246.327 242.123 246.34 241.95C246.367 241.697 246.38 241.527 246.38 241.44C246.38 241.253 246.353 241.113 246.3 241.02C246.247 240.92 246.157 240.87 246.03 240.87C245.863 240.87 245.707 240.967 245.56 241.16C245.42 241.353 245.307 241.653 245.22 242.06L244.82 243.95C244.727 243.937 244.653 243.93 244.6 243.93C243.573 243.817 242.767 243.763 242.18 243.77C242.367 242.93 242.747 241.703 243.32 240.09C243.893 238.477 244.393 237.167 244.82 236.16L247.68 236.44C247.52 236.747 247.34 237.07 247.14 237.41C246.88 237.877 246.677 238.247 246.53 238.52C246.39 238.793 246.263 239.08 246.15 239.38C246.597 239.247 246.953 239.18 247.22 239.18C247.66 239.18 248.017 239.297 248.29 239.53C248.563 239.763 248.7 240.077 248.7 240.47C248.7 240.623 248.687 240.763 248.66 240.89C248.633 241.017 248.597 241.157 248.55 241.31C248.51 241.457 248.49 241.54 248.49 241.56C248.49 241.62 248.52 241.65 248.58 241.65C248.753 241.65 248.897 241.603 249.01 241.51C249.123 241.417 249.223 241.217 249.31 240.91C249.403 240.603 249.487 240.133 249.56 239.5C249.913 239.687 250.277 239.817 250.65 239.89C251.03 239.957 251.437 239.99 251.87 239.99Z" fill="black"/>
<path d="M246.42 437.55C247.18 437.55 247.743 437.613 248.11 437.74C248.477 437.86 248.727 438.083 248.86 438.41C249 438.737 249.07 439.24 249.07 439.92C249.07 440.793 249.057 441.447 249.03 441.88C249.003 442.307 248.95 442.633 248.87 442.86C248.797 443.087 248.68 443.287 248.52 443.46C248.347 443.647 248.03 443.793 247.57 443.9C247.11 444 246.457 444.073 245.61 444.12C245.503 443.387 245.367 442.817 245.2 442.41C245.053 442.863 244.857 443.4 244.61 444.02C243.77 443.72 242.903 443.487 242.01 443.32C242.437 442.68 242.77 442.08 243.01 441.52C243.25 440.953 243.427 440.33 243.54 439.65L242.31 439.77C242.323 439.023 242.233 438.32 242.04 437.66C242.76 437.633 243.32 437.617 243.72 437.61C243.727 437.35 243.73 436.937 243.73 436.37H246.19C246.177 436.697 246.15 437.09 246.11 437.55H246.42ZM250.95 436.83C251.25 437.85 251.467 438.72 251.6 439.44C251.733 440.16 251.85 441.11 251.95 442.29L249.6 442.62C249.567 441.513 249.477 440.553 249.33 439.74C249.19 438.927 248.953 438.013 248.62 437L250.95 436.83ZM246.6 441.77C246.687 441.703 246.753 441.547 246.8 441.3C246.853 441.053 246.88 440.737 246.88 440.35C246.88 440.077 246.863 439.883 246.83 439.77C246.803 439.657 246.743 439.583 246.65 439.55C246.563 439.51 246.41 439.49 246.19 439.49C246.063 439.49 245.96 439.493 245.88 439.5C245.74 440.367 245.57 441.14 245.37 441.82C245.657 441.853 245.883 441.87 246.05 441.87C246.343 441.87 246.527 441.837 246.6 441.77ZM249.15 453.16C248.997 451.827 248.767 450.683 248.46 449.73C248.153 448.77 247.757 447.873 247.27 447.04L249.61 446.69C250.157 447.53 250.597 448.387 250.93 449.26C251.263 450.133 251.567 451.23 251.84 452.55L249.15 453.16ZM247.44 452.17C247.033 452.643 246.51 453.047 245.87 453.38C245.237 453.713 244.647 453.88 244.1 453.88C243.793 453.88 243.503 453.81 243.23 453.67C242.963 453.53 242.74 453.307 242.56 453C242.387 452.687 242.297 452.29 242.29 451.81C242.283 451.137 242.323 450.523 242.41 449.97C242.497 449.41 242.647 448.657 242.86 447.71L243.04 446.92L245.72 447.04C245.487 447.84 245.313 448.483 245.2 448.97C245.087 449.457 244.98 450.057 244.88 450.77C244.867 450.89 244.86 450.967 244.86 451C244.86 451.14 244.893 451.21 244.96 451.21C245.053 451.21 245.22 451.08 245.46 450.82C245.707 450.56 246.077 450.12 246.57 449.5C246.65 450.1 246.757 450.61 246.89 451.03C247.03 451.443 247.213 451.823 247.44 452.17ZM250.83 457.11C250.683 456.63 250.463 456.147 250.17 455.66L251.09 455.42C251.39 455.893 251.617 456.377 251.77 456.87L250.83 457.11ZM249.62 457.41C249.473 456.93 249.253 456.45 248.96 455.97L249.88 455.73C250.167 456.19 250.39 456.673 250.55 457.18L249.62 457.41ZM247.46 458.81L246.22 458.9C246.007 459.947 245.68 460.907 245.24 461.78C244.807 462.653 244.27 463.4 243.63 464.02C243.35 463.507 243.083 463.083 242.83 462.75C242.577 462.417 242.31 462.12 242.03 461.86C242.483 461.5 242.847 461.093 243.12 460.64C243.393 460.18 243.607 459.623 243.76 458.97H242.84L242.82 456.98L244.05 456.97L244.09 456.36H246.5C246.5 456.48 246.493 456.653 246.48 456.88C247.16 456.833 247.707 456.79 248.12 456.75V457.94C249.04 457.793 249.967 457.72 250.9 457.72H251.26L251.54 459.82C251.427 459.813 251.253 459.81 251.02 459.81C249.927 459.81 248.74 459.923 247.46 460.15V458.81ZM247.95 460.56C247.903 460.84 247.88 461.037 247.88 461.15C247.88 461.417 247.94 461.597 248.06 461.69C248.18 461.783 248.37 461.83 248.63 461.83C249.103 461.83 249.633 461.793 250.22 461.72C250.813 461.647 251.263 461.557 251.57 461.45C251.39 462.01 251.263 462.797 251.19 463.81C250.91 463.877 250.577 463.93 250.19 463.97C249.803 464.003 249.41 464.02 249.01 464.02C248.83 464.02 248.593 464.013 248.3 464C246.56 463.907 245.69 463.343 245.69 462.31C245.69 461.93 245.807 461.487 246.04 460.98C246.453 460.933 246.827 460.873 247.16 460.8C247.5 460.72 247.763 460.64 247.95 460.56ZM251.87 469.99C251.897 470.763 251.757 471.457 251.45 472.07C251.15 472.677 250.73 473.153 250.19 473.5C249.657 473.84 249.07 474.01 248.43 474.01C247.717 474.01 247.187 473.87 246.84 473.59C246.493 473.303 246.32 472.877 246.32 472.31C246.32 472.243 246.327 472.123 246.34 471.95C246.367 471.697 246.38 471.527 246.38 471.44C246.38 471.253 246.353 471.113 246.3 471.02C246.247 470.92 246.157 470.87 246.03 470.87C245.863 470.87 245.707 470.967 245.56 471.16C245.42 471.353 245.307 471.653 245.22 472.06L244.82 473.95C244.727 473.937 244.653 473.93 244.6 473.93C243.573 473.817 242.767 473.763 242.18 473.77C242.367 472.93 242.747 471.703 243.32 470.09C243.893 468.477 244.393 467.167 244.82 466.16L247.68 466.44C247.52 466.747 247.34 467.07 247.14 467.41C246.88 467.877 246.677 468.247 246.53 468.52C246.39 468.793 246.263 469.08 246.15 469.38C246.597 469.247 246.953 469.18 247.22 469.18C247.66 469.18 248.017 469.297 248.29 469.53C248.563 469.763 248.7 470.077 248.7 470.47C248.7 470.623 248.687 470.763 248.66 470.89C248.633 471.017 248.597 471.157 248.55 471.31C248.51 471.457 248.49 471.54 248.49 471.56C248.49 471.62 248.52 471.65 248.58 471.65C248.753 471.65 248.897 471.603 249.01 471.51C249.123 471.417 249.223 471.217 249.31 470.91C249.403 470.603 249.487 470.133 249.56 469.5C249.913 469.687 250.277 469.817 250.65 469.89C251.03 469.957 251.437 469.99 251.87 469.99Z" fill="black"/>
<path d="M246.42 679.55C247.18 679.55 247.743 679.613 248.11 679.74C248.477 679.86 248.727 680.083 248.86 680.41C249 680.737 249.07 681.24 249.07 681.92C249.07 682.793 249.057 683.447 249.03 683.88C249.003 684.307 248.95 684.633 248.87 684.86C248.797 685.087 248.68 685.287 248.52 685.46C248.347 685.647 248.03 685.793 247.57 685.9C247.11 686 246.457 686.073 245.61 686.12C245.503 685.387 245.367 684.817 245.2 684.41C245.053 684.863 244.857 685.4 244.61 686.02C243.77 685.72 242.903 685.487 242.01 685.32C242.437 684.68 242.77 684.08 243.01 683.52C243.25 682.953 243.427 682.33 243.54 681.65L242.31 681.77C242.323 681.023 242.233 680.32 242.04 679.66C242.76 679.633 243.32 679.617 243.72 679.61C243.727 679.35 243.73 678.937 243.73 678.37H246.19C246.177 678.697 246.15 679.09 246.11 679.55H246.42ZM250.95 678.83C251.25 679.85 251.467 680.72 251.6 681.44C251.733 682.16 251.85 683.11 251.95 684.29L249.6 684.62C249.567 683.513 249.477 682.553 249.33 681.74C249.19 680.927 248.953 680.013 248.62 679L250.95 678.83ZM246.6 683.77C246.687 683.703 246.753 683.547 246.8 683.3C246.853 683.053 246.88 682.737 246.88 682.35C246.88 682.077 246.863 681.883 246.83 681.77C246.803 681.657 246.743 681.583 246.65 681.55C246.563 681.51 246.41 681.49 246.19 681.49C246.063 681.49 245.96 681.493 245.88 681.5C245.74 682.367 245.57 683.14 245.37 683.82C245.657 683.853 245.883 683.87 246.05 683.87C246.343 683.87 246.527 683.837 246.6 683.77ZM249.15 695.16C248.997 693.827 248.767 692.683 248.46 691.73C248.153 690.77 247.757 689.873 247.27 689.04L249.61 688.69C250.157 689.53 250.597 690.387 250.93 691.26C251.263 692.133 251.567 693.23 251.84 694.55L249.15 695.16ZM247.44 694.17C247.033 694.643 246.51 695.047 245.87 695.38C245.237 695.713 244.647 695.88 244.1 695.88C243.793 695.88 243.503 695.81 243.23 695.67C242.963 695.53 242.74 695.307 242.56 695C242.387 694.687 242.297 694.29 242.29 693.81C242.283 693.137 242.323 692.523 242.41 691.97C242.497 691.41 242.647 690.657 242.86 689.71L243.04 688.92L245.72 689.04C245.487 689.84 245.313 690.483 245.2 690.97C245.087 691.457 244.98 692.057 244.88 692.77C244.867 692.89 244.86 692.967 244.86 693C244.86 693.14 244.893 693.21 244.96 693.21C245.053 693.21 245.22 693.08 245.46 692.82C245.707 692.56 246.077 692.12 246.57 691.5C246.65 692.1 246.757 692.61 246.89 693.03C247.03 693.443 247.213 693.823 247.44 694.17ZM250.83 699.11C250.683 698.63 250.463 698.147 250.17 697.66L251.09 697.42C251.39 697.893 251.617 698.377 251.77 698.87L250.83 699.11ZM249.62 699.41C249.473 698.93 249.253 698.45 248.96 697.97L249.88 697.73C250.167 698.19 250.39 698.673 250.55 699.18L249.62 699.41ZM247.46 700.81L246.22 700.9C246.007 701.947 245.68 702.907 245.24 703.78C244.807 704.653 244.27 705.4 243.63 706.02C243.35 705.507 243.083 705.083 242.83 704.75C242.577 704.417 242.31 704.12 242.03 703.86C242.483 703.5 242.847 703.093 243.12 702.64C243.393 702.18 243.607 701.623 243.76 700.97H242.84L242.82 698.98L244.05 698.97L244.09 698.36H246.5C246.5 698.48 246.493 698.653 246.48 698.88C247.16 698.833 247.707 698.79 248.12 698.75V699.94C249.04 699.793 249.967 699.72 250.9 699.72H251.26L251.54 701.82C251.427 701.813 251.253 701.81 251.02 701.81C249.927 701.81 248.74 701.923 247.46 702.15V700.81ZM247.95 702.56C247.903 702.84 247.88 703.037 247.88 703.15C247.88 703.417 247.94 703.597 248.06 703.69C248.18 703.783 248.37 703.83 248.63 703.83C249.103 703.83 249.633 703.793 250.22 703.72C250.813 703.647 251.263 703.557 251.57 703.45C251.39 704.01 251.263 704.797 251.19 705.81C250.91 705.877 250.577 705.93 250.19 705.97C249.803 706.003 249.41 706.02 249.01 706.02C248.83 706.02 248.593 706.013 248.3 706C246.56 705.907 245.69 705.343 245.69 704.31C245.69 703.93 245.807 703.487 246.04 702.98C246.453 702.933 246.827 702.873 247.16 702.8C247.5 702.72 247.763 702.64 247.95 702.56ZM251.87 711.99C251.897 712.763 251.757 713.457 251.45 714.07C251.15 714.677 250.73 715.153 250.19 715.5C249.657 715.84 249.07 716.01 248.43 716.01C247.717 716.01 247.187 715.87 246.84 715.59C246.493 715.303 246.32 714.877 246.32 714.31C246.32 714.243 246.327 714.123 246.34 713.95C246.367 713.697 246.38 713.527 246.38 713.44C246.38 713.253 246.353 713.113 246.3 713.02C246.247 712.92 246.157 712.87 246.03 712.87C245.863 712.87 245.707 712.967 245.56 713.16C245.42 713.353 245.307 713.653 245.22 714.06L244.82 715.95C244.727 715.937 244.653 715.93 244.6 715.93C243.573 715.817 242.767 715.763 242.18 715.77C242.367 714.93 242.747 713.703 243.32 712.09C243.893 710.477 244.393 709.167 244.82 708.16L247.68 708.44C247.52 708.747 247.34 709.07 247.14 709.41C246.88 709.877 246.677 710.247 246.53 710.52C246.39 710.793 246.263 711.08 246.15 711.38C246.597 711.247 246.953 711.18 247.22 711.18C247.66 711.18 248.017 711.297 248.29 711.53C248.563 711.763 248.7 712.077 248.7 712.47C248.7 712.623 248.687 712.763 248.66 712.89C248.633 713.017 248.597 713.157 248.55 713.31C248.51 713.457 248.49 713.54 248.49 713.56C248.49 713.62 248.52 713.65 248.58 713.65C248.753 713.65 248.897 713.603 249.01 713.51C249.123 713.417 249.223 713.217 249.31 712.91C249.403 712.603 249.487 712.133 249.56 711.5C249.913 711.687 250.277 711.817 250.65 711.89C251.03 711.957 251.437 711.99 251.87 711.99Z" fill="black"/>
</svg>
