<svg width="485" height="591" viewBox="0 0 485 591" fill="none" xmlns="http://www.w3.org/2000/svg">
<path d="M292.874 519.765V435.765" stroke="black" stroke-width="1.43" stroke-miterlimit="10"/>
<path d="M329.354 519.765V435.765" stroke="black" stroke-width="1.43" stroke-miterlimit="10"/>
<path d="M111.199 537.046H366.549" stroke="black" stroke-width="1.44" stroke-miterlimit="10"/>
<path d="M438.799 519.765V435.765" stroke="black" stroke-width="1.439" stroke-miterlimit="10"/>
<path d="M220.639 555.045H257.109" stroke="black" stroke-width="1.44" stroke-miterlimit="10"/>
<path d="M110.479 585.765V434.325" stroke="black" stroke-width="1.44" stroke-miterlimit="10"/>
<path d="M292.874 585.765V537.765" stroke="black" stroke-width="1.43" stroke-miterlimit="10"/>
<path d="M438.799 585.765V537.045" stroke="black" stroke-width="1.439" stroke-miterlimit="10"/>
<path d="M475.28 585.765V435.765" stroke="black" stroke-width="1.44" stroke-miterlimit="10"/>
<path d="M219.919 585.765V537.765" stroke="black" stroke-width="1.44" stroke-miterlimit="10"/>
<path d="M256.394 585.765V537.765" stroke="black" stroke-width="1.43" stroke-miterlimit="10"/>
<path d="M365.839 585.765V537.765" stroke="black" stroke-width="1.439" stroke-miterlimit="10"/>
<path d="M388.639 585.765V536.325" stroke="black" stroke-width="1.439" stroke-miterlimit="10"/>
<path d="M397.759 555.765V537.765" stroke="black" stroke-width="1.439" stroke-miterlimit="10"/>
<path d="M415.999 555.765V537.765" stroke="black" stroke-width="1.439" stroke-miterlimit="10"/>
<path d="M429.679 567.155V537.765" stroke="black" stroke-width="1.439" stroke-miterlimit="10"/>
<path d="M146.959 519.765V435.765" stroke="black" stroke-width="1.44" stroke-miterlimit="10"/>
<path d="M329.354 585.765V537.765" stroke="black" stroke-width="1.43" stroke-miterlimit="10"/>
<path d="M111.199 435.046H475.999" stroke="black" stroke-width="1.44" stroke-miterlimit="10"/>
<path d="M293.599 501.046H330.079" stroke="black" stroke-width="1.44" stroke-miterlimit="10"/>
<path d="M111.199 519.046H439.519" stroke="black" stroke-width="1.44" stroke-miterlimit="10"/>
<path d="M389.359 537.046H430.389" stroke="black" stroke-width="1.44" stroke-miterlimit="10"/>
<path d="M416.719 549.045H430.389" stroke="black" stroke-width="1.44" stroke-miterlimit="10"/>
<path d="M398.479 555.045H416.709" stroke="black" stroke-width="1.44" stroke-miterlimit="10"/>
<path d="M366.559 561.045H389.359" stroke="black" stroke-width="1.44" stroke-miterlimit="10"/>
<path d="M111.199 585.045H475.999" stroke="black" stroke-width="1.44" stroke-miterlimit="10"/>
<path fill-rule="evenodd" clip-rule="evenodd" d="M484.039 527.685L474.438 523.965L484.039 520.246V527.685Z" fill="black"/>
<path d="M484.399 528.166L473.719 523.966L484.399 519.886V528.166ZM483.799 520.246L484.16 520.605L474.559 524.325V523.726L484.16 527.445L483.799 527.686V520.246Z" fill="black"/>
<path fill-rule="evenodd" clip-rule="evenodd" d="M453.2 590.206L457.04 580.726L460.76 590.206H453.2Z" fill="black"/>
<path d="M452.839 590.555L457.039 580.005L461.239 590.555H452.839ZM460.759 589.965L460.519 590.325L456.799 580.845H457.279L453.559 590.325L453.199 589.965H460.759Z" fill="black"/>
<path fill-rule="evenodd" clip-rule="evenodd" d="M484.039 527.685L474.438 523.965L484.039 520.246V527.685Z" fill="black"/>
<path d="M484.399 528.166L473.719 523.966L484.399 519.886V528.166ZM483.799 520.246L484.16 520.605L474.559 524.325V523.726L484.16 527.445L483.799 527.686V520.246Z" fill="black"/>
<path fill-rule="evenodd" clip-rule="evenodd" d="M453.2 590.206L457.04 580.726L460.76 590.206H453.2Z" fill="black"/>
<path d="M452.839 590.555L457.039 580.005L461.239 590.555H452.839ZM460.759 589.965L460.519 590.325L456.799 580.845H457.279L453.559 590.325L453.199 589.965H460.759Z" fill="black"/>
<path d="M439 489L457 489" stroke="black" stroke-width="0.721"/>
<path d="M448.013 488.963L449.806 485.537Z" fill="white"/>
<path d="M447.805 488.962L446.013 485.538Z" fill="white"/>
<path d="M110.479 276.996V266.325" stroke="black" stroke-width="1.44" stroke-miterlimit="10"/>
<path d="M292.874 276.996V267.766" stroke="black" stroke-width="1.43" stroke-miterlimit="10"/>
<path d="M438.799 276.996V267.766" stroke="black" stroke-width="1.439" stroke-miterlimit="10"/>
<path d="M475.28 276.996V267.766" stroke="black" stroke-width="1.44" stroke-miterlimit="10"/>
<path d="M183.439 276.996V267.766" stroke="black" stroke-width="1.44" stroke-miterlimit="10"/>
<path d="M111.199 267.045H475.999" stroke="black" stroke-width="1.44" stroke-miterlimit="10"/>
<path d="M183.439 351.765V277.005" stroke="black" stroke-width="1.44" stroke-miterlimit="10"/>
<path d="M292.874 351.765V277.005" stroke="black" stroke-width="1.43" stroke-miterlimit="10"/>
<path d="M111.199 369.045H366.549" stroke="black" stroke-width="1.44" stroke-miterlimit="10"/>
<path d="M389.359 369.045H430.389" stroke="black" stroke-width="1.44" stroke-miterlimit="10"/>
<path d="M438.799 351.765V277.005" stroke="black" stroke-width="1.439" stroke-miterlimit="10"/>
<path d="M110.479 417.765V277.005" stroke="black" stroke-width="1.44" stroke-miterlimit="10"/>
<path d="M292.874 417.765V369.765" stroke="black" stroke-width="1.43" stroke-miterlimit="10"/>
<path d="M438.799 417.765V368.325" stroke="black" stroke-width="1.439" stroke-miterlimit="10"/>
<path d="M475.28 417.765V277.005" stroke="black" stroke-width="1.44" stroke-miterlimit="10"/>
<path d="M219.919 417.765V369.765" stroke="black" stroke-width="1.44" stroke-miterlimit="10"/>
<path d="M256.394 417.765V369.765" stroke="black" stroke-width="1.43" stroke-miterlimit="10"/>
<path d="M365.839 417.765V369.765" stroke="black" stroke-width="1.439" stroke-miterlimit="10"/>
<path d="M388.639 417.765V368.325" stroke="black" stroke-width="1.439" stroke-miterlimit="10"/>
<path d="M397.759 387.765V369.765" stroke="black" stroke-width="1.439" stroke-miterlimit="10"/>
<path d="M415.999 387.765V369.765" stroke="black" stroke-width="1.439" stroke-miterlimit="10"/>
<path d="M429.679 399.155V369.765" stroke="black" stroke-width="1.439" stroke-miterlimit="10"/>
<path d="M183.439 417.765V369.765" stroke="black" stroke-width="1.44" stroke-miterlimit="10"/>
<path d="M160.639 417.765V369.765" stroke="black" stroke-width="1.44" stroke-miterlimit="10"/>
<path d="M111.199 351.045H439.519" stroke="black" stroke-width="1.44" stroke-miterlimit="10"/>
<path d="M439.519 369.045H475.999" stroke="black" stroke-width="1.44" stroke-miterlimit="10"/>
<path d="M416.719 381.045H430.389" stroke="black" stroke-width="1.44" stroke-miterlimit="10"/>
<path d="M398.479 387.045H416.709" stroke="black" stroke-width="1.44" stroke-miterlimit="10"/>
<path d="M366.559 393.045H389.359" stroke="black" stroke-width="1.44" stroke-miterlimit="10"/>
<path d="M111.199 417.046H475.999" stroke="black" stroke-width="1.44" stroke-miterlimit="10"/>
<path fill-rule="evenodd" clip-rule="evenodd" d="M484.039 359.685L474.438 355.965L484.039 352.246V359.685Z" fill="black"/>
<path d="M484.399 360.166L473.719 355.966L484.399 351.886V360.166ZM483.799 352.246L484.16 352.605L474.559 356.325V355.726L484.16 359.445L483.799 359.686V352.246Z" fill="black"/>
<path fill-rule="evenodd" clip-rule="evenodd" d="M484.039 359.685L474.438 355.965L484.039 352.246V359.685Z" fill="black"/>
<path d="M484.399 360.166L473.719 355.966L484.399 351.886V360.166ZM483.799 352.246L484.16 352.605L474.559 356.325V355.726L484.16 359.445L483.799 359.686V352.246Z" fill="black"/>
<path d="M439 321L457 321" stroke="black" stroke-width="0.721"/>
<path d="M292.874 183.765V99.7651" stroke="black" stroke-width="1.43" stroke-miterlimit="10"/>
<path d="M111.199 201.046H366.549" stroke="black" stroke-width="1.44" stroke-miterlimit="10"/>
<path d="M389.359 201.046H430.389" stroke="black" stroke-width="1.44" stroke-miterlimit="10"/>
<path d="M438.799 183.765V99.7651" stroke="black" stroke-width="1.439" stroke-miterlimit="10"/>
<path d="M110.479 249.765V98.3251" stroke="black" stroke-width="1.44" stroke-miterlimit="10"/>
<path d="M183.439 249.765V201.765" stroke="black" stroke-width="1.44" stroke-miterlimit="10"/>
<path d="M292.874 249.765V201.765" stroke="black" stroke-width="1.43" stroke-miterlimit="10"/>
<path d="M438.799 249.765V200.325" stroke="black" stroke-width="1.439" stroke-miterlimit="10"/>
<path d="M475.28 249.765V99.7651" stroke="black" stroke-width="1.44" stroke-miterlimit="10"/>
<path d="M329.354 249.765V201.765" stroke="black" stroke-width="1.43" stroke-miterlimit="10"/>
<path d="M146.959 249.765V201.765" stroke="black" stroke-width="1.44" stroke-miterlimit="10"/>
<path d="M219.919 249.765V201.765" stroke="black" stroke-width="1.44" stroke-miterlimit="10"/>
<path d="M256.394 249.765V201.765" stroke="black" stroke-width="1.43" stroke-miterlimit="10"/>
<path d="M365.839 249.765V201.765" stroke="black" stroke-width="1.439" stroke-miterlimit="10"/>
<path d="M388.639 249.765V200.325" stroke="black" stroke-width="1.439" stroke-miterlimit="10"/>
<path d="M397.759 219.765V201.765" stroke="black" stroke-width="1.439" stroke-miterlimit="10"/>
<path d="M415.999 219.765V201.765" stroke="black" stroke-width="1.439" stroke-miterlimit="10"/>
<path d="M429.679 231.155V201.765" stroke="black" stroke-width="1.439" stroke-miterlimit="10"/>
<path d="M111.199 99.0459H475.999" stroke="black" stroke-width="1.44" stroke-miterlimit="10"/>
<path d="M111.199 183.045H439.519" stroke="black" stroke-width="1.44" stroke-miterlimit="10"/>
<path d="M439.519 201.046H475.999" stroke="black" stroke-width="1.44" stroke-miterlimit="10"/>
<path d="M416.719 213.045H430.389" stroke="black" stroke-width="1.44" stroke-miterlimit="10"/>
<path d="M398.479 219.045H416.709" stroke="black" stroke-width="1.44" stroke-miterlimit="10"/>
<path d="M366.559 225.045H389.359" stroke="black" stroke-width="1.44" stroke-miterlimit="10"/>
<path d="M111.199 249.045H475.999" stroke="black" stroke-width="1.44" stroke-miterlimit="10"/>
<path d="M439 153L457 153" stroke="black" stroke-width="0.72"/>
<path d="M448.013 153.245L449.806 149.82Z" fill="white"/>
<path d="M447.805 153.244L446.013 149.82Z" fill="white"/>
<path d="M23.0533 427.56C24.4933 427.528 25.5573 427.496 26.2453 427.464V432H13.5493V427.464C15.2773 427.528 16.5813 427.56 17.4613 427.56V419.28C16.8853 420.544 15.7093 421.36 13.9333 421.728C13.8853 419.84 13.7093 418.12 13.4053 416.568C14.6853 416.392 15.5733 416.176 16.0693 415.92C16.5813 415.648 16.9733 415.352 17.2453 415.032C17.5333 414.712 17.7253 414.496 17.8213 414.384V414.336H23.0533V427.56ZM44.8667 422.232H49.4027V432.024H44.9867V431.592H40.5467V432.024H36.1067V428.184C35.8507 429.08 35.4107 429.76 34.7867 430.224C34.1627 430.688 33.3947 430.904 32.4827 430.872C32.2587 429.24 31.9627 428.024 31.5947 427.224V431.904H27.4907V413.976H35.3627L36.4667 417.48L36.1067 418.536L36.7307 418.512V413.592H40.8347V414.48H42.3947V417.264H40.8347V418.104L42.2267 417.84L42.4907 420.96C42.2507 421.024 42.0427 421.064 41.8667 421.08L43.2587 421.176C43.0987 421.064 42.9867 420.912 42.9227 420.72C42.8747 420.512 42.8507 420.224 42.8507 419.856V413.592H46.9787V414.456L49.4747 414.288V416.952L46.9787 417.048V417.768C46.9787 417.944 47.0027 418.064 47.0507 418.128C47.0987 418.176 47.1787 418.2 47.2907 418.2C47.4187 418.2 47.4827 418.12 47.4827 417.96C47.4827 417.816 47.4347 417.568 47.3387 417.216C47.6587 417.36 47.9787 417.456 48.2987 417.504C48.6187 417.552 49.1307 417.608 49.8347 417.672C49.8027 418.824 49.7467 419.64 49.6667 420.12C49.6027 420.584 49.4827 420.904 49.3067 421.08C49.1307 421.256 48.8187 421.392 48.3707 421.488C48.0827 421.536 47.5227 421.56 46.6907 421.56C45.9707 421.56 45.4507 421.552 45.1307 421.536L44.8667 422.232ZM31.5947 418.032V420.864C32.0747 419.76 32.3227 418.816 32.3387 418.032H31.5947ZM34.8587 422.04C35.4827 423.08 35.8987 424 36.1067 424.8V422.232H40.4987L40.8347 421.272C39.6507 421.448 38.2187 421.616 36.5387 421.776L35.9627 421.848L35.4347 420.528C35.1787 421.232 34.9867 421.736 34.8587 422.04ZM31.5947 426.408C31.8027 426.312 31.9627 426.168 32.0747 425.976C32.2027 425.784 32.2667 425.552 32.2667 425.28C32.2667 424.768 32.0427 424.152 31.5947 423.432V426.408ZM40.5467 425.856H44.9867V425.352H40.5467V425.856ZM40.5467 428.544H44.9867V428.04H40.5467V428.544Z" fill="black"/>
<path d="M16.4645 258.8C21.6645 258.512 25.6965 258.192 28.5605 257.84C28.2885 258.672 28.0805 259.552 27.9365 260.48C27.7925 261.408 27.7205 262.248 27.7205 263H10.5605L10.5365 262.496C10.5365 260.928 10.9925 259.568 11.9045 258.416C12.8325 257.264 14.1205 256.2 15.7685 255.224C16.2485 254.936 17.0005 254.568 18.0245 254.12C19.3525 253.544 20.3765 253.04 21.0965 252.608C21.8165 252.16 22.1765 251.72 22.1765 251.288C22.1765 250.744 21.9525 250.312 21.5045 249.992C21.0565 249.672 20.3605 249.512 19.4165 249.512C18.3765 249.512 17.5845 249.776 17.0405 250.304C16.5125 250.832 16.2485 251.504 16.2485 252.32C16.2485 252.576 16.2725 252.84 16.3205 253.112C14.3045 252.856 12.3445 252.68 10.4405 252.584C10.4405 251.224 10.7925 250 11.4965 248.912C12.2165 247.808 13.2885 246.936 14.7125 246.296C16.1525 245.656 17.9125 245.336 19.9925 245.336C21.8965 245.336 23.4805 245.6 24.7445 246.128C26.0245 246.64 26.9605 247.296 27.5525 248.096C28.1605 248.88 28.4645 249.688 28.4645 250.52C28.4645 251.48 28.2485 252.304 27.8165 252.992C27.4005 253.68 26.7925 254.296 25.9925 254.84C25.2085 255.368 24.1525 255.944 22.8245 256.568C22.6325 256.664 22.3205 256.776 21.8885 256.904C21.4565 257.016 21.1845 257.088 21.0725 257.12C19.9365 257.456 19.0325 257.736 18.3605 257.96C17.6885 258.184 17.0565 258.464 16.4645 258.8ZM47.8315 253.232H52.3675V263.024H47.9515V262.592H43.5115V263.024H39.0715V259.184C38.8155 260.08 38.3755 260.76 37.7515 261.224C37.1275 261.688 36.3595 261.904 35.4475 261.872C35.2235 260.24 34.9275 259.024 34.5595 258.224V262.904H30.4555V244.976H38.3275L39.4315 248.48L39.0715 249.536L39.6955 249.512V244.592H43.7995V245.48H45.3595V248.264H43.7995V249.104L45.1915 248.84L45.4555 251.96C45.2155 252.024 45.0075 252.064 44.8315 252.08L46.2235 252.176C46.0635 252.064 45.9515 251.912 45.8875 251.72C45.8395 251.512 45.8155 251.224 45.8155 250.856V244.592H49.9435V245.456L52.4395 245.288V247.952L49.9435 248.048V248.768C49.9435 248.944 49.9675 249.064 50.0155 249.128C50.0635 249.176 50.1435 249.2 50.2555 249.2C50.3835 249.2 50.4475 249.12 50.4475 248.96C50.4475 248.816 50.3995 248.568 50.3035 248.216C50.6235 248.36 50.9435 248.456 51.2635 248.504C51.5835 248.552 52.0955 248.608 52.7995 248.672C52.7675 249.824 52.7115 250.64 52.6315 251.12C52.5675 251.584 52.4475 251.904 52.2715 252.08C52.0955 252.256 51.7835 252.392 51.3355 252.488C51.0475 252.536 50.4875 252.56 49.6555 252.56C48.9355 252.56 48.4155 252.552 48.0955 252.536L47.8315 253.232ZM34.5595 249.032V251.864C35.0395 250.76 35.2875 249.816 35.3035 249.032H34.5595ZM37.8235 253.04C38.4475 254.08 38.8635 255 39.0715 255.8V253.232H43.4635L43.7995 252.272C42.6155 252.448 41.1835 252.616 39.5035 252.776L38.9275 252.848L38.3995 251.528C38.1435 252.232 37.9515 252.736 37.8235 253.04ZM34.5595 257.408C34.7675 257.312 34.9275 257.168 35.0395 256.976C35.1675 256.784 35.2315 256.552 35.2315 256.28C35.2315 255.768 35.0075 255.152 34.5595 254.432V257.408ZM43.5115 256.856H47.9515V256.352H43.5115V256.856ZM43.5115 259.544H47.9515V259.04H43.5115V259.544Z" fill="black"/>
<path d="M23.2817 90.168C23.8577 90.056 24.4257 90 24.9857 90C25.9617 90 26.7537 90.168 27.3617 90.504C27.9857 90.824 28.4337 91.24 28.7057 91.752C28.9777 92.248 29.1137 92.768 29.1137 93.312C29.1137 94.576 28.6977 95.656 27.8657 96.552C27.0337 97.432 25.9057 98.104 24.4817 98.568C23.0577 99.016 21.4737 99.24 19.7297 99.24C14.6737 99.24 11.4017 97.48 9.91369 93.96L11.2577 93.624C12.2497 93.384 13.0897 93.16 13.7777 92.952C14.4817 92.728 15.0977 92.48 15.6257 92.208C15.9457 93.008 16.4017 93.584 16.9937 93.936C17.6017 94.272 18.4337 94.44 19.4897 94.44C20.6097 94.44 21.5217 94.312 22.2257 94.056C22.9297 93.8 23.2817 93.416 23.2817 92.904C23.2817 92.632 23.1457 92.424 22.8737 92.28C22.6017 92.136 22.1697 92.04 21.5777 91.992C20.9857 91.928 20.1537 91.896 19.0817 91.896H17.2577V87.696H18.3617C19.5777 87.696 20.5697 87.648 21.3377 87.552C22.1057 87.44 22.4897 87.208 22.4897 86.856C22.4897 86.456 22.2817 86.136 21.8657 85.896C21.4657 85.64 20.8337 85.512 19.9697 85.512C18.8497 85.512 17.9377 85.744 17.2337 86.208C16.5457 86.672 16.0097 87.344 15.6257 88.224C13.9137 87.536 12.0897 87.048 10.1537 86.76C10.9217 85.032 12.0977 83.696 13.6817 82.752C15.2817 81.808 17.3377 81.336 19.8497 81.336C21.4817 81.336 22.9457 81.552 24.2417 81.984C25.5537 82.4 26.5777 82.984 27.3137 83.736C28.0657 84.488 28.4417 85.328 28.4417 86.256C28.4417 86.8 28.3137 87.288 28.0577 87.72C27.8017 88.136 27.2977 88.552 26.5457 88.968C25.7937 89.368 24.7057 89.768 23.2817 90.168ZM48.3823 89.232H52.9183V99.024H48.5023V98.592H44.0623V99.024H39.6223V95.184C39.3663 96.08 38.9263 96.76 38.3023 97.224C37.6783 97.688 36.9103 97.904 35.9983 97.872C35.7743 96.24 35.4783 95.024 35.1103 94.224V98.904H31.0063V80.976H38.8783L39.9823 84.48L39.6223 85.536L40.2463 85.512V80.592H44.3503V81.48H45.9103V84.264H44.3503V85.104L45.7423 84.84L46.0063 87.96C45.7663 88.024 45.5583 88.064 45.3823 88.08L46.7743 88.176C46.6143 88.064 46.5023 87.912 46.4383 87.72C46.3903 87.512 46.3663 87.224 46.3663 86.856V80.592H50.4943V81.456L52.9903 81.288V83.952L50.4943 84.048V84.768C50.4943 84.944 50.5183 85.064 50.5663 85.128C50.6143 85.176 50.6943 85.2 50.8063 85.2C50.9343 85.2 50.9983 85.12 50.9983 84.96C50.9983 84.816 50.9503 84.568 50.8543 84.216C51.1743 84.36 51.4943 84.456 51.8143 84.504C52.1343 84.552 52.6463 84.608 53.3503 84.672C53.3183 85.824 53.2623 86.64 53.1823 87.12C53.1183 87.584 52.9983 87.904 52.8223 88.08C52.6463 88.256 52.3343 88.392 51.8863 88.488C51.5983 88.536 51.0383 88.56 50.2063 88.56C49.4863 88.56 48.9663 88.552 48.6463 88.536L48.3823 89.232ZM35.1103 85.032V87.864C35.5903 86.76 35.8383 85.816 35.8543 85.032H35.1103ZM38.3743 89.04C38.9983 90.08 39.4143 91 39.6223 91.8V89.232H44.0143L44.3503 88.272C43.1663 88.448 41.7343 88.616 40.0543 88.776L39.4783 88.848L38.9503 87.528C38.6943 88.232 38.5023 88.736 38.3743 89.04ZM35.1103 93.408C35.3183 93.312 35.4783 93.168 35.5903 92.976C35.7183 92.784 35.7823 92.552 35.7823 92.28C35.7823 91.768 35.5583 91.152 35.1103 90.432V93.408ZM44.0623 92.856H48.5023V92.352H44.0623V92.856ZM44.0623 95.544H48.5023V95.04H44.0623V95.544Z" fill="black"/>
<path d="M449.188 113.97C450.252 113.97 451.041 114.059 451.554 114.236C452.067 114.404 452.417 114.717 452.604 115.174C452.8 115.631 452.898 116.336 452.898 117.288C452.898 118.511 452.879 119.425 452.842 120.032C452.805 120.629 452.73 121.087 452.618 121.404C452.515 121.721 452.352 122.001 452.128 122.244C451.885 122.505 451.442 122.711 450.798 122.86C450.154 123 449.239 123.103 448.054 123.168C447.905 122.141 447.713 121.343 447.48 120.774C447.275 121.409 446.999 122.16 446.654 123.028C445.478 122.608 444.265 122.281 443.014 122.048C443.611 121.152 444.078 120.312 444.414 119.528C444.75 118.735 444.997 117.862 445.156 116.91L443.434 117.078C443.453 116.033 443.327 115.048 443.056 114.124C444.064 114.087 444.848 114.063 445.408 114.054C445.417 113.69 445.422 113.111 445.422 112.318H448.866C448.847 112.775 448.81 113.326 448.754 113.97H449.188ZM455.53 112.962C455.95 114.39 456.253 115.608 456.44 116.616C456.627 117.624 456.79 118.954 456.93 120.606L453.64 121.068C453.593 119.519 453.467 118.175 453.262 117.036C453.066 115.897 452.735 114.619 452.268 113.2L455.53 112.962ZM449.44 119.878C449.561 119.785 449.655 119.565 449.72 119.22C449.795 118.875 449.832 118.431 449.832 117.89C449.832 117.507 449.809 117.237 449.762 117.078C449.725 116.919 449.641 116.817 449.51 116.77C449.389 116.714 449.174 116.686 448.866 116.686C448.689 116.686 448.544 116.691 448.432 116.7C448.236 117.913 447.998 118.996 447.718 119.948C448.119 119.995 448.437 120.018 448.67 120.018C449.081 120.018 449.337 119.971 449.44 119.878ZM467.01 121.824C466.795 119.957 466.473 118.357 466.044 117.022C465.615 115.678 465.059 114.423 464.378 113.256L467.654 112.766C468.419 113.942 469.035 115.141 469.502 116.364C469.969 117.587 470.393 119.122 470.776 120.97L467.01 121.824ZM464.616 120.438C464.047 121.101 463.314 121.665 462.418 122.132C461.531 122.599 460.705 122.832 459.94 122.832C459.511 122.832 459.105 122.734 458.722 122.538C458.349 122.342 458.036 122.029 457.784 121.6C457.541 121.161 457.415 120.606 457.406 119.934C457.397 118.991 457.453 118.133 457.574 117.358C457.695 116.574 457.905 115.519 458.204 114.194L458.456 113.088L462.208 113.256C461.881 114.376 461.639 115.277 461.48 115.958C461.321 116.639 461.172 117.479 461.032 118.478C461.013 118.646 461.004 118.753 461.004 118.8C461.004 118.996 461.051 119.094 461.144 119.094C461.275 119.094 461.508 118.912 461.844 118.548C462.189 118.184 462.707 117.568 463.398 116.7C463.51 117.54 463.659 118.254 463.846 118.842C464.042 119.421 464.299 119.953 464.616 120.438ZM455.362 133.354C455.157 132.682 454.849 132.005 454.438 131.324L455.726 130.988C456.146 131.651 456.463 132.327 456.678 133.018L455.362 133.354ZM453.668 133.774C453.463 133.102 453.155 132.43 452.744 131.758L454.032 131.422C454.433 132.066 454.746 132.743 454.97 133.452L453.668 133.774ZM450.644 135.734L448.908 135.86C448.609 137.325 448.152 138.669 447.536 139.892C446.929 141.115 446.178 142.16 445.282 143.028C444.89 142.309 444.517 141.717 444.162 141.25C443.807 140.783 443.434 140.368 443.042 140.004C443.677 139.5 444.185 138.931 444.568 138.296C444.951 137.652 445.249 136.873 445.464 135.958H444.176L444.148 133.172L445.87 133.158L445.926 132.304H449.3C449.3 132.472 449.291 132.715 449.272 133.032C450.224 132.967 450.989 132.906 451.568 132.85V134.516C452.856 134.311 454.153 134.208 455.46 134.208H455.964L456.356 137.148C456.197 137.139 455.955 137.134 455.628 137.134C454.097 137.134 452.436 137.293 450.644 137.61V135.734ZM451.33 138.184C451.265 138.576 451.232 138.851 451.232 139.01C451.232 139.383 451.316 139.635 451.484 139.766C451.652 139.897 451.918 139.962 452.282 139.962C452.945 139.962 453.687 139.911 454.508 139.808C455.339 139.705 455.969 139.579 456.398 139.43C456.146 140.214 455.969 141.315 455.866 142.734C455.474 142.827 455.007 142.902 454.466 142.958C453.925 143.005 453.374 143.028 452.814 143.028C452.562 143.028 452.231 143.019 451.82 143C449.384 142.869 448.166 142.081 448.166 140.634C448.166 140.102 448.329 139.481 448.656 138.772C449.235 138.707 449.757 138.623 450.224 138.52C450.7 138.408 451.069 138.296 451.33 138.184ZM470.818 137.386C470.855 138.469 470.659 139.439 470.23 140.298C469.81 141.147 469.222 141.815 468.466 142.3C467.719 142.776 466.898 143.014 466.002 143.014C465.003 143.014 464.261 142.818 463.776 142.426C463.291 142.025 463.048 141.427 463.048 140.634C463.048 140.541 463.057 140.373 463.076 140.13C463.113 139.775 463.132 139.537 463.132 139.416C463.132 139.155 463.095 138.959 463.02 138.828C462.945 138.688 462.819 138.618 462.642 138.618C462.409 138.618 462.189 138.753 461.984 139.024C461.788 139.295 461.629 139.715 461.508 140.284L460.948 142.93C460.817 142.911 460.715 142.902 460.64 142.902C459.203 142.743 458.073 142.669 457.252 142.678C457.513 141.502 458.045 139.785 458.848 137.526C459.651 135.267 460.351 133.433 460.948 132.024L464.952 132.416C464.728 132.845 464.476 133.298 464.196 133.774C463.832 134.427 463.547 134.945 463.342 135.328C463.146 135.711 462.969 136.112 462.81 136.532C463.435 136.345 463.935 136.252 464.308 136.252C464.924 136.252 465.423 136.415 465.806 136.742C466.189 137.069 466.38 137.507 466.38 138.058C466.38 138.273 466.361 138.469 466.324 138.646C466.287 138.823 466.235 139.019 466.17 139.234C466.114 139.439 466.086 139.556 466.086 139.584C466.086 139.668 466.128 139.71 466.212 139.71C466.455 139.71 466.655 139.645 466.814 139.514C466.973 139.383 467.113 139.103 467.234 138.674C467.365 138.245 467.481 137.587 467.584 136.7C468.079 136.961 468.587 137.143 469.11 137.246C469.642 137.339 470.211 137.386 470.818 137.386Z" fill="black"/>
<path d="M449.188 281.97C450.252 281.97 451.041 282.059 451.554 282.236C452.067 282.404 452.417 282.717 452.604 283.174C452.8 283.631 452.898 284.336 452.898 285.288C452.898 286.511 452.879 287.425 452.842 288.032C452.805 288.629 452.73 289.087 452.618 289.404C452.515 289.721 452.352 290.001 452.128 290.244C451.885 290.505 451.442 290.711 450.798 290.86C450.154 291 449.239 291.103 448.054 291.168C447.905 290.141 447.713 289.343 447.48 288.774C447.275 289.409 446.999 290.16 446.654 291.028C445.478 290.608 444.265 290.281 443.014 290.048C443.611 289.152 444.078 288.312 444.414 287.528C444.75 286.735 444.997 285.862 445.156 284.91L443.434 285.078C443.453 284.033 443.327 283.048 443.056 282.124C444.064 282.087 444.848 282.063 445.408 282.054C445.417 281.69 445.422 281.111 445.422 280.318H448.866C448.847 280.775 448.81 281.326 448.754 281.97H449.188ZM455.53 280.962C455.95 282.39 456.253 283.608 456.44 284.616C456.627 285.624 456.79 286.954 456.93 288.606L453.64 289.068C453.593 287.519 453.467 286.175 453.262 285.036C453.066 283.897 452.735 282.619 452.268 281.2L455.53 280.962ZM449.44 287.878C449.561 287.785 449.655 287.565 449.72 287.22C449.795 286.875 449.832 286.431 449.832 285.89C449.832 285.507 449.809 285.237 449.762 285.078C449.725 284.919 449.641 284.817 449.51 284.77C449.389 284.714 449.174 284.686 448.866 284.686C448.689 284.686 448.544 284.691 448.432 284.7C448.236 285.913 447.998 286.996 447.718 287.948C448.119 287.995 448.437 288.018 448.67 288.018C449.081 288.018 449.337 287.971 449.44 287.878ZM467.01 289.824C466.795 287.957 466.473 286.357 466.044 285.022C465.615 283.678 465.059 282.423 464.378 281.256L467.654 280.766C468.419 281.942 469.035 283.141 469.502 284.364C469.969 285.587 470.393 287.122 470.776 288.97L467.01 289.824ZM464.616 288.438C464.047 289.101 463.314 289.665 462.418 290.132C461.531 290.599 460.705 290.832 459.94 290.832C459.511 290.832 459.105 290.734 458.722 290.538C458.349 290.342 458.036 290.029 457.784 289.6C457.541 289.161 457.415 288.606 457.406 287.934C457.397 286.991 457.453 286.133 457.574 285.358C457.695 284.574 457.905 283.519 458.204 282.194L458.456 281.088L462.208 281.256C461.881 282.376 461.639 283.277 461.48 283.958C461.321 284.639 461.172 285.479 461.032 286.478C461.013 286.646 461.004 286.753 461.004 286.8C461.004 286.996 461.051 287.094 461.144 287.094C461.275 287.094 461.508 286.912 461.844 286.548C462.189 286.184 462.707 285.568 463.398 284.7C463.51 285.54 463.659 286.254 463.846 286.842C464.042 287.421 464.299 287.953 464.616 288.438ZM455.362 301.354C455.157 300.682 454.849 300.005 454.438 299.324L455.726 298.988C456.146 299.651 456.463 300.327 456.678 301.018L455.362 301.354ZM453.668 301.774C453.463 301.102 453.155 300.43 452.744 299.758L454.032 299.422C454.433 300.066 454.746 300.743 454.97 301.452L453.668 301.774ZM450.644 303.734L448.908 303.86C448.609 305.325 448.152 306.669 447.536 307.892C446.929 309.115 446.178 310.16 445.282 311.028C444.89 310.309 444.517 309.717 444.162 309.25C443.807 308.783 443.434 308.368 443.042 308.004C443.677 307.5 444.185 306.931 444.568 306.296C444.951 305.652 445.249 304.873 445.464 303.958H444.176L444.148 301.172L445.87 301.158L445.926 300.304H449.3C449.3 300.472 449.291 300.715 449.272 301.032C450.224 300.967 450.989 300.906 451.568 300.85V302.516C452.856 302.311 454.153 302.208 455.46 302.208H455.964L456.356 305.148C456.197 305.139 455.955 305.134 455.628 305.134C454.097 305.134 452.436 305.293 450.644 305.61V303.734ZM451.33 306.184C451.265 306.576 451.232 306.851 451.232 307.01C451.232 307.383 451.316 307.635 451.484 307.766C451.652 307.897 451.918 307.962 452.282 307.962C452.945 307.962 453.687 307.911 454.508 307.808C455.339 307.705 455.969 307.579 456.398 307.43C456.146 308.214 455.969 309.315 455.866 310.734C455.474 310.827 455.007 310.902 454.466 310.958C453.925 311.005 453.374 311.028 452.814 311.028C452.562 311.028 452.231 311.019 451.82 311C449.384 310.869 448.166 310.081 448.166 308.634C448.166 308.102 448.329 307.481 448.656 306.772C449.235 306.707 449.757 306.623 450.224 306.52C450.7 306.408 451.069 306.296 451.33 306.184ZM470.818 305.386C470.855 306.469 470.659 307.439 470.23 308.298C469.81 309.147 469.222 309.815 468.466 310.3C467.719 310.776 466.898 311.014 466.002 311.014C465.003 311.014 464.261 310.818 463.776 310.426C463.291 310.025 463.048 309.427 463.048 308.634C463.048 308.541 463.057 308.373 463.076 308.13C463.113 307.775 463.132 307.537 463.132 307.416C463.132 307.155 463.095 306.959 463.02 306.828C462.945 306.688 462.819 306.618 462.642 306.618C462.409 306.618 462.189 306.753 461.984 307.024C461.788 307.295 461.629 307.715 461.508 308.284L460.948 310.93C460.817 310.911 460.715 310.902 460.64 310.902C459.203 310.743 458.073 310.669 457.252 310.678C457.513 309.502 458.045 307.785 458.848 305.526C459.651 303.267 460.351 301.433 460.948 300.024L464.952 300.416C464.728 300.845 464.476 301.298 464.196 301.774C463.832 302.427 463.547 302.945 463.342 303.328C463.146 303.711 462.969 304.112 462.81 304.532C463.435 304.345 463.935 304.252 464.308 304.252C464.924 304.252 465.423 304.415 465.806 304.742C466.189 305.069 466.38 305.507 466.38 306.058C466.38 306.273 466.361 306.469 466.324 306.646C466.287 306.823 466.235 307.019 466.17 307.234C466.114 307.439 466.086 307.556 466.086 307.584C466.086 307.668 466.128 307.71 466.212 307.71C466.455 307.71 466.655 307.645 466.814 307.514C466.973 307.383 467.113 307.103 467.234 306.674C467.365 306.245 467.481 305.587 467.584 304.7C468.079 304.961 468.587 305.143 469.11 305.246C469.642 305.339 470.211 305.386 470.818 305.386Z" fill="black"/>
<path d="M449.188 449.97C450.252 449.97 451.041 450.059 451.554 450.236C452.067 450.404 452.417 450.717 452.604 451.174C452.8 451.631 452.898 452.336 452.898 453.288C452.898 454.511 452.879 455.425 452.842 456.032C452.805 456.629 452.73 457.087 452.618 457.404C452.515 457.721 452.352 458.001 452.128 458.244C451.885 458.505 451.442 458.711 450.798 458.86C450.154 459 449.239 459.103 448.054 459.168C447.905 458.141 447.713 457.343 447.48 456.774C447.275 457.409 446.999 458.16 446.654 459.028C445.478 458.608 444.265 458.281 443.014 458.048C443.611 457.152 444.078 456.312 444.414 455.528C444.75 454.735 444.997 453.862 445.156 452.91L443.434 453.078C443.453 452.033 443.327 451.048 443.056 450.124C444.064 450.087 444.848 450.063 445.408 450.054C445.417 449.69 445.422 449.111 445.422 448.318H448.866C448.847 448.775 448.81 449.326 448.754 449.97H449.188ZM455.53 448.962C455.95 450.39 456.253 451.608 456.44 452.616C456.627 453.624 456.79 454.954 456.93 456.606L453.64 457.068C453.593 455.519 453.467 454.175 453.262 453.036C453.066 451.897 452.735 450.619 452.268 449.2L455.53 448.962ZM449.44 455.878C449.561 455.785 449.655 455.565 449.72 455.22C449.795 454.875 449.832 454.431 449.832 453.89C449.832 453.507 449.809 453.237 449.762 453.078C449.725 452.919 449.641 452.817 449.51 452.77C449.389 452.714 449.174 452.686 448.866 452.686C448.689 452.686 448.544 452.691 448.432 452.7C448.236 453.913 447.998 454.996 447.718 455.948C448.119 455.995 448.437 456.018 448.67 456.018C449.081 456.018 449.337 455.971 449.44 455.878ZM467.01 457.824C466.795 455.957 466.473 454.357 466.044 453.022C465.615 451.678 465.059 450.423 464.378 449.256L467.654 448.766C468.419 449.942 469.035 451.141 469.502 452.364C469.969 453.587 470.393 455.122 470.776 456.97L467.01 457.824ZM464.616 456.438C464.047 457.101 463.314 457.665 462.418 458.132C461.531 458.599 460.705 458.832 459.94 458.832C459.511 458.832 459.105 458.734 458.722 458.538C458.349 458.342 458.036 458.029 457.784 457.6C457.541 457.161 457.415 456.606 457.406 455.934C457.397 454.991 457.453 454.133 457.574 453.358C457.695 452.574 457.905 451.519 458.204 450.194L458.456 449.088L462.208 449.256C461.881 450.376 461.639 451.277 461.48 451.958C461.321 452.639 461.172 453.479 461.032 454.478C461.013 454.646 461.004 454.753 461.004 454.8C461.004 454.996 461.051 455.094 461.144 455.094C461.275 455.094 461.508 454.912 461.844 454.548C462.189 454.184 462.707 453.568 463.398 452.7C463.51 453.54 463.659 454.254 463.846 454.842C464.042 455.421 464.299 455.953 464.616 456.438ZM455.362 469.354C455.157 468.682 454.849 468.005 454.438 467.324L455.726 466.988C456.146 467.651 456.463 468.327 456.678 469.018L455.362 469.354ZM453.668 469.774C453.463 469.102 453.155 468.43 452.744 467.758L454.032 467.422C454.433 468.066 454.746 468.743 454.97 469.452L453.668 469.774ZM450.644 471.734L448.908 471.86C448.609 473.325 448.152 474.669 447.536 475.892C446.929 477.115 446.178 478.16 445.282 479.028C444.89 478.309 444.517 477.717 444.162 477.25C443.807 476.783 443.434 476.368 443.042 476.004C443.677 475.5 444.185 474.931 444.568 474.296C444.951 473.652 445.249 472.873 445.464 471.958H444.176L444.148 469.172L445.87 469.158L445.926 468.304H449.3C449.3 468.472 449.291 468.715 449.272 469.032C450.224 468.967 450.989 468.906 451.568 468.85V470.516C452.856 470.311 454.153 470.208 455.46 470.208H455.964L456.356 473.148C456.197 473.139 455.955 473.134 455.628 473.134C454.097 473.134 452.436 473.293 450.644 473.61V471.734ZM451.33 474.184C451.265 474.576 451.232 474.851 451.232 475.01C451.232 475.383 451.316 475.635 451.484 475.766C451.652 475.897 451.918 475.962 452.282 475.962C452.945 475.962 453.687 475.911 454.508 475.808C455.339 475.705 455.969 475.579 456.398 475.43C456.146 476.214 455.969 477.315 455.866 478.734C455.474 478.827 455.007 478.902 454.466 478.958C453.925 479.005 453.374 479.028 452.814 479.028C452.562 479.028 452.231 479.019 451.82 479C449.384 478.869 448.166 478.081 448.166 476.634C448.166 476.102 448.329 475.481 448.656 474.772C449.235 474.707 449.757 474.623 450.224 474.52C450.7 474.408 451.069 474.296 451.33 474.184ZM470.818 473.386C470.855 474.469 470.659 475.439 470.23 476.298C469.81 477.147 469.222 477.815 468.466 478.3C467.719 478.776 466.898 479.014 466.002 479.014C465.003 479.014 464.261 478.818 463.776 478.426C463.291 478.025 463.048 477.427 463.048 476.634C463.048 476.541 463.057 476.373 463.076 476.13C463.113 475.775 463.132 475.537 463.132 475.416C463.132 475.155 463.095 474.959 463.02 474.828C462.945 474.688 462.819 474.618 462.642 474.618C462.409 474.618 462.189 474.753 461.984 475.024C461.788 475.295 461.629 475.715 461.508 476.284L460.948 478.93C460.817 478.911 460.715 478.902 460.64 478.902C459.203 478.743 458.073 478.669 457.252 478.678C457.513 477.502 458.045 475.785 458.848 473.526C459.651 471.267 460.351 469.433 460.948 468.024L464.952 468.416C464.728 468.845 464.476 469.298 464.196 469.774C463.832 470.427 463.547 470.945 463.342 471.328C463.146 471.711 462.969 472.112 462.81 472.532C463.435 472.345 463.935 472.252 464.308 472.252C464.924 472.252 465.423 472.415 465.806 472.742C466.189 473.069 466.38 473.507 466.38 474.058C466.38 474.273 466.361 474.469 466.324 474.646C466.287 474.823 466.235 475.019 466.17 475.234C466.114 475.439 466.086 475.556 466.086 475.584C466.086 475.668 466.128 475.71 466.212 475.71C466.455 475.71 466.655 475.645 466.814 475.514C466.973 475.383 467.113 475.103 467.234 474.674C467.365 474.245 467.481 473.587 467.584 472.7C468.079 472.961 468.587 473.143 469.11 473.246C469.642 473.339 470.211 473.386 470.818 473.386Z" fill="black"/>
<path d="M410.02 233.74C410.02 234.08 409.927 234.337 409.74 234.51C409.56 234.677 409.19 234.797 408.63 234.87C408.077 234.943 407.21 234.98 406.03 234.98C406.003 234.633 405.953 234.34 405.88 234.1C405.813 233.86 405.717 233.643 405.59 233.45C405.397 233.67 405.177 233.87 404.93 234.05C404.55 234.33 404.08 234.557 403.52 234.73C402.967 234.897 402.263 235.043 401.41 235.17C401.263 234.837 401.103 234.53 400.93 234.25C400.757 233.963 400.53 233.677 400.25 233.39C400.91 233.363 401.533 233.307 402.12 233.22C402.713 233.133 403.193 233.017 403.56 232.87H400.88V231.48H404.51L404.53 231.23H401.14V227.49H409.89V231.23H406.53L406.5 231.48H410.02V233.74ZM404.52 229.01V228.74H403.25V229.01H404.52ZM406.51 229.01H407.78V228.74H406.51V229.01ZM404.52 229.72H403.25V229.98H404.52V229.72ZM406.51 229.72V229.98H407.78V229.72H406.51ZM407.3 233.16C407.493 233.14 407.607 233.043 407.64 232.87H406.02C405.927 233.017 405.853 233.123 405.8 233.19C406.633 233.19 407.133 233.18 407.3 233.16ZM420.24 230.12V232.1H417.21C417.37 232.293 417.48 232.49 417.54 232.69C417.6 232.89 417.63 233.113 417.63 233.36C417.63 233.847 417.427 234.233 417.02 234.52C416.62 234.8 416.133 234.953 415.56 234.98C415.433 234.987 415.243 234.99 414.99 234.99C414.457 234.99 413.647 234.93 412.56 234.81C412.56 234.37 412.543 233.99 412.51 233.67C412.477 233.343 412.393 232.963 412.26 232.53C413.22 232.79 413.973 232.92 414.52 232.92C414.82 232.92 415.033 232.883 415.16 232.81C415.287 232.73 415.35 232.633 415.35 232.52C415.35 232.413 415.343 232.273 415.33 232.1H410.76V230.12H414.98L414.69 229.8C415.117 229.787 415.503 229.673 415.85 229.46H411.42V227.53H419.84V229.38C419.873 229.413 419.803 229.45 419.63 229.49C419.463 229.53 419.37 229.553 419.35 229.56C418.503 229.84 417.89 230.027 417.51 230.12H420.24ZM405.21 238.73C404.983 239.09 404.81 239.447 404.69 239.8C404.57 240.147 404.437 240.603 404.29 241.17C402.917 240.677 401.303 240.243 399.45 239.87V243.05H396.63C396.677 241.93 396.703 240.81 396.71 239.69C396.723 238.57 396.73 237.17 396.73 235.49H399.45V237.56C400.33 237.667 401.29 237.827 402.33 238.04C403.377 238.253 404.337 238.483 405.21 238.73ZM415.46 236.43C415.007 237.03 414.557 237.527 414.11 237.92C413.67 238.307 413.143 238.657 412.53 238.97V242.96H409.76V239.84C408.833 240.007 407.65 240.14 406.21 240.24C406.157 239.72 406.093 239.27 406.02 238.89C405.953 238.51 405.833 238.113 405.66 237.7C406.713 237.707 407.643 237.673 408.45 237.6C409.257 237.527 409.92 237.393 410.44 237.2C411.513 236.793 412.347 236.18 412.94 235.36L415.46 236.43ZM423.41 236.51C423.71 236.877 424.02 237.197 424.34 237.47C424.667 237.743 425.033 238 425.44 238.24C424.733 239.38 423.77 240.39 422.55 241.27C421.337 242.143 419.82 242.743 418 243.07L416.14 241.76V235.66H418.83V240.31C419.73 240.103 420.573 239.68 421.36 239.04C422.153 238.4 422.837 237.557 423.41 236.51Z" fill="black"/>
<path d="M410.02 569.74C410.02 570.08 409.927 570.337 409.74 570.51C409.56 570.677 409.19 570.797 408.63 570.87C408.077 570.943 407.21 570.98 406.03 570.98C406.003 570.633 405.953 570.34 405.88 570.1C405.813 569.86 405.717 569.643 405.59 569.45C405.397 569.67 405.177 569.87 404.93 570.05C404.55 570.33 404.08 570.557 403.52 570.73C402.967 570.897 402.263 571.043 401.41 571.17C401.263 570.837 401.103 570.53 400.93 570.25C400.757 569.963 400.53 569.677 400.25 569.39C400.91 569.363 401.533 569.307 402.12 569.22C402.713 569.133 403.193 569.017 403.56 568.87H400.88V567.48H404.51L404.53 567.23H401.14V563.49H409.89V567.23H406.53L406.5 567.48H410.02V569.74ZM404.52 565.01V564.74H403.25V565.01H404.52ZM406.51 565.01H407.78V564.74H406.51V565.01ZM404.52 565.72H403.25V565.98H404.52V565.72ZM406.51 565.72V565.98H407.78V565.72H406.51ZM407.3 569.16C407.493 569.14 407.607 569.043 407.64 568.87H406.02C405.927 569.017 405.853 569.123 405.8 569.19C406.633 569.19 407.133 569.18 407.3 569.16ZM420.24 566.12V568.1H417.21C417.37 568.293 417.48 568.49 417.54 568.69C417.6 568.89 417.63 569.113 417.63 569.36C417.63 569.847 417.427 570.233 417.02 570.52C416.62 570.8 416.133 570.953 415.56 570.98C415.433 570.987 415.243 570.99 414.99 570.99C414.457 570.99 413.647 570.93 412.56 570.81C412.56 570.37 412.543 569.99 412.51 569.67C412.477 569.343 412.393 568.963 412.26 568.53C413.22 568.79 413.973 568.92 414.52 568.92C414.82 568.92 415.033 568.883 415.16 568.81C415.287 568.73 415.35 568.633 415.35 568.52C415.35 568.413 415.343 568.273 415.33 568.1H410.76V566.12H414.98L414.69 565.8C415.117 565.787 415.503 565.673 415.85 565.46H411.42V563.53H419.84V565.38C419.873 565.413 419.803 565.45 419.63 565.49C419.463 565.53 419.37 565.553 419.35 565.56C418.503 565.84 417.89 566.027 417.51 566.12H420.24ZM405.21 574.73C404.983 575.09 404.81 575.447 404.69 575.8C404.57 576.147 404.437 576.603 404.29 577.17C402.917 576.677 401.303 576.243 399.45 575.87V579.05H396.63C396.677 577.93 396.703 576.81 396.71 575.69C396.723 574.57 396.73 573.17 396.73 571.49H399.45V573.56C400.33 573.667 401.29 573.827 402.33 574.04C403.377 574.253 404.337 574.483 405.21 574.73ZM415.46 572.43C415.007 573.03 414.557 573.527 414.11 573.92C413.67 574.307 413.143 574.657 412.53 574.97V578.96H409.76V575.84C408.833 576.007 407.65 576.14 406.21 576.24C406.157 575.72 406.093 575.27 406.02 574.89C405.953 574.51 405.833 574.113 405.66 573.7C406.713 573.707 407.643 573.673 408.45 573.6C409.257 573.527 409.92 573.393 410.44 573.2C411.513 572.793 412.347 572.18 412.94 571.36L415.46 572.43ZM423.41 572.51C423.71 572.877 424.02 573.197 424.34 573.47C424.667 573.743 425.033 574 425.44 574.24C424.733 575.38 423.77 576.39 422.55 577.27C421.337 578.143 419.82 578.743 418 579.07L416.14 577.76V571.66H418.83V576.31C419.73 576.103 420.573 575.68 421.36 575.04C422.153 574.4 422.837 573.557 423.41 572.51Z" fill="black"/>
<path d="M410.41 400.85C409.943 401.543 409.623 402.263 409.45 403.01C408.423 402.523 407.493 402.107 406.66 401.76C406.107 402.087 405.437 402.347 404.65 402.54C403.87 402.733 402.883 402.907 401.69 403.06C401.597 402.88 401.49 402.65 401.37 402.37C401.343 402.317 401.25 402.12 401.09 401.78C400.93 401.433 400.747 401.073 400.54 400.7C401.1 400.807 401.67 400.86 402.25 400.86C402.817 400.86 403.377 400.81 403.93 400.71C403.01 400.39 402.17 400.14 401.41 399.96C401.87 399.373 402.293 398.743 402.68 398.07H400.86V395.96H403.69C403.743 395.82 403.817 395.61 403.91 395.33L406.51 395.4L406.29 395.96H410.24V398.07H407.43L409.18 398.56C408.847 399.253 408.553 399.797 408.3 400.19L410.41 400.85ZM405.24 398.07L404.61 399.14C405.063 399.253 405.547 399.383 406.06 399.53C406.36 399.063 406.587 398.577 406.74 398.07H405.24ZM420.24 398.12V400.1H417.21C417.37 400.293 417.48 400.49 417.54 400.69C417.6 400.89 417.63 401.113 417.63 401.36C417.63 401.847 417.427 402.233 417.02 402.52C416.62 402.8 416.133 402.953 415.56 402.98C415.433 402.987 415.243 402.99 414.99 402.99C414.457 402.99 413.647 402.93 412.56 402.81C412.56 402.37 412.543 401.99 412.51 401.67C412.477 401.343 412.393 400.963 412.26 400.53C413.22 400.79 413.973 400.92 414.52 400.92C414.82 400.92 415.033 400.883 415.16 400.81C415.287 400.73 415.35 400.633 415.35 400.52C415.35 400.413 415.343 400.273 415.33 400.1H410.76V398.12H414.98L414.69 397.8C415.117 397.787 415.503 397.673 415.85 397.46H411.42V395.53H419.84V397.38C419.873 397.413 419.803 397.45 419.63 397.49C419.463 397.53 419.37 397.553 419.35 397.56C418.503 397.84 417.89 398.027 417.51 398.12H420.24ZM405.21 406.73C404.983 407.09 404.81 407.447 404.69 407.8C404.57 408.147 404.437 408.603 404.29 409.17C402.917 408.677 401.303 408.243 399.45 407.87V411.05H396.63C396.677 409.93 396.703 408.81 396.71 407.69C396.723 406.57 396.73 405.17 396.73 403.49H399.45V405.56C400.33 405.667 401.29 405.827 402.33 406.04C403.377 406.253 404.337 406.483 405.21 406.73ZM415.46 404.43C415.007 405.03 414.557 405.527 414.11 405.92C413.67 406.307 413.143 406.657 412.53 406.97V410.96H409.76V407.84C408.833 408.007 407.65 408.14 406.21 408.24C406.157 407.72 406.093 407.27 406.02 406.89C405.953 406.51 405.833 406.113 405.66 405.7C406.713 405.707 407.643 405.673 408.45 405.6C409.257 405.527 409.92 405.393 410.44 405.2C411.513 404.793 412.347 404.18 412.94 403.36L415.46 404.43ZM423.41 404.51C423.71 404.877 424.02 405.197 424.34 405.47C424.667 405.743 425.033 406 425.44 406.24C424.733 407.38 423.77 408.39 422.55 409.27C421.337 410.143 419.82 410.743 418 411.07L416.14 409.76V403.66H418.83V408.31C419.73 408.103 420.573 407.68 421.36 407.04C422.153 406.4 422.837 405.557 423.41 404.51Z" fill="black"/>
<path d="M325.89 359.87C326.83 359.87 327.593 359.83 328.18 359.75L328.01 359.55C327.523 359.663 326.987 359.747 326.4 359.8C326.36 359.547 326.297 359.29 326.21 359.03C326.13 358.77 326.013 358.44 325.86 358.04C326.74 358.04 327.483 357.987 328.09 357.88C328.703 357.767 329.277 357.59 329.81 357.35H332.45C332.343 357.443 332.23 357.537 332.11 357.63H333.67L333.9 358.84C333.653 359.053 333.307 359.283 332.86 359.53C332.42 359.77 332.073 359.95 331.82 360.07C331.047 360.43 330.213 360.723 329.32 360.95C328.427 361.17 327.403 361.353 326.25 361.5C326.097 361.047 325.863 360.503 325.55 359.87H325.89ZM329.63 359.05C329.73 359.143 329.847 359.233 329.98 359.32C330.313 359.2 330.617 359.057 330.89 358.89H330.02C329.927 358.937 329.797 358.99 329.63 359.05ZM334.9 360.38L335.45 362.11C334.77 362.763 333.987 363.32 333.1 363.78C332.24 364.22 331.28 364.53 330.22 364.71C329.167 364.883 327.927 364.987 326.5 365.02C326.36 364.28 326.113 363.597 325.76 362.97C326.173 363.017 326.643 363.053 327.17 363.08C327.023 362.827 326.867 362.597 326.7 362.39C326.54 362.177 326.34 361.963 326.1 361.75C327.54 361.59 328.88 361.317 330.12 360.93C331.367 360.543 332.403 360.08 333.23 359.54L334.64 359.88C334.567 359.947 334.373 360.113 334.06 360.38H334.9ZM331.93 361.77L331.55 361.96C331.67 362.087 331.797 362.203 331.93 362.31C332.237 362.19 332.543 362.01 332.85 361.77H331.93ZM330.13 362.84C330.057 362.767 329.99 362.69 329.93 362.61C329.343 362.803 328.783 362.96 328.25 363.08C328.903 363.053 329.53 362.973 330.13 362.84ZM336.07 365.03V357.5H345.03V365.03H342.65V364.9H338.45V365.03H336.07ZM342.65 359.57V359.2H338.45V359.57H342.65ZM342.65 361.31V360.94H338.45V361.31H342.65ZM338.45 362.68V363.05H342.65V362.68H338.45ZM355.09 357.59C355.11 358.437 355.12 359.263 355.12 360.07C355.12 360.863 355.11 361.627 355.09 362.36C355.077 362.913 354.983 363.377 354.81 363.75C354.637 364.123 354.253 364.443 353.66 364.71C353.073 364.977 352.193 365.14 351.02 365.2C351.02 364.84 350.963 364.473 350.85 364.1C350.743 363.727 350.587 363.387 350.38 363.08V364.71H347.92V364.86H345.95V357.89H347.21L347.31 357.35H349.21L349.1 357.89H350.38V359.22C350.533 358.987 350.64 358.723 350.7 358.43C350.767 358.137 350.803 357.78 350.81 357.36H352.85V357.59H355.09ZM352.6 359.45C352.487 359.903 352.367 360.27 352.24 360.55C352.507 360.943 352.763 361.41 353.01 361.95C353.03 361.497 353.04 361.05 353.04 360.61L353.03 359.45H352.6ZM348.42 360.41V359.6H347.92V360.41H348.42ZM350.38 362.96C351.153 362.947 351.713 362.92 352.06 362.88C352.407 362.84 352.647 362.77 352.78 362.67C352.913 362.563 352.987 362.397 353 362.17L351.49 362.86C351.357 362.5 351.187 362.123 350.98 361.73C350.773 361.337 350.583 361.02 350.41 360.78L350.97 360.52C350.817 360.3 350.62 360.07 350.38 359.83V362.96ZM347.92 362.04V362.9H348.42V362.04H347.92ZM365.21 360.73C364.983 361.09 364.81 361.447 364.69 361.8C364.57 362.147 364.437 362.603 364.29 363.17C362.917 362.677 361.303 362.243 359.45 361.87V365.05H356.63C356.677 363.93 356.703 362.81 356.71 361.69C356.723 360.57 356.73 359.17 356.73 357.49H359.45V359.56C360.33 359.667 361.29 359.827 362.33 360.04C363.377 360.253 364.337 360.483 365.21 360.73ZM375.46 358.43C375.007 359.03 374.557 359.527 374.11 359.92C373.67 360.307 373.143 360.657 372.53 360.97V364.96H369.76V361.84C368.833 362.007 367.65 362.14 366.21 362.24C366.157 361.72 366.093 361.27 366.02 360.89C365.953 360.51 365.833 360.113 365.66 359.7C366.713 359.707 367.643 359.673 368.45 359.6C369.257 359.527 369.92 359.393 370.44 359.2C371.513 358.793 372.347 358.18 372.94 357.36L375.46 358.43ZM383.41 358.51C383.71 358.877 384.02 359.197 384.34 359.47C384.667 359.743 385.033 360 385.44 360.24C384.733 361.38 383.77 362.39 382.55 363.27C381.337 364.143 379.82 364.743 378 365.07L376.14 363.76V357.66H378.83V362.31C379.73 362.103 380.573 361.68 381.36 361.04C382.153 360.4 382.837 359.557 383.41 358.51Z" fill="black"/>
<line x1="386" y1="360.5" x2="406" y2="360.5" stroke="#65636D"/>
<line x1="406.5" y1="360" x2="406.5" y2="380" stroke="#65636D"/>
<path d="M18.036 42.36C15.492 42.36 13.152 41.736 11.016 40.488C8.88 39.216 7.176 37.512 5.904 35.376C4.656 33.24 4.032 30.9 4.032 28.356C4.032 25.812 4.656 23.472 5.904 21.336C7.176 19.2 8.88 17.508 11.016 16.26C13.152 15.012 15.492 14.388 18.036 14.388C20.556 14.388 22.884 15.012 25.02 16.26C27.18 17.508 28.884 19.2 30.132 21.336C31.38 23.472 32.004 25.812 32.004 28.356C32.004 30.9 31.38 33.24 30.132 35.376C28.884 37.512 27.18 39.216 25.02 40.488C22.884 41.736 20.556 42.36 18.036 42.36ZM67.824 30.66V37.428H62.928V42H54.324C54.42 40.992 54.492 39.468 54.54 37.428H37.44V30.156C43.032 25.86 48.024 21.096 52.416 15.864H62.928V30.66H67.824ZM54.72 22.992C53.064 24.696 51.636 26.124 50.436 27.276C49.236 28.404 47.88 29.532 46.368 30.66H54.612L54.72 22.992ZM71.8138 14.964H102.702V24.468H71.8138V14.964ZM81.4978 20.256H93.0538V19.104H81.4978V20.256ZM104.214 29.904H80.2738C80.2258 30.24 80.1778 30.492 80.1298 30.66H102.846C102.846 32.964 102.726 34.8 102.486 36.168C102.246 37.512 101.706 38.652 100.866 39.588C100.05 40.5 98.7778 41.16 97.0498 41.568C96.0898 41.808 94.8538 41.964 93.3418 42.036C91.8298 42.132 89.9218 42.18 87.6178 42.18C86.4658 42.18 84.3778 42.156 81.3538 42.108L76.9258 42.072C76.4218 40.104 75.8818 38.532 75.3058 37.356L70.5538 36.672C71.3218 34.488 71.8858 32.232 72.2458 29.904H70.1218V25.116H104.214V29.904ZM79.0858 35.376L78.8698 36.132C82.7578 36.252 85.7338 36.312 87.7978 36.312C89.7418 36.312 91.2538 36.252 92.3338 36.132C93.7258 36.012 94.6258 35.76 95.0338 35.376H79.0858ZM139.422 31.344H129.774V32.1H139.998V42.072H133.59V41.568H129.774V42.072H123.582V38.076C122.838 39.108 121.986 40.56 121.026 42.432C119.538 41.424 118.47 40.644 117.822 40.092C116.67 40.356 114.162 40.884 110.298 41.676C108.234 42.084 107.238 42.276 107.31 42.252C106.998 40.836 106.698 39.636 106.41 38.652C106.146 37.644 105.786 36.6 105.33 35.52C105.714 35.544 106.314 35.556 107.13 35.556V25.404L106.194 25.908C106.122 24.804 105.942 23.64 105.654 22.416C105.366 21.168 104.994 20.028 104.538 18.996C106.05 18.66 107.55 18.048 109.038 17.16C110.55 16.248 111.678 15.324 112.422 14.388H119.478C119.238 14.82 118.962 15.276 118.65 15.756C119.874 16.38 121.134 16.944 122.43 17.448V16.296H127.398V14.532H134.49V16.296H140.538V24.432H139.422V31.344ZM117.138 20.256L115.878 19.14L114.69 20.256H117.138ZM122.43 22.704V20.904C122.022 21.528 121.674 22.128 121.386 22.704H122.43ZM134.13 21.804V21.084H128.586V21.804H134.13ZM113.358 21.372C112.494 22.02 111.882 22.464 111.522 22.704H113.358V21.372ZM120.018 22.704L118.434 21.408V22.704H120.018ZM119.55 34.08C121.014 35.16 122.358 36.06 123.582 36.78V24.432H122.43V34.08H119.55ZM116.526 25.476H113.43V26.34H116.526V25.476ZM129.774 27.06H132.978V25.944H129.774V27.06ZM113.43 29.4V30.264H116.526V29.4H113.43ZM117.894 34.08H113.43V35.34C114.894 35.196 116.214 35.016 117.39 34.8L117.894 34.08ZM133.59 37.104V35.988H129.774V37.104H133.59Z" fill="black"/>
<path d="M356.59 135.85V137.73H355.23V139H352.84C352.867 138.72 352.887 138.297 352.9 137.73H348.15V135.71C349.703 134.517 351.09 133.193 352.31 131.74H355.23V135.85H356.59ZM352.95 133.72C352.49 134.193 352.093 134.59 351.76 134.91C351.427 135.223 351.05 135.537 350.63 135.85H352.92L352.95 133.72ZM361.588 136.57H357.288V134.62H361.588V136.57ZM367.871 135.32C368.111 135.273 368.347 135.25 368.581 135.25C368.987 135.25 369.317 135.32 369.571 135.46C369.831 135.593 370.017 135.767 370.131 135.98C370.244 136.187 370.301 136.403 370.301 136.63C370.301 137.157 370.127 137.607 369.781 137.98C369.434 138.347 368.964 138.627 368.371 138.82C367.777 139.007 367.117 139.1 366.391 139.1C364.284 139.1 362.921 138.367 362.301 136.9L362.861 136.76C363.274 136.66 363.624 136.567 363.911 136.48C364.204 136.387 364.461 136.283 364.681 136.17C364.814 136.503 365.004 136.743 365.251 136.89C365.504 137.03 365.851 137.1 366.291 137.1C366.757 137.1 367.137 137.047 367.431 136.94C367.724 136.833 367.871 136.673 367.871 136.46C367.871 136.347 367.814 136.26 367.701 136.2C367.587 136.14 367.407 136.1 367.161 136.08C366.914 136.053 366.567 136.04 366.121 136.04H365.361V134.29H365.821C366.327 134.29 366.741 134.27 367.061 134.23C367.381 134.183 367.541 134.087 367.541 133.94C367.541 133.773 367.454 133.64 367.281 133.54C367.114 133.433 366.851 133.38 366.491 133.38C366.024 133.38 365.644 133.477 365.351 133.67C365.064 133.863 364.841 134.143 364.681 134.51C363.967 134.223 363.207 134.02 362.401 133.9C362.721 133.18 363.211 132.623 363.871 132.23C364.537 131.837 365.394 131.64 366.441 131.64C367.121 131.64 367.731 131.73 368.271 131.91C368.817 132.083 369.244 132.327 369.551 132.64C369.864 132.953 370.021 133.303 370.021 133.69C370.021 133.917 369.967 134.12 369.861 134.3C369.754 134.473 369.544 134.647 369.231 134.82C368.917 134.987 368.464 135.153 367.871 135.32ZM375.119 137.15C375.719 137.137 376.163 137.123 376.449 137.11V139H371.159V137.11C371.879 137.137 372.423 137.15 372.789 137.15V133.7C372.549 134.227 372.059 134.567 371.319 134.72C371.299 133.933 371.226 133.217 371.099 132.57C371.633 132.497 372.003 132.407 372.209 132.3C372.423 132.187 372.586 132.063 372.699 131.93C372.819 131.797 372.899 131.707 372.939 131.66V131.64H375.119V137.15ZM380.67 139.1C379.237 139.1 378.18 138.77 377.5 138.11C376.82 137.45 376.48 136.533 376.48 135.36C376.48 134.193 376.82 133.283 377.5 132.63C378.187 131.97 379.243 131.64 380.67 131.64C382.097 131.64 383.15 131.97 383.83 132.63C384.51 133.283 384.85 134.193 384.85 135.36C384.85 136.533 384.51 137.45 383.83 138.11C383.15 138.77 382.097 139.1 380.67 139.1ZM380.68 137.35C381.293 137.35 381.74 137.163 382.02 136.79C382.3 136.41 382.44 135.933 382.44 135.36C382.44 134.793 382.3 134.323 382.02 133.95C381.74 133.57 381.293 133.38 380.68 133.38C380.047 133.38 379.587 133.57 379.3 133.95C379.02 134.323 378.88 134.793 378.88 135.36C378.88 135.927 379.02 136.4 379.3 136.78C379.587 137.16 380.047 137.35 380.68 137.35ZM346.906 149.39V151.07H344.526C344.686 151.237 344.766 151.41 344.766 151.59C344.766 151.857 344.642 152.097 344.396 152.31C344.149 152.523 343.789 152.693 343.316 152.82C342.842 152.94 342.279 153 341.626 153C341.339 153 341.006 152.987 340.626 152.96C340.246 152.927 339.722 152.873 339.056 152.8C339.056 152.44 339.029 152.127 338.976 151.86C338.922 151.593 338.839 151.33 338.726 151.07H337.286V149.39H342.336C342.489 149.337 342.642 149.263 342.796 149.17H338.746V148.87H337.556V146.16H338.476L338.296 145.56L340.376 145.4L340.576 146.16H341.096L340.896 145.36L342.976 145.2L343.196 146.16H343.596L343.796 145.4L345.876 145.56L345.696 146.16H346.636V148.87H345.456L345.496 149.05L345.096 149.13C344.896 149.19 344.616 149.277 344.256 149.39H346.906ZM339.546 147.77H344.646V147.59H339.546V147.77ZM339.096 151.07C339.996 151.237 340.739 151.32 341.326 151.32C341.906 151.32 342.239 151.237 342.326 151.07H339.096ZM353.456 150.99H356.646V152.92H347.546V150.99H350.856V150.41H348.316V149.6L348.066 149.83C347.899 149.343 347.739 148.927 347.586 148.58C347.439 148.227 347.262 147.887 347.056 147.56C347.396 147.327 347.666 147.02 347.866 146.64C348.072 146.26 348.179 145.833 348.186 145.36L350.446 145.38C350.392 145.76 350.352 146.003 350.326 146.11H350.856V145.38H353.456V146.11H356.446V147.97H353.456V148.55H356.176V150.41H353.456V150.99ZM350.856 148.55V147.97H349.606C349.492 148.17 349.369 148.363 349.236 148.55H350.856ZM363.096 151.1C363.602 151.193 364.046 151.263 364.426 151.31C364.812 151.35 365.242 151.37 365.716 151.37C366.142 151.37 366.579 151.357 367.026 151.33C366.739 151.63 366.512 151.913 366.346 152.18C366.179 152.44 366.049 152.717 365.956 153.01C364.569 152.843 363.299 152.477 362.146 151.91C361.666 152.19 361.079 152.423 360.386 152.61C359.699 152.797 359.022 152.93 358.356 153.01C358.169 152.517 357.772 151.957 357.166 151.33C357.566 151.35 357.942 151.36 358.296 151.36C358.909 151.36 359.446 151.337 359.906 151.29C360.366 151.243 360.696 151.18 360.896 151.1H357.286V149.83H361.066V149.63H357.926V148.65H361.066V148.45H357.856V147.69H357.306V145.6H360.946V145.31H363.236V145.6H366.876V147.69H366.336V148.45H363.126V148.65H366.266V149.63H363.126V149.83H366.906V151.1H363.096ZM359.526 147.12V147.45H361.066V147.28H363.126V147.45H364.666V147.12H359.526ZM376.586 150.88H375.026C375.266 150.987 375.542 151.06 375.856 151.1C376.176 151.133 376.589 151.15 377.096 151.15C376.956 151.41 376.826 151.703 376.706 152.03C376.586 152.357 376.516 152.547 376.496 152.6L376.316 153.1C375.876 152.993 375.489 152.837 375.156 152.63C374.822 152.417 374.489 152.113 374.156 151.72C373.796 152.127 373.422 152.44 373.036 152.66C372.656 152.88 372.276 153.007 371.896 153.04L371.656 152.4L371.466 151.9C371.466 152.187 371.422 152.407 371.336 152.56C371.249 152.707 371.116 152.813 370.936 152.88C370.756 152.94 370.492 152.983 370.146 153.01L370.126 152.71L369.856 152.76C369.816 152.473 369.762 152.167 369.696 151.84C369.629 151.507 369.569 151.233 369.516 151.02H369.996L370.086 151.36C370.146 151.3 370.176 151.203 370.176 151.07C370.176 151.03 370.169 150.957 370.156 150.85H368.316C368.309 150.89 368.306 150.947 368.306 151.02H368.756C368.796 151.28 368.839 151.59 368.886 151.95C368.939 152.31 368.969 152.633 368.976 152.92L368.446 152.98C368.432 152.767 368.396 152.38 368.336 151.82C368.322 151.747 368.309 151.643 368.296 151.51L368.286 151.72C368.272 152.227 368.242 152.657 368.196 153.01C367.889 152.95 367.576 152.91 367.256 152.89C367.342 152.45 367.399 152.1 367.426 151.84C367.452 151.58 367.472 151.25 367.486 150.85H367.406V145.51H371.416V146.09C371.669 146.083 371.879 146.073 372.046 146.06C372.212 146.04 372.379 146.007 372.546 145.96C372.732 145.907 372.862 145.833 372.936 145.74C373.016 145.64 373.066 145.5 373.086 145.32H374.936C374.909 145.46 374.866 145.61 374.806 145.77C375.126 145.89 375.462 145.97 375.816 146.01C376.176 146.05 376.606 146.077 377.106 146.09C377.079 146.197 376.996 146.57 376.856 147.21L376.756 147.68C376.676 147.667 376.622 147.653 376.596 147.64V148.06H375.036V148.22H376.586V150.88ZM374.536 146.95C374.436 146.897 374.292 146.803 374.106 146.67C373.992 146.757 373.852 146.85 373.686 146.95H374.536ZM369.706 147.12V146.87H369.026V147.12H369.706ZM370.906 146.87V147.12H371.286C371.279 147.08 371.262 146.997 371.236 146.87H370.906ZM371.466 151.16L371.696 151.17C371.982 151.17 372.249 151.143 372.496 151.09C372.749 151.03 372.949 150.96 373.096 150.88H371.626V148.22H373.176V148.06H371.716V147.63L371.366 147.68L371.346 147.53V148.16H370.906V148.42H371.346V149.43H370.906V149.69H371.466V151.16ZM369.026 148.16V148.42H369.706V148.16H369.026ZM373.056 149.23V149.73H373.456V149.23H373.056ZM374.756 149.73H375.126V149.23H374.756V149.73ZM369.706 149.43H369.026V149.69H369.706V149.43ZM369.376 151.02C369.496 151.527 369.602 152.113 369.696 152.78L369.146 152.89C369.119 152.497 369.052 152 368.946 151.4C368.939 151.333 368.929 151.267 368.916 151.2C368.902 151.133 368.892 151.073 368.886 151.02H369.376ZM383.236 145.65H386.876V147.78H385.936V148.26H385.626C385.879 148.693 386.162 149.113 386.476 149.52C386.142 149.56 385.776 149.633 385.376 149.74C384.976 149.847 384.636 149.963 384.356 150.09C384.242 149.91 384.169 149.79 384.136 149.73L378.146 149.95C378.119 149.723 378.082 149.527 378.036 149.36C377.996 149.187 377.919 148.947 377.806 148.64L379.146 148.61L379.386 148.26H378.256V147.78H377.306V145.65H380.946V145.32H383.236V145.65ZM384.796 147.2V146.99H379.396V147.2H384.796ZM383.596 148.53L383.496 148.26H381.486L381.276 148.58L383.596 148.53ZM386.596 151.42H383.166V151.62H386.836V152.96H377.356V151.62H381.026V151.42H377.596V150.2H381.026V149.98H383.166V150.2H386.596V151.42ZM393.076 149.32C393.316 149.273 393.552 149.25 393.786 149.25C394.192 149.25 394.522 149.32 394.776 149.46C395.036 149.593 395.222 149.767 395.336 149.98C395.449 150.187 395.506 150.403 395.506 150.63C395.506 151.157 395.332 151.607 394.986 151.98C394.639 152.347 394.169 152.627 393.576 152.82C392.982 153.007 392.322 153.1 391.596 153.1C389.489 153.1 388.126 152.367 387.506 150.9L388.066 150.76C388.479 150.66 388.829 150.567 389.116 150.48C389.409 150.387 389.666 150.283 389.886 150.17C390.019 150.503 390.209 150.743 390.456 150.89C390.709 151.03 391.056 151.1 391.496 151.1C391.962 151.1 392.342 151.047 392.636 150.94C392.929 150.833 393.076 150.673 393.076 150.46C393.076 150.347 393.019 150.26 392.906 150.2C392.792 150.14 392.612 150.1 392.366 150.08C392.119 150.053 391.772 150.04 391.326 150.04H390.566V148.29H391.026C391.532 148.29 391.946 148.27 392.266 148.23C392.586 148.183 392.746 148.087 392.746 147.94C392.746 147.773 392.659 147.64 392.486 147.54C392.319 147.433 392.056 147.38 391.696 147.38C391.229 147.38 390.849 147.477 390.556 147.67C390.269 147.863 390.046 148.143 389.886 148.51C389.172 148.223 388.412 148.02 387.606 147.9C387.926 147.18 388.416 146.623 389.076 146.23C389.742 145.837 390.599 145.64 391.646 145.64C392.326 145.64 392.936 145.73 393.476 145.91C394.022 146.083 394.449 146.327 394.756 146.64C395.069 146.953 395.226 147.303 395.226 147.69C395.226 147.917 395.172 148.12 395.066 148.3C394.959 148.473 394.749 148.647 394.436 148.82C394.122 148.987 393.669 149.153 393.076 149.32Z" fill="black"/>
<path d="M356.819 303.85V305.73H355.459V307H353.069C353.096 306.72 353.116 306.297 353.129 305.73H348.379V303.71C349.933 302.517 351.319 301.193 352.539 299.74H355.459V303.85H356.819ZM353.179 301.72C352.719 302.193 352.323 302.59 351.989 302.91C351.656 303.223 351.279 303.537 350.859 303.85H353.149L353.179 301.72ZM361.818 304.57H357.518V302.62H361.818V304.57ZM365.03 305.25C367.197 305.13 368.877 304.997 370.07 304.85C369.957 305.197 369.87 305.563 369.81 305.95C369.75 306.337 369.72 306.687 369.72 307H362.57L362.56 306.79C362.56 306.137 362.75 305.57 363.13 305.09C363.517 304.61 364.053 304.167 364.74 303.76C364.94 303.64 365.253 303.487 365.68 303.3C366.233 303.06 366.66 302.85 366.96 302.67C367.26 302.483 367.41 302.3 367.41 302.12C367.41 301.893 367.317 301.713 367.13 301.58C366.943 301.447 366.653 301.38 366.26 301.38C365.827 301.38 365.497 301.49 365.27 301.71C365.05 301.93 364.94 302.21 364.94 302.55C364.94 302.657 364.95 302.767 364.97 302.88C364.13 302.773 363.313 302.7 362.52 302.66C362.52 302.093 362.667 301.583 362.96 301.13C363.26 300.67 363.707 300.307 364.3 300.04C364.9 299.773 365.633 299.64 366.5 299.64C367.293 299.64 367.953 299.75 368.48 299.97C369.013 300.183 369.403 300.457 369.65 300.79C369.903 301.117 370.03 301.453 370.03 301.8C370.03 302.2 369.94 302.543 369.76 302.83C369.587 303.117 369.333 303.373 369 303.6C368.673 303.82 368.233 304.06 367.68 304.32C367.6 304.36 367.47 304.407 367.29 304.46C367.11 304.507 366.997 304.537 366.95 304.55C366.477 304.69 366.1 304.807 365.82 304.9C365.54 304.993 365.277 305.11 365.03 305.25ZM374.89 305.15C375.49 305.137 375.933 305.123 376.22 305.11V307H370.93V305.11C371.65 305.137 372.193 305.15 372.56 305.15V301.7C372.32 302.227 371.83 302.567 371.09 302.72C371.07 301.933 370.996 301.217 370.87 300.57C371.403 300.497 371.773 300.407 371.98 300.3C372.193 300.187 372.356 300.063 372.47 299.93C372.59 299.797 372.67 299.707 372.71 299.66V299.64H374.89V305.15ZM380.441 307.1C379.007 307.1 377.951 306.77 377.271 306.11C376.591 305.45 376.251 304.533 376.251 303.36C376.251 302.193 376.591 301.283 377.271 300.63C377.957 299.97 379.014 299.64 380.441 299.64C381.867 299.64 382.921 299.97 383.601 300.63C384.281 301.283 384.621 302.193 384.621 303.36C384.621 304.533 384.281 305.45 383.601 306.11C382.921 306.77 381.867 307.1 380.441 307.1ZM380.451 305.35C381.064 305.35 381.511 305.163 381.791 304.79C382.071 304.41 382.211 303.933 382.211 303.36C382.211 302.793 382.071 302.323 381.791 301.95C381.511 301.57 381.064 301.38 380.451 301.38C379.817 301.38 379.357 301.57 379.071 301.95C378.791 302.323 378.651 302.793 378.651 303.36C378.651 303.927 378.791 304.4 379.071 304.78C379.357 305.16 379.817 305.35 380.451 305.35ZM347.135 317.39V319.07H344.755C344.915 319.237 344.995 319.41 344.995 319.59C344.995 319.857 344.872 320.097 344.625 320.31C344.379 320.523 344.019 320.693 343.545 320.82C343.072 320.94 342.509 321 341.855 321C341.569 321 341.235 320.987 340.855 320.96C340.475 320.927 339.952 320.873 339.285 320.8C339.285 320.44 339.259 320.127 339.205 319.86C339.152 319.593 339.069 319.33 338.955 319.07H337.515V317.39H342.565C342.719 317.337 342.872 317.263 343.025 317.17H338.975V316.87H337.785V314.16H338.705L338.525 313.56L340.605 313.4L340.805 314.16H341.325L341.125 313.36L343.205 313.2L343.425 314.16H343.825L344.025 313.4L346.105 313.56L345.925 314.16H346.865V316.87H345.685L345.725 317.05L345.325 317.13C345.125 317.19 344.845 317.277 344.485 317.39H347.135ZM339.775 315.77H344.875V315.59H339.775V315.77ZM339.325 319.07C340.225 319.237 340.969 319.32 341.555 319.32C342.135 319.32 342.469 319.237 342.555 319.07H339.325ZM353.685 318.99H356.875V320.92H347.775V318.99H351.085V318.41H348.545V317.6L348.295 317.83C348.129 317.343 347.969 316.927 347.815 316.58C347.669 316.227 347.492 315.887 347.285 315.56C347.625 315.327 347.895 315.02 348.095 314.64C348.302 314.26 348.409 313.833 348.415 313.36L350.675 313.38C350.622 313.76 350.582 314.003 350.555 314.11H351.085V313.38H353.685V314.11H356.675V315.97H353.685V316.55H356.405V318.41H353.685V318.99ZM351.085 316.55V315.97H349.835C349.722 316.17 349.599 316.363 349.465 316.55H351.085ZM363.325 319.1C363.832 319.193 364.275 319.263 364.655 319.31C365.042 319.35 365.472 319.37 365.945 319.37C366.372 319.37 366.809 319.357 367.255 319.33C366.969 319.63 366.742 319.913 366.575 320.18C366.409 320.44 366.279 320.717 366.185 321.01C364.799 320.843 363.529 320.477 362.375 319.91C361.895 320.19 361.309 320.423 360.615 320.61C359.929 320.797 359.252 320.93 358.585 321.01C358.399 320.517 358.002 319.957 357.395 319.33C357.795 319.35 358.172 319.36 358.525 319.36C359.139 319.36 359.675 319.337 360.135 319.29C360.595 319.243 360.925 319.18 361.125 319.1H357.515V317.83H361.295V317.63H358.155V316.65H361.295V316.45H358.085V315.69H357.535V313.6H361.175V313.31H363.465V313.6H367.105V315.69H366.565V316.45H363.355V316.65H366.495V317.63H363.355V317.83H367.135V319.1H363.325ZM359.755 315.12V315.45H361.295V315.28H363.355V315.45H364.895V315.12H359.755ZM376.815 318.88H375.255C375.495 318.987 375.772 319.06 376.085 319.1C376.405 319.133 376.819 319.15 377.325 319.15C377.185 319.41 377.055 319.703 376.935 320.03C376.815 320.357 376.745 320.547 376.725 320.6L376.545 321.1C376.105 320.993 375.719 320.837 375.385 320.63C375.052 320.417 374.719 320.113 374.385 319.72C374.025 320.127 373.652 320.44 373.265 320.66C372.885 320.88 372.505 321.007 372.125 321.04L371.885 320.4L371.695 319.9C371.695 320.187 371.652 320.407 371.565 320.56C371.479 320.707 371.345 320.813 371.165 320.88C370.985 320.94 370.722 320.983 370.375 321.01L370.355 320.71L370.085 320.76C370.045 320.473 369.992 320.167 369.925 319.84C369.859 319.507 369.799 319.233 369.745 319.02H370.225L370.315 319.36C370.375 319.3 370.405 319.203 370.405 319.07C370.405 319.03 370.399 318.957 370.385 318.85H368.545C368.539 318.89 368.535 318.947 368.535 319.02H368.985C369.025 319.28 369.069 319.59 369.115 319.95C369.169 320.31 369.199 320.633 369.205 320.92L368.675 320.98C368.662 320.767 368.625 320.38 368.565 319.82C368.552 319.747 368.539 319.643 368.525 319.51L368.515 319.72C368.502 320.227 368.472 320.657 368.425 321.01C368.119 320.95 367.805 320.91 367.485 320.89C367.572 320.45 367.629 320.1 367.655 319.84C367.682 319.58 367.702 319.25 367.715 318.85H367.635V313.51H371.645V314.09C371.899 314.083 372.109 314.073 372.275 314.06C372.442 314.04 372.609 314.007 372.775 313.96C372.962 313.907 373.092 313.833 373.165 313.74C373.245 313.64 373.295 313.5 373.315 313.32H375.165C375.139 313.46 375.095 313.61 375.035 313.77C375.355 313.89 375.692 313.97 376.045 314.01C376.405 314.05 376.835 314.077 377.335 314.09C377.309 314.197 377.225 314.57 377.085 315.21L376.985 315.68C376.905 315.667 376.852 315.653 376.825 315.64V316.06H375.265V316.22H376.815V318.88ZM374.765 314.95C374.665 314.897 374.522 314.803 374.335 314.67C374.222 314.757 374.082 314.85 373.915 314.95H374.765ZM369.935 315.12V314.87H369.255V315.12H369.935ZM371.135 314.87V315.12H371.515C371.509 315.08 371.492 314.997 371.465 314.87H371.135ZM371.695 319.16L371.925 319.17C372.212 319.17 372.479 319.143 372.725 319.09C372.979 319.03 373.179 318.96 373.325 318.88H371.855V316.22H373.405V316.06H371.945V315.63L371.595 315.68L371.575 315.53V316.16H371.135V316.42H371.575V317.43H371.135V317.69H371.695V319.16ZM369.255 316.16V316.42H369.935V316.16H369.255ZM373.285 317.23V317.73H373.685V317.23H373.285ZM374.985 317.73H375.355V317.23H374.985V317.73ZM369.935 317.43H369.255V317.69H369.935V317.43ZM369.605 319.02C369.725 319.527 369.832 320.113 369.925 320.78L369.375 320.89C369.349 320.497 369.282 320 369.175 319.4C369.169 319.333 369.159 319.267 369.145 319.2C369.132 319.133 369.122 319.073 369.115 319.02H369.605ZM383.465 313.65H387.105V315.78H386.165V316.26H385.855C386.109 316.693 386.392 317.113 386.705 317.52C386.372 317.56 386.005 317.633 385.605 317.74C385.205 317.847 384.865 317.963 384.585 318.09C384.472 317.91 384.399 317.79 384.365 317.73L378.375 317.95C378.349 317.723 378.312 317.527 378.265 317.36C378.225 317.187 378.149 316.947 378.035 316.64L379.375 316.61L379.615 316.26H378.485V315.78H377.535V313.65H381.175V313.32H383.465V313.65ZM385.025 315.2V314.99H379.625V315.2H385.025ZM383.825 316.53L383.725 316.26H381.715L381.505 316.58L383.825 316.53ZM386.825 319.42H383.395V319.62H387.065V320.96H377.585V319.62H381.255V319.42H377.825V318.2H381.255V317.98H383.395V318.2H386.825V319.42ZM390.235 319.25C392.402 319.13 394.082 318.997 395.275 318.85C395.162 319.197 395.075 319.563 395.015 319.95C394.955 320.337 394.925 320.687 394.925 321H387.775L387.765 320.79C387.765 320.137 387.955 319.57 388.335 319.09C388.722 318.61 389.259 318.167 389.945 317.76C390.145 317.64 390.459 317.487 390.885 317.3C391.439 317.06 391.865 316.85 392.165 316.67C392.465 316.483 392.615 316.3 392.615 316.12C392.615 315.893 392.522 315.713 392.335 315.58C392.149 315.447 391.859 315.38 391.465 315.38C391.032 315.38 390.702 315.49 390.475 315.71C390.255 315.93 390.145 316.21 390.145 316.55C390.145 316.657 390.155 316.767 390.175 316.88C389.335 316.773 388.519 316.7 387.725 316.66C387.725 316.093 387.872 315.583 388.165 315.13C388.465 314.67 388.912 314.307 389.505 314.04C390.105 313.773 390.839 313.64 391.705 313.64C392.499 313.64 393.159 313.75 393.685 313.97C394.219 314.183 394.609 314.457 394.855 314.79C395.109 315.117 395.235 315.453 395.235 315.8C395.235 316.2 395.145 316.543 394.965 316.83C394.792 317.117 394.539 317.373 394.205 317.6C393.879 317.82 393.439 318.06 392.885 318.32C392.805 318.36 392.675 318.407 392.495 318.46C392.315 318.507 392.202 318.537 392.155 318.55C391.682 318.69 391.305 318.807 391.025 318.9C390.745 318.993 390.482 319.11 390.235 319.25Z" fill="black"/>
<path d="M316.83 393.86V393.31C316.15 393.53 315.487 393.653 314.84 393.68C314.833 393.367 314.807 393.003 314.76 392.59C314.72 392.177 314.673 391.813 314.62 391.5C314.687 391.507 314.793 391.51 314.94 391.51C315.327 391.51 315.743 391.48 316.19 391.42C316.643 391.353 317.04 391.26 317.38 391.14C317.68 391.027 317.897 390.91 318.03 390.79C318.17 390.663 318.253 390.5 318.28 390.3H320.75C320.697 390.493 320.63 390.673 320.55 390.84C321.13 391.06 321.75 391.227 322.41 391.34C323.07 391.453 323.743 391.507 324.43 391.5C324.283 392.267 324.183 392.993 324.13 393.68C323.49 393.607 322.837 393.473 322.17 393.28V393.86H316.83ZM320.26 392.54C319.867 392.34 319.563 392.173 319.35 392.04C319.083 392.24 318.83 392.407 318.59 392.54H320.26ZM323.83 395.44H322.41C322.857 395.693 323.463 395.907 324.23 396.08C324.203 396.127 324.17 396.197 324.13 396.29C323.95 396.65 323.807 396.96 323.7 397.22C323.593 397.473 323.503 397.747 323.43 398.04C323.097 397.893 322.863 397.787 322.73 397.72C319.737 397.8 317.247 397.89 315.26 397.99C315.22 397.617 315.173 397.283 315.12 396.99C315.067 396.69 314.983 396.353 314.87 395.98L316.19 396L316.53 395.44H315.17V394.07H323.83V395.44ZM320.14 395.66L320.79 395.44H318.97L318.63 396H320.46L320.14 395.66ZM334.19 394.59V395.54H333.64L333.74 395.62L333.54 395.89C333.733 395.97 333.927 396.03 334.12 396.07L334.14 396.51C334.16 396.87 334.17 397.18 334.17 397.44C334.17 397.64 334.09 397.773 333.93 397.84C333.777 397.9 333.557 397.93 333.27 397.93C332.797 397.93 332.373 397.743 332 397.37C331.62 397.643 331.197 397.853 330.73 398L330.2 397.32C330.193 397.473 330.133 397.597 330.02 397.69C329.907 397.783 329.71 397.857 329.43 397.91C329.15 397.957 328.76 397.987 328.26 398C328.193 397.573 328.077 397.203 327.91 396.89C328.143 396.89 328.3 396.88 328.38 396.86C328.467 396.833 328.517 396.787 328.53 396.72C328.43 396.72 328.287 396.727 328.1 396.74C328.1 396.427 328.05 396.08 327.95 395.7C328.203 395.713 328.397 395.72 328.53 395.72V395.54H328V394.59H328.53V394.41C328.41 394.417 328.233 394.42 328 394.42C328 394.267 327.993 394.147 327.98 394.06C327.973 393.973 327.95 393.873 327.91 393.76C329.203 393.747 330.16 393.733 330.78 393.72V394.38L330.2 394.39V394.59H331C330.987 394.363 330.98 394.173 330.98 394.02L330.97 393.74H332.5V394.02L332.98 393.62H327.95V392.75H324.78V391.64H328V392.73H330.13V392.56H328.16V391.74H330.13V391.57H328.18V390.68H329.24L329.16 390.37L330.76 390.28C330.773 390.367 330.803 390.5 330.85 390.68H331.26C331.3 390.54 331.327 390.407 331.34 390.28L332.95 390.37L332.88 390.68H333.95V391.57H331.98V391.74H333.95V392.56H331.98V392.73H334.16V393.62H333.37C333.67 393.767 333.93 393.923 334.15 394.09L333.56 394.59H334.19ZM324.94 390.47H327.77V391.47H324.94V390.47ZM324.94 392.92H327.77V393.95H324.94V392.92ZM327.77 395.15H324.94V394.1H327.77V395.15ZM332.51 394.59H333.11C332.917 394.443 332.713 394.323 332.5 394.23L332.51 394.59ZM326.26 398.06H324.89V395.32H327.88V397.94H326.26V398.06ZM330.2 396.75C330.64 396.697 331.027 396.61 331.36 396.49C331.233 396.23 331.14 395.913 331.08 395.54H330.2V395.69C330.36 395.677 330.65 395.65 331.07 395.61C331.03 395.737 331.003 395.867 330.99 396C330.983 396.133 330.98 396.297 330.98 396.49L330.2 396.58V396.75ZM332.7 395.8C332.807 395.72 332.913 395.633 333.02 395.54H332.63L332.7 395.8ZM333.2 396.61C333.207 396.61 333.21 396.597 333.21 396.57L333.19 396.3C333.163 396.327 333.137 396.357 333.11 396.39C333.083 396.423 333.05 396.457 333.01 396.49C333.043 396.543 333.107 396.583 333.2 396.61ZM326.51 396.78V396.33H326.26V396.78H326.51ZM340.64 390.65H344.28V392.78H343.34V393.26H343.03C343.283 393.693 343.567 394.113 343.88 394.52C343.547 394.56 343.18 394.633 342.78 394.74C342.38 394.847 342.04 394.963 341.76 395.09C341.647 394.91 341.573 394.79 341.54 394.73L335.55 394.95C335.523 394.723 335.487 394.527 335.44 394.36C335.4 394.187 335.323 393.947 335.21 393.64L336.55 393.61L336.79 393.26H335.66V392.78H334.71V390.65H338.35V390.32H340.64V390.65ZM342.2 392.2V391.99H336.8V392.2H342.2ZM341 393.53L340.9 393.26H338.89L338.68 393.58L341 393.53ZM344 396.42H340.57V396.62H344.24V397.96H334.76V396.62H338.43V396.42H335V395.2H338.43V394.98H340.57V395.2H344V396.42Z" fill="black"/>
</svg>
