<svg width="528" height="477" viewBox="0 0 528 477" fill="none" xmlns="http://www.w3.org/2000/svg">
<path d="M414.313 403.159H412.874V330.774H414.313V403.159Z" fill="black"/>
<path d="M376.889 402.449H375.46V353.99H376.889V402.449Z" fill="black"/>
<path d="M362.855 402.449H361.417V353.99H362.855V402.449Z" fill="black"/>
<path d="M348.822 402.449H347.384V353.99H348.822V402.449Z" fill="black"/>
<path d="M395.677 403.879H235.113V402.45H395.677V403.879Z" fill="black"/>
<path d="M412.872 355.421H235.123V353.99H412.872V355.421Z" fill="black"/>
<path d="M440.939 331.192H412.872V330.772H440.939V331.192Z" fill="black"/>
<path d="M414.313 475.066H412.874V426.618H414.313V475.066Z" fill="black"/>
<path d="M236.553 476.504H235.115V426.618H236.553V476.504Z" fill="black"/>
<path d="M329 428H235V427H329V428Z" fill="black"/>
<path d="M427.722 330.773L427.746 330.832L427.77 330.773H427.722Z" fill="black"/>
<path d="M427.43 330.774L427.746 331.552L428.058 330.774H427.43Z" fill="black"/>
<path d="M423.848 321.236L427.722 330.772H427.77L431.645 321.236H423.848Z" fill="black"/>
<path d="M423.429 320.938L427.43 330.773H428.059L432.004 320.938H423.429ZM431.195 321.487L427.716 330.048L424.238 321.487H431.195Z" fill="black"/>
<path d="M348 403H236V355H348V403Z" stroke="black" stroke-width="1.7" stroke-miterlimit="10"/>
<path d="M254.309 354.542V403.324" stroke="black" stroke-width="1.7" stroke-miterlimit="10"/>
<path d="M271.967 354.542V403.324" stroke="black" stroke-width="1.7" stroke-miterlimit="10"/>
<path d="M347.696 378.37H271.967" stroke="black" stroke-width="1.7" stroke-miterlimit="10"/>
<path d="M309.831 403.397V377.742" stroke="black" stroke-width="1.7" stroke-miterlimit="10"/>
<path d="M489.158 475.364H236.08V427.385H489.158V475.364Z" stroke="black" stroke-width="1.7" stroke-miterlimit="10"/>
<path d="M526.58 427.467H441.249V306.018H526.58V427.467Z" stroke="black" stroke-width="1.7" stroke-miterlimit="10"/>
<line x1="236" y1="354" x2="236" y2="476" stroke="black" stroke-width="2"/>
<path d="M487.455 270.01H234.851V268.571H487.455V270.01Z" fill="black"/>
<path d="M414.049 268.57H412.61V232.237H414.049V268.57Z" fill="black"/>
<path d="M488.894 270.01H487.464V232.228H488.894V270.01Z" fill="black"/>
<path d="M451.471 268.57H450.033V232.237H451.471V268.57Z" fill="black"/>
<path d="M414.049 221.552H412.61V202.901H414.049V221.552Z" fill="black"/>
<path d="M526.316 233.666H524.878V202.9H526.316V233.666Z" fill="black"/>
<path d="M524.877 233.666H412.609V232.227H524.877V233.666Z" fill="black"/>
<path d="M412.609 148.806H234.86V147.377H412.609V148.806Z" fill="black"/>
<path d="M526.316 202.901H524.878V107.855H526.316V202.901Z" fill="black"/>
<path d="M414.049 202.901H412.61V107.855H414.049V202.901Z" fill="black"/>
<path d="M376.626 197.263H375.197V147.376H376.626V197.263Z" fill="black"/>
<path d="M362.593 195.824H361.155V147.367H362.593V195.824Z" fill="black"/>
<path d="M348.559 195.824H347.121V147.367H348.559V195.824Z" fill="black"/>
<path d="M375.187 195.834V197.263H347.612V195.834" fill="black"/>
<path d="M394 197H376V196H394V197Z" fill="black"/>
<path d="M414.049 107.855H412.61V98.919H414.049V107.855Z" fill="black"/>
<path d="M526.316 107.855H524.878V98.919H526.316V107.855Z" fill="black"/>
<path d="M524.877 100.358H412.609V98.9189H524.877V100.358Z" fill="black"/>
<path d="M305.713 196.992V269.292H234.86V148.202H347.696V196.825H305.717L305.713 196.992Z" stroke="black" stroke-width="1.7" stroke-miterlimit="10"/>
<path d="M305.804 220.897H413.081V269.125H305.804V220.897Z" stroke="black" stroke-width="1.7" stroke-miterlimit="10"/>
<path d="M305.742 148.787V199.385" stroke="black" stroke-width="1.7" stroke-miterlimit="10"/>
<path d="M250.292 198.304C250.116 197.624 249.852 196.932 249.5 196.228L250.604 195.88C250.964 196.544 251.236 197.24 251.42 197.968L250.292 198.304ZM248.84 198.748C248.664 198.068 248.4 197.376 248.048 196.672L249.152 196.324C249.504 197.004 249.772 197.7 249.956 198.412L248.84 198.748ZM252.704 201.472C252.384 201.92 252.1 202.376 251.852 202.84C251.612 203.296 251.344 203.848 251.048 204.496C248.528 202.496 246.68 201.072 245.504 200.224C245.472 200.2 245.428 200.188 245.372 200.188C245.276 200.188 245.168 200.228 245.048 200.308C244.576 200.668 244.092 201.072 243.596 201.52C243.108 201.968 242.364 202.68 241.364 203.656C241.268 203.16 241.128 202.66 240.944 202.156C240.76 201.644 240.524 201.052 240.236 200.38C241.868 199.076 242.924 198.176 243.404 197.68C243.684 197.392 243.948 197.184 244.196 197.056C244.444 196.92 244.692 196.852 244.94 196.852C245.212 196.852 245.496 196.928 245.792 197.08C246.096 197.224 246.472 197.452 246.92 197.764L247.52 198.196C248.384 198.812 249.204 199.376 249.98 199.888C250.764 200.392 251.672 200.92 252.704 201.472ZM254.06 205.084C253.884 204.436 253.708 203.892 253.532 203.452C253.364 203.004 253.112 202.548 252.776 202.084C254.272 202.084 255.508 201.988 256.484 201.796C257.468 201.596 258.312 201.272 259.016 200.824C259.656 200.416 260.152 199.828 260.504 199.06C260.856 198.292 261.1 197.32 261.236 196.144C261.716 196.312 262.188 196.46 262.652 196.588C263.124 196.708 263.7 196.848 264.38 197.008C264.188 198.496 263.824 199.704 263.288 200.632C262.76 201.56 262.032 202.352 261.104 203.008C260.272 203.6 259.3 204.056 258.188 204.376C257.076 204.696 255.7 204.932 254.06 205.084ZM257.564 200.188C256.572 199.82 255.772 199.548 255.164 199.372C254.556 199.196 253.708 199 252.62 198.784C252.996 198.424 253.38 198.004 253.772 197.524C254.164 197.036 254.452 196.632 254.636 196.312C255.644 196.592 256.544 196.864 257.336 197.128C258.128 197.392 258.928 197.692 259.736 198.028L257.564 200.188ZM276.224 199.072V201.424H273.428C273.26 202.256 272.956 202.912 272.516 203.392C272.052 203.904 271.328 204.3 270.344 204.58C269.368 204.86 268.152 205.052 266.696 205.156C266.552 204.596 266.396 204.092 266.228 203.644C266.06 203.188 265.844 202.752 265.58 202.336C265.868 202.36 266.192 202.372 266.552 202.372C267.304 202.372 268.004 202.312 268.652 202.192C269.308 202.072 269.768 201.888 270.032 201.64C270.104 201.568 270.164 201.496 270.212 201.424H264.776V199.072H270.536L270.5 198.556C269.74 198.556 268.976 198.556 268.208 198.556C267.448 198.548 266.688 198.54 265.928 198.532C265.928 198.004 265.92 197.564 265.904 197.212C265.896 196.86 265.864 196.508 265.808 196.156C266.296 196.164 267.016 196.168 267.968 196.168C270.624 196.168 273.176 196.1 275.624 195.964C275.568 196.316 275.532 196.68 275.516 197.056C275.508 197.432 275.504 197.92 275.504 198.52L273.584 198.544C273.592 198.664 273.596 198.84 273.596 199.072H276.224ZM286.34 197.836L287.3 200.296L286.976 200.68C286.512 201.248 286.14 201.684 285.86 201.988C285.588 202.284 285.188 202.676 284.66 203.164C283.988 202.748 283.192 202.412 282.272 202.156C282.512 203.1 282.74 204.08 282.956 205.096H280.22C279.916 203.568 279.604 202.14 279.284 200.812L277.748 201.016L277.544 198.724L278.708 198.604L278.48 197.836L281.012 197.344L281.204 198.04L281.288 198.352L286.34 197.836ZM282.2 201.868C282.648 201.596 283.048 201.312 283.4 201.016C283.752 200.72 284.032 200.44 284.24 200.176L281.852 200.488L281.924 200.776C282.068 201.344 282.16 201.708 282.2 201.868ZM299.768 201.988H289.364V199.18H299.768V201.988ZM259.796 212.892H269.072V214.776H259.796V212.892ZM268.856 215.196L270.2 217.092C269.696 218.116 269.06 218.956 268.292 219.612C267.532 220.268 266.56 220.8 265.376 221.208C264.2 221.608 262.708 221.936 260.9 222.192C260.74 221.736 260.528 221.248 260.264 220.728C260.008 220.208 259.724 219.74 259.412 219.324C262.948 219.236 265.24 218.684 266.288 217.668C263.376 217.668 261.064 217.708 259.352 217.788V215.196H268.856ZM280.784 211.44C280.792 212.008 280.724 212.564 280.58 213.108L279.56 212.964C279.704 212.436 279.776 211.88 279.776 211.296L280.784 211.44ZM282.116 211.62C282.124 212.188 282.056 212.744 281.912 213.288L280.892 213.144C281.028 212.616 281.1 212.06 281.108 211.476L282.116 211.62ZM282.668 219.948C281.652 220.572 280.832 221.168 280.208 221.736C279.648 220.904 279.2 220.144 278.864 219.456C278.536 218.76 278.24 217.884 277.976 216.828V220.104C277.976 220.64 277.876 221.044 277.676 221.316C277.484 221.58 277.148 221.764 276.668 221.868C276.196 221.964 275.484 222.008 274.532 222C274.532 221.728 274.484 221.356 274.388 220.884C274.3 220.412 274.188 220 274.052 219.648C273.772 220.224 273.356 220.92 272.804 221.736C272.18 221.168 271.36 220.572 270.344 219.948C270.856 219.396 271.276 218.848 271.604 218.304C271.94 217.76 272.216 217.128 272.432 216.408L275.036 216.78V216.18H271.088V213.6H275.036V212.904H277.976V213.6H281.72V216.18H277.976V216.78L280.58 216.408C280.796 217.128 281.068 217.76 281.396 218.304C281.732 218.848 282.156 219.396 282.668 219.948ZM274.172 219.396C274.3 219.404 274.452 219.408 274.628 219.408C274.812 219.408 274.924 219.38 274.964 219.324C275.012 219.26 275.036 219.116 275.036 218.892V216.828C274.78 217.844 274.492 218.7 274.172 219.396Z" fill="black"/>
<path d="M358.616 157.992C358.616 158.264 358.541 158.469 358.392 158.608C358.248 158.741 357.952 158.837 357.504 158.896C357.061 158.955 356.368 158.984 355.424 158.984C355.403 158.707 355.363 158.472 355.304 158.28C355.251 158.088 355.173 157.915 355.072 157.76C354.917 157.936 354.741 158.096 354.544 158.24C354.24 158.464 353.864 158.645 353.416 158.784C352.973 158.917 352.411 159.035 351.728 159.136C351.611 158.869 351.483 158.624 351.344 158.4C351.205 158.171 351.024 157.941 350.8 157.712C351.328 157.691 351.827 157.645 352.296 157.576C352.771 157.507 353.155 157.413 353.448 157.296H351.304V156.184H354.208L354.224 155.984H351.512V152.992H358.512V155.984H355.824L355.8 156.184H358.616V157.992ZM354.216 154.208V153.992H353.2V154.208H354.216ZM355.808 154.208H356.824V153.992H355.808V154.208ZM354.216 154.776H353.2V154.984H354.216V154.776ZM355.808 154.776V154.984H356.824V154.776H355.808ZM356.44 157.528C356.595 157.512 356.685 157.435 356.712 157.296H355.416C355.341 157.413 355.283 157.499 355.24 157.552C355.907 157.552 356.307 157.544 356.44 157.528ZM358.792 163.096V164.68H356.368C356.496 164.835 356.584 164.992 356.632 165.152C356.68 165.312 356.704 165.491 356.704 165.688C356.704 166.077 356.541 166.387 356.216 166.616C355.896 166.84 355.507 166.963 355.048 166.984C354.947 166.989 354.795 166.992 354.592 166.992C354.165 166.992 353.517 166.944 352.648 166.848C352.648 166.496 352.635 166.192 352.608 165.936C352.581 165.675 352.515 165.371 352.408 165.024C353.176 165.232 353.779 165.336 354.216 165.336C354.456 165.336 354.627 165.307 354.728 165.248C354.829 165.184 354.88 165.107 354.88 165.016C354.88 164.931 354.875 164.819 354.864 164.68H351.208V163.096H354.584L354.352 162.84C354.693 162.829 355.003 162.739 355.28 162.568H351.736V161.024H358.472V162.504C358.499 162.531 358.443 162.56 358.304 162.592C358.171 162.624 358.096 162.643 358.08 162.648C357.403 162.872 356.912 163.021 356.608 163.096H358.792ZM358.768 171.584C358.587 171.872 358.448 172.157 358.352 172.44C358.256 172.717 358.149 173.083 358.032 173.536C356.933 173.141 355.643 172.795 354.16 172.496V175.04H351.904C351.941 174.144 351.963 173.248 351.968 172.352C351.979 171.456 351.984 170.336 351.984 168.992H354.16V170.648C354.864 170.733 355.632 170.861 356.464 171.032C357.301 171.203 358.069 171.387 358.768 171.584ZM358.968 177.744C358.605 178.224 358.245 178.621 357.888 178.936C357.536 179.245 357.115 179.525 356.624 179.776V182.968H354.408V180.472C353.667 180.605 352.72 180.712 351.568 180.792C351.525 180.376 351.475 180.016 351.416 179.712C351.363 179.408 351.267 179.091 351.128 178.76C351.971 178.765 352.715 178.739 353.36 178.68C354.005 178.621 354.536 178.515 354.952 178.36C355.811 178.035 356.477 177.544 356.952 176.888L358.968 177.744ZM357.328 185.808C357.568 186.101 357.816 186.357 358.072 186.576C358.333 186.795 358.627 187 358.952 187.192C358.387 188.104 357.616 188.912 356.64 189.616C355.669 190.315 354.456 190.795 353 191.056L351.512 190.008V185.128H353.664V188.848C354.384 188.683 355.059 188.344 355.688 187.832C356.323 187.32 356.869 186.645 357.328 185.808Z" fill="black"/>
<path d="M372.928 157.28C372.555 157.835 372.299 158.411 372.16 159.008C371.339 158.619 370.595 158.285 369.928 158.008C369.485 158.269 368.949 158.477 368.32 158.632C367.696 158.787 366.907 158.925 365.952 159.048C365.877 158.904 365.792 158.72 365.696 158.496C365.675 158.453 365.6 158.296 365.472 158.024C365.344 157.747 365.197 157.459 365.032 157.16C365.48 157.245 365.936 157.288 366.4 157.288C366.853 157.288 367.301 157.248 367.744 157.168C367.008 156.912 366.336 156.712 365.728 156.568C366.096 156.099 366.435 155.595 366.744 155.056H365.288V153.368H367.552C367.595 153.256 367.653 153.088 367.728 152.864L369.808 152.92L369.632 153.368H372.792V155.056H370.544L371.944 155.448C371.677 156.003 371.443 156.437 371.24 156.752L372.928 157.28ZM368.792 155.056L368.288 155.912C368.651 156.003 369.037 156.107 369.448 156.224C369.688 155.851 369.869 155.461 369.992 155.056H368.792ZM372.792 163.096V164.68H370.368C370.496 164.835 370.584 164.992 370.632 165.152C370.68 165.312 370.704 165.491 370.704 165.688C370.704 166.077 370.541 166.387 370.216 166.616C369.896 166.84 369.507 166.963 369.048 166.984C368.947 166.989 368.795 166.992 368.592 166.992C368.165 166.992 367.517 166.944 366.648 166.848C366.648 166.496 366.635 166.192 366.608 165.936C366.581 165.675 366.515 165.371 366.408 165.024C367.176 165.232 367.779 165.336 368.216 165.336C368.456 165.336 368.627 165.307 368.728 165.248C368.829 165.184 368.88 165.107 368.88 165.016C368.88 164.931 368.875 164.819 368.864 164.68H365.208V163.096H368.584L368.352 162.84C368.693 162.829 369.003 162.739 369.28 162.568H365.736V161.024H372.472V162.504C372.499 162.531 372.443 162.56 372.304 162.592C372.171 162.624 372.096 162.643 372.08 162.648C371.403 162.872 370.912 163.021 370.608 163.096H372.792ZM372.768 171.584C372.587 171.872 372.448 172.157 372.352 172.44C372.256 172.717 372.149 173.083 372.032 173.536C370.933 173.141 369.643 172.795 368.16 172.496V175.04H365.904C365.941 174.144 365.963 173.248 365.968 172.352C365.979 171.456 365.984 170.336 365.984 168.992H368.16V170.648C368.864 170.733 369.632 170.861 370.464 171.032C371.301 171.203 372.069 171.387 372.768 171.584ZM372.968 177.744C372.605 178.224 372.245 178.621 371.888 178.936C371.536 179.245 371.115 179.525 370.624 179.776V182.968H368.408V180.472C367.667 180.605 366.72 180.712 365.568 180.792C365.525 180.376 365.475 180.016 365.416 179.712C365.363 179.408 365.267 179.091 365.128 178.76C365.971 178.765 366.715 178.739 367.36 178.68C368.005 178.621 368.536 178.515 368.952 178.36C369.811 178.035 370.477 177.544 370.952 176.888L372.968 177.744ZM371.328 185.808C371.568 186.101 371.816 186.357 372.072 186.576C372.333 186.795 372.627 187 372.952 187.192C372.387 188.104 371.616 188.912 370.64 189.616C369.669 190.315 368.456 190.795 367 191.056L365.512 190.008V185.128H367.664V188.848C368.384 188.683 369.059 188.344 369.688 187.832C370.323 187.32 370.869 186.645 371.328 185.808Z" fill="black"/>
<path d="M358.616 364.992C358.616 365.264 358.541 365.469 358.392 365.608C358.248 365.741 357.952 365.837 357.504 365.896C357.061 365.955 356.368 365.984 355.424 365.984C355.403 365.707 355.363 365.472 355.304 365.28C355.251 365.088 355.173 364.915 355.072 364.76C354.917 364.936 354.741 365.096 354.544 365.24C354.24 365.464 353.864 365.645 353.416 365.784C352.973 365.917 352.411 366.035 351.728 366.136C351.611 365.869 351.483 365.624 351.344 365.4C351.205 365.171 351.024 364.941 350.8 364.712C351.328 364.691 351.827 364.645 352.296 364.576C352.771 364.507 353.155 364.413 353.448 364.296H351.304V363.184H354.208L354.224 362.984H351.512V359.992H358.512V362.984H355.824L355.8 363.184H358.616V364.992ZM354.216 361.208V360.992H353.2V361.208H354.216ZM355.808 361.208H356.824V360.992H355.808V361.208ZM354.216 361.776H353.2V361.984H354.216V361.776ZM355.808 361.776V361.984H356.824V361.776H355.808ZM356.44 364.528C356.595 364.512 356.685 364.435 356.712 364.296H355.416C355.341 364.413 355.283 364.499 355.24 364.552C355.907 364.552 356.307 364.544 356.44 364.528ZM358.792 370.096V371.68H356.368C356.496 371.835 356.584 371.992 356.632 372.152C356.68 372.312 356.704 372.491 356.704 372.688C356.704 373.077 356.541 373.387 356.216 373.616C355.896 373.84 355.507 373.963 355.048 373.984C354.947 373.989 354.795 373.992 354.592 373.992C354.165 373.992 353.517 373.944 352.648 373.848C352.648 373.496 352.635 373.192 352.608 372.936C352.581 372.675 352.515 372.371 352.408 372.024C353.176 372.232 353.779 372.336 354.216 372.336C354.456 372.336 354.627 372.307 354.728 372.248C354.829 372.184 354.88 372.107 354.88 372.016C354.88 371.931 354.875 371.819 354.864 371.68H351.208V370.096H354.584L354.352 369.84C354.693 369.829 355.003 369.739 355.28 369.568H351.736V368.024H358.472V369.504C358.499 369.531 358.443 369.56 358.304 369.592C358.171 369.624 358.096 369.643 358.08 369.648C357.403 369.872 356.912 370.021 356.608 370.096H358.792ZM358.768 378.584C358.587 378.872 358.448 379.157 358.352 379.44C358.256 379.717 358.149 380.083 358.032 380.536C356.933 380.141 355.643 379.795 354.16 379.496V382.04H351.904C351.941 381.144 351.963 380.248 351.968 379.352C351.979 378.456 351.984 377.336 351.984 375.992H354.16V377.648C354.864 377.733 355.632 377.861 356.464 378.032C357.301 378.203 358.069 378.387 358.768 378.584ZM358.968 384.744C358.605 385.224 358.245 385.621 357.888 385.936C357.536 386.245 357.115 386.525 356.624 386.776V389.968H354.408V387.472C353.667 387.605 352.72 387.712 351.568 387.792C351.525 387.376 351.475 387.016 351.416 386.712C351.363 386.408 351.267 386.091 351.128 385.76C351.971 385.765 352.715 385.739 353.36 385.68C354.005 385.621 354.536 385.515 354.952 385.36C355.811 385.035 356.477 384.544 356.952 383.888L358.968 384.744ZM357.328 392.808C357.568 393.101 357.816 393.357 358.072 393.576C358.333 393.795 358.627 394 358.952 394.192C358.387 395.104 357.616 395.912 356.64 396.616C355.669 397.315 354.456 397.795 353 398.056L351.512 397.008V392.128H353.664V395.848C354.384 395.683 355.059 395.344 355.688 394.832C356.323 394.32 356.869 393.645 357.328 392.808Z" fill="black"/>
<path d="M372.928 364.28C372.555 364.835 372.299 365.411 372.16 366.008C371.339 365.619 370.595 365.285 369.928 365.008C369.485 365.269 368.949 365.477 368.32 365.632C367.696 365.787 366.907 365.925 365.952 366.048C365.877 365.904 365.792 365.72 365.696 365.496C365.675 365.453 365.6 365.296 365.472 365.024C365.344 364.747 365.197 364.459 365.032 364.16C365.48 364.245 365.936 364.288 366.4 364.288C366.853 364.288 367.301 364.248 367.744 364.168C367.008 363.912 366.336 363.712 365.728 363.568C366.096 363.099 366.435 362.595 366.744 362.056H365.288V360.368H367.552C367.595 360.256 367.653 360.088 367.728 359.864L369.808 359.92L369.632 360.368H372.792V362.056H370.544L371.944 362.448C371.677 363.003 371.443 363.437 371.24 363.752L372.928 364.28ZM368.792 362.056L368.288 362.912C368.651 363.003 369.037 363.107 369.448 363.224C369.688 362.851 369.869 362.461 369.992 362.056H368.792ZM372.792 370.096V371.68H370.368C370.496 371.835 370.584 371.992 370.632 372.152C370.68 372.312 370.704 372.491 370.704 372.688C370.704 373.077 370.541 373.387 370.216 373.616C369.896 373.84 369.507 373.963 369.048 373.984C368.947 373.989 368.795 373.992 368.592 373.992C368.165 373.992 367.517 373.944 366.648 373.848C366.648 373.496 366.635 373.192 366.608 372.936C366.581 372.675 366.515 372.371 366.408 372.024C367.176 372.232 367.779 372.336 368.216 372.336C368.456 372.336 368.627 372.307 368.728 372.248C368.829 372.184 368.88 372.107 368.88 372.016C368.88 371.931 368.875 371.819 368.864 371.68H365.208V370.096H368.584L368.352 369.84C368.693 369.829 369.003 369.739 369.28 369.568H365.736V368.024H372.472V369.504C372.499 369.531 372.443 369.56 372.304 369.592C372.171 369.624 372.096 369.643 372.08 369.648C371.403 369.872 370.912 370.021 370.608 370.096H372.792ZM372.768 378.584C372.587 378.872 372.448 379.157 372.352 379.44C372.256 379.717 372.149 380.083 372.032 380.536C370.933 380.141 369.643 379.795 368.16 379.496V382.04H365.904C365.941 381.144 365.963 380.248 365.968 379.352C365.979 378.456 365.984 377.336 365.984 375.992H368.16V377.648C368.864 377.733 369.632 377.861 370.464 378.032C371.301 378.203 372.069 378.387 372.768 378.584ZM372.968 384.744C372.605 385.224 372.245 385.621 371.888 385.936C371.536 386.245 371.115 386.525 370.624 386.776V389.968H368.408V387.472C367.667 387.605 366.72 387.712 365.568 387.792C365.525 387.376 365.475 387.016 365.416 386.712C365.363 386.408 365.267 386.091 365.128 385.76C365.971 385.765 366.715 385.739 367.36 385.68C368.005 385.621 368.536 385.515 368.952 385.36C369.811 385.035 370.477 384.544 370.952 383.888L372.968 384.744ZM371.328 392.808C371.568 393.101 371.816 393.357 372.072 393.576C372.333 393.795 372.627 394 372.952 394.192C372.387 395.104 371.616 395.912 370.64 396.616C369.669 397.315 368.456 397.795 367 398.056L365.512 397.008V392.128H367.664V395.848C368.384 395.683 369.059 395.344 369.688 394.832C370.323 394.32 370.869 393.645 371.328 392.808Z" fill="black"/>
<path d="M448.658 163.43H461.37V174.028H458.556V173.888H451.472V174.028H448.658V163.43ZM451.472 165.656V166.3L453.348 166.048C453.423 166.449 453.497 166.79 453.572 167.07C453.656 167.35 453.759 167.593 453.88 167.798L454.076 167.658C453.852 167.145 453.74 166.585 453.74 165.978L455.868 165.88C455.84 166.468 455.891 166.935 456.022 167.28C456.162 166.972 456.33 166.431 456.526 165.656H451.472ZM457.142 165.656L458.556 166.594V165.656H457.142ZM452.648 168.708L453.362 168.19L452.116 168.428C451.873 168.092 451.659 167.653 451.472 167.112V169.492C452.097 169.445 452.69 169.352 453.25 169.212L452.648 168.708ZM458.556 167.126C458.407 167.527 458.243 167.887 458.066 168.204C457.898 168.512 457.688 168.806 457.436 169.086C457.735 169.151 458.108 169.198 458.556 169.226V167.126ZM455.35 168.26C455.546 168.083 455.705 167.882 455.826 167.658L454.678 167.77C454.827 167.891 455.051 168.055 455.35 168.26ZM458.556 171.354V169.884C458.313 170.229 458.043 170.719 457.744 171.354H458.556ZM451.472 171.354H452.802C452.419 170.953 451.976 170.528 451.472 170.08V171.354ZM457.03 171.354C456.47 171.149 455.915 170.901 455.364 170.612C454.888 170.845 454.216 171.093 453.348 171.354H457.03ZM470.512 168.442V168.68H475.748V170.024H462.252V168.68H467.488V168.442H462.896V167.658H467.488V167.42H463.092V166.272H467.488V166.034H462.574V164.998H467.488V164.746H463.092V163.598H467.488V163.276H470.512V163.598H474.712V164.676H475.426V166.356H474.712V167.42H470.512V167.658H475.104V168.442H470.512ZM471.884 164.746H470.512V164.998H471.884V164.746ZM471.884 166.034H470.512V166.272H471.884V166.034ZM463.288 170.262H474.712V174.07H471.884V173.86H466.116V174.07H463.288V170.262ZM466.116 171.508H471.884V171.27H466.116V171.508ZM466.116 172.628H471.884V172.39H466.116V172.628ZM489.286 169.856H485.534V170.15H489.51V174.028H487.018V173.832H485.534V174.028H483.126V172.474C482.837 172.875 482.505 173.44 482.132 174.168C481.553 173.776 481.138 173.473 480.886 173.258C480.438 173.361 479.463 173.566 477.96 173.874C477.157 174.033 476.77 174.107 476.798 174.098C476.677 173.547 476.56 173.081 476.448 172.698C476.345 172.306 476.205 171.9 476.028 171.48C476.177 171.489 476.411 171.494 476.728 171.494V167.546L476.364 167.742C476.336 167.313 476.266 166.86 476.154 166.384C476.042 165.899 475.897 165.455 475.72 165.054C476.308 164.923 476.891 164.685 477.47 164.34C478.058 163.985 478.497 163.626 478.786 163.262H481.53C481.437 163.43 481.329 163.607 481.208 163.794C481.684 164.037 482.174 164.256 482.678 164.452V164.004H484.61V163.318H487.368V164.004H489.72V167.168H489.286V169.856ZM480.62 165.544L480.13 165.11L479.668 165.544H480.62ZM482.678 166.496V165.796C482.519 166.039 482.384 166.272 482.272 166.496H482.678ZM487.228 166.146V165.866H485.072V166.146H487.228ZM479.15 165.978C478.814 166.23 478.576 166.403 478.436 166.496H479.15V165.978ZM481.74 166.496L481.124 165.992V166.496H481.74ZM481.558 170.92C482.127 171.34 482.65 171.69 483.126 171.97V167.168H482.678V170.92H481.558ZM480.382 167.574H479.178V167.91H480.382V167.574ZM485.534 168.19H486.78V167.756H485.534V168.19ZM479.178 169.1V169.436H480.382V169.1H479.178ZM480.914 170.92H479.178V171.41C479.747 171.354 480.261 171.284 480.718 171.2L480.914 170.92ZM487.018 172.096V171.662H485.534V172.096H487.018Z" fill="black"/>
<path d="M445.734 445.956C445.734 446.301 445.725 446.581 445.706 446.796C445.687 447.011 445.641 447.193 445.566 447.342C445.435 447.631 445.258 447.818 445.034 447.902C444.819 447.977 444.539 448.023 444.194 448.042C443.821 448.061 443.517 448.07 443.284 448.07L442.318 448.056C442.253 448.047 442.15 448.042 442.01 448.042C441.543 448.023 441.189 447.921 440.946 447.734C440.703 447.547 440.582 447.249 440.582 446.838V445.13H438.986L440.316 445.732C440.036 446.227 439.723 446.656 439.378 447.02C439.042 447.375 438.594 447.753 438.034 448.154C437.511 447.809 436.839 447.421 436.018 446.992V448.028H433.134V446.04L432.448 446.698C432.401 445.998 432.331 445.387 432.238 444.864C432.154 444.341 432.019 443.823 431.832 443.31C432.541 442.741 433.204 441.91 433.82 440.818H432.364V438.102H433.134V437.29H436.018V438.102H436.55V441.098L436.256 441.7L437.04 442.274V437.598H445.398V444.976L445.734 445.004V445.956ZM442.584 439.642H439.826V439.908H442.584V439.642ZM442.584 441.238H439.826V441.504H442.584V441.238ZM442.584 442.834H439.826V443.1H442.584V442.834ZM436.018 446.166C436.737 445.886 437.259 445.541 437.586 445.13H437.04V444.052L436.452 445.116L436.018 443.968V446.166ZM443.662 445.662C443.755 445.662 443.811 445.653 443.83 445.634C443.858 445.615 443.872 445.573 443.872 445.508C443.872 445.471 443.867 445.429 443.858 445.382C443.849 445.326 443.839 445.242 443.83 445.13H443.438V445.592C443.438 445.639 443.513 445.662 443.662 445.662ZM458.208 444.038C458.385 444.346 458.623 444.584 458.922 444.752C459.221 444.92 459.594 445.027 460.042 445.074C459.827 445.485 459.645 445.919 459.496 446.376C459.356 446.833 459.211 447.412 459.062 448.112C458.521 447.776 458.045 447.328 457.634 446.768C457.643 446.815 457.648 446.885 457.648 446.978C457.648 447.529 457.382 447.832 456.85 447.888C456.15 447.935 455.632 447.958 455.296 447.958C454.932 447.958 454.47 447.935 453.91 447.888C453.602 447.86 453.373 447.785 453.224 447.664C453.075 447.543 453 447.365 453 447.132V447.062C452.655 447.445 452.221 447.795 451.698 448.112C451.539 447.365 451.385 446.763 451.236 446.306V448.084H448.702V447.412L446.518 447.79C446.443 446.819 446.331 445.975 446.182 445.256L446.77 445.214V439.53H446.406V437.472H451.712V437.626H454.176V437.206H456.78V437.626H459.664V439.642H456.78V439.88H459.44V444.038H458.208ZM449.164 440.146V439.53H448.8V440.146H449.164ZM451.236 444.976C451.833 444.827 452.272 444.514 452.552 444.038H451.516V439.88H454.176V439.642H451.292V439.53H451.236V444.976ZM453.364 442.176H453.7V441.742H453.364V442.176ZM455.366 441.742V442.176H455.716V441.742H455.366ZM457.368 442.176H457.704V441.742H457.368V442.176ZM449.164 441.938H448.8V442.61H449.164V441.938ZM454.596 444.724L454.19 444.29L455.24 444.038H453.056C453.485 444.337 453.882 444.565 454.246 444.724H454.596ZM456.822 444.43C457.102 444.309 457.373 444.178 457.634 444.038H456.346L456.822 444.43ZM449.164 444.402H448.8V445.046L449.164 445.004V444.402ZM455.982 445.158C456.141 445.195 456.318 445.214 456.514 445.214C456.626 445.214 456.715 445.209 456.78 445.2L456.696 444.962L455.982 445.158ZM455.744 445.62C455.819 445.611 455.865 445.597 455.884 445.578C455.912 445.559 455.926 445.522 455.926 445.466C455.926 445.401 455.912 445.307 455.884 445.186L455.156 445.396C455.072 445.284 454.955 445.144 454.806 444.976L454.736 445.368C454.727 445.405 454.722 445.447 454.722 445.494C454.722 445.597 454.773 445.648 454.876 445.648C455.361 445.648 455.651 445.639 455.744 445.62ZM473.496 441.238H472.614V445.438L473.426 445.466C473.426 446.147 473.412 446.6 473.384 446.824C473.365 447.048 473.3 447.244 473.188 447.412C473.029 447.617 472.81 447.753 472.53 447.818C472.259 447.883 471.905 447.93 471.466 447.958C471.018 447.977 470.64 447.986 470.332 447.986L469.114 447.972C469.03 447.963 468.899 447.958 468.722 447.958C468.153 447.939 467.742 447.86 467.49 447.72C467.238 447.571 467.112 447.347 467.112 447.048V445.494H465.544L466.748 445.774C466.076 446.39 465.371 446.908 464.634 447.328C463.906 447.739 463.094 448.056 462.198 448.28C461.843 447.841 461.507 447.459 461.19 447.132C460.882 446.805 460.504 446.455 460.056 446.082L460.672 445.998C461.204 445.942 461.643 445.881 461.988 445.816C462.333 445.741 462.66 445.639 462.968 445.508H461.372V441.238H460.504V437.836H461.806L461.68 437.444L464.592 437.22L464.774 437.836H465.474L465.32 437.304L468.232 437.08L468.428 437.836H469.198L469.38 437.22L472.292 437.444L472.166 437.836H473.496V441.238ZM463.64 440.188V440.412H470.36V440.188H463.64ZM464.452 441.966H469.534V441.714H464.452V441.966ZM464.452 443.128H469.534V442.904H464.452V443.128ZM464.452 444.318H469.534V444.08H464.452V444.318ZM470.416 445.76C470.565 445.76 470.64 445.723 470.64 445.648V445.508H470.108V445.676C470.108 445.713 470.127 445.737 470.164 445.746C470.201 445.755 470.285 445.76 470.416 445.76ZM451.824 464.472C452.095 464.649 452.482 464.85 452.986 465.074C452.687 465.578 452.468 466.035 452.328 466.446C452.188 466.857 452.02 467.417 451.824 468.126C451.189 467.715 450.625 467.258 450.13 466.754C449.421 467.277 448.459 467.734 447.246 468.126C447.19 467.557 447.106 467.029 446.994 466.544C446.882 466.049 446.714 465.578 446.49 465.13C446.042 465.186 445.729 465.223 445.552 465.242C445.729 465.513 445.818 465.811 445.818 466.138C445.818 466.689 445.533 467.132 444.964 467.468C444.395 467.804 443.457 467.972 442.15 467.972C441.581 467.972 440.983 467.939 440.358 467.874C440.293 467.342 440.227 466.913 440.162 466.586C440.106 466.259 439.989 465.947 439.812 465.648C440.811 465.816 441.576 465.9 442.108 465.9C442.435 465.9 442.682 465.872 442.85 465.816C443.027 465.76 443.116 465.681 443.116 465.578V465.466C442.08 465.531 441.044 465.573 440.008 465.592L439.812 464.374C439.737 464.402 439.583 464.449 439.35 464.514C439.294 463.973 439.233 463.534 439.168 463.198C439.103 462.862 438.991 462.521 438.832 462.176C439.952 461.933 440.89 461.621 441.646 461.238H439.322V459.642H440.862V459.348H439.868V457.752H440.862V457.234H443.424V457.752H445.244V458.158L445.65 457.598L445.818 457.346L447.274 458.018C447.274 457.701 447.269 457.458 447.26 457.29H449.584L449.598 457.71H452.636V460.594H452.37C452.351 461.406 452.3 462.125 452.216 462.75C452.141 463.375 452.011 463.949 451.824 464.472ZM447.246 458.746C447.106 458.933 446.873 459.231 446.546 459.642H446.7V460.916C447.017 460.403 447.199 459.679 447.246 458.746ZM444.236 459.348H443.424V459.642H443.942L444.236 459.348ZM449.892 462.47C449.957 462.106 449.99 461.663 449.99 461.14C449.99 460.897 449.985 460.715 449.976 460.594H449.29L449.206 460.93C449.411 461.527 449.64 462.041 449.892 462.47ZM445.132 461.238L444.628 461.728H446.35V462.918C446.257 462.946 446.168 462.993 446.084 463.058C446.009 463.123 445.963 463.161 445.944 463.17L445.37 463.604L447.12 463.394C446.905 462.666 446.649 461.989 446.35 461.364L446.462 461.238H445.132ZM442.696 463.17C442.183 463.469 441.651 463.721 441.1 463.926C441.604 463.917 442.117 463.889 442.64 463.842L442.472 463.562C442.528 463.543 442.668 463.501 442.892 463.436C443.116 463.361 443.331 463.273 443.536 463.17H442.696ZM446.952 464.934C447.54 464.925 448.063 464.799 448.52 464.556C448.38 464.285 448.24 463.973 448.1 463.618C447.904 463.926 447.68 464.22 447.428 464.5L447.218 463.73L446.952 464.934ZM461.596 457.71H466.692V460.692H465.376V461.364H464.942C465.297 461.971 465.693 462.559 466.132 463.128C465.665 463.184 465.152 463.287 464.592 463.436C464.032 463.585 463.556 463.749 463.164 463.926C463.005 463.674 462.903 463.506 462.856 463.422L454.47 463.73C454.433 463.413 454.381 463.137 454.316 462.904C454.26 462.661 454.153 462.325 453.994 461.896L455.87 461.854L456.206 461.364H454.624V460.692H453.294V457.71H458.39V457.248H461.596V457.71ZM463.78 459.88V459.586H456.22V459.88H463.78ZM462.1 461.742L461.96 461.364H459.146L458.852 461.812L462.1 461.742ZM466.3 465.788H461.498V466.068H466.636V467.944H453.364V466.068H458.502V465.788H453.7V464.08H458.502V463.772H461.498V464.08H466.3V465.788Z" fill="black"/>
<path d="M466.812 361.36C467.196 361.32 467.9 361.24 468.924 361.12C468.82 361.576 468.756 362.008 468.732 362.416C468.708 362.816 468.696 363.312 468.696 363.904C467.848 363.952 467.056 363.992 466.32 364.024C465.584 364.064 464.944 364.084 464.4 364.084C463.344 364.084 462.504 364.012 461.88 363.868C461.256 363.716 460.792 363.452 460.488 363.076C460.184 362.7 460.032 362.168 460.032 361.48V359.2L458.088 359.488L457.956 356.476L460.032 356.26V354.892H462.972V355.96L468.876 355.348L469.728 357.892C469.432 358.62 469.056 359.268 468.6 359.836C468.144 360.396 467.548 360.904 466.812 361.36ZM462.972 360.94C462.972 361.14 463.08 361.288 463.296 361.384C463.512 361.48 463.88 361.528 464.4 361.528C464.64 361.528 464.924 361.516 465.252 361.492C465.036 361.116 464.82 360.776 464.604 360.472C464.388 360.16 464.132 359.852 463.836 359.548C464.452 359.396 464.96 359.22 465.36 359.02C465.768 358.82 466.104 358.576 466.368 358.288L462.972 358.78V360.94ZM471.3 355.288C474.98 355.288 478.192 355.512 480.936 355.96V358.384C479.352 358.152 477.78 357.996 476.22 357.916C474.668 357.836 473.028 357.796 471.3 357.796V355.288ZM471.3 358.18C472.964 358.18 474.56 358.228 476.088 358.324C477.616 358.42 479.232 358.576 480.936 358.792V360.952C479.368 360.696 477.816 360.528 476.28 360.448C474.744 360.36 473.084 360.316 471.3 360.316V358.18ZM470.652 360.664C472.524 360.656 474.328 360.712 476.064 360.832C477.808 360.944 479.664 361.148 481.632 361.444C481.52 361.788 481.428 362.144 481.356 362.512C481.284 362.88 481.2 363.352 481.104 363.928C479.352 363.664 477.668 363.488 476.052 363.4C474.444 363.304 472.644 363.256 470.652 363.256V360.664ZM493.392 355.576V358.372H491.028C490.924 359.444 490.652 360.312 490.212 360.976C489.644 361.816 488.828 362.516 487.764 363.076C486.7 363.628 485.36 363.976 483.744 364.12C483.56 363.632 483.34 363.156 483.084 362.692C482.828 362.228 482.488 361.728 482.064 361.192C483.496 361.16 484.592 361.036 485.352 360.82C486.12 360.596 486.712 360.24 487.128 359.752C487.44 359.376 487.64 358.916 487.728 358.372H482.52V355.576H487.596L487.476 354.88H491.028L491.064 355.576H493.392ZM505.164 360.988H494.76V358.18H505.164V360.988ZM508.008 361.852C507.688 361.852 507.392 361.772 507.12 361.612C506.856 361.452 506.644 361.24 506.484 360.976C506.332 360.704 506.256 360.408 506.256 360.088C506.256 359.776 506.332 359.488 506.484 359.224C506.644 358.952 506.856 358.74 507.12 358.588C507.392 358.428 507.688 358.348 508.008 358.348C508.312 358.348 508.596 358.428 508.86 358.588C509.132 358.74 509.348 358.952 509.508 359.224C509.668 359.488 509.748 359.776 509.748 360.088C509.748 360.408 509.668 360.704 509.508 360.976C509.348 361.24 509.132 361.452 508.86 361.612C508.596 361.772 508.312 361.852 508.008 361.852ZM457.444 377.04C457.18 377.512 456.848 377.956 456.448 378.372C456.888 378.444 457.36 378.492 457.864 378.516C458.376 378.54 459.028 378.556 459.82 378.564C459.652 378.908 459.488 379.328 459.328 379.824C459.168 380.32 459.06 380.744 459.004 381.096C456.908 380.896 455.248 380.532 454.024 380.004C452.816 380.532 451.16 380.896 449.056 381.096C449 380.744 448.892 380.32 448.732 379.824C448.572 379.328 448.408 378.908 448.24 378.564C449.032 378.556 449.68 378.54 450.184 378.516C450.696 378.492 451.172 378.444 451.612 378.372C451.196 377.948 450.86 377.496 450.604 377.016C450.14 377.192 449.612 377.36 449.02 377.52C448.996 377.464 448.972 377.404 448.948 377.34C448.924 377.268 448.896 377.192 448.864 377.112C448.736 376.768 448.612 376.468 448.492 376.212C448.38 375.956 448.24 375.724 448.072 375.516C448.768 375.38 449.332 375.228 449.764 375.06C450.196 374.884 450.6 374.648 450.976 374.352H448.552V372.18H452.752V371.784H455.248V372.18H459.448V374.352H457C457.376 374.648 457.78 374.884 458.212 375.06C458.644 375.228 459.208 375.38 459.904 375.516C459.736 375.724 459.592 375.956 459.472 376.212C459.36 376.468 459.24 376.768 459.112 377.112C459.08 377.192 459.052 377.268 459.028 377.34C459.004 377.404 458.98 377.464 458.956 377.52C458.364 377.368 457.86 377.208 457.444 377.04ZM452.992 374.352L453.784 374.724C453.208 375.476 452.484 376.088 451.612 376.56L453.232 376.104C453.432 376.592 453.7 376.992 454.036 377.304C454.364 376.992 454.628 376.592 454.828 376.104L456.256 376.5C455.416 376.036 454.728 375.444 454.192 374.724L454.984 374.352H452.992ZM470.32 376.62C470.72 376.82 471.1 376.956 471.46 377.028C471.588 377.828 471.652 378.504 471.652 379.056C471.652 379.688 471.584 380.14 471.448 380.412C471.336 380.628 471.204 380.764 471.052 380.82C470.908 380.876 470.788 380.908 470.692 380.916C470.596 380.916 470.536 380.916 470.512 380.916C470.256 380.932 470.056 380.94 469.912 380.94C469.784 380.94 469.584 380.932 469.312 380.916C468.96 380.884 468.7 380.844 468.532 380.796C468.364 380.748 468.24 380.672 468.16 380.568C468.088 380.464 468.052 380.308 468.052 380.1C468.052 379.932 468.06 379.796 468.076 379.692L468.424 376.392H469.636C469.556 376.288 469.488 376.184 469.432 376.08L463.492 376.32C463.46 375.976 463.432 375.728 463.408 375.576L462.664 376.68L463.696 376.824L462.832 380.46C463.256 379.668 463.572 378.764 463.78 377.748L464.02 376.392H465.964L465.904 376.812L465.7 378.24C465.556 379.336 465.412 380.3 465.268 381.132C464.46 380.876 463.636 380.7 462.796 380.604L462.688 381.036L462.424 380.976C461.304 380.744 460.484 380.592 459.964 380.52C460.188 379.952 460.372 379.436 460.516 378.972C460.66 378.5 460.844 377.852 461.068 377.028L461.212 376.464L462.124 376.596C461.604 376.332 460.924 376.104 460.084 375.912L461.356 374.076C461.652 374.148 461.924 374.232 462.172 374.328C462.42 374.416 462.78 374.56 463.252 374.76C463.212 374.6 463.172 374.46 463.132 374.34L464.464 374.328L464.608 373.956H463.396V373.656L462.976 374.4C462.048 374.016 461.076 373.736 460.06 373.56L461.212 371.64C461.524 371.712 461.876 371.816 462.268 371.952C462.66 372.08 462.888 372.156 462.952 372.18L463.396 372.336V372.084H465.88V371.772H468.604V372.084H471.676V373.956H467.044L466.9 374.304L468.592 374.28L468.544 374.124H470.872C471.032 374.404 471.188 374.648 471.34 374.856C471.5 375.064 471.744 375.376 472.072 375.792C471.728 375.832 471.332 375.912 470.884 376.032C470.444 376.144 470.052 376.264 469.708 376.392H470.344L470.32 376.62ZM465.604 380.916L466.144 376.392H468.256L467.716 380.916H465.604ZM470.38 378.864C470.396 378.688 470.372 378.392 470.308 377.976C470.252 377.624 470.224 377.44 470.224 377.424L470.056 378.876V378.9C470.056 378.988 470.124 379.032 470.26 379.032C470.324 379.032 470.364 378.976 470.38 378.864ZM483.628 378.264C482.988 379.36 482.512 380.312 482.2 381.12C481.16 380.64 479.96 380.028 478.6 379.284C477.328 380.06 475.928 380.66 474.4 381.084C474.096 380.596 473.788 380.14 473.476 379.716C473.164 379.292 472.768 378.812 472.288 378.276C473.976 378.076 475.412 377.708 476.596 377.172C477.788 376.628 478.78 375.904 479.572 375H473.008V372.408L482.128 372.36L483.268 374.88C482.572 375.88 481.78 376.78 480.892 377.58C481.82 377.932 482.732 378.16 483.628 378.264ZM496.204 377.472C495.884 377.92 495.6 378.376 495.352 378.84C495.112 379.296 494.844 379.848 494.548 380.496C492.028 378.496 490.18 377.072 489.004 376.224C488.972 376.2 488.928 376.188 488.872 376.188C488.776 376.188 488.668 376.228 488.548 376.308C488.076 376.668 487.592 377.072 487.096 377.52C486.608 377.968 485.864 378.68 484.864 379.656C484.768 379.16 484.628 378.66 484.444 378.156C484.26 377.644 484.024 377.052 483.736 376.38C485.368 375.076 486.424 374.176 486.904 373.68C487.184 373.392 487.448 373.184 487.696 373.056C487.944 372.92 488.192 372.852 488.44 372.852C488.712 372.852 488.996 372.928 489.292 373.08C489.596 373.224 489.972 373.452 490.42 373.764L491.02 374.196C491.884 374.812 492.704 375.376 493.48 375.888C494.264 376.392 495.172 376.92 496.204 377.472ZM493.636 375.144C493.356 375.144 493.092 375.076 492.844 374.94C492.604 374.796 492.412 374.604 492.268 374.364C492.132 374.116 492.064 373.848 492.064 373.56C492.064 373.28 492.132 373.02 492.268 372.78C492.412 372.532 492.604 372.34 492.844 372.204C493.092 372.06 493.356 371.988 493.636 371.988C493.916 371.988 494.176 372.06 494.416 372.204C494.664 372.34 494.856 372.532 494.992 372.78C495.136 373.02 495.208 373.28 495.208 373.56C495.208 373.848 495.136 374.116 494.992 374.364C494.856 374.604 494.664 374.796 494.416 374.94C494.176 375.076 493.916 375.144 493.636 375.144ZM493.636 374.436C493.876 374.436 494.08 374.352 494.248 374.184C494.416 374.008 494.5 373.8 494.5 373.56C494.5 373.328 494.416 373.128 494.248 372.96C494.08 372.784 493.876 372.696 493.636 372.696C493.396 372.696 493.192 372.784 493.024 372.96C492.856 373.128 492.772 373.328 492.772 373.56C492.772 373.8 492.856 374.008 493.024 374.184C493.192 374.352 493.396 374.436 493.636 374.436ZM507.268 377.988H496.864V375.18H507.268V377.988ZM519.628 378.264C518.988 379.36 518.512 380.312 518.2 381.12C517.16 380.64 515.96 380.028 514.6 379.284C513.328 380.06 511.928 380.66 510.4 381.084C510.096 380.596 509.788 380.14 509.476 379.716C509.164 379.292 508.768 378.812 508.288 378.276C509.976 378.076 511.412 377.708 512.596 377.172C513.788 376.628 514.78 375.904 515.572 375H509.008V372.408L518.128 372.36L519.268 374.88C518.572 375.88 517.78 376.78 516.892 377.58C517.82 377.932 518.732 378.16 519.628 378.264Z" fill="black"/>
<path d="M382.536 375.84C383.144 375.84 383.595 375.891 383.888 375.992C384.181 376.088 384.381 376.267 384.488 376.528C384.6 376.789 384.656 377.192 384.656 377.736C384.656 378.435 384.645 378.957 384.624 379.304C384.603 379.645 384.56 379.907 384.496 380.088C384.437 380.269 384.344 380.429 384.216 380.568C384.077 380.717 383.824 380.835 383.456 380.92C383.088 381 382.565 381.059 381.888 381.096C381.803 380.509 381.693 380.053 381.56 379.728C381.443 380.091 381.285 380.52 381.088 381.016C380.416 380.776 379.723 380.589 379.008 380.456C379.349 379.944 379.616 379.464 379.808 379.016C380 378.563 380.141 378.064 380.232 377.52L379.248 377.616C379.259 377.019 379.187 376.456 379.032 375.928C379.608 375.907 380.056 375.893 380.376 375.888C380.381 375.68 380.384 375.349 380.384 374.896H382.352C382.341 375.157 382.32 375.472 382.288 375.84H382.536ZM386.16 375.264C386.4 376.08 386.573 376.776 386.68 377.352C386.787 377.928 386.88 378.688 386.96 379.632L385.08 379.896C385.053 379.011 384.981 378.243 384.864 377.592C384.752 376.941 384.563 376.211 384.296 375.4L386.16 375.264ZM382.68 379.216C382.749 379.163 382.803 379.037 382.84 378.84C382.883 378.643 382.904 378.389 382.904 378.08C382.904 377.861 382.891 377.707 382.864 377.616C382.843 377.525 382.795 377.467 382.72 377.44C382.651 377.408 382.528 377.392 382.352 377.392C382.251 377.392 382.168 377.395 382.104 377.4C381.992 378.093 381.856 378.712 381.696 379.256C381.925 379.283 382.107 379.296 382.24 379.296C382.475 379.296 382.621 379.269 382.68 379.216ZM392.72 380.328C392.597 379.261 392.413 378.347 392.168 377.584C391.923 376.816 391.605 376.099 391.216 375.432L393.088 375.152C393.525 375.824 393.877 376.509 394.144 377.208C394.411 377.907 394.653 378.784 394.872 379.84L392.72 380.328ZM391.352 379.536C391.027 379.915 390.608 380.237 390.096 380.504C389.589 380.771 389.117 380.904 388.68 380.904C388.435 380.904 388.203 380.848 387.984 380.736C387.771 380.624 387.592 380.445 387.448 380.2C387.309 379.949 387.237 379.632 387.232 379.248C387.227 378.709 387.259 378.219 387.328 377.776C387.397 377.328 387.517 376.725 387.688 375.968L387.832 375.336L389.976 375.432C389.789 376.072 389.651 376.587 389.56 376.976C389.469 377.365 389.384 377.845 389.304 378.416C389.293 378.512 389.288 378.573 389.288 378.6C389.288 378.712 389.315 378.768 389.368 378.768C389.443 378.768 389.576 378.664 389.768 378.456C389.965 378.248 390.261 377.896 390.656 377.4C390.72 377.88 390.805 378.288 390.912 378.624C391.024 378.955 391.171 379.259 391.352 379.536ZM402.064 375.488C401.947 375.104 401.771 374.717 401.536 374.328L402.272 374.136C402.512 374.515 402.693 374.901 402.816 375.296L402.064 375.488ZM401.096 375.728C400.979 375.344 400.803 374.96 400.568 374.576L401.304 374.384C401.533 374.752 401.712 375.139 401.84 375.544L401.096 375.728ZM399.368 376.848L398.376 376.92C398.205 377.757 397.944 378.525 397.592 379.224C397.245 379.923 396.816 380.52 396.304 381.016C396.08 380.605 395.867 380.267 395.664 380C395.461 379.733 395.248 379.496 395.024 379.288C395.387 379 395.677 378.675 395.896 378.312C396.115 377.944 396.285 377.499 396.408 376.976H395.672L395.656 375.384L396.64 375.376L396.672 374.888H398.6C398.6 374.984 398.595 375.123 398.584 375.304C399.128 375.267 399.565 375.232 399.896 375.2V376.152C400.632 376.035 401.373 375.976 402.12 375.976H402.408L402.632 377.656C402.541 377.651 402.403 377.648 402.216 377.648C401.341 377.648 400.392 377.739 399.368 377.92V376.848ZM399.76 378.248C399.723 378.472 399.704 378.629 399.704 378.72C399.704 378.933 399.752 379.077 399.848 379.152C399.944 379.227 400.096 379.264 400.304 379.264C400.683 379.264 401.107 379.235 401.576 379.176C402.051 379.117 402.411 379.045 402.656 378.96C402.512 379.408 402.411 380.037 402.352 380.848C402.128 380.901 401.861 380.944 401.552 380.976C401.243 381.003 400.928 381.016 400.608 381.016C400.464 381.016 400.275 381.011 400.04 381C398.648 380.925 397.952 380.475 397.952 379.648C397.952 379.344 398.045 378.989 398.232 378.584C398.563 378.547 398.861 378.499 399.128 378.44C399.4 378.376 399.611 378.312 399.76 378.248ZM410.896 377.792C410.917 378.411 410.805 378.965 410.56 379.456C410.32 379.941 409.984 380.323 409.552 380.6C409.125 380.872 408.656 381.008 408.144 381.008C407.573 381.008 407.149 380.896 406.872 380.672C406.595 380.443 406.456 380.101 406.456 379.648C406.456 379.595 406.461 379.499 406.472 379.36C406.493 379.157 406.504 379.021 406.504 378.952C406.504 378.803 406.483 378.691 406.44 378.616C406.397 378.536 406.325 378.496 406.224 378.496C406.091 378.496 405.965 378.573 405.848 378.728C405.736 378.883 405.645 379.123 405.576 379.448L405.256 380.96C405.181 380.949 405.123 380.944 405.08 380.944C404.259 380.853 403.613 380.811 403.144 380.816C403.293 380.144 403.597 379.163 404.056 377.872C404.515 376.581 404.915 375.533 405.256 374.728L407.544 374.952C407.416 375.197 407.272 375.456 407.112 375.728C406.904 376.101 406.741 376.397 406.624 376.616C406.512 376.835 406.411 377.064 406.32 377.304C406.677 377.197 406.963 377.144 407.176 377.144C407.528 377.144 407.813 377.237 408.032 377.424C408.251 377.611 408.36 377.861 408.36 378.176C408.36 378.299 408.349 378.411 408.328 378.512C408.307 378.613 408.277 378.725 408.24 378.848C408.208 378.965 408.192 379.032 408.192 379.048C408.192 379.096 408.216 379.12 408.264 379.12C408.403 379.12 408.517 379.083 408.608 379.008C408.699 378.933 408.779 378.773 408.848 378.528C408.923 378.283 408.989 377.907 409.048 377.4C409.331 377.549 409.621 377.653 409.92 377.712C410.224 377.765 410.549 377.792 410.896 377.792Z" fill="black"/>
<path d="M382.536 171.84C383.144 171.84 383.595 171.891 383.888 171.992C384.181 172.088 384.381 172.267 384.488 172.528C384.6 172.789 384.656 173.192 384.656 173.736C384.656 174.435 384.645 174.957 384.624 175.304C384.603 175.645 384.56 175.907 384.496 176.088C384.437 176.269 384.344 176.429 384.216 176.568C384.077 176.717 383.824 176.835 383.456 176.92C383.088 177 382.565 177.059 381.888 177.096C381.803 176.509 381.693 176.053 381.56 175.728C381.443 176.091 381.285 176.52 381.088 177.016C380.416 176.776 379.723 176.589 379.008 176.456C379.349 175.944 379.616 175.464 379.808 175.016C380 174.563 380.141 174.064 380.232 173.52L379.248 173.616C379.259 173.019 379.187 172.456 379.032 171.928C379.608 171.907 380.056 171.893 380.376 171.888C380.381 171.68 380.384 171.349 380.384 170.896H382.352C382.341 171.157 382.32 171.472 382.288 171.84H382.536ZM386.16 171.264C386.4 172.08 386.573 172.776 386.68 173.352C386.787 173.928 386.88 174.688 386.96 175.632L385.08 175.896C385.053 175.011 384.981 174.243 384.864 173.592C384.752 172.941 384.563 172.211 384.296 171.4L386.16 171.264ZM382.68 175.216C382.749 175.163 382.803 175.037 382.84 174.84C382.883 174.643 382.904 174.389 382.904 174.08C382.904 173.861 382.891 173.707 382.864 173.616C382.843 173.525 382.795 173.467 382.72 173.44C382.651 173.408 382.528 173.392 382.352 173.392C382.251 173.392 382.168 173.395 382.104 173.4C381.992 174.093 381.856 174.712 381.696 175.256C381.925 175.283 382.107 175.296 382.24 175.296C382.475 175.296 382.621 175.269 382.68 175.216ZM392.72 176.328C392.597 175.261 392.413 174.347 392.168 173.584C391.923 172.816 391.605 172.099 391.216 171.432L393.088 171.152C393.525 171.824 393.877 172.509 394.144 173.208C394.411 173.907 394.653 174.784 394.872 175.84L392.72 176.328ZM391.352 175.536C391.027 175.915 390.608 176.237 390.096 176.504C389.589 176.771 389.117 176.904 388.68 176.904C388.435 176.904 388.203 176.848 387.984 176.736C387.771 176.624 387.592 176.445 387.448 176.2C387.309 175.949 387.237 175.632 387.232 175.248C387.227 174.709 387.259 174.219 387.328 173.776C387.397 173.328 387.517 172.725 387.688 171.968L387.832 171.336L389.976 171.432C389.789 172.072 389.651 172.587 389.56 172.976C389.469 173.365 389.384 173.845 389.304 174.416C389.293 174.512 389.288 174.573 389.288 174.6C389.288 174.712 389.315 174.768 389.368 174.768C389.443 174.768 389.576 174.664 389.768 174.456C389.965 174.248 390.261 173.896 390.656 173.4C390.72 173.88 390.805 174.288 390.912 174.624C391.024 174.955 391.171 175.259 391.352 175.536ZM402.064 171.488C401.947 171.104 401.771 170.717 401.536 170.328L402.272 170.136C402.512 170.515 402.693 170.901 402.816 171.296L402.064 171.488ZM401.096 171.728C400.979 171.344 400.803 170.96 400.568 170.576L401.304 170.384C401.533 170.752 401.712 171.139 401.84 171.544L401.096 171.728ZM399.368 172.848L398.376 172.92C398.205 173.757 397.944 174.525 397.592 175.224C397.245 175.923 396.816 176.52 396.304 177.016C396.08 176.605 395.867 176.267 395.664 176C395.461 175.733 395.248 175.496 395.024 175.288C395.387 175 395.677 174.675 395.896 174.312C396.115 173.944 396.285 173.499 396.408 172.976H395.672L395.656 171.384L396.64 171.376L396.672 170.888H398.6C398.6 170.984 398.595 171.123 398.584 171.304C399.128 171.267 399.565 171.232 399.896 171.2V172.152C400.632 172.035 401.373 171.976 402.12 171.976H402.408L402.632 173.656C402.541 173.651 402.403 173.648 402.216 173.648C401.341 173.648 400.392 173.739 399.368 173.92V172.848ZM399.76 174.248C399.723 174.472 399.704 174.629 399.704 174.72C399.704 174.933 399.752 175.077 399.848 175.152C399.944 175.227 400.096 175.264 400.304 175.264C400.683 175.264 401.107 175.235 401.576 175.176C402.051 175.117 402.411 175.045 402.656 174.96C402.512 175.408 402.411 176.037 402.352 176.848C402.128 176.901 401.861 176.944 401.552 176.976C401.243 177.003 400.928 177.016 400.608 177.016C400.464 177.016 400.275 177.011 400.04 177C398.648 176.925 397.952 176.475 397.952 175.648C397.952 175.344 398.045 174.989 398.232 174.584C398.563 174.547 398.861 174.499 399.128 174.44C399.4 174.376 399.611 174.312 399.76 174.248ZM410.896 173.792C410.917 174.411 410.805 174.965 410.56 175.456C410.32 175.941 409.984 176.323 409.552 176.6C409.125 176.872 408.656 177.008 408.144 177.008C407.573 177.008 407.149 176.896 406.872 176.672C406.595 176.443 406.456 176.101 406.456 175.648C406.456 175.595 406.461 175.499 406.472 175.36C406.493 175.157 406.504 175.021 406.504 174.952C406.504 174.803 406.483 174.691 406.44 174.616C406.397 174.536 406.325 174.496 406.224 174.496C406.091 174.496 405.965 174.573 405.848 174.728C405.736 174.883 405.645 175.123 405.576 175.448L405.256 176.96C405.181 176.949 405.123 176.944 405.08 176.944C404.259 176.853 403.613 176.811 403.144 176.816C403.293 176.144 403.597 175.163 404.056 173.872C404.515 172.581 404.915 171.533 405.256 170.728L407.544 170.952C407.416 171.197 407.272 171.456 407.112 171.728C406.904 172.101 406.741 172.397 406.624 172.616C406.512 172.835 406.411 173.064 406.32 173.304C406.677 173.197 406.963 173.144 407.176 173.144C407.528 173.144 407.813 173.237 408.032 173.424C408.251 173.611 408.36 173.861 408.36 174.176C408.36 174.299 408.349 174.411 408.328 174.512C408.307 174.613 408.277 174.725 408.24 174.848C408.208 174.965 408.192 175.032 408.192 175.048C408.192 175.096 408.216 175.12 408.264 175.12C408.403 175.12 408.517 175.083 408.608 175.008C408.699 174.933 408.779 174.773 408.848 174.528C408.923 174.283 408.989 173.907 409.048 173.4C409.331 173.549 409.621 173.653 409.92 173.712C410.224 173.765 410.549 173.792 410.896 173.792Z" fill="black"/>
<path d="M18.036 42.36C15.492 42.36 13.152 41.736 11.016 40.488C8.88 39.216 7.176 37.512 5.904 35.376C4.656 33.24 4.032 30.9 4.032 28.356C4.032 25.812 4.656 23.472 5.904 21.336C7.176 19.2 8.88 17.508 11.016 16.26C13.152 15.012 15.492 14.388 18.036 14.388C20.556 14.388 22.884 15.012 25.02 16.26C27.18 17.508 28.884 19.2 30.132 21.336C31.38 23.472 32.004 25.812 32.004 28.356C32.004 30.9 31.38 33.24 30.132 35.376C28.884 37.512 27.18 39.216 25.02 40.488C22.884 41.736 20.556 42.36 18.036 42.36ZM37.692 14.82H70.38V42.072H63.144V41.712H44.928V42.072H37.692V14.82ZM44.928 20.544V22.2L49.752 21.552C49.944 22.584 50.136 23.46 50.328 24.18C50.544 24.9 50.808 25.524 51.12 26.052L51.624 25.692C51.048 24.372 50.76 22.932 50.76 21.372L56.232 21.12C56.16 22.632 56.292 23.832 56.628 24.72C56.988 23.928 57.42 22.536 57.924 20.544H44.928ZM59.508 20.544L63.144 22.956V20.544H59.508ZM47.952 28.392L49.788 27.06L46.584 27.672C45.96 26.808 45.408 25.68 44.928 24.288V30.408C46.536 30.288 48.06 30.048 49.5 29.688L47.952 28.392ZM63.144 24.324C62.76 25.356 62.34 26.28 61.884 27.096C61.452 27.888 60.912 28.644 60.264 29.364C61.032 29.532 61.992 29.652 63.144 29.724V24.324ZM54.9 27.24C55.404 26.784 55.812 26.268 56.124 25.692L53.172 25.98C53.556 26.292 54.132 26.712 54.9 27.24ZM63.144 35.196V31.416C62.52 32.304 61.824 33.564 61.056 35.196H63.144ZM44.928 35.196H48.348C47.364 34.164 46.224 33.072 44.928 31.92V35.196ZM59.22 35.196C57.78 34.668 56.352 34.032 54.936 33.288C53.712 33.888 51.984 34.524 49.752 35.196H59.22ZM93.888 27.708V28.32H107.352V31.776H72.648V28.32H86.112V27.708H74.304V25.692H86.112V25.08H74.808V22.128H86.112V21.516H73.476V18.852H86.112V18.204H74.808V15.252H86.112V14.424H93.888V15.252H104.688V18.024H106.524V22.344H104.688V25.08H93.888V25.692H105.696V27.708H93.888ZM97.416 18.204H93.888V18.852H97.416V18.204ZM97.416 21.516H93.888V22.128H97.416V21.516ZM75.312 32.388H104.688V42.18H97.416V41.64H82.584V42.18H75.312V32.388ZM82.584 35.592H97.416V34.98H82.584V35.592ZM82.584 38.472H97.416V37.86H82.584V38.472ZM142.164 31.344H132.516V32.1H142.74V42.072H136.332V41.568H132.516V42.072H126.324V38.076C125.58 39.108 124.728 40.56 123.768 42.432C122.28 41.424 121.212 40.644 120.564 40.092C119.412 40.356 116.904 40.884 113.04 41.676C110.976 42.084 109.98 42.276 110.052 42.252C109.74 40.836 109.44 39.636 109.152 38.652C108.888 37.644 108.528 36.6 108.072 35.52C108.456 35.544 109.056 35.556 109.872 35.556V25.404L108.936 25.908C108.864 24.804 108.684 23.64 108.396 22.416C108.108 21.168 107.736 20.028 107.28 18.996C108.792 18.66 110.292 18.048 111.78 17.16C113.292 16.248 114.42 15.324 115.164 14.388H122.22C121.98 14.82 121.704 15.276 121.392 15.756C122.616 16.38 123.876 16.944 125.172 17.448V16.296H130.14V14.532H137.232V16.296H143.28V24.432H142.164V31.344ZM119.88 20.256L118.62 19.14L117.432 20.256H119.88ZM125.172 22.704V20.904C124.764 21.528 124.416 22.128 124.128 22.704H125.172ZM136.872 21.804V21.084H131.328V21.804H136.872ZM116.1 21.372C115.236 22.02 114.624 22.464 114.264 22.704H116.1V21.372ZM122.76 22.704L121.176 21.408V22.704H122.76ZM122.292 34.08C123.756 35.16 125.1 36.06 126.324 36.78V24.432H125.172V34.08H122.292ZM119.268 25.476H116.172V26.34H119.268V25.476ZM132.516 27.06H135.72V25.944H132.516V27.06ZM116.172 29.4V30.264H119.268V29.4H116.172ZM120.636 34.08H116.172V35.34C117.636 35.196 118.956 35.016 120.132 34.8L120.636 34.08ZM136.332 37.104V35.988H132.516V37.104H136.332ZM179.712 35.268C178.44 37.668 177.768 39.924 177.696 42.036C176.424 41.82 175.212 41.424 174.06 40.848C172.908 40.248 171.876 39.54 170.964 38.724V42.324H164.088V38.616C162.144 40.32 159.912 41.46 157.392 42.036C156.96 40.044 156.036 38.184 154.62 36.456V42.216H147.528V34.908C147.048 36.708 146.4 38.304 145.584 39.696C145.272 35.928 144.708 32.688 143.892 29.976C145.284 28.968 146.496 27.432 147.528 25.368V24.864H145.188V17.736H147.528V14.568H154.62V17.736H155.7V15.396H164.088V14.424H170.964V15.396H179.316V20.94H170.964V21.66H178.416V34.008H172.188C174.204 34.752 176.712 35.172 179.712 35.268ZM156.168 24.864H154.62V25.044L155.844 26.376C156.348 26.952 156.612 27.252 156.636 27.276V21.66H164.088V20.94H156.168V24.864ZM165.348 26.34V25.224H163.224V26.34H165.348ZM169.704 26.34H171.792V25.224H169.704V26.34ZM165.348 29.256H163.224V30.372H165.348V29.256ZM169.704 29.256V30.372H171.792V29.256H169.704ZM154.62 35.628C158.268 35.244 161.028 34.704 162.9 34.008H156.636V30.408L155.232 34.152L154.62 31.38V35.628Z" fill="black"/>
<path d="M64.0533 305.56C65.4933 305.528 66.5573 305.496 67.2453 305.464V310H54.5493V305.464C56.2773 305.528 57.5813 305.56 58.4613 305.56V297.28C57.8853 298.544 56.7093 299.36 54.9333 299.728C54.8853 297.84 54.7093 296.12 54.4053 294.568C55.6853 294.392 56.5733 294.176 57.0693 293.92C57.5813 293.648 57.9733 293.352 58.2453 293.032C58.5333 292.712 58.7253 292.496 58.8213 292.384V292.336H64.0533V305.56ZM85.8667 300.232H90.4027V310.024H85.9867V309.592H81.5467V310.024H77.1067V306.184C76.8507 307.08 76.4107 307.76 75.7867 308.224C75.1627 308.688 74.3947 308.904 73.4827 308.872C73.2587 307.24 72.9627 306.024 72.5947 305.224V309.904H68.4907V291.976H76.3627L77.4667 295.48L77.1067 296.536L77.7307 296.512V291.592H81.8347V292.48H83.3947V295.264H81.8347V296.104L83.2267 295.84L83.4907 298.96C83.2507 299.024 83.0427 299.064 82.8667 299.08L84.2587 299.176C84.0987 299.064 83.9867 298.912 83.9227 298.72C83.8747 298.512 83.8507 298.224 83.8507 297.856V291.592H87.9787V292.456L90.4747 292.288V294.952L87.9787 295.048V295.768C87.9787 295.944 88.0027 296.064 88.0507 296.128C88.0987 296.176 88.1787 296.2 88.2907 296.2C88.4187 296.2 88.4827 296.12 88.4827 295.96C88.4827 295.816 88.4347 295.568 88.3387 295.216C88.6587 295.36 88.9787 295.456 89.2987 295.504C89.6187 295.552 90.1307 295.608 90.8347 295.672C90.8027 296.824 90.7467 297.64 90.6667 298.12C90.6027 298.584 90.4827 298.904 90.3067 299.08C90.1307 299.256 89.8187 299.392 89.3707 299.488C89.0827 299.536 88.5227 299.56 87.6907 299.56C86.9707 299.56 86.4507 299.552 86.1307 299.536L85.8667 300.232ZM72.5947 296.032V298.864C73.0747 297.76 73.3227 296.816 73.3387 296.032H72.5947ZM75.8587 300.04C76.4827 301.08 76.8987 302 77.1067 302.8V300.232H81.4987L81.8347 299.272C80.6507 299.448 79.2187 299.616 77.5387 299.776L76.9627 299.848L76.4347 298.528C76.1787 299.232 75.9867 299.736 75.8587 300.04ZM72.5947 304.408C72.8027 304.312 72.9627 304.168 73.0747 303.976C73.2027 303.784 73.2667 303.552 73.2667 303.28C73.2667 302.768 73.0427 302.152 72.5947 301.432V304.408ZM81.5467 303.856H85.9867V303.352H81.5467V303.856ZM81.5467 306.544H85.9867V306.04H81.5467V306.544Z" fill="black"/>
<path d="M57.4645 90.8C62.6645 90.512 66.6965 90.192 69.5605 89.84C69.2885 90.672 69.0805 91.552 68.9365 92.48C68.7925 93.408 68.7205 94.248 68.7205 95H51.5605L51.5365 94.496C51.5365 92.928 51.9925 91.568 52.9045 90.416C53.8325 89.264 55.1205 88.2 56.7685 87.224C57.2485 86.936 58.0005 86.568 59.0245 86.12C60.3525 85.544 61.3765 85.04 62.0965 84.608C62.8165 84.16 63.1765 83.72 63.1765 83.288C63.1765 82.744 62.9525 82.312 62.5045 81.992C62.0565 81.672 61.3605 81.512 60.4165 81.512C59.3765 81.512 58.5845 81.776 58.0405 82.304C57.5125 82.832 57.2485 83.504 57.2485 84.32C57.2485 84.576 57.2725 84.84 57.3205 85.112C55.3045 84.856 53.3445 84.68 51.4405 84.584C51.4405 83.224 51.7925 82 52.4965 80.912C53.2165 79.808 54.2885 78.936 55.7125 78.296C57.1525 77.656 58.9125 77.336 60.9925 77.336C62.8965 77.336 64.4805 77.6 65.7445 78.128C67.0245 78.64 67.9605 79.296 68.5525 80.096C69.1605 80.88 69.4645 81.688 69.4645 82.52C69.4645 83.48 69.2485 84.304 68.8165 84.992C68.4005 85.68 67.7925 86.296 66.9925 86.84C66.2085 87.368 65.1525 87.944 63.8245 88.568C63.6325 88.664 63.3205 88.776 62.8885 88.904C62.4565 89.016 62.1845 89.088 62.0725 89.12C60.9365 89.456 60.0325 89.736 59.3605 89.96C58.6885 90.184 58.0565 90.464 57.4645 90.8ZM88.8315 85.232H93.3675V95.024H88.9515V94.592H84.5115V95.024H80.0715V91.184C79.8155 92.08 79.3755 92.76 78.7515 93.224C78.1275 93.688 77.3595 93.904 76.4475 93.872C76.2235 92.24 75.9275 91.024 75.5595 90.224V94.904H71.4555V76.976H79.3275L80.4315 80.48L80.0715 81.536L80.6955 81.512V76.592H84.7995V77.48H86.3595V80.264H84.7995V81.104L86.1915 80.84L86.4555 83.96C86.2155 84.024 86.0075 84.064 85.8315 84.08L87.2235 84.176C87.0635 84.064 86.9515 83.912 86.8875 83.72C86.8395 83.512 86.8155 83.224 86.8155 82.856V76.592H90.9435V77.456L93.4395 77.288V79.952L90.9435 80.048V80.768C90.9435 80.944 90.9675 81.064 91.0155 81.128C91.0635 81.176 91.1435 81.2 91.2555 81.2C91.3835 81.2 91.4475 81.12 91.4475 80.96C91.4475 80.816 91.3995 80.568 91.3035 80.216C91.6235 80.36 91.9435 80.456 92.2635 80.504C92.5835 80.552 93.0955 80.608 93.7995 80.672C93.7675 81.824 93.7115 82.64 93.6315 83.12C93.5675 83.584 93.4475 83.904 93.2715 84.08C93.0955 84.256 92.7835 84.392 92.3355 84.488C92.0475 84.536 91.4875 84.56 90.6555 84.56C89.9355 84.56 89.4155 84.552 89.0955 84.536L88.8315 85.232ZM75.5595 81.032V83.864C76.0395 82.76 76.2875 81.816 76.3035 81.032H75.5595ZM78.8235 85.04C79.4475 86.08 79.8635 87 80.0715 87.8V85.232H84.4635L84.7995 84.272C83.6155 84.448 82.1835 84.616 80.5035 84.776L79.9275 84.848L79.3995 83.528C79.1435 84.232 78.9515 84.736 78.8235 85.04ZM75.5595 89.408C75.7675 89.312 75.9275 89.168 76.0395 88.976C76.1675 88.784 76.2315 88.552 76.2315 88.28C76.2315 87.768 76.0075 87.152 75.5595 86.432V89.408ZM84.5115 88.856H88.9515V88.352H84.5115V88.856ZM84.5115 91.544H88.9515V91.04H84.5115V91.544Z" fill="black"/>
<path d="M317.312 383.896C318.064 383.896 318.675 383.864 319.144 383.8L319.008 383.64C318.619 383.731 318.189 383.797 317.72 383.84C317.688 383.637 317.637 383.432 317.568 383.224C317.504 383.016 317.411 382.752 317.288 382.432C317.992 382.432 318.587 382.389 319.072 382.304C319.563 382.213 320.021 382.072 320.448 381.88H322.56C322.475 381.955 322.384 382.029 322.288 382.104H323.536L323.72 383.072C323.523 383.243 323.245 383.427 322.888 383.624C322.536 383.816 322.259 383.96 322.056 384.056C321.437 384.344 320.771 384.579 320.056 384.76C319.341 384.936 318.523 385.083 317.6 385.2C317.477 384.837 317.291 384.403 317.04 383.896H317.312ZM320.304 383.24C320.384 383.315 320.477 383.387 320.584 383.456C320.851 383.36 321.093 383.245 321.312 383.112H320.616C320.541 383.149 320.437 383.192 320.304 383.24ZM324.52 384.304L324.96 385.688C324.416 386.211 323.789 386.656 323.08 387.024C322.392 387.376 321.624 387.624 320.776 387.768C319.933 387.907 318.941 387.989 317.8 388.016C317.688 387.424 317.491 386.877 317.208 386.376C317.539 386.413 317.915 386.443 318.336 386.464C318.219 386.261 318.093 386.077 317.96 385.912C317.832 385.741 317.672 385.571 317.48 385.4C318.632 385.272 319.704 385.053 320.696 384.744C321.693 384.435 322.523 384.064 323.184 383.632L324.312 383.904C324.253 383.957 324.099 384.091 323.848 384.304H324.52ZM322.144 385.416L321.84 385.568C321.936 385.669 322.037 385.763 322.144 385.848C322.389 385.752 322.635 385.608 322.88 385.416H322.144ZM320.704 386.272C320.645 386.213 320.592 386.152 320.544 386.088C320.075 386.243 319.627 386.368 319.2 386.464C319.723 386.443 320.224 386.379 320.704 386.272ZM325.456 388.024V382H332.624V388.024H330.72V387.92H327.36V388.024H325.456ZM330.72 383.656V383.36H327.36V383.656H330.72ZM330.72 385.048V384.752H327.36V385.048H330.72ZM327.36 386.144V386.44H330.72V386.144H327.36ZM340.672 382.072C340.688 382.749 340.696 383.411 340.696 384.056C340.696 384.691 340.688 385.301 340.672 385.888C340.661 386.331 340.587 386.701 340.448 387C340.309 387.299 340.003 387.555 339.528 387.768C339.059 387.981 338.355 388.112 337.416 388.16C337.416 387.872 337.371 387.579 337.28 387.28C337.195 386.981 337.069 386.709 336.904 386.464V387.768H334.936V387.888H333.36V382.312H334.368L334.448 381.88H335.968L335.88 382.312H336.904V383.376C337.027 383.189 337.112 382.979 337.16 382.744C337.213 382.509 337.243 382.224 337.248 381.888H338.88V382.072H340.672ZM338.68 383.56C338.589 383.923 338.493 384.216 338.392 384.44C338.605 384.755 338.811 385.128 339.008 385.56C339.024 385.197 339.032 384.84 339.032 384.488L339.024 383.56H338.68ZM335.336 384.328V383.68H334.936V384.328H335.336ZM336.904 386.368C337.523 386.357 337.971 386.336 338.248 386.304C338.525 386.272 338.717 386.216 338.824 386.136C338.931 386.051 338.989 385.917 339 385.736L337.792 386.288C337.685 386 337.549 385.699 337.384 385.384C337.219 385.069 337.067 384.816 336.928 384.624L337.376 384.416C337.253 384.24 337.096 384.056 336.904 383.864V386.368ZM334.936 385.632V386.32H335.336V385.632H334.936ZM324.768 396.584C324.587 396.872 324.448 397.157 324.352 397.44C324.256 397.717 324.149 398.083 324.032 398.536C322.933 398.141 321.643 397.795 320.16 397.496V400.04H317.904C317.941 399.144 317.963 398.248 317.968 397.352C317.979 396.456 317.984 395.336 317.984 393.992H320.16V395.648C320.864 395.733 321.632 395.861 322.464 396.032C323.301 396.203 324.069 396.387 324.768 396.584ZM332.968 394.744C332.605 395.224 332.245 395.621 331.888 395.936C331.536 396.245 331.115 396.525 330.624 396.776V399.968H328.408V397.472C327.667 397.605 326.72 397.712 325.568 397.792C325.525 397.376 325.475 397.016 325.416 396.712C325.363 396.408 325.267 396.091 325.128 395.76C325.971 395.765 326.715 395.739 327.36 395.68C328.005 395.621 328.536 395.515 328.952 395.36C329.811 395.035 330.477 394.544 330.952 393.888L332.968 394.744ZM339.328 394.808C339.568 395.101 339.816 395.357 340.072 395.576C340.333 395.795 340.627 396 340.952 396.192C340.387 397.104 339.616 397.912 338.64 398.616C337.669 399.315 336.456 399.795 335 400.056L333.512 399.008V394.128H335.664V397.848C336.384 397.683 337.059 397.344 337.688 396.832C338.323 396.32 338.869 395.645 339.328 394.808Z" fill="black"/>
<path d="M317.234 452.946V455.298H313.902C314.126 455.531 314.238 455.774 314.238 456.026C314.238 456.399 314.065 456.735 313.72 457.034C313.375 457.333 312.871 457.571 312.208 457.748C311.545 457.916 310.757 458 309.842 458C309.441 458 308.974 457.981 308.442 457.944C307.91 457.897 307.177 457.823 306.244 457.72C306.244 457.216 306.207 456.777 306.132 456.404C306.057 456.031 305.941 455.662 305.782 455.298H303.766V452.946H310.836C311.051 452.871 311.265 452.769 311.48 452.638H305.81V452.218H304.144V448.424H305.432L305.18 447.584L308.092 447.36L308.372 448.424H309.1L308.82 447.304L311.732 447.08L312.04 448.424H312.6L312.88 447.36L315.792 447.584L315.54 448.424H316.856V452.218H315.204L315.26 452.47L314.7 452.582C314.42 452.666 314.028 452.787 313.524 452.946H317.234ZM306.93 450.678H314.07V450.426H306.93V450.678ZM306.3 455.298C307.56 455.531 308.601 455.648 309.422 455.648C310.234 455.648 310.701 455.531 310.822 455.298H306.3ZM326.404 455.186H330.87V457.888H318.13V455.186H322.764V454.374H319.208V453.24L318.858 453.562C318.625 452.881 318.401 452.297 318.186 451.812C317.981 451.317 317.733 450.841 317.444 450.384C317.92 450.057 318.298 449.628 318.578 449.096C318.867 448.564 319.017 447.967 319.026 447.304L322.19 447.332C322.115 447.864 322.059 448.205 322.022 448.354H322.764V447.332H326.404V448.354H330.59V450.958H326.404V451.77H330.212V454.374H326.404V455.186ZM322.764 451.77V450.958H321.014C320.855 451.238 320.683 451.509 320.496 451.77H322.764ZM332.158 447.458H336.834V448.858H332.158V447.458ZM345.234 453.366V455.214H342.686C343.106 455.335 343.549 455.429 344.016 455.494C344.483 455.55 344.884 455.573 345.22 455.564C345.071 455.863 344.945 456.171 344.842 456.488C344.749 456.805 344.641 457.207 344.52 457.692L344.422 458.098C344.17 458.023 343.839 457.869 343.428 457.636C343.017 457.403 342.621 457.132 342.238 456.824V458.126H339.802V456.922C339.055 457.585 338.271 457.977 337.45 458.098C337.291 457.407 337.151 456.871 337.03 456.488V457.916H334.272V458.084H332.074V454.248H337.016V453.366H339.802V453.072H337.17V447.528H344.954V453.072H342.238V453.366H345.234ZM331.892 449.096H336.96V450.65H331.892V449.096ZM340.152 449.614V449.194H339.438V449.614H340.152ZM341.958 449.614H342.686V449.194H341.958V449.614ZM332.158 450.888H336.834V452.33H332.158V450.888ZM340.152 451.084H339.438V451.504H340.152V451.084ZM341.958 451.084V451.504H342.686V451.084H341.958ZM336.834 454.01H332.158V452.54H336.834V454.01ZM337.03 455.564C337.982 455.555 338.78 455.438 339.424 455.214H337.03V455.564ZM334.272 455.662V456.292H334.832V455.662H334.272Z" fill="black"/>
<path d="M421.048 307.848C421.04 309.04 421.404 309.976 422.14 310.656C422.876 311.336 424.004 311.828 425.524 312.132C425.3 312.492 425.104 312.864 424.936 313.248C424.768 313.632 424.58 314.108 424.372 314.676C424.324 314.788 424.26 314.956 424.18 315.18C423.22 314.932 422.324 314.504 421.492 313.896C420.66 313.28 419.996 312.508 419.5 311.58C418.996 312.5 418.324 313.268 417.484 313.884C416.652 314.5 415.764 314.932 414.82 315.18C414.74 314.956 414.676 314.788 414.628 314.676C414.42 314.108 414.232 313.632 414.064 313.248C413.896 312.864 413.7 312.492 413.476 312.132C414.916 311.844 416 311.384 416.728 310.752C417.464 310.12 417.864 309.26 417.928 308.172H416.332V305.7H420.856V305.724H421.06L421.048 307.848ZM426.052 306.12H436.972V315.096H434.044V314.808H428.98V315.096H426.052V306.12ZM428.98 312.48H434.044V308.436H428.98V312.48Z" fill="black"/>
</svg>
