<svg width="596" height="842" viewBox="0 0 596 842" fill="none" xmlns="http://www.w3.org/2000/svg">
<path d="M412.313 403.159H410.874V330.774H412.313V403.159Z" fill="black"/>
<path d="M374.889 402.449H373.46V353.99H374.889V402.449Z" fill="black"/>
<path d="M360.855 402.449H359.417V353.99H360.855V402.449Z" fill="black"/>
<path d="M346.822 402.449H345.384V353.99H346.822V402.449Z" fill="black"/>
<path d="M393.677 403.879H233.113V402.45H393.677V403.879Z" fill="black"/>
<path d="M410.872 355.421H233.123V353.99H410.872V355.421Z" fill="black"/>
<path d="M438.939 331.192H410.872V330.772H438.939V331.192Z" fill="black"/>
<path d="M412.313 475.066H410.874V426.618H412.313V475.066Z" fill="black"/>
<path d="M234.553 476.504H233.115V426.618H234.553V476.504Z" fill="black"/>
<path d="M327 428H233V427H327V428Z" fill="black"/>
<path d="M425.722 330.773L425.746 330.832L425.77 330.773H425.722Z" fill="black"/>
<path d="M425.43 330.774L425.746 331.552L426.058 330.774H425.43Z" fill="black"/>
<path d="M421.848 321.236L425.722 330.772H425.77L429.645 321.236H421.848Z" fill="black"/>
<path d="M421.429 320.938L425.43 330.773H426.059L430.004 320.938H421.429ZM429.195 321.487L425.716 330.048L422.238 321.487H429.195Z" fill="black"/>
<path d="M346 403H234V355H346V403Z" stroke="black" stroke-width="1.7" stroke-miterlimit="10"/>
<path d="M252.309 354.542V403.324" stroke="black" stroke-width="1.7" stroke-miterlimit="10"/>
<path d="M269.967 354.542V403.324" stroke="black" stroke-width="1.7" stroke-miterlimit="10"/>
<path d="M345.696 378.37H269.967" stroke="black" stroke-width="1.7" stroke-miterlimit="10"/>
<path d="M307.831 403.397V377.742" stroke="black" stroke-width="1.7" stroke-miterlimit="10"/>
<path d="M487.158 475.364H234.08V427.385H487.158V475.364Z" stroke="black" stroke-width="1.7" stroke-miterlimit="10"/>
<path d="M524.58 427.467H439.249V306.018H524.58V427.467Z" stroke="black" stroke-width="1.7" stroke-miterlimit="10"/>
<line x1="234" y1="354" x2="234" y2="476" stroke="black" stroke-width="2"/>
<path d="M485.455 270.01H232.851V268.571H485.455V270.01Z" fill="black"/>
<path d="M412.049 268.57H410.61V232.237H412.049V268.57Z" fill="black"/>
<path d="M486.894 270.01H485.464V232.228H486.894V270.01Z" fill="black"/>
<path d="M449.471 268.57H448.033V232.237H449.471V268.57Z" fill="black"/>
<path d="M412.049 221.552H410.61V202.901H412.049V221.552Z" fill="black"/>
<path d="M524.316 233.666H522.878V202.9H524.316V233.666Z" fill="black"/>
<path d="M522.877 233.666H410.609V232.227H522.877V233.666Z" fill="black"/>
<path d="M410.609 148.806H232.86V147.377H410.609V148.806Z" fill="black"/>
<path d="M524.316 202.901H522.878V107.855H524.316V202.901Z" fill="black"/>
<path d="M412.049 202.901H410.61V107.855H412.049V202.901Z" fill="black"/>
<path d="M374.626 197.263H373.197V147.376H374.626V197.263Z" fill="black"/>
<path d="M360.593 195.824H359.155V147.367H360.593V195.824Z" fill="black"/>
<path d="M346.559 195.824H345.121V147.367H346.559V195.824Z" fill="black"/>
<path d="M373.187 195.834V197.263H345.612V195.834" fill="black"/>
<path d="M392 197H374V196H392V197Z" fill="black"/>
<path d="M412.049 107.855H410.61V98.919H412.049V107.855Z" fill="black"/>
<path d="M524.316 107.855H522.878V98.919H524.316V107.855Z" fill="black"/>
<path d="M522.877 100.358H410.609V98.9189H522.877V100.358Z" fill="black"/>
<path d="M303.713 196.992V269.292H232.86V148.202H345.696V196.825H303.717L303.713 196.992Z" stroke="black" stroke-width="1.7" stroke-miterlimit="10"/>
<path d="M303.804 220.897H411.081V269.125H303.804V220.897Z" stroke="black" stroke-width="1.7" stroke-miterlimit="10"/>
<path d="M303.742 148.787V199.385" stroke="black" stroke-width="1.7" stroke-miterlimit="10"/>
<path d="M248.292 198.304C248.116 197.624 247.852 196.932 247.5 196.228L248.604 195.88C248.964 196.544 249.236 197.24 249.42 197.968L248.292 198.304ZM246.84 198.748C246.664 198.068 246.4 197.376 246.048 196.672L247.152 196.324C247.504 197.004 247.772 197.7 247.956 198.412L246.84 198.748ZM250.704 201.472C250.384 201.92 250.1 202.376 249.852 202.84C249.612 203.296 249.344 203.848 249.048 204.496C246.528 202.496 244.68 201.072 243.504 200.224C243.472 200.2 243.428 200.188 243.372 200.188C243.276 200.188 243.168 200.228 243.048 200.308C242.576 200.668 242.092 201.072 241.596 201.52C241.108 201.968 240.364 202.68 239.364 203.656C239.268 203.16 239.128 202.66 238.944 202.156C238.76 201.644 238.524 201.052 238.236 200.38C239.868 199.076 240.924 198.176 241.404 197.68C241.684 197.392 241.948 197.184 242.196 197.056C242.444 196.92 242.692 196.852 242.94 196.852C243.212 196.852 243.496 196.928 243.792 197.08C244.096 197.224 244.472 197.452 244.92 197.764L245.52 198.196C246.384 198.812 247.204 199.376 247.98 199.888C248.764 200.392 249.672 200.92 250.704 201.472ZM252.06 205.084C251.884 204.436 251.708 203.892 251.532 203.452C251.364 203.004 251.112 202.548 250.776 202.084C252.272 202.084 253.508 201.988 254.484 201.796C255.468 201.596 256.312 201.272 257.016 200.824C257.656 200.416 258.152 199.828 258.504 199.06C258.856 198.292 259.1 197.32 259.236 196.144C259.716 196.312 260.188 196.46 260.652 196.588C261.124 196.708 261.7 196.848 262.38 197.008C262.188 198.496 261.824 199.704 261.288 200.632C260.76 201.56 260.032 202.352 259.104 203.008C258.272 203.6 257.3 204.056 256.188 204.376C255.076 204.696 253.7 204.932 252.06 205.084ZM255.564 200.188C254.572 199.82 253.772 199.548 253.164 199.372C252.556 199.196 251.708 199 250.62 198.784C250.996 198.424 251.38 198.004 251.772 197.524C252.164 197.036 252.452 196.632 252.636 196.312C253.644 196.592 254.544 196.864 255.336 197.128C256.128 197.392 256.928 197.692 257.736 198.028L255.564 200.188ZM274.224 199.072V201.424H271.428C271.26 202.256 270.956 202.912 270.516 203.392C270.052 203.904 269.328 204.3 268.344 204.58C267.368 204.86 266.152 205.052 264.696 205.156C264.552 204.596 264.396 204.092 264.228 203.644C264.06 203.188 263.844 202.752 263.58 202.336C263.868 202.36 264.192 202.372 264.552 202.372C265.304 202.372 266.004 202.312 266.652 202.192C267.308 202.072 267.768 201.888 268.032 201.64C268.104 201.568 268.164 201.496 268.212 201.424H262.776V199.072H268.536L268.5 198.556C267.74 198.556 266.976 198.556 266.208 198.556C265.448 198.548 264.688 198.54 263.928 198.532C263.928 198.004 263.92 197.564 263.904 197.212C263.896 196.86 263.864 196.508 263.808 196.156C264.296 196.164 265.016 196.168 265.968 196.168C268.624 196.168 271.176 196.1 273.624 195.964C273.568 196.316 273.532 196.68 273.516 197.056C273.508 197.432 273.504 197.92 273.504 198.52L271.584 198.544C271.592 198.664 271.596 198.84 271.596 199.072H274.224ZM284.34 197.836L285.3 200.296L284.976 200.68C284.512 201.248 284.14 201.684 283.86 201.988C283.588 202.284 283.188 202.676 282.66 203.164C281.988 202.748 281.192 202.412 280.272 202.156C280.512 203.1 280.74 204.08 280.956 205.096H278.22C277.916 203.568 277.604 202.14 277.284 200.812L275.748 201.016L275.544 198.724L276.708 198.604L276.48 197.836L279.012 197.344L279.204 198.04L279.288 198.352L284.34 197.836ZM280.2 201.868C280.648 201.596 281.048 201.312 281.4 201.016C281.752 200.72 282.032 200.44 282.24 200.176L279.852 200.488L279.924 200.776C280.068 201.344 280.16 201.708 280.2 201.868ZM297.768 201.988H287.364V199.18H297.768V201.988ZM257.796 212.892H267.072V214.776H257.796V212.892ZM266.856 215.196L268.2 217.092C267.696 218.116 267.06 218.956 266.292 219.612C265.532 220.268 264.56 220.8 263.376 221.208C262.2 221.608 260.708 221.936 258.9 222.192C258.74 221.736 258.528 221.248 258.264 220.728C258.008 220.208 257.724 219.74 257.412 219.324C260.948 219.236 263.24 218.684 264.288 217.668C261.376 217.668 259.064 217.708 257.352 217.788V215.196H266.856ZM278.784 211.44C278.792 212.008 278.724 212.564 278.58 213.108L277.56 212.964C277.704 212.436 277.776 211.88 277.776 211.296L278.784 211.44ZM280.116 211.62C280.124 212.188 280.056 212.744 279.912 213.288L278.892 213.144C279.028 212.616 279.1 212.06 279.108 211.476L280.116 211.62ZM280.668 219.948C279.652 220.572 278.832 221.168 278.208 221.736C277.648 220.904 277.2 220.144 276.864 219.456C276.536 218.76 276.24 217.884 275.976 216.828V220.104C275.976 220.64 275.876 221.044 275.676 221.316C275.484 221.58 275.148 221.764 274.668 221.868C274.196 221.964 273.484 222.008 272.532 222C272.532 221.728 272.484 221.356 272.388 220.884C272.3 220.412 272.188 220 272.052 219.648C271.772 220.224 271.356 220.92 270.804 221.736C270.18 221.168 269.36 220.572 268.344 219.948C268.856 219.396 269.276 218.848 269.604 218.304C269.94 217.76 270.216 217.128 270.432 216.408L273.036 216.78V216.18H269.088V213.6H273.036V212.904H275.976V213.6H279.72V216.18H275.976V216.78L278.58 216.408C278.796 217.128 279.068 217.76 279.396 218.304C279.732 218.848 280.156 219.396 280.668 219.948ZM272.172 219.396C272.3 219.404 272.452 219.408 272.628 219.408C272.812 219.408 272.924 219.38 272.964 219.324C273.012 219.26 273.036 219.116 273.036 218.892V216.828C272.78 217.844 272.492 218.7 272.172 219.396Z" fill="black"/>
<path d="M356.616 157.992C356.616 158.264 356.541 158.469 356.392 158.608C356.248 158.741 355.952 158.837 355.504 158.896C355.061 158.955 354.368 158.984 353.424 158.984C353.403 158.707 353.363 158.472 353.304 158.28C353.251 158.088 353.173 157.915 353.072 157.76C352.917 157.936 352.741 158.096 352.544 158.24C352.24 158.464 351.864 158.645 351.416 158.784C350.973 158.917 350.411 159.035 349.728 159.136C349.611 158.869 349.483 158.624 349.344 158.4C349.205 158.171 349.024 157.941 348.8 157.712C349.328 157.691 349.827 157.645 350.296 157.576C350.771 157.507 351.155 157.413 351.448 157.296H349.304V156.184H352.208L352.224 155.984H349.512V152.992H356.512V155.984H353.824L353.8 156.184H356.616V157.992ZM352.216 154.208V153.992H351.2V154.208H352.216ZM353.808 154.208H354.824V153.992H353.808V154.208ZM352.216 154.776H351.2V154.984H352.216V154.776ZM353.808 154.776V154.984H354.824V154.776H353.808ZM354.44 157.528C354.595 157.512 354.685 157.435 354.712 157.296H353.416C353.341 157.413 353.283 157.499 353.24 157.552C353.907 157.552 354.307 157.544 354.44 157.528ZM356.792 163.096V164.68H354.368C354.496 164.835 354.584 164.992 354.632 165.152C354.68 165.312 354.704 165.491 354.704 165.688C354.704 166.077 354.541 166.387 354.216 166.616C353.896 166.84 353.507 166.963 353.048 166.984C352.947 166.989 352.795 166.992 352.592 166.992C352.165 166.992 351.517 166.944 350.648 166.848C350.648 166.496 350.635 166.192 350.608 165.936C350.581 165.675 350.515 165.371 350.408 165.024C351.176 165.232 351.779 165.336 352.216 165.336C352.456 165.336 352.627 165.307 352.728 165.248C352.829 165.184 352.88 165.107 352.88 165.016C352.88 164.931 352.875 164.819 352.864 164.68H349.208V163.096H352.584L352.352 162.84C352.693 162.829 353.003 162.739 353.28 162.568H349.736V161.024H356.472V162.504C356.499 162.531 356.443 162.56 356.304 162.592C356.171 162.624 356.096 162.643 356.08 162.648C355.403 162.872 354.912 163.021 354.608 163.096H356.792ZM356.768 171.584C356.587 171.872 356.448 172.157 356.352 172.44C356.256 172.717 356.149 173.083 356.032 173.536C354.933 173.141 353.643 172.795 352.16 172.496V175.04H349.904C349.941 174.144 349.963 173.248 349.968 172.352C349.979 171.456 349.984 170.336 349.984 168.992H352.16V170.648C352.864 170.733 353.632 170.861 354.464 171.032C355.301 171.203 356.069 171.387 356.768 171.584ZM356.968 177.744C356.605 178.224 356.245 178.621 355.888 178.936C355.536 179.245 355.115 179.525 354.624 179.776V182.968H352.408V180.472C351.667 180.605 350.72 180.712 349.568 180.792C349.525 180.376 349.475 180.016 349.416 179.712C349.363 179.408 349.267 179.091 349.128 178.76C349.971 178.765 350.715 178.739 351.36 178.68C352.005 178.621 352.536 178.515 352.952 178.36C353.811 178.035 354.477 177.544 354.952 176.888L356.968 177.744ZM355.328 185.808C355.568 186.101 355.816 186.357 356.072 186.576C356.333 186.795 356.627 187 356.952 187.192C356.387 188.104 355.616 188.912 354.64 189.616C353.669 190.315 352.456 190.795 351 191.056L349.512 190.008V185.128H351.664V188.848C352.384 188.683 353.059 188.344 353.688 187.832C354.323 187.32 354.869 186.645 355.328 185.808Z" fill="black"/>
<path d="M370.928 157.28C370.555 157.835 370.299 158.411 370.16 159.008C369.339 158.619 368.595 158.285 367.928 158.008C367.485 158.269 366.949 158.477 366.32 158.632C365.696 158.787 364.907 158.925 363.952 159.048C363.877 158.904 363.792 158.72 363.696 158.496C363.675 158.453 363.6 158.296 363.472 158.024C363.344 157.747 363.197 157.459 363.032 157.16C363.48 157.245 363.936 157.288 364.4 157.288C364.853 157.288 365.301 157.248 365.744 157.168C365.008 156.912 364.336 156.712 363.728 156.568C364.096 156.099 364.435 155.595 364.744 155.056H363.288V153.368H365.552C365.595 153.256 365.653 153.088 365.728 152.864L367.808 152.92L367.632 153.368H370.792V155.056H368.544L369.944 155.448C369.677 156.003 369.443 156.437 369.24 156.752L370.928 157.28ZM366.792 155.056L366.288 155.912C366.651 156.003 367.037 156.107 367.448 156.224C367.688 155.851 367.869 155.461 367.992 155.056H366.792ZM370.792 163.096V164.68H368.368C368.496 164.835 368.584 164.992 368.632 165.152C368.68 165.312 368.704 165.491 368.704 165.688C368.704 166.077 368.541 166.387 368.216 166.616C367.896 166.84 367.507 166.963 367.048 166.984C366.947 166.989 366.795 166.992 366.592 166.992C366.165 166.992 365.517 166.944 364.648 166.848C364.648 166.496 364.635 166.192 364.608 165.936C364.581 165.675 364.515 165.371 364.408 165.024C365.176 165.232 365.779 165.336 366.216 165.336C366.456 165.336 366.627 165.307 366.728 165.248C366.829 165.184 366.88 165.107 366.88 165.016C366.88 164.931 366.875 164.819 366.864 164.68H363.208V163.096H366.584L366.352 162.84C366.693 162.829 367.003 162.739 367.28 162.568H363.736V161.024H370.472V162.504C370.499 162.531 370.443 162.56 370.304 162.592C370.171 162.624 370.096 162.643 370.08 162.648C369.403 162.872 368.912 163.021 368.608 163.096H370.792ZM370.768 171.584C370.587 171.872 370.448 172.157 370.352 172.44C370.256 172.717 370.149 173.083 370.032 173.536C368.933 173.141 367.643 172.795 366.16 172.496V175.04H363.904C363.941 174.144 363.963 173.248 363.968 172.352C363.979 171.456 363.984 170.336 363.984 168.992H366.16V170.648C366.864 170.733 367.632 170.861 368.464 171.032C369.301 171.203 370.069 171.387 370.768 171.584ZM370.968 177.744C370.605 178.224 370.245 178.621 369.888 178.936C369.536 179.245 369.115 179.525 368.624 179.776V182.968H366.408V180.472C365.667 180.605 364.72 180.712 363.568 180.792C363.525 180.376 363.475 180.016 363.416 179.712C363.363 179.408 363.267 179.091 363.128 178.76C363.971 178.765 364.715 178.739 365.36 178.68C366.005 178.621 366.536 178.515 366.952 178.36C367.811 178.035 368.477 177.544 368.952 176.888L370.968 177.744ZM369.328 185.808C369.568 186.101 369.816 186.357 370.072 186.576C370.333 186.795 370.627 187 370.952 187.192C370.387 188.104 369.616 188.912 368.64 189.616C367.669 190.315 366.456 190.795 365 191.056L363.512 190.008V185.128H365.664V188.848C366.384 188.683 367.059 188.344 367.688 187.832C368.323 187.32 368.869 186.645 369.328 185.808Z" fill="black"/>
<path d="M356.616 364.992C356.616 365.264 356.541 365.469 356.392 365.608C356.248 365.741 355.952 365.837 355.504 365.896C355.061 365.955 354.368 365.984 353.424 365.984C353.403 365.707 353.363 365.472 353.304 365.28C353.251 365.088 353.173 364.915 353.072 364.76C352.917 364.936 352.741 365.096 352.544 365.24C352.24 365.464 351.864 365.645 351.416 365.784C350.973 365.917 350.411 366.035 349.728 366.136C349.611 365.869 349.483 365.624 349.344 365.4C349.205 365.171 349.024 364.941 348.8 364.712C349.328 364.691 349.827 364.645 350.296 364.576C350.771 364.507 351.155 364.413 351.448 364.296H349.304V363.184H352.208L352.224 362.984H349.512V359.992H356.512V362.984H353.824L353.8 363.184H356.616V364.992ZM352.216 361.208V360.992H351.2V361.208H352.216ZM353.808 361.208H354.824V360.992H353.808V361.208ZM352.216 361.776H351.2V361.984H352.216V361.776ZM353.808 361.776V361.984H354.824V361.776H353.808ZM354.44 364.528C354.595 364.512 354.685 364.435 354.712 364.296H353.416C353.341 364.413 353.283 364.499 353.24 364.552C353.907 364.552 354.307 364.544 354.44 364.528ZM356.792 370.096V371.68H354.368C354.496 371.835 354.584 371.992 354.632 372.152C354.68 372.312 354.704 372.491 354.704 372.688C354.704 373.077 354.541 373.387 354.216 373.616C353.896 373.84 353.507 373.963 353.048 373.984C352.947 373.989 352.795 373.992 352.592 373.992C352.165 373.992 351.517 373.944 350.648 373.848C350.648 373.496 350.635 373.192 350.608 372.936C350.581 372.675 350.515 372.371 350.408 372.024C351.176 372.232 351.779 372.336 352.216 372.336C352.456 372.336 352.627 372.307 352.728 372.248C352.829 372.184 352.88 372.107 352.88 372.016C352.88 371.931 352.875 371.819 352.864 371.68H349.208V370.096H352.584L352.352 369.84C352.693 369.829 353.003 369.739 353.28 369.568H349.736V368.024H356.472V369.504C356.499 369.531 356.443 369.56 356.304 369.592C356.171 369.624 356.096 369.643 356.08 369.648C355.403 369.872 354.912 370.021 354.608 370.096H356.792ZM356.768 378.584C356.587 378.872 356.448 379.157 356.352 379.44C356.256 379.717 356.149 380.083 356.032 380.536C354.933 380.141 353.643 379.795 352.16 379.496V382.04H349.904C349.941 381.144 349.963 380.248 349.968 379.352C349.979 378.456 349.984 377.336 349.984 375.992H352.16V377.648C352.864 377.733 353.632 377.861 354.464 378.032C355.301 378.203 356.069 378.387 356.768 378.584ZM356.968 384.744C356.605 385.224 356.245 385.621 355.888 385.936C355.536 386.245 355.115 386.525 354.624 386.776V389.968H352.408V387.472C351.667 387.605 350.72 387.712 349.568 387.792C349.525 387.376 349.475 387.016 349.416 386.712C349.363 386.408 349.267 386.091 349.128 385.76C349.971 385.765 350.715 385.739 351.36 385.68C352.005 385.621 352.536 385.515 352.952 385.36C353.811 385.035 354.477 384.544 354.952 383.888L356.968 384.744ZM355.328 392.808C355.568 393.101 355.816 393.357 356.072 393.576C356.333 393.795 356.627 394 356.952 394.192C356.387 395.104 355.616 395.912 354.64 396.616C353.669 397.315 352.456 397.795 351 398.056L349.512 397.008V392.128H351.664V395.848C352.384 395.683 353.059 395.344 353.688 394.832C354.323 394.32 354.869 393.645 355.328 392.808Z" fill="black"/>
<path d="M370.928 364.28C370.555 364.835 370.299 365.411 370.16 366.008C369.339 365.619 368.595 365.285 367.928 365.008C367.485 365.269 366.949 365.477 366.32 365.632C365.696 365.787 364.907 365.925 363.952 366.048C363.877 365.904 363.792 365.72 363.696 365.496C363.675 365.453 363.6 365.296 363.472 365.024C363.344 364.747 363.197 364.459 363.032 364.16C363.48 364.245 363.936 364.288 364.4 364.288C364.853 364.288 365.301 364.248 365.744 364.168C365.008 363.912 364.336 363.712 363.728 363.568C364.096 363.099 364.435 362.595 364.744 362.056H363.288V360.368H365.552C365.595 360.256 365.653 360.088 365.728 359.864L367.808 359.92L367.632 360.368H370.792V362.056H368.544L369.944 362.448C369.677 363.003 369.443 363.437 369.24 363.752L370.928 364.28ZM366.792 362.056L366.288 362.912C366.651 363.003 367.037 363.107 367.448 363.224C367.688 362.851 367.869 362.461 367.992 362.056H366.792ZM370.792 370.096V371.68H368.368C368.496 371.835 368.584 371.992 368.632 372.152C368.68 372.312 368.704 372.491 368.704 372.688C368.704 373.077 368.541 373.387 368.216 373.616C367.896 373.84 367.507 373.963 367.048 373.984C366.947 373.989 366.795 373.992 366.592 373.992C366.165 373.992 365.517 373.944 364.648 373.848C364.648 373.496 364.635 373.192 364.608 372.936C364.581 372.675 364.515 372.371 364.408 372.024C365.176 372.232 365.779 372.336 366.216 372.336C366.456 372.336 366.627 372.307 366.728 372.248C366.829 372.184 366.88 372.107 366.88 372.016C366.88 371.931 366.875 371.819 366.864 371.68H363.208V370.096H366.584L366.352 369.84C366.693 369.829 367.003 369.739 367.28 369.568H363.736V368.024H370.472V369.504C370.499 369.531 370.443 369.56 370.304 369.592C370.171 369.624 370.096 369.643 370.08 369.648C369.403 369.872 368.912 370.021 368.608 370.096H370.792ZM370.768 378.584C370.587 378.872 370.448 379.157 370.352 379.44C370.256 379.717 370.149 380.083 370.032 380.536C368.933 380.141 367.643 379.795 366.16 379.496V382.04H363.904C363.941 381.144 363.963 380.248 363.968 379.352C363.979 378.456 363.984 377.336 363.984 375.992H366.16V377.648C366.864 377.733 367.632 377.861 368.464 378.032C369.301 378.203 370.069 378.387 370.768 378.584ZM370.968 384.744C370.605 385.224 370.245 385.621 369.888 385.936C369.536 386.245 369.115 386.525 368.624 386.776V389.968H366.408V387.472C365.667 387.605 364.72 387.712 363.568 387.792C363.525 387.376 363.475 387.016 363.416 386.712C363.363 386.408 363.267 386.091 363.128 385.76C363.971 385.765 364.715 385.739 365.36 385.68C366.005 385.621 366.536 385.515 366.952 385.36C367.811 385.035 368.477 384.544 368.952 383.888L370.968 384.744ZM369.328 392.808C369.568 393.101 369.816 393.357 370.072 393.576C370.333 393.795 370.627 394 370.952 394.192C370.387 395.104 369.616 395.912 368.64 396.616C367.669 397.315 366.456 397.795 365 398.056L363.512 397.008V392.128H365.664V395.848C366.384 395.683 367.059 395.344 367.688 394.832C368.323 394.32 368.869 393.645 369.328 392.808Z" fill="black"/>
<path d="M446.658 163.43H459.37V174.028H456.556V173.888H449.472V174.028H446.658V163.43ZM449.472 165.656V166.3L451.348 166.048C451.423 166.449 451.497 166.79 451.572 167.07C451.656 167.35 451.759 167.593 451.88 167.798L452.076 167.658C451.852 167.145 451.74 166.585 451.74 165.978L453.868 165.88C453.84 166.468 453.891 166.935 454.022 167.28C454.162 166.972 454.33 166.431 454.526 165.656H449.472ZM455.142 165.656L456.556 166.594V165.656H455.142ZM450.648 168.708L451.362 168.19L450.116 168.428C449.873 168.092 449.659 167.653 449.472 167.112V169.492C450.097 169.445 450.69 169.352 451.25 169.212L450.648 168.708ZM456.556 167.126C456.407 167.527 456.243 167.887 456.066 168.204C455.898 168.512 455.688 168.806 455.436 169.086C455.735 169.151 456.108 169.198 456.556 169.226V167.126ZM453.35 168.26C453.546 168.083 453.705 167.882 453.826 167.658L452.678 167.77C452.827 167.891 453.051 168.055 453.35 168.26ZM456.556 171.354V169.884C456.313 170.229 456.043 170.719 455.744 171.354H456.556ZM449.472 171.354H450.802C450.419 170.953 449.976 170.528 449.472 170.08V171.354ZM455.03 171.354C454.47 171.149 453.915 170.901 453.364 170.612C452.888 170.845 452.216 171.093 451.348 171.354H455.03ZM468.512 168.442V168.68H473.748V170.024H460.252V168.68H465.488V168.442H460.896V167.658H465.488V167.42H461.092V166.272H465.488V166.034H460.574V164.998H465.488V164.746H461.092V163.598H465.488V163.276H468.512V163.598H472.712V164.676H473.426V166.356H472.712V167.42H468.512V167.658H473.104V168.442H468.512ZM469.884 164.746H468.512V164.998H469.884V164.746ZM469.884 166.034H468.512V166.272H469.884V166.034ZM461.288 170.262H472.712V174.07H469.884V173.86H464.116V174.07H461.288V170.262ZM464.116 171.508H469.884V171.27H464.116V171.508ZM464.116 172.628H469.884V172.39H464.116V172.628ZM487.286 169.856H483.534V170.15H487.51V174.028H485.018V173.832H483.534V174.028H481.126V172.474C480.837 172.875 480.505 173.44 480.132 174.168C479.553 173.776 479.138 173.473 478.886 173.258C478.438 173.361 477.463 173.566 475.96 173.874C475.157 174.033 474.77 174.107 474.798 174.098C474.677 173.547 474.56 173.081 474.448 172.698C474.345 172.306 474.205 171.9 474.028 171.48C474.177 171.489 474.411 171.494 474.728 171.494V167.546L474.364 167.742C474.336 167.313 474.266 166.86 474.154 166.384C474.042 165.899 473.897 165.455 473.72 165.054C474.308 164.923 474.891 164.685 475.47 164.34C476.058 163.985 476.497 163.626 476.786 163.262H479.53C479.437 163.43 479.329 163.607 479.208 163.794C479.684 164.037 480.174 164.256 480.678 164.452V164.004H482.61V163.318H485.368V164.004H487.72V167.168H487.286V169.856ZM478.62 165.544L478.13 165.11L477.668 165.544H478.62ZM480.678 166.496V165.796C480.519 166.039 480.384 166.272 480.272 166.496H480.678ZM485.228 166.146V165.866H483.072V166.146H485.228ZM477.15 165.978C476.814 166.23 476.576 166.403 476.436 166.496H477.15V165.978ZM479.74 166.496L479.124 165.992V166.496H479.74ZM479.558 170.92C480.127 171.34 480.65 171.69 481.126 171.97V167.168H480.678V170.92H479.558ZM478.382 167.574H477.178V167.91H478.382V167.574ZM483.534 168.19H484.78V167.756H483.534V168.19ZM477.178 169.1V169.436H478.382V169.1H477.178ZM478.914 170.92H477.178V171.41C477.747 171.354 478.261 171.284 478.718 171.2L478.914 170.92ZM485.018 172.096V171.662H483.534V172.096H485.018Z" fill="black"/>
<path d="M443.734 445.956C443.734 446.301 443.725 446.581 443.706 446.796C443.687 447.011 443.641 447.193 443.566 447.342C443.435 447.631 443.258 447.818 443.034 447.902C442.819 447.977 442.539 448.023 442.194 448.042C441.821 448.061 441.517 448.07 441.284 448.07L440.318 448.056C440.253 448.047 440.15 448.042 440.01 448.042C439.543 448.023 439.189 447.921 438.946 447.734C438.703 447.547 438.582 447.249 438.582 446.838V445.13H436.986L438.316 445.732C438.036 446.227 437.723 446.656 437.378 447.02C437.042 447.375 436.594 447.753 436.034 448.154C435.511 447.809 434.839 447.421 434.018 446.992V448.028H431.134V446.04L430.448 446.698C430.401 445.998 430.331 445.387 430.238 444.864C430.154 444.341 430.019 443.823 429.832 443.31C430.541 442.741 431.204 441.91 431.82 440.818H430.364V438.102H431.134V437.29H434.018V438.102H434.55V441.098L434.256 441.7L435.04 442.274V437.598H443.398V444.976L443.734 445.004V445.956ZM440.584 439.642H437.826V439.908H440.584V439.642ZM440.584 441.238H437.826V441.504H440.584V441.238ZM440.584 442.834H437.826V443.1H440.584V442.834ZM434.018 446.166C434.737 445.886 435.259 445.541 435.586 445.13H435.04V444.052L434.452 445.116L434.018 443.968V446.166ZM441.662 445.662C441.755 445.662 441.811 445.653 441.83 445.634C441.858 445.615 441.872 445.573 441.872 445.508C441.872 445.471 441.867 445.429 441.858 445.382C441.849 445.326 441.839 445.242 441.83 445.13H441.438V445.592C441.438 445.639 441.513 445.662 441.662 445.662ZM456.208 444.038C456.385 444.346 456.623 444.584 456.922 444.752C457.221 444.92 457.594 445.027 458.042 445.074C457.827 445.485 457.645 445.919 457.496 446.376C457.356 446.833 457.211 447.412 457.062 448.112C456.521 447.776 456.045 447.328 455.634 446.768C455.643 446.815 455.648 446.885 455.648 446.978C455.648 447.529 455.382 447.832 454.85 447.888C454.15 447.935 453.632 447.958 453.296 447.958C452.932 447.958 452.47 447.935 451.91 447.888C451.602 447.86 451.373 447.785 451.224 447.664C451.075 447.543 451 447.365 451 447.132V447.062C450.655 447.445 450.221 447.795 449.698 448.112C449.539 447.365 449.385 446.763 449.236 446.306V448.084H446.702V447.412L444.518 447.79C444.443 446.819 444.331 445.975 444.182 445.256L444.77 445.214V439.53H444.406V437.472H449.712V437.626H452.176V437.206H454.78V437.626H457.664V439.642H454.78V439.88H457.44V444.038H456.208ZM447.164 440.146V439.53H446.8V440.146H447.164ZM449.236 444.976C449.833 444.827 450.272 444.514 450.552 444.038H449.516V439.88H452.176V439.642H449.292V439.53H449.236V444.976ZM451.364 442.176H451.7V441.742H451.364V442.176ZM453.366 441.742V442.176H453.716V441.742H453.366ZM455.368 442.176H455.704V441.742H455.368V442.176ZM447.164 441.938H446.8V442.61H447.164V441.938ZM452.596 444.724L452.19 444.29L453.24 444.038H451.056C451.485 444.337 451.882 444.565 452.246 444.724H452.596ZM454.822 444.43C455.102 444.309 455.373 444.178 455.634 444.038H454.346L454.822 444.43ZM447.164 444.402H446.8V445.046L447.164 445.004V444.402ZM453.982 445.158C454.141 445.195 454.318 445.214 454.514 445.214C454.626 445.214 454.715 445.209 454.78 445.2L454.696 444.962L453.982 445.158ZM453.744 445.62C453.819 445.611 453.865 445.597 453.884 445.578C453.912 445.559 453.926 445.522 453.926 445.466C453.926 445.401 453.912 445.307 453.884 445.186L453.156 445.396C453.072 445.284 452.955 445.144 452.806 444.976L452.736 445.368C452.727 445.405 452.722 445.447 452.722 445.494C452.722 445.597 452.773 445.648 452.876 445.648C453.361 445.648 453.651 445.639 453.744 445.62ZM471.496 441.238H470.614V445.438L471.426 445.466C471.426 446.147 471.412 446.6 471.384 446.824C471.365 447.048 471.3 447.244 471.188 447.412C471.029 447.617 470.81 447.753 470.53 447.818C470.259 447.883 469.905 447.93 469.466 447.958C469.018 447.977 468.64 447.986 468.332 447.986L467.114 447.972C467.03 447.963 466.899 447.958 466.722 447.958C466.153 447.939 465.742 447.86 465.49 447.72C465.238 447.571 465.112 447.347 465.112 447.048V445.494H463.544L464.748 445.774C464.076 446.39 463.371 446.908 462.634 447.328C461.906 447.739 461.094 448.056 460.198 448.28C459.843 447.841 459.507 447.459 459.19 447.132C458.882 446.805 458.504 446.455 458.056 446.082L458.672 445.998C459.204 445.942 459.643 445.881 459.988 445.816C460.333 445.741 460.66 445.639 460.968 445.508H459.372V441.238H458.504V437.836H459.806L459.68 437.444L462.592 437.22L462.774 437.836H463.474L463.32 437.304L466.232 437.08L466.428 437.836H467.198L467.38 437.22L470.292 437.444L470.166 437.836H471.496V441.238ZM461.64 440.188V440.412H468.36V440.188H461.64ZM462.452 441.966H467.534V441.714H462.452V441.966ZM462.452 443.128H467.534V442.904H462.452V443.128ZM462.452 444.318H467.534V444.08H462.452V444.318ZM468.416 445.76C468.565 445.76 468.64 445.723 468.64 445.648V445.508H468.108V445.676C468.108 445.713 468.127 445.737 468.164 445.746C468.201 445.755 468.285 445.76 468.416 445.76ZM449.824 464.472C450.095 464.649 450.482 464.85 450.986 465.074C450.687 465.578 450.468 466.035 450.328 466.446C450.188 466.857 450.02 467.417 449.824 468.126C449.189 467.715 448.625 467.258 448.13 466.754C447.421 467.277 446.459 467.734 445.246 468.126C445.19 467.557 445.106 467.029 444.994 466.544C444.882 466.049 444.714 465.578 444.49 465.13C444.042 465.186 443.729 465.223 443.552 465.242C443.729 465.513 443.818 465.811 443.818 466.138C443.818 466.689 443.533 467.132 442.964 467.468C442.395 467.804 441.457 467.972 440.15 467.972C439.581 467.972 438.983 467.939 438.358 467.874C438.293 467.342 438.227 466.913 438.162 466.586C438.106 466.259 437.989 465.947 437.812 465.648C438.811 465.816 439.576 465.9 440.108 465.9C440.435 465.9 440.682 465.872 440.85 465.816C441.027 465.76 441.116 465.681 441.116 465.578V465.466C440.08 465.531 439.044 465.573 438.008 465.592L437.812 464.374C437.737 464.402 437.583 464.449 437.35 464.514C437.294 463.973 437.233 463.534 437.168 463.198C437.103 462.862 436.991 462.521 436.832 462.176C437.952 461.933 438.89 461.621 439.646 461.238H437.322V459.642H438.862V459.348H437.868V457.752H438.862V457.234H441.424V457.752H443.244V458.158L443.65 457.598L443.818 457.346L445.274 458.018C445.274 457.701 445.269 457.458 445.26 457.29H447.584L447.598 457.71H450.636V460.594H450.37C450.351 461.406 450.3 462.125 450.216 462.75C450.141 463.375 450.011 463.949 449.824 464.472ZM445.246 458.746C445.106 458.933 444.873 459.231 444.546 459.642H444.7V460.916C445.017 460.403 445.199 459.679 445.246 458.746ZM442.236 459.348H441.424V459.642H441.942L442.236 459.348ZM447.892 462.47C447.957 462.106 447.99 461.663 447.99 461.14C447.99 460.897 447.985 460.715 447.976 460.594H447.29L447.206 460.93C447.411 461.527 447.64 462.041 447.892 462.47ZM443.132 461.238L442.628 461.728H444.35V462.918C444.257 462.946 444.168 462.993 444.084 463.058C444.009 463.123 443.963 463.161 443.944 463.17L443.37 463.604L445.12 463.394C444.905 462.666 444.649 461.989 444.35 461.364L444.462 461.238H443.132ZM440.696 463.17C440.183 463.469 439.651 463.721 439.1 463.926C439.604 463.917 440.117 463.889 440.64 463.842L440.472 463.562C440.528 463.543 440.668 463.501 440.892 463.436C441.116 463.361 441.331 463.273 441.536 463.17H440.696ZM444.952 464.934C445.54 464.925 446.063 464.799 446.52 464.556C446.38 464.285 446.24 463.973 446.1 463.618C445.904 463.926 445.68 464.22 445.428 464.5L445.218 463.73L444.952 464.934ZM459.596 457.71H464.692V460.692H463.376V461.364H462.942C463.297 461.971 463.693 462.559 464.132 463.128C463.665 463.184 463.152 463.287 462.592 463.436C462.032 463.585 461.556 463.749 461.164 463.926C461.005 463.674 460.903 463.506 460.856 463.422L452.47 463.73C452.433 463.413 452.381 463.137 452.316 462.904C452.26 462.661 452.153 462.325 451.994 461.896L453.87 461.854L454.206 461.364H452.624V460.692H451.294V457.71H456.39V457.248H459.596V457.71ZM461.78 459.88V459.586H454.22V459.88H461.78ZM460.1 461.742L459.96 461.364H457.146L456.852 461.812L460.1 461.742ZM464.3 465.788H459.498V466.068H464.636V467.944H451.364V466.068H456.502V465.788H451.7V464.08H456.502V463.772H459.498V464.08H464.3V465.788Z" fill="black"/>
<path d="M464.812 361.36C465.196 361.32 465.9 361.24 466.924 361.12C466.82 361.576 466.756 362.008 466.732 362.416C466.708 362.816 466.696 363.312 466.696 363.904C465.848 363.952 465.056 363.992 464.32 364.024C463.584 364.064 462.944 364.084 462.4 364.084C461.344 364.084 460.504 364.012 459.88 363.868C459.256 363.716 458.792 363.452 458.488 363.076C458.184 362.7 458.032 362.168 458.032 361.48V359.2L456.088 359.488L455.956 356.476L458.032 356.26V354.892H460.972V355.96L466.876 355.348L467.728 357.892C467.432 358.62 467.056 359.268 466.6 359.836C466.144 360.396 465.548 360.904 464.812 361.36ZM460.972 360.94C460.972 361.14 461.08 361.288 461.296 361.384C461.512 361.48 461.88 361.528 462.4 361.528C462.64 361.528 462.924 361.516 463.252 361.492C463.036 361.116 462.82 360.776 462.604 360.472C462.388 360.16 462.132 359.852 461.836 359.548C462.452 359.396 462.96 359.22 463.36 359.02C463.768 358.82 464.104 358.576 464.368 358.288L460.972 358.78V360.94ZM469.3 355.288C472.98 355.288 476.192 355.512 478.936 355.96V358.384C477.352 358.152 475.78 357.996 474.22 357.916C472.668 357.836 471.028 357.796 469.3 357.796V355.288ZM469.3 358.18C470.964 358.18 472.56 358.228 474.088 358.324C475.616 358.42 477.232 358.576 478.936 358.792V360.952C477.368 360.696 475.816 360.528 474.28 360.448C472.744 360.36 471.084 360.316 469.3 360.316V358.18ZM468.652 360.664C470.524 360.656 472.328 360.712 474.064 360.832C475.808 360.944 477.664 361.148 479.632 361.444C479.52 361.788 479.428 362.144 479.356 362.512C479.284 362.88 479.2 363.352 479.104 363.928C477.352 363.664 475.668 363.488 474.052 363.4C472.444 363.304 470.644 363.256 468.652 363.256V360.664ZM491.392 355.576V358.372H489.028C488.924 359.444 488.652 360.312 488.212 360.976C487.644 361.816 486.828 362.516 485.764 363.076C484.7 363.628 483.36 363.976 481.744 364.12C481.56 363.632 481.34 363.156 481.084 362.692C480.828 362.228 480.488 361.728 480.064 361.192C481.496 361.16 482.592 361.036 483.352 360.82C484.12 360.596 484.712 360.24 485.128 359.752C485.44 359.376 485.64 358.916 485.728 358.372H480.52V355.576H485.596L485.476 354.88H489.028L489.064 355.576H491.392ZM503.164 360.988H492.76V358.18H503.164V360.988ZM506.008 361.852C505.688 361.852 505.392 361.772 505.12 361.612C504.856 361.452 504.644 361.24 504.484 360.976C504.332 360.704 504.256 360.408 504.256 360.088C504.256 359.776 504.332 359.488 504.484 359.224C504.644 358.952 504.856 358.74 505.12 358.588C505.392 358.428 505.688 358.348 506.008 358.348C506.312 358.348 506.596 358.428 506.86 358.588C507.132 358.74 507.348 358.952 507.508 359.224C507.668 359.488 507.748 359.776 507.748 360.088C507.748 360.408 507.668 360.704 507.508 360.976C507.348 361.24 507.132 361.452 506.86 361.612C506.596 361.772 506.312 361.852 506.008 361.852ZM455.444 377.04C455.18 377.512 454.848 377.956 454.448 378.372C454.888 378.444 455.36 378.492 455.864 378.516C456.376 378.54 457.028 378.556 457.82 378.564C457.652 378.908 457.488 379.328 457.328 379.824C457.168 380.32 457.06 380.744 457.004 381.096C454.908 380.896 453.248 380.532 452.024 380.004C450.816 380.532 449.16 380.896 447.056 381.096C447 380.744 446.892 380.32 446.732 379.824C446.572 379.328 446.408 378.908 446.24 378.564C447.032 378.556 447.68 378.54 448.184 378.516C448.696 378.492 449.172 378.444 449.612 378.372C449.196 377.948 448.86 377.496 448.604 377.016C448.14 377.192 447.612 377.36 447.02 377.52C446.996 377.464 446.972 377.404 446.948 377.34C446.924 377.268 446.896 377.192 446.864 377.112C446.736 376.768 446.612 376.468 446.492 376.212C446.38 375.956 446.24 375.724 446.072 375.516C446.768 375.38 447.332 375.228 447.764 375.06C448.196 374.884 448.6 374.648 448.976 374.352H446.552V372.18H450.752V371.784H453.248V372.18H457.448V374.352H455C455.376 374.648 455.78 374.884 456.212 375.06C456.644 375.228 457.208 375.38 457.904 375.516C457.736 375.724 457.592 375.956 457.472 376.212C457.36 376.468 457.24 376.768 457.112 377.112C457.08 377.192 457.052 377.268 457.028 377.34C457.004 377.404 456.98 377.464 456.956 377.52C456.364 377.368 455.86 377.208 455.444 377.04ZM450.992 374.352L451.784 374.724C451.208 375.476 450.484 376.088 449.612 376.56L451.232 376.104C451.432 376.592 451.7 376.992 452.036 377.304C452.364 376.992 452.628 376.592 452.828 376.104L454.256 376.5C453.416 376.036 452.728 375.444 452.192 374.724L452.984 374.352H450.992ZM468.32 376.62C468.72 376.82 469.1 376.956 469.46 377.028C469.588 377.828 469.652 378.504 469.652 379.056C469.652 379.688 469.584 380.14 469.448 380.412C469.336 380.628 469.204 380.764 469.052 380.82C468.908 380.876 468.788 380.908 468.692 380.916C468.596 380.916 468.536 380.916 468.512 380.916C468.256 380.932 468.056 380.94 467.912 380.94C467.784 380.94 467.584 380.932 467.312 380.916C466.96 380.884 466.7 380.844 466.532 380.796C466.364 380.748 466.24 380.672 466.16 380.568C466.088 380.464 466.052 380.308 466.052 380.1C466.052 379.932 466.06 379.796 466.076 379.692L466.424 376.392H467.636C467.556 376.288 467.488 376.184 467.432 376.08L461.492 376.32C461.46 375.976 461.432 375.728 461.408 375.576L460.664 376.68L461.696 376.824L460.832 380.46C461.256 379.668 461.572 378.764 461.78 377.748L462.02 376.392H463.964L463.904 376.812L463.7 378.24C463.556 379.336 463.412 380.3 463.268 381.132C462.46 380.876 461.636 380.7 460.796 380.604L460.688 381.036L460.424 380.976C459.304 380.744 458.484 380.592 457.964 380.52C458.188 379.952 458.372 379.436 458.516 378.972C458.66 378.5 458.844 377.852 459.068 377.028L459.212 376.464L460.124 376.596C459.604 376.332 458.924 376.104 458.084 375.912L459.356 374.076C459.652 374.148 459.924 374.232 460.172 374.328C460.42 374.416 460.78 374.56 461.252 374.76C461.212 374.6 461.172 374.46 461.132 374.34L462.464 374.328L462.608 373.956H461.396V373.656L460.976 374.4C460.048 374.016 459.076 373.736 458.06 373.56L459.212 371.64C459.524 371.712 459.876 371.816 460.268 371.952C460.66 372.08 460.888 372.156 460.952 372.18L461.396 372.336V372.084H463.88V371.772H466.604V372.084H469.676V373.956H465.044L464.9 374.304L466.592 374.28L466.544 374.124H468.872C469.032 374.404 469.188 374.648 469.34 374.856C469.5 375.064 469.744 375.376 470.072 375.792C469.728 375.832 469.332 375.912 468.884 376.032C468.444 376.144 468.052 376.264 467.708 376.392H468.344L468.32 376.62ZM463.604 380.916L464.144 376.392H466.256L465.716 380.916H463.604ZM468.38 378.864C468.396 378.688 468.372 378.392 468.308 377.976C468.252 377.624 468.224 377.44 468.224 377.424L468.056 378.876V378.9C468.056 378.988 468.124 379.032 468.26 379.032C468.324 379.032 468.364 378.976 468.38 378.864ZM481.628 378.264C480.988 379.36 480.512 380.312 480.2 381.12C479.16 380.64 477.96 380.028 476.6 379.284C475.328 380.06 473.928 380.66 472.4 381.084C472.096 380.596 471.788 380.14 471.476 379.716C471.164 379.292 470.768 378.812 470.288 378.276C471.976 378.076 473.412 377.708 474.596 377.172C475.788 376.628 476.78 375.904 477.572 375H471.008V372.408L480.128 372.36L481.268 374.88C480.572 375.88 479.78 376.78 478.892 377.58C479.82 377.932 480.732 378.16 481.628 378.264ZM494.204 377.472C493.884 377.92 493.6 378.376 493.352 378.84C493.112 379.296 492.844 379.848 492.548 380.496C490.028 378.496 488.18 377.072 487.004 376.224C486.972 376.2 486.928 376.188 486.872 376.188C486.776 376.188 486.668 376.228 486.548 376.308C486.076 376.668 485.592 377.072 485.096 377.52C484.608 377.968 483.864 378.68 482.864 379.656C482.768 379.16 482.628 378.66 482.444 378.156C482.26 377.644 482.024 377.052 481.736 376.38C483.368 375.076 484.424 374.176 484.904 373.68C485.184 373.392 485.448 373.184 485.696 373.056C485.944 372.92 486.192 372.852 486.44 372.852C486.712 372.852 486.996 372.928 487.292 373.08C487.596 373.224 487.972 373.452 488.42 373.764L489.02 374.196C489.884 374.812 490.704 375.376 491.48 375.888C492.264 376.392 493.172 376.92 494.204 377.472ZM491.636 375.144C491.356 375.144 491.092 375.076 490.844 374.94C490.604 374.796 490.412 374.604 490.268 374.364C490.132 374.116 490.064 373.848 490.064 373.56C490.064 373.28 490.132 373.02 490.268 372.78C490.412 372.532 490.604 372.34 490.844 372.204C491.092 372.06 491.356 371.988 491.636 371.988C491.916 371.988 492.176 372.06 492.416 372.204C492.664 372.34 492.856 372.532 492.992 372.78C493.136 373.02 493.208 373.28 493.208 373.56C493.208 373.848 493.136 374.116 492.992 374.364C492.856 374.604 492.664 374.796 492.416 374.94C492.176 375.076 491.916 375.144 491.636 375.144ZM491.636 374.436C491.876 374.436 492.08 374.352 492.248 374.184C492.416 374.008 492.5 373.8 492.5 373.56C492.5 373.328 492.416 373.128 492.248 372.96C492.08 372.784 491.876 372.696 491.636 372.696C491.396 372.696 491.192 372.784 491.024 372.96C490.856 373.128 490.772 373.328 490.772 373.56C490.772 373.8 490.856 374.008 491.024 374.184C491.192 374.352 491.396 374.436 491.636 374.436ZM505.268 377.988H494.864V375.18H505.268V377.988ZM517.628 378.264C516.988 379.36 516.512 380.312 516.2 381.12C515.16 380.64 513.96 380.028 512.6 379.284C511.328 380.06 509.928 380.66 508.4 381.084C508.096 380.596 507.788 380.14 507.476 379.716C507.164 379.292 506.768 378.812 506.288 378.276C507.976 378.076 509.412 377.708 510.596 377.172C511.788 376.628 512.78 375.904 513.572 375H507.008V372.408L516.128 372.36L517.268 374.88C516.572 375.88 515.78 376.78 514.892 377.58C515.82 377.932 516.732 378.16 517.628 378.264Z" fill="black"/>
<path d="M380.536 375.84C381.144 375.84 381.595 375.891 381.888 375.992C382.181 376.088 382.381 376.267 382.488 376.528C382.6 376.789 382.656 377.192 382.656 377.736C382.656 378.435 382.645 378.957 382.624 379.304C382.603 379.645 382.56 379.907 382.496 380.088C382.437 380.269 382.344 380.429 382.216 380.568C382.077 380.717 381.824 380.835 381.456 380.92C381.088 381 380.565 381.059 379.888 381.096C379.803 380.509 379.693 380.053 379.56 379.728C379.443 380.091 379.285 380.52 379.088 381.016C378.416 380.776 377.723 380.589 377.008 380.456C377.349 379.944 377.616 379.464 377.808 379.016C378 378.563 378.141 378.064 378.232 377.52L377.248 377.616C377.259 377.019 377.187 376.456 377.032 375.928C377.608 375.907 378.056 375.893 378.376 375.888C378.381 375.68 378.384 375.349 378.384 374.896H380.352C380.341 375.157 380.32 375.472 380.288 375.84H380.536ZM384.16 375.264C384.4 376.08 384.573 376.776 384.68 377.352C384.787 377.928 384.88 378.688 384.96 379.632L383.08 379.896C383.053 379.011 382.981 378.243 382.864 377.592C382.752 376.941 382.563 376.211 382.296 375.4L384.16 375.264ZM380.68 379.216C380.749 379.163 380.803 379.037 380.84 378.84C380.883 378.643 380.904 378.389 380.904 378.08C380.904 377.861 380.891 377.707 380.864 377.616C380.843 377.525 380.795 377.467 380.72 377.44C380.651 377.408 380.528 377.392 380.352 377.392C380.251 377.392 380.168 377.395 380.104 377.4C379.992 378.093 379.856 378.712 379.696 379.256C379.925 379.283 380.107 379.296 380.24 379.296C380.475 379.296 380.621 379.269 380.68 379.216ZM390.72 380.328C390.597 379.261 390.413 378.347 390.168 377.584C389.923 376.816 389.605 376.099 389.216 375.432L391.088 375.152C391.525 375.824 391.877 376.509 392.144 377.208C392.411 377.907 392.653 378.784 392.872 379.84L390.72 380.328ZM389.352 379.536C389.027 379.915 388.608 380.237 388.096 380.504C387.589 380.771 387.117 380.904 386.68 380.904C386.435 380.904 386.203 380.848 385.984 380.736C385.771 380.624 385.592 380.445 385.448 380.2C385.309 379.949 385.237 379.632 385.232 379.248C385.227 378.709 385.259 378.219 385.328 377.776C385.397 377.328 385.517 376.725 385.688 375.968L385.832 375.336L387.976 375.432C387.789 376.072 387.651 376.587 387.56 376.976C387.469 377.365 387.384 377.845 387.304 378.416C387.293 378.512 387.288 378.573 387.288 378.6C387.288 378.712 387.315 378.768 387.368 378.768C387.443 378.768 387.576 378.664 387.768 378.456C387.965 378.248 388.261 377.896 388.656 377.4C388.72 377.88 388.805 378.288 388.912 378.624C389.024 378.955 389.171 379.259 389.352 379.536ZM400.064 375.488C399.947 375.104 399.771 374.717 399.536 374.328L400.272 374.136C400.512 374.515 400.693 374.901 400.816 375.296L400.064 375.488ZM399.096 375.728C398.979 375.344 398.803 374.96 398.568 374.576L399.304 374.384C399.533 374.752 399.712 375.139 399.84 375.544L399.096 375.728ZM397.368 376.848L396.376 376.92C396.205 377.757 395.944 378.525 395.592 379.224C395.245 379.923 394.816 380.52 394.304 381.016C394.08 380.605 393.867 380.267 393.664 380C393.461 379.733 393.248 379.496 393.024 379.288C393.387 379 393.677 378.675 393.896 378.312C394.115 377.944 394.285 377.499 394.408 376.976H393.672L393.656 375.384L394.64 375.376L394.672 374.888H396.6C396.6 374.984 396.595 375.123 396.584 375.304C397.128 375.267 397.565 375.232 397.896 375.2V376.152C398.632 376.035 399.373 375.976 400.12 375.976H400.408L400.632 377.656C400.541 377.651 400.403 377.648 400.216 377.648C399.341 377.648 398.392 377.739 397.368 377.92V376.848ZM397.76 378.248C397.723 378.472 397.704 378.629 397.704 378.72C397.704 378.933 397.752 379.077 397.848 379.152C397.944 379.227 398.096 379.264 398.304 379.264C398.683 379.264 399.107 379.235 399.576 379.176C400.051 379.117 400.411 379.045 400.656 378.96C400.512 379.408 400.411 380.037 400.352 380.848C400.128 380.901 399.861 380.944 399.552 380.976C399.243 381.003 398.928 381.016 398.608 381.016C398.464 381.016 398.275 381.011 398.04 381C396.648 380.925 395.952 380.475 395.952 379.648C395.952 379.344 396.045 378.989 396.232 378.584C396.563 378.547 396.861 378.499 397.128 378.44C397.4 378.376 397.611 378.312 397.76 378.248ZM408.896 377.792C408.917 378.411 408.805 378.965 408.56 379.456C408.32 379.941 407.984 380.323 407.552 380.6C407.125 380.872 406.656 381.008 406.144 381.008C405.573 381.008 405.149 380.896 404.872 380.672C404.595 380.443 404.456 380.101 404.456 379.648C404.456 379.595 404.461 379.499 404.472 379.36C404.493 379.157 404.504 379.021 404.504 378.952C404.504 378.803 404.483 378.691 404.44 378.616C404.397 378.536 404.325 378.496 404.224 378.496C404.091 378.496 403.965 378.573 403.848 378.728C403.736 378.883 403.645 379.123 403.576 379.448L403.256 380.96C403.181 380.949 403.123 380.944 403.08 380.944C402.259 380.853 401.613 380.811 401.144 380.816C401.293 380.144 401.597 379.163 402.056 377.872C402.515 376.581 402.915 375.533 403.256 374.728L405.544 374.952C405.416 375.197 405.272 375.456 405.112 375.728C404.904 376.101 404.741 376.397 404.624 376.616C404.512 376.835 404.411 377.064 404.32 377.304C404.677 377.197 404.963 377.144 405.176 377.144C405.528 377.144 405.813 377.237 406.032 377.424C406.251 377.611 406.36 377.861 406.36 378.176C406.36 378.299 406.349 378.411 406.328 378.512C406.307 378.613 406.277 378.725 406.24 378.848C406.208 378.965 406.192 379.032 406.192 379.048C406.192 379.096 406.216 379.12 406.264 379.12C406.403 379.12 406.517 379.083 406.608 379.008C406.699 378.933 406.779 378.773 406.848 378.528C406.923 378.283 406.989 377.907 407.048 377.4C407.331 377.549 407.621 377.653 407.92 377.712C408.224 377.765 408.549 377.792 408.896 377.792Z" fill="black"/>
<path d="M380.536 171.84C381.144 171.84 381.595 171.891 381.888 171.992C382.181 172.088 382.381 172.267 382.488 172.528C382.6 172.789 382.656 173.192 382.656 173.736C382.656 174.435 382.645 174.957 382.624 175.304C382.603 175.645 382.56 175.907 382.496 176.088C382.437 176.269 382.344 176.429 382.216 176.568C382.077 176.717 381.824 176.835 381.456 176.92C381.088 177 380.565 177.059 379.888 177.096C379.803 176.509 379.693 176.053 379.56 175.728C379.443 176.091 379.285 176.52 379.088 177.016C378.416 176.776 377.723 176.589 377.008 176.456C377.349 175.944 377.616 175.464 377.808 175.016C378 174.563 378.141 174.064 378.232 173.52L377.248 173.616C377.259 173.019 377.187 172.456 377.032 171.928C377.608 171.907 378.056 171.893 378.376 171.888C378.381 171.68 378.384 171.349 378.384 170.896H380.352C380.341 171.157 380.32 171.472 380.288 171.84H380.536ZM384.16 171.264C384.4 172.08 384.573 172.776 384.68 173.352C384.787 173.928 384.88 174.688 384.96 175.632L383.08 175.896C383.053 175.011 382.981 174.243 382.864 173.592C382.752 172.941 382.563 172.211 382.296 171.4L384.16 171.264ZM380.68 175.216C380.749 175.163 380.803 175.037 380.84 174.84C380.883 174.643 380.904 174.389 380.904 174.08C380.904 173.861 380.891 173.707 380.864 173.616C380.843 173.525 380.795 173.467 380.72 173.44C380.651 173.408 380.528 173.392 380.352 173.392C380.251 173.392 380.168 173.395 380.104 173.4C379.992 174.093 379.856 174.712 379.696 175.256C379.925 175.283 380.107 175.296 380.24 175.296C380.475 175.296 380.621 175.269 380.68 175.216ZM390.72 176.328C390.597 175.261 390.413 174.347 390.168 173.584C389.923 172.816 389.605 172.099 389.216 171.432L391.088 171.152C391.525 171.824 391.877 172.509 392.144 173.208C392.411 173.907 392.653 174.784 392.872 175.84L390.72 176.328ZM389.352 175.536C389.027 175.915 388.608 176.237 388.096 176.504C387.589 176.771 387.117 176.904 386.68 176.904C386.435 176.904 386.203 176.848 385.984 176.736C385.771 176.624 385.592 176.445 385.448 176.2C385.309 175.949 385.237 175.632 385.232 175.248C385.227 174.709 385.259 174.219 385.328 173.776C385.397 173.328 385.517 172.725 385.688 171.968L385.832 171.336L387.976 171.432C387.789 172.072 387.651 172.587 387.56 172.976C387.469 173.365 387.384 173.845 387.304 174.416C387.293 174.512 387.288 174.573 387.288 174.6C387.288 174.712 387.315 174.768 387.368 174.768C387.443 174.768 387.576 174.664 387.768 174.456C387.965 174.248 388.261 173.896 388.656 173.4C388.72 173.88 388.805 174.288 388.912 174.624C389.024 174.955 389.171 175.259 389.352 175.536ZM400.064 171.488C399.947 171.104 399.771 170.717 399.536 170.328L400.272 170.136C400.512 170.515 400.693 170.901 400.816 171.296L400.064 171.488ZM399.096 171.728C398.979 171.344 398.803 170.96 398.568 170.576L399.304 170.384C399.533 170.752 399.712 171.139 399.84 171.544L399.096 171.728ZM397.368 172.848L396.376 172.92C396.205 173.757 395.944 174.525 395.592 175.224C395.245 175.923 394.816 176.52 394.304 177.016C394.08 176.605 393.867 176.267 393.664 176C393.461 175.733 393.248 175.496 393.024 175.288C393.387 175 393.677 174.675 393.896 174.312C394.115 173.944 394.285 173.499 394.408 172.976H393.672L393.656 171.384L394.64 171.376L394.672 170.888H396.6C396.6 170.984 396.595 171.123 396.584 171.304C397.128 171.267 397.565 171.232 397.896 171.2V172.152C398.632 172.035 399.373 171.976 400.12 171.976H400.408L400.632 173.656C400.541 173.651 400.403 173.648 400.216 173.648C399.341 173.648 398.392 173.739 397.368 173.92V172.848ZM397.76 174.248C397.723 174.472 397.704 174.629 397.704 174.72C397.704 174.933 397.752 175.077 397.848 175.152C397.944 175.227 398.096 175.264 398.304 175.264C398.683 175.264 399.107 175.235 399.576 175.176C400.051 175.117 400.411 175.045 400.656 174.96C400.512 175.408 400.411 176.037 400.352 176.848C400.128 176.901 399.861 176.944 399.552 176.976C399.243 177.003 398.928 177.016 398.608 177.016C398.464 177.016 398.275 177.011 398.04 177C396.648 176.925 395.952 176.475 395.952 175.648C395.952 175.344 396.045 174.989 396.232 174.584C396.563 174.547 396.861 174.499 397.128 174.44C397.4 174.376 397.611 174.312 397.76 174.248ZM408.896 173.792C408.917 174.411 408.805 174.965 408.56 175.456C408.32 175.941 407.984 176.323 407.552 176.6C407.125 176.872 406.656 177.008 406.144 177.008C405.573 177.008 405.149 176.896 404.872 176.672C404.595 176.443 404.456 176.101 404.456 175.648C404.456 175.595 404.461 175.499 404.472 175.36C404.493 175.157 404.504 175.021 404.504 174.952C404.504 174.803 404.483 174.691 404.44 174.616C404.397 174.536 404.325 174.496 404.224 174.496C404.091 174.496 403.965 174.573 403.848 174.728C403.736 174.883 403.645 175.123 403.576 175.448L403.256 176.96C403.181 176.949 403.123 176.944 403.08 176.944C402.259 176.853 401.613 176.811 401.144 176.816C401.293 176.144 401.597 175.163 402.056 173.872C402.515 172.581 402.915 171.533 403.256 170.728L405.544 170.952C405.416 171.197 405.272 171.456 405.112 171.728C404.904 172.101 404.741 172.397 404.624 172.616C404.512 172.835 404.411 173.064 404.32 173.304C404.677 173.197 404.963 173.144 405.176 173.144C405.528 173.144 405.813 173.237 406.032 173.424C406.251 173.611 406.36 173.861 406.36 174.176C406.36 174.299 406.349 174.411 406.328 174.512C406.307 174.613 406.277 174.725 406.24 174.848C406.208 174.965 406.192 175.032 406.192 175.048C406.192 175.096 406.216 175.12 406.264 175.12C406.403 175.12 406.517 175.083 406.608 175.008C406.699 174.933 406.779 174.773 406.848 174.528C406.923 174.283 406.989 173.907 407.048 173.4C407.331 173.549 407.621 173.653 407.92 173.712C408.224 173.765 408.549 173.792 408.896 173.792Z" fill="black"/>
<path d="M16.036 42.36C13.492 42.36 11.152 41.736 9.016 40.488C6.88 39.216 5.176 37.512 3.904 35.376C2.656 33.24 2.032 30.9 2.032 28.356C2.032 25.812 2.656 23.472 3.904 21.336C5.176 19.2 6.88 17.508 9.016 16.26C11.152 15.012 13.492 14.388 16.036 14.388C18.556 14.388 20.884 15.012 23.02 16.26C25.18 17.508 26.884 19.2 28.132 21.336C29.38 23.472 30.004 25.812 30.004 28.356C30.004 30.9 29.38 33.24 28.132 35.376C26.884 37.512 25.18 39.216 23.02 40.488C20.884 41.736 18.556 42.36 16.036 42.36ZM35.692 14.82H68.38V42.072H61.144V41.712H42.928V42.072H35.692V14.82ZM42.928 20.544V22.2L47.752 21.552C47.944 22.584 48.136 23.46 48.328 24.18C48.544 24.9 48.808 25.524 49.12 26.052L49.624 25.692C49.048 24.372 48.76 22.932 48.76 21.372L54.232 21.12C54.16 22.632 54.292 23.832 54.628 24.72C54.988 23.928 55.42 22.536 55.924 20.544H42.928ZM57.508 20.544L61.144 22.956V20.544H57.508ZM45.952 28.392L47.788 27.06L44.584 27.672C43.96 26.808 43.408 25.68 42.928 24.288V30.408C44.536 30.288 46.06 30.048 47.5 29.688L45.952 28.392ZM61.144 24.324C60.76 25.356 60.34 26.28 59.884 27.096C59.452 27.888 58.912 28.644 58.264 29.364C59.032 29.532 59.992 29.652 61.144 29.724V24.324ZM52.9 27.24C53.404 26.784 53.812 26.268 54.124 25.692L51.172 25.98C51.556 26.292 52.132 26.712 52.9 27.24ZM61.144 35.196V31.416C60.52 32.304 59.824 33.564 59.056 35.196H61.144ZM42.928 35.196H46.348C45.364 34.164 44.224 33.072 42.928 31.92V35.196ZM57.22 35.196C55.78 34.668 54.352 34.032 52.936 33.288C51.712 33.888 49.984 34.524 47.752 35.196H57.22ZM91.888 27.708V28.32H105.352V31.776H70.648V28.32H84.112V27.708H72.304V25.692H84.112V25.08H72.808V22.128H84.112V21.516H71.476V18.852H84.112V18.204H72.808V15.252H84.112V14.424H91.888V15.252H102.688V18.024H104.524V22.344H102.688V25.08H91.888V25.692H103.696V27.708H91.888ZM95.416 18.204H91.888V18.852H95.416V18.204ZM95.416 21.516H91.888V22.128H95.416V21.516ZM73.312 32.388H102.688V42.18H95.416V41.64H80.584V42.18H73.312V32.388ZM80.584 35.592H95.416V34.98H80.584V35.592ZM80.584 38.472H95.416V37.86H80.584V38.472ZM140.164 31.344H130.516V32.1H140.74V42.072H134.332V41.568H130.516V42.072H124.324V38.076C123.58 39.108 122.728 40.56 121.768 42.432C120.28 41.424 119.212 40.644 118.564 40.092C117.412 40.356 114.904 40.884 111.04 41.676C108.976 42.084 107.98 42.276 108.052 42.252C107.74 40.836 107.44 39.636 107.152 38.652C106.888 37.644 106.528 36.6 106.072 35.52C106.456 35.544 107.056 35.556 107.872 35.556V25.404L106.936 25.908C106.864 24.804 106.684 23.64 106.396 22.416C106.108 21.168 105.736 20.028 105.28 18.996C106.792 18.66 108.292 18.048 109.78 17.16C111.292 16.248 112.42 15.324 113.164 14.388H120.22C119.98 14.82 119.704 15.276 119.392 15.756C120.616 16.38 121.876 16.944 123.172 17.448V16.296H128.14V14.532H135.232V16.296H141.28V24.432H140.164V31.344ZM117.88 20.256L116.62 19.14L115.432 20.256H117.88ZM123.172 22.704V20.904C122.764 21.528 122.416 22.128 122.128 22.704H123.172ZM134.872 21.804V21.084H129.328V21.804H134.872ZM114.1 21.372C113.236 22.02 112.624 22.464 112.264 22.704H114.1V21.372ZM120.76 22.704L119.176 21.408V22.704H120.76ZM120.292 34.08C121.756 35.16 123.1 36.06 124.324 36.78V24.432H123.172V34.08H120.292ZM117.268 25.476H114.172V26.34H117.268V25.476ZM130.516 27.06H133.72V25.944H130.516V27.06ZM114.172 29.4V30.264H117.268V29.4H114.172ZM118.636 34.08H114.172V35.34C115.636 35.196 116.956 35.016 118.132 34.8L118.636 34.08ZM134.332 37.104V35.988H130.516V37.104H134.332ZM177.712 35.268C176.44 37.668 175.768 39.924 175.696 42.036C174.424 41.82 173.212 41.424 172.06 40.848C170.908 40.248 169.876 39.54 168.964 38.724V42.324H162.088V38.616C160.144 40.32 157.912 41.46 155.392 42.036C154.96 40.044 154.036 38.184 152.62 36.456V42.216H145.528V34.908C145.048 36.708 144.4 38.304 143.584 39.696C143.272 35.928 142.708 32.688 141.892 29.976C143.284 28.968 144.496 27.432 145.528 25.368V24.864H143.188V17.736H145.528V14.568H152.62V17.736H153.7V15.396H162.088V14.424H168.964V15.396H177.316V20.94H168.964V21.66H176.416V34.008H170.188C172.204 34.752 174.712 35.172 177.712 35.268ZM154.168 24.864H152.62V25.044L153.844 26.376C154.348 26.952 154.612 27.252 154.636 27.276V21.66H162.088V20.94H154.168V24.864ZM163.348 26.34V25.224H161.224V26.34H163.348ZM167.704 26.34H169.792V25.224H167.704V26.34ZM163.348 29.256H161.224V30.372H163.348V29.256ZM167.704 29.256V30.372H169.792V29.256H167.704ZM152.62 35.628C156.268 35.244 159.028 34.704 160.9 34.008H154.636V30.408L153.232 34.152L152.62 31.38V35.628Z" fill="black"/>
<path d="M62.0533 305.56C63.4933 305.528 64.5573 305.496 65.2453 305.464V310H52.5493V305.464C54.2773 305.528 55.5813 305.56 56.4613 305.56V297.28C55.8853 298.544 54.7093 299.36 52.9333 299.728C52.8853 297.84 52.7093 296.12 52.4053 294.568C53.6853 294.392 54.5733 294.176 55.0693 293.92C55.5813 293.648 55.9733 293.352 56.2453 293.032C56.5333 292.712 56.7253 292.496 56.8213 292.384V292.336H62.0533V305.56ZM83.8667 300.232H88.4027V310.024H83.9867V309.592H79.5467V310.024H75.1067V306.184C74.8507 307.08 74.4107 307.76 73.7867 308.224C73.1627 308.688 72.3947 308.904 71.4827 308.872C71.2587 307.24 70.9627 306.024 70.5947 305.224V309.904H66.4907V291.976H74.3627L75.4667 295.48L75.1067 296.536L75.7307 296.512V291.592H79.8347V292.48H81.3947V295.264H79.8347V296.104L81.2267 295.84L81.4907 298.96C81.2507 299.024 81.0427 299.064 80.8667 299.08L82.2587 299.176C82.0987 299.064 81.9867 298.912 81.9227 298.72C81.8747 298.512 81.8507 298.224 81.8507 297.856V291.592H85.9787V292.456L88.4747 292.288V294.952L85.9787 295.048V295.768C85.9787 295.944 86.0027 296.064 86.0507 296.128C86.0987 296.176 86.1787 296.2 86.2907 296.2C86.4187 296.2 86.4827 296.12 86.4827 295.96C86.4827 295.816 86.4347 295.568 86.3387 295.216C86.6587 295.36 86.9787 295.456 87.2987 295.504C87.6187 295.552 88.1307 295.608 88.8347 295.672C88.8027 296.824 88.7467 297.64 88.6667 298.12C88.6027 298.584 88.4827 298.904 88.3067 299.08C88.1307 299.256 87.8187 299.392 87.3707 299.488C87.0827 299.536 86.5227 299.56 85.6907 299.56C84.9707 299.56 84.4507 299.552 84.1307 299.536L83.8667 300.232ZM70.5947 296.032V298.864C71.0747 297.76 71.3227 296.816 71.3387 296.032H70.5947ZM73.8587 300.04C74.4827 301.08 74.8987 302 75.1067 302.8V300.232H79.4987L79.8347 299.272C78.6507 299.448 77.2187 299.616 75.5387 299.776L74.9627 299.848L74.4347 298.528C74.1787 299.232 73.9867 299.736 73.8587 300.04ZM70.5947 304.408C70.8027 304.312 70.9627 304.168 71.0747 303.976C71.2027 303.784 71.2667 303.552 71.2667 303.28C71.2667 302.768 71.0427 302.152 70.5947 301.432V304.408ZM79.5467 303.856H83.9867V303.352H79.5467V303.856ZM79.5467 306.544H83.9867V306.04H79.5467V306.544Z" fill="black"/>
<path d="M55.4645 90.8C60.6645 90.512 64.6965 90.192 67.5605 89.84C67.2885 90.672 67.0805 91.552 66.9365 92.48C66.7925 93.408 66.7205 94.248 66.7205 95H49.5605L49.5365 94.496C49.5365 92.928 49.9925 91.568 50.9045 90.416C51.8325 89.264 53.1205 88.2 54.7685 87.224C55.2485 86.936 56.0005 86.568 57.0245 86.12C58.3525 85.544 59.3765 85.04 60.0965 84.608C60.8165 84.16 61.1765 83.72 61.1765 83.288C61.1765 82.744 60.9525 82.312 60.5045 81.992C60.0565 81.672 59.3605 81.512 58.4165 81.512C57.3765 81.512 56.5845 81.776 56.0405 82.304C55.5125 82.832 55.2485 83.504 55.2485 84.32C55.2485 84.576 55.2725 84.84 55.3205 85.112C53.3045 84.856 51.3445 84.68 49.4405 84.584C49.4405 83.224 49.7925 82 50.4965 80.912C51.2165 79.808 52.2885 78.936 53.7125 78.296C55.1525 77.656 56.9125 77.336 58.9925 77.336C60.8965 77.336 62.4805 77.6 63.7445 78.128C65.0245 78.64 65.9605 79.296 66.5525 80.096C67.1605 80.88 67.4645 81.688 67.4645 82.52C67.4645 83.48 67.2485 84.304 66.8165 84.992C66.4005 85.68 65.7925 86.296 64.9925 86.84C64.2085 87.368 63.1525 87.944 61.8245 88.568C61.6325 88.664 61.3205 88.776 60.8885 88.904C60.4565 89.016 60.1845 89.088 60.0725 89.12C58.9365 89.456 58.0325 89.736 57.3605 89.96C56.6885 90.184 56.0565 90.464 55.4645 90.8ZM86.8315 85.232H91.3675V95.024H86.9515V94.592H82.5115V95.024H78.0715V91.184C77.8155 92.08 77.3755 92.76 76.7515 93.224C76.1275 93.688 75.3595 93.904 74.4475 93.872C74.2235 92.24 73.9275 91.024 73.5595 90.224V94.904H69.4555V76.976H77.3275L78.4315 80.48L78.0715 81.536L78.6955 81.512V76.592H82.7995V77.48H84.3595V80.264H82.7995V81.104L84.1915 80.84L84.4555 83.96C84.2155 84.024 84.0075 84.064 83.8315 84.08L85.2235 84.176C85.0635 84.064 84.9515 83.912 84.8875 83.72C84.8395 83.512 84.8155 83.224 84.8155 82.856V76.592H88.9435V77.456L91.4395 77.288V79.952L88.9435 80.048V80.768C88.9435 80.944 88.9675 81.064 89.0155 81.128C89.0635 81.176 89.1435 81.2 89.2555 81.2C89.3835 81.2 89.4475 81.12 89.4475 80.96C89.4475 80.816 89.3995 80.568 89.3035 80.216C89.6235 80.36 89.9435 80.456 90.2635 80.504C90.5835 80.552 91.0955 80.608 91.7995 80.672C91.7675 81.824 91.7115 82.64 91.6315 83.12C91.5675 83.584 91.4475 83.904 91.2715 84.08C91.0955 84.256 90.7835 84.392 90.3355 84.488C90.0475 84.536 89.4875 84.56 88.6555 84.56C87.9355 84.56 87.4155 84.552 87.0955 84.536L86.8315 85.232ZM73.5595 81.032V83.864C74.0395 82.76 74.2875 81.816 74.3035 81.032H73.5595ZM76.8235 85.04C77.4475 86.08 77.8635 87 78.0715 87.8V85.232H82.4635L82.7995 84.272C81.6155 84.448 80.1835 84.616 78.5035 84.776L77.9275 84.848L77.3995 83.528C77.1435 84.232 76.9515 84.736 76.8235 85.04ZM73.5595 89.408C73.7675 89.312 73.9275 89.168 74.0395 88.976C74.1675 88.784 74.2315 88.552 74.2315 88.28C74.2315 87.768 74.0075 87.152 73.5595 86.432V89.408ZM82.5115 88.856H86.9515V88.352H82.5115V88.856ZM82.5115 91.544H86.9515V91.04H82.5115V91.544Z" fill="black"/>
<path d="M315.312 383.896C316.064 383.896 316.675 383.864 317.144 383.8L317.008 383.64C316.619 383.731 316.189 383.797 315.72 383.84C315.688 383.637 315.637 383.432 315.568 383.224C315.504 383.016 315.411 382.752 315.288 382.432C315.992 382.432 316.587 382.389 317.072 382.304C317.563 382.213 318.021 382.072 318.448 381.88H320.56C320.475 381.955 320.384 382.029 320.288 382.104H321.536L321.72 383.072C321.523 383.243 321.245 383.427 320.888 383.624C320.536 383.816 320.259 383.96 320.056 384.056C319.437 384.344 318.771 384.579 318.056 384.76C317.341 384.936 316.523 385.083 315.6 385.2C315.477 384.837 315.291 384.403 315.04 383.896H315.312ZM318.304 383.24C318.384 383.315 318.477 383.387 318.584 383.456C318.851 383.36 319.093 383.245 319.312 383.112H318.616C318.541 383.149 318.437 383.192 318.304 383.24ZM322.52 384.304L322.96 385.688C322.416 386.211 321.789 386.656 321.08 387.024C320.392 387.376 319.624 387.624 318.776 387.768C317.933 387.907 316.941 387.989 315.8 388.016C315.688 387.424 315.491 386.877 315.208 386.376C315.539 386.413 315.915 386.443 316.336 386.464C316.219 386.261 316.093 386.077 315.96 385.912C315.832 385.741 315.672 385.571 315.48 385.4C316.632 385.272 317.704 385.053 318.696 384.744C319.693 384.435 320.523 384.064 321.184 383.632L322.312 383.904C322.253 383.957 322.099 384.091 321.848 384.304H322.52ZM320.144 385.416L319.84 385.568C319.936 385.669 320.037 385.763 320.144 385.848C320.389 385.752 320.635 385.608 320.88 385.416H320.144ZM318.704 386.272C318.645 386.213 318.592 386.152 318.544 386.088C318.075 386.243 317.627 386.368 317.2 386.464C317.723 386.443 318.224 386.379 318.704 386.272ZM323.456 388.024V382H330.624V388.024H328.72V387.92H325.36V388.024H323.456ZM328.72 383.656V383.36H325.36V383.656H328.72ZM328.72 385.048V384.752H325.36V385.048H328.72ZM325.36 386.144V386.44H328.72V386.144H325.36ZM338.672 382.072C338.688 382.749 338.696 383.411 338.696 384.056C338.696 384.691 338.688 385.301 338.672 385.888C338.661 386.331 338.587 386.701 338.448 387C338.309 387.299 338.003 387.555 337.528 387.768C337.059 387.981 336.355 388.112 335.416 388.16C335.416 387.872 335.371 387.579 335.28 387.28C335.195 386.981 335.069 386.709 334.904 386.464V387.768H332.936V387.888H331.36V382.312H332.368L332.448 381.88H333.968L333.88 382.312H334.904V383.376C335.027 383.189 335.112 382.979 335.16 382.744C335.213 382.509 335.243 382.224 335.248 381.888H336.88V382.072H338.672ZM336.68 383.56C336.589 383.923 336.493 384.216 336.392 384.44C336.605 384.755 336.811 385.128 337.008 385.56C337.024 385.197 337.032 384.84 337.032 384.488L337.024 383.56H336.68ZM333.336 384.328V383.68H332.936V384.328H333.336ZM334.904 386.368C335.523 386.357 335.971 386.336 336.248 386.304C336.525 386.272 336.717 386.216 336.824 386.136C336.931 386.051 336.989 385.917 337 385.736L335.792 386.288C335.685 386 335.549 385.699 335.384 385.384C335.219 385.069 335.067 384.816 334.928 384.624L335.376 384.416C335.253 384.24 335.096 384.056 334.904 383.864V386.368ZM332.936 385.632V386.32H333.336V385.632H332.936ZM322.768 396.584C322.587 396.872 322.448 397.157 322.352 397.44C322.256 397.717 322.149 398.083 322.032 398.536C320.933 398.141 319.643 397.795 318.16 397.496V400.04H315.904C315.941 399.144 315.963 398.248 315.968 397.352C315.979 396.456 315.984 395.336 315.984 393.992H318.16V395.648C318.864 395.733 319.632 395.861 320.464 396.032C321.301 396.203 322.069 396.387 322.768 396.584ZM330.968 394.744C330.605 395.224 330.245 395.621 329.888 395.936C329.536 396.245 329.115 396.525 328.624 396.776V399.968H326.408V397.472C325.667 397.605 324.72 397.712 323.568 397.792C323.525 397.376 323.475 397.016 323.416 396.712C323.363 396.408 323.267 396.091 323.128 395.76C323.971 395.765 324.715 395.739 325.36 395.68C326.005 395.621 326.536 395.515 326.952 395.36C327.811 395.035 328.477 394.544 328.952 393.888L330.968 394.744ZM337.328 394.808C337.568 395.101 337.816 395.357 338.072 395.576C338.333 395.795 338.627 396 338.952 396.192C338.387 397.104 337.616 397.912 336.64 398.616C335.669 399.315 334.456 399.795 333 400.056L331.512 399.008V394.128H333.664V397.848C334.384 397.683 335.059 397.344 335.688 396.832C336.323 396.32 336.869 395.645 337.328 394.808Z" fill="black"/>
<path d="M315.234 452.946V455.298H311.902C312.126 455.531 312.238 455.774 312.238 456.026C312.238 456.399 312.065 456.735 311.72 457.034C311.375 457.333 310.871 457.571 310.208 457.748C309.545 457.916 308.757 458 307.842 458C307.441 458 306.974 457.981 306.442 457.944C305.91 457.897 305.177 457.823 304.244 457.72C304.244 457.216 304.207 456.777 304.132 456.404C304.057 456.031 303.941 455.662 303.782 455.298H301.766V452.946H308.836C309.051 452.871 309.265 452.769 309.48 452.638H303.81V452.218H302.144V448.424H303.432L303.18 447.584L306.092 447.36L306.372 448.424H307.1L306.82 447.304L309.732 447.08L310.04 448.424H310.6L310.88 447.36L313.792 447.584L313.54 448.424H314.856V452.218H313.204L313.26 452.47L312.7 452.582C312.42 452.666 312.028 452.787 311.524 452.946H315.234ZM304.93 450.678H312.07V450.426H304.93V450.678ZM304.3 455.298C305.56 455.531 306.601 455.648 307.422 455.648C308.234 455.648 308.701 455.531 308.822 455.298H304.3ZM324.404 455.186H328.87V457.888H316.13V455.186H320.764V454.374H317.208V453.24L316.858 453.562C316.625 452.881 316.401 452.297 316.186 451.812C315.981 451.317 315.733 450.841 315.444 450.384C315.92 450.057 316.298 449.628 316.578 449.096C316.867 448.564 317.017 447.967 317.026 447.304L320.19 447.332C320.115 447.864 320.059 448.205 320.022 448.354H320.764V447.332H324.404V448.354H328.59V450.958H324.404V451.77H328.212V454.374H324.404V455.186ZM320.764 451.77V450.958H319.014C318.855 451.238 318.683 451.509 318.496 451.77H320.764ZM330.158 447.458H334.834V448.858H330.158V447.458ZM343.234 453.366V455.214H340.686C341.106 455.335 341.549 455.429 342.016 455.494C342.483 455.55 342.884 455.573 343.22 455.564C343.071 455.863 342.945 456.171 342.842 456.488C342.749 456.805 342.641 457.207 342.52 457.692L342.422 458.098C342.17 458.023 341.839 457.869 341.428 457.636C341.017 457.403 340.621 457.132 340.238 456.824V458.126H337.802V456.922C337.055 457.585 336.271 457.977 335.45 458.098C335.291 457.407 335.151 456.871 335.03 456.488V457.916H332.272V458.084H330.074V454.248H335.016V453.366H337.802V453.072H335.17V447.528H342.954V453.072H340.238V453.366H343.234ZM329.892 449.096H334.96V450.65H329.892V449.096ZM338.152 449.614V449.194H337.438V449.614H338.152ZM339.958 449.614H340.686V449.194H339.958V449.614ZM330.158 450.888H334.834V452.33H330.158V450.888ZM338.152 451.084H337.438V451.504H338.152V451.084ZM339.958 451.084V451.504H340.686V451.084H339.958ZM334.834 454.01H330.158V452.54H334.834V454.01ZM335.03 455.564C335.982 455.555 336.78 455.438 337.424 455.214H335.03V455.564ZM332.272 455.662V456.292H332.832V455.662H332.272Z" fill="black"/>
<path d="M419.048 307.848C419.04 309.04 419.404 309.976 420.14 310.656C420.876 311.336 422.004 311.828 423.524 312.132C423.3 312.492 423.104 312.864 422.936 313.248C422.768 313.632 422.58 314.108 422.372 314.676C422.324 314.788 422.26 314.956 422.18 315.18C421.22 314.932 420.324 314.504 419.492 313.896C418.66 313.28 417.996 312.508 417.5 311.58C416.996 312.5 416.324 313.268 415.484 313.884C414.652 314.5 413.764 314.932 412.82 315.18C412.74 314.956 412.676 314.788 412.628 314.676C412.42 314.108 412.232 313.632 412.064 313.248C411.896 312.864 411.7 312.492 411.476 312.132C412.916 311.844 414 311.384 414.728 310.752C415.464 310.12 415.864 309.26 415.928 308.172H414.332V305.7H418.856V305.724H419.06L419.048 307.848ZM424.052 306.12H434.972V315.096H432.044V314.808H426.98V315.096H424.052V306.12ZM426.98 312.48H432.044V308.436H426.98V312.48Z" fill="black"/>
</svg>
