<?xml version="1.0" encoding="utf-8"?>
<!-- Generator: Adobe Illustrator 26.1.0, SVG Export Plug-In . SVG Version: 6.00 Build 0)  -->
<svg version="1.1" id="logo_00000152256466475496654580000011528719097944234141_"
	 xmlns="http://www.w3.org/2000/svg" xmlns:xlink="http://www.w3.org/1999/xlink" x="0px" y="0px" width="399.9px" height="65px"
	 viewBox="0 0 399.9 65" style="enable-background:new 0 0 399.9 65;" xml:space="preserve">
<style type="text/css">
	.st0{fill:#FFFFFF;}
	.st1{fill:none;stroke:#FFFFFF;stroke-width:1.4902;stroke-miterlimit:10;}
	.st2{fill:#FFFFFF;}
	.st3{fill:#FFFFFF;}
	.st4{fill:#FFFFFF;}
</style>
<g>
	<g id="原寸_1_">
		<path class="st0" d="M27.7,30c-6-4.5-6.4-12.2-6.4-12.3l0.5,0c0,0.1,0.4,7.6,6.2,11.9L27.7,30z"/>
		<path class="st0" d="M28.3,29.1c-3.8-6.1-3.1-13-3-13.3l0.5,0.1c0,0.3-0.7,7,3,13L28.3,29.1z"/>
		<path class="st0" d="M29.7,28.2c-3.2-7.6-0.7-13.4-0.6-13.5l0.4,0.2c0,0.1-2.5,5.7,0.6,13.1L29.7,28.2z"/>
		<path class="st1" d="M31.8,17.7"/>
		<path class="st0" d="M30.8,24.3c-0.1-5.6,2.3-10,2.3-10l0.4,0.2c0,0-2.4,4.3-2.2,9.8L30.8,24.3z"/>
		<path class="st0" d="M35,19.3l-0.5-0.1c0.9-3.1,2.5-4.5,2.6-4.5l0.3,0.4C37.5,15,35.9,16.4,35,19.3z"/>
		<path class="st0" d="M36.3,26l-0.4-0.2c3.7-6.7,8.7-8,8.9-8.1l0.1,0.5C44.8,18.1,39.8,19.5,36.3,26z"/>
		<path class="st0" d="M38.3,26.3L38,25.9c4.4-4.3,10-5.5,10-5.5l0.1,0.5C48,20.9,42.6,22.1,38.3,26.3z"/>
		<path class="st0" d="M37.8,28.3l-0.3-0.4c6.1-4.6,13.1-4.4,13.2-4.4l0,0.5C50.6,24,43.8,23.8,37.8,28.3z"/>
		<path class="st0" d="M39.1,30l-0.3-0.4c6.2-4.2,13.4-2.3,13.5-2.3l-0.1,0.5C52.1,27.7,45.1,25.9,39.1,30z"/>
		<path class="st0" d="M53,32c-0.1,0-5.8-3.1-12.5-1.2l-0.1-0.5c6.9-1.9,12.8,1.2,12.9,1.2L53,32z"/>
		<path class="st0" d="M52.4,39.8c0,0-4.1-4.9-11.6-6.2l0.1-0.5c7.7,1.3,11.9,6.3,11.9,6.3L52.4,39.8z"/>
		<path class="st0" d="M50.7,43.4l-0.3-0.1l0.2-0.1l-0.2,0.1c0-0.1-3.3-5.9-9.5-7.9l0.2-0.5c3.3,1.1,5.8,3.3,7.3,4.9
			c1.3,1.4,2.3,2.8,2.5,3.3l0,0l0,0c0,0.1,0,0.1,0,0.1L50.7,43.4z"/>
		<path class="st0" d="M48.2,47.1c0-0.1-3-8.3-8.6-10.4l0.2-0.5c5.8,2.2,8.8,10.4,8.9,10.7L48.2,47.1z"/>
		<path class="st0" d="M45.4,50c0-0.1-0.5-7.8-7.4-13.2l0.3-0.4c7.1,5.5,7.6,13.5,7.6,13.6L45.4,50z"/>
		<path class="st0" d="M42.1,51.9l-0.5-0.1c0-0.1,1.6-7.1-3.3-13.4l0.4-0.3C43.8,44.6,42.2,51.9,42.1,51.9z"/>
		<path class="st0" d="M34.8,53.5l-0.4-0.3c0,0,0.7-1.1,1.3-3.8l0.5,0.1C35.5,52.3,34.8,53.4,34.8,53.5z"/>
		<path class="st0" d="M29.8,53.5l-0.4-0.3c0,0,3.6-4,4.7-10l0.5,0.1C33.6,49.4,29.9,53.4,29.8,53.5z"/>
		<path class="st0" d="M26,52.4L25.7,52c0,0,4.3-2.7,6.5-8.6l0.5,0.2C30.5,49.7,26,52.4,26,52.4z"/>
		<path class="st0" d="M22.6,50.6l-0.1-0.5c0,0,4-1.3,7.8-6.7l0.4,0.3C26.8,49.3,22.8,50.6,22.6,50.6z"/>
		<path class="st0" d="M18.9,47.8l0-0.5c0.1,0,5.5-0.4,10-5.2l0.4,0.3C24.5,47.4,18.9,47.8,18.9,47.8z"/>
		<path class="st0" d="M18.6,41.4c-2.2,0-3.7-0.4-3.8-0.4l0.1-0.5c0.1,0,7.3,1.8,13.9-2.8l0.3,0.4C25.4,40.9,21.4,41.4,18.6,41.4z"
			/>
		<path class="st0" d="M27.7,37.3L27.7,37.3c-1.2,0.2-2.3,0.3-3.5,0.5c-1.2,0.1-2.3,0.2-3.5,0.1c-0.1,0-0.2,0-0.3,0
			c-4-0.3-6.4-1.8-6.4-1.8l-0.3,0.4c0.1,0.1,3,2,7.9,2c0.5,0,1,0,1.6-0.1c0.2,0,0.3,0,0.5,0c0.1,0,0.2,0,0.3,0l0,0
			c0.1,0,0.1,0,0.2,0C25.4,38.1,26.6,37.8,27.7,37.3z"/>
		<path class="st0" d="M24.5,36.4c-6.8,0-10.7-3.7-10.8-3.8l0.3-0.3c0,0,4.6,4.4,12.4,3.5l0.1,0.5C25.8,36.4,25.2,36.4,24.5,36.4z"
			/>
		<path class="st0" d="M26.7,35c-7.7-1.5-12-6.4-12-6.5l0.4-0.3c0,0,4.2,4.9,11.7,6.3L26.7,35z"/>
		<path class="st0" d="M25.8,32.5c-7-2.5-9.6-8.5-9.6-8.6l0.4-0.2c0,0.1,2.5,5.8,9.3,8.3L25.8,32.5z"/>
		<path class="st0" d="M25.8,31.6c-2.1-0.8-5-3-7.1-6.7c-1.5-2.7-3-7.2-1.4-12.8C20.4,1.4,30,0.1,34,0c2.7,0,6,1,8.8,2.9
			c2.3,1.6,5.4,4.4,6.8,9l-0.8,0.2c-2.2-7.7-10-11.3-14.6-11.3c0,0-0.1,0-0.1,0c-3.8,0.1-13,1.3-15.9,11.4
			c-1.5,5.4-0.1,9.6,1.3,12.2c1.9,3.5,4.7,5.6,6.7,6.3L25.8,31.6z"/>
		<path class="st0" d="M59.4,42.5L59,41.8c3.3-1.9,6.8-6.7,7.4-12.4c0.3-3.5-0.4-8.6-5.8-13.2c-4.8-4.1-9.9-4.2-13.3-3.6
			c-4.9,0.9-8.8,3.8-10.1,6.1l-0.7-0.4c1.4-2.5,5.4-5.5,10.6-6.5c3.6-0.7,8.9-0.6,14,3.8c5.6,4.8,6.4,10.2,6,13.9
			C66.6,35.4,62.9,40.5,59.4,42.5z"/>
		<path class="st0" d="M43.6,64.8c-3.6,0-7.2-1.2-10.3-3.5l0.5-0.6c4.4,3.3,9.9,4.2,15,2.5c5.1-1.8,9-6,10.3-11
			c1.4-5.2,0.2-10.6-3.1-14.5c-3.5-4.2-8.9-6.2-15.2-5.7l-0.1-0.8c6.5-0.5,12.2,1.6,15.8,6c3.5,4.2,4.7,9.9,3.3,15.3
			c-1.4,5.3-5.5,9.7-10.9,11.5C47.3,64.5,45.5,64.8,43.6,64.8z"/>
		<path class="st0" d="M23.1,64.9c-5.7,0-10.5-2.3-13.6-6.7c-3.3-4.6-4.1-10.9-2-16.1l0.7,0.3c-2,4.9-1.3,10.9,1.9,15.3
			c2.9,4.1,7.5,6.3,12.9,6.3c0.4,0,0.8,0,1.2,0c5.8-0.3,10.4-3.2,13.1-8c2.7-4.8,2.9-11.1,0.7-15.3l0.7-0.4
			c2.5,4.5,2.2,10.9-0.7,16.1c-2.8,5.1-7.7,8.1-13.8,8.4C23.9,64.8,23.5,64.9,23.1,64.9z"/>
		<path class="st0" d="M17,45.1c-0.3,0-0.6,0-0.9,0c-3.7-0.2-10.4-1.7-14.4-9.6l0,0c-2.6-5.9-2.2-11.8,1.2-16.6
			c3.4-4.8,9.3-7.7,15-7.2l-0.1,0.8c-5.4-0.4-11,2.3-14.2,6.9c-3.2,4.6-3.6,10.2-1.1,15.8c3.8,7.6,10.2,9,13.7,9.1
			c5.8,0.3,10.9-2.2,12.5-4.8l0.7,0.4C27.7,42.5,22.7,45.1,17,45.1z"/>
		<g>
			<path class="st0" d="M14.4,36.2c0,0.3-0.2,0.5-0.5,0.5c-0.3,0-0.5-0.2-0.5-0.5s0.2-0.5,0.5-0.5C14.1,35.8,14.4,36,14.4,36.2z"/>
			<path class="st0" d="M15.4,40.8c0,0.3-0.2,0.5-0.5,0.5c-0.3,0-0.5-0.2-0.5-0.5s0.2-0.5,0.5-0.5C15.2,40.4,15.4,40.6,15.4,40.8z"
				/>
			<path class="st0" d="M14.4,32.4c0,0.3-0.2,0.5-0.5,0.5c-0.3,0-0.5-0.2-0.5-0.5s0.2-0.5,0.5-0.5C14.1,32,14.4,32.2,14.4,32.4z"/>
			<path class="st0" d="M15.4,28.4c0,0.3-0.2,0.5-0.5,0.5c-0.3,0-0.5-0.2-0.5-0.5c0-0.3,0.2-0.5,0.5-0.5
				C15.2,27.9,15.4,28.1,15.4,28.4z"/>
			<path class="st0" d="M16.9,23.9c0,0.3-0.2,0.5-0.5,0.5c-0.3,0-0.5-0.2-0.5-0.5c0-0.3,0.2-0.5,0.5-0.5
				C16.7,23.4,16.9,23.6,16.9,23.9z"/>
			<path class="st0" d="M22,17.7c0,0.3-0.2,0.5-0.5,0.5c-0.3,0-0.5-0.2-0.5-0.5c0-0.3,0.2-0.5,0.5-0.5C21.8,17.2,22,17.4,22,17.7z"
				/>
			<path class="st0" d="M26,15.9c0,0.3-0.2,0.5-0.5,0.5c-0.3,0-0.5-0.2-0.5-0.5c0-0.3,0.2-0.5,0.5-0.5C25.8,15.4,26,15.6,26,15.9z"
				/>
			<path class="st0" d="M29.8,14.8c0,0.3-0.2,0.5-0.5,0.5c-0.3,0-0.5-0.2-0.5-0.5c0-0.3,0.2-0.5,0.5-0.5
				C29.6,14.3,29.8,14.5,29.8,14.8z"/>
			<path class="st0" d="M33.9,14.3c0,0.3-0.2,0.5-0.5,0.5c-0.3,0-0.5-0.2-0.5-0.5s0.2-0.5,0.5-0.5C33.7,13.8,33.9,14,33.9,14.3z"/>
			<path class="st0" d="M37.8,14.8c0,0.3-0.2,0.5-0.5,0.5c-0.3,0-0.5-0.2-0.5-0.5c0-0.3,0.2-0.5,0.5-0.5
				C37.6,14.3,37.8,14.5,37.8,14.8z"/>
			<path class="st0" d="M45.3,17.9c0,0.3-0.2,0.5-0.5,0.5c-0.3,0-0.5-0.2-0.5-0.5c0-0.3,0.2-0.5,0.5-0.5
				C45.1,17.4,45.3,17.6,45.3,17.9z"/>
			<path class="st0" d="M48.5,20.7c0,0.3-0.2,0.5-0.5,0.5c-0.3,0-0.5-0.2-0.5-0.5c0-0.3,0.2-0.5,0.5-0.5
				C48.3,20.2,48.5,20.4,48.5,20.7z"/>
			<path class="st0" d="M51.3,23.8c0,0.3-0.2,0.5-0.5,0.5c-0.3,0-0.5-0.2-0.5-0.5c0-0.3,0.2-0.5,0.5-0.5
				C51.1,23.3,51.3,23.5,51.3,23.8z"/>
			<path class="st0" d="M52.8,27.5c0,0.3-0.2,0.5-0.5,0.5c-0.3,0-0.5-0.2-0.5-0.5c0-0.3,0.2-0.5,0.5-0.5
				C52.6,27.1,52.8,27.3,52.8,27.5z"/>
			<path class="st0" d="M53.6,31.9c0,0.3-0.2,0.5-0.5,0.5c-0.3,0-0.5-0.2-0.5-0.5c0-0.3,0.2-0.5,0.5-0.5
				C53.4,31.4,53.6,31.6,53.6,31.9z"/>
			<path class="st0" d="M53.1,39.7c0,0.3-0.2,0.5-0.5,0.5c-0.3,0-0.5-0.2-0.5-0.5c0-0.3,0.2-0.5,0.5-0.5
				C52.9,39.2,53.1,39.4,53.1,39.7z"/>
			<path class="st0" d="M51.3,43.6c0,0.3-0.2,0.5-0.5,0.5c-0.3,0-0.5-0.2-0.5-0.5s0.2-0.5,0.5-0.5C51.1,43.1,51.3,43.3,51.3,43.6z"
				/>
			<path class="st0" d="M48.8,47c0,0.3-0.2,0.5-0.5,0.5c-0.3,0-0.5-0.2-0.5-0.5s0.2-0.5,0.5-0.5C48.6,46.5,48.8,46.7,48.8,47z"/>
			<path class="st0" d="M46.1,50c0,0.3-0.2,0.5-0.5,0.5c-0.3,0-0.5-0.2-0.5-0.5c0-0.3,0.2-0.5,0.5-0.5C45.9,49.5,46.1,49.8,46.1,50z
				"/>
			<path class="st0" d="M42.4,51.9c0,0.3-0.2,0.5-0.5,0.5c-0.3,0-0.5-0.2-0.5-0.5c0-0.3,0.2-0.5,0.5-0.5
				C42.2,51.4,42.4,51.6,42.4,51.9z"/>
			<path class="st0" d="M35,53.4c0,0.3-0.2,0.5-0.5,0.5c-0.3,0-0.5-0.2-0.5-0.5s0.2-0.5,0.5-0.5C34.8,52.9,35,53.1,35,53.4z"/>
			<path class="st0" d="M30.1,53.3c0,0.3-0.2,0.5-0.5,0.5c-0.3,0-0.5-0.2-0.5-0.5s0.2-0.5,0.5-0.5C29.9,52.9,30.1,53.1,30.1,53.3z"
				/>
			<path class="st0" d="M26.3,52.2c0,0.3-0.2,0.5-0.5,0.5c-0.3,0-0.5-0.2-0.5-0.5c0-0.3,0.2-0.5,0.5-0.5
				C26.1,51.8,26.3,52,26.3,52.2z"/>
			<path class="st0" d="M23,50.4c0,0.3-0.2,0.5-0.5,0.5c-0.3,0-0.5-0.2-0.5-0.5c0-0.3,0.2-0.5,0.5-0.5C22.8,49.9,23,50.1,23,50.4z"
				/>
			<path class="st0" d="M19.2,47.6c0,0.3-0.2,0.5-0.5,0.5c-0.3,0-0.5-0.2-0.5-0.5c0-0.3,0.2-0.5,0.5-0.5
				C19,47.2,19.2,47.4,19.2,47.6z"/>
		</g>
		<path class="st0" d="M27,35.8c-0.2-0.7-0.4-1.5-0.4-2.2c0-3.7,3-6.8,6.8-6.8c3.4,0,6.3,2.6,6.7,6l-0.2,0c-0.4-3.3-3.2-5.8-6.6-5.8
			c-3.6,0-6.6,3-6.6,6.6c0,0.7,0.1,1.5,0.4,2.2L27,35.8z"/>
		<g>
			<path class="st0" d="M26.4,19.8c4.8,0,9.6,0,14.4,0c1.3,0,1.3-1.9,0-1.9c-4.8,0-9.6,0-14.4,0C25.1,17.8,25.1,19.8,26.4,19.8
				L26.4,19.8z"/>
			<path class="st0" d="M31.4,22.4c1.6,0,3.2,0,4.8,0c1.3,0,1.3-1.9,0-1.9c-1.6,0-3.2,0-4.8,0C30.1,20.4,30.1,22.4,31.4,22.4
				L31.4,22.4z"/>
			<path class="st0" d="M31.6,29.9c1.6,0,3.2,0,4.8,0c1.3,0,1.3-1.9,0-1.9c-1.6,0-3.2,0-4.8,0C30.4,27.9,30.4,29.9,31.6,29.9
				L31.6,29.9z"/>
			<path class="st0" d="M31.6,32.3c1.6,0,3.1,0,4.7,0c1.3,0,1.3-1.9,0-1.9c-1.6,0-3.1,0-4.7,0C30.3,30.3,30.3,32.3,31.6,32.3
				L31.6,32.3z"/>
			<path class="st0" d="M27,27.5c4.5,0,9,0,13.5,0c1.3,0,1.3-1.9,0-1.9c-4.5,0-9,0-13.5,0C25.8,25.5,25.8,27.5,27,27.5L27,27.5z"/>
			<path class="st0" d="M32,24.9c1.2,0,2.4,0,3.6,0c1.3,0,1.3-1.9,0-1.9c-1.2,0-2.4,0-3.6,0C30.8,23,30.8,24.9,32,24.9L32,24.9z"/>
			<path class="st0" d="M30.1,19.2c0,1.4,0,2.8,0,4.2c0,1.3,1.9,1.3,1.9,0c0-1.4,0-2.8,0-4.2C32.1,18,30.1,18,30.1,19.2L30.1,19.2z"
				/>
			<path class="st0" d="M29.5,26.6c0,1.4,0,2.8,0,4.2c0,1.3,1.9,1.3,1.9,0c0-1.4,0-2.8,0-4.2C31.5,25.4,29.5,25.4,29.5,26.6
				L29.5,26.6z"/>
			<path class="st0" d="M36.2,26.6c0,1.4,0,2.8,0,4.2c0,1.3,1.9,1.3,1.9,0c0-1.4,0-2.8,0-4.2C38.1,25.4,36.2,25.4,36.2,26.6
				L36.2,26.6z"/>
			<path class="st0" d="M25.9,26.5c0,2.1-0.1,4.3-0.1,6.4c0,1.3,1.9,1.3,1.9,0c0-2.1,0.1-4.3,0.1-6.4C27.8,25.2,25.9,25.2,25.9,26.5
				L25.9,26.5z"/>
			<path class="st0" d="M39.7,26.5c0,2.1,0,4.3,0,6.4c0,1.3,1.9,1.3,1.9,0c0-2.1,0-4.3,0-6.4C41.6,25.3,39.7,25.3,39.7,26.5
				L39.7,26.5z"/>
			<path class="st0" d="M35.7,19.2c0,1.4,0,2.8,0,4.2c0,1.3,1.9,1.3,1.9,0c0-1.4,0-2.8,0-4.2C37.6,18,35.7,18,35.7,19.2L35.7,19.2z"
				/>
			<path class="st0" d="M29.4,39.3c2.7,0,5.5,0,8.2,0c1.3,0,1.3-1.9,0-1.9c-2.7,0-5.5,0-8.2,0C28.1,37.4,28.1,39.3,29.4,39.3
				L29.4,39.3z"/>
			<path class="st0" d="M29.4,41.8c2.7,0,5.5,0,8.2,0c1.3,0,1.3-1.9,0-1.9c-2.7,0-5.5,0-8.2,0C28.1,39.9,28.1,41.8,29.4,41.8
				L29.4,41.8z"/>
			<path class="st0" d="M29.8,44.3c2.4,0,4.9,0,7.3,0c1.3,0,1.3-1.9,0-1.9c-2.4,0-4.9,0-7.3,0C28.6,42.3,28.6,44.3,29.8,44.3
				L29.8,44.3z"/>
			<path class="st0" d="M26,47.3c5.1,0,10.2,0,15.3,0c1.3,0,1.3-1.9,0-1.9c-5.1,0-10.2,0-15.3,0C24.8,45.4,24.8,47.3,26,47.3
				L26,47.3z"/>
			<path class="st0" d="M25.8,36.8c5,0,10,0,15,0c1.3,0,1.3-1.9,0-1.9c-5,0-10,0-15,0C24.5,34.8,24.5,36.8,25.8,36.8L25.8,36.8z"/>
			<path class="st0" d="M27.9,35.8c0,2.3,0,4.7,0,7c0,1.3,1.9,1.3,1.9,0c0-2.3,0-4.7,0-7C29.9,34.5,27.9,34.5,27.9,35.8L27.9,35.8z"
				/>
			<path class="st0" d="M36.8,35.8c0,2.3,0,4.7,0,7c0,1.3,1.9,1.3,1.9,0c0-2.3,0-4.7,0-7C38.8,34.5,36.8,34.5,36.8,35.8L36.8,35.8z"
				/>
			<path class="st0" d="M32.1,36.1c0,2.3,0,4.5,0,6.8c0,1.6,2.4,1.6,2.4,0c0-2.3,0-4.5,0-6.8C34.6,34.5,32.1,34.5,32.1,36.1
				L32.1,36.1z"/>
			<path class="st0" d="M36.6,45.5c0,1.3,0,2.5,0,3.8c0,1.6,2.4,1.6,2.4,0c0-1.3,0-2.5,0-3.8C39,43.9,36.6,43.9,36.6,45.5L36.6,45.5
				z"/>
			<path class="st0" d="M31.3,50.5c2.2,0,4.3,0,6.5,0c0.9,0,0.9-1.5,0-1.5c-2.2,0-4.3,0-6.5,0C30.4,49.1,30.4,50.5,31.3,50.5
				L31.3,50.5z"/>
			<path class="st0" d="M31.3,49.1c0,0-0.5,0-0.9,0.4c-0.4,0.3-0.3,0.9,0.1,1c0.2,0,0.2,0,0.2,0l0.6,0L31.3,49.1z"/>
			<path class="st0" d="M27.3,47.2l0.6,1.1c0,0,0.2,0.6,1.3,0.6c1.2,0,0.6-1.2,0.6-1.2s-0.2-0.5-0.1-0.8
				C29.8,46.7,27.3,47.2,27.3,47.2z"/>
			<path class="st0" d="M31.6,35c0,0,0.3-0.1,0.5-0.9c0.3-0.8,1.1-0.8,1.4-0.8c0.3,0,1.1,0.2,1,0.9l0.2,0.9L31.6,35z"/>
			<path class="st0" d="M32,18.3c0,0,0.1-0.1,0.4-0.9c0.3-0.8,1.1-0.8,1.4-0.8c0.3,0,1,0.2,1.1,1l0.1,0.9L32,18.3z"/>
			<path class="st0" d="M32.1,24.9c-1.1,0-2-0.4-2-1.5"/>
			<path class="st0" d="M35.6,24.9c1.1,0,2-0.4,2-1.5"/>
			<path class="st0" d="M31.5,32.3c-1.1,0-2-0.4-2-1.5"/>
			<path class="st0" d="M36.1,32.3c1.1,0,2-0.4,2-1.5"/>
			<path class="st0" d="M29.9,44.3c-1.1,0-2-0.4-2-1.5"/>
			<path class="st0" d="M36.8,44.3c1.1,0,2-0.4,2-1.5"/>
		</g>
		<path class="st2" d="M32.1,24.9"/>
		<path class="st2" d="M34.1,22.9"/>
		<path class="st2" d="M32.1,21"/>
		<path class="st2" d="M30.1,22.9"/>
	</g>
	<g>
		<path class="st3" d="M87,24.1l2.4-2.2l2.3,2.1c1.3-0.1,2.7-0.1,3.9-0.1c1.5,0,2.9,0,4.4,0.1l2.2-2.1l2.5,2.2v0.1
			c1.7,0.1,3.4,0.3,5.1,0.5v1.5c-1.7-0.2-3.4-0.4-5.1-0.5v1.1h-4.9v-1.4c-1.4,0-2.8-0.1-4.2-0.1c-1.2,0-2.4,0-3.7,0.1v1.4H87v-1.1
			c-1.8,0.1-3.7,0.3-5.6,0.6v-1.6c1.9-0.2,3.8-0.4,5.6-0.5V24.1z M81.7,30.5h8.2V32h-8.2V30.5z M88.8,35.5c0.1,0,0.2,0.2,0.2,0.4
			c0,1-0.1,1.8-0.3,2.3c-0.2,1.2-0.6,2.1-1.2,2.9c-0.8,1.1-2.1,2.3-3.8,3.6c-0.3,0.2-0.6,0.5-1,0.9c-0.1,0.1-0.3,0.2-0.4,0.2
			c-0.1,0-0.2-0.1-0.3-0.4c0-0.5,0-1,0-1.5c0-0.5,0.1-1,0.2-1.5c0.3-1.2,0.9-2.3,1.9-3.3c0.6-0.6,1.4-1.2,2.2-1.7
			c0.7-0.5,1.5-1,2.2-1.7C88.5,35.6,88.6,35.5,88.8,35.5z M89.1,45.5c2.8-1.6,4.9-3.2,6.3-5c1.2-1.4,1.9-2.8,2-4.4v-3.7h4.2v3.7
			c0,0.6-0.1,1.1-0.2,1.6c0.3,0.1,0.6,0.2,1,0.4c1,0.4,1.8,1.1,2.5,2.1c0.2,0.3,0.6,1,1.2,2c1,1.4,2.2,2.4,3.8,3.2
			c0.2,0.1,0.3,0.2,0.3,0.2c0,0,0.1,0.1,0.1,0.2c0,0.1-0.1,0.2-0.3,0.2h-0.4c-2.2-0.2-4-0.7-5.5-1.5c-1-0.6-1.8-1.3-2.2-2.1
			c-0.4-1.1-0.7-1.9-0.8-2.2c-0.1-0.3-0.3-0.6-0.4-0.9c-0.3,0.5-0.6,1-1,1.4c-0.7,0.7-1.5,1.3-2.2,1.8c-2.4,1.6-5.1,2.8-8,3.6
			C89.4,45.9,89.2,45.7,89.1,45.5z M98.7,27.8c-0.3,0.2-0.8,0.7-1.3,1.4h11.7v5.4h-4.6v-3.8h-8.2c-1.2,2.1-2.5,3.6-4.1,4.5
			c-0.5,0.3-1.2,0.6-2.1,0.9c-0.1,0.1-0.3,0.1-0.3,0.1c-0.1,0-0.1,0-0.2-0.1c0-0.1-0.1-0.2-0.1-0.3c0-0.1,0.1-0.3,0.2-0.3
			c0.4-0.7,0.7-1.3,0.9-1.9c0.6-1.7,1.3-3,2.2-3.8c1.3-1.4,2.8-2.2,4.7-2.5c0.3,0,0.6-0.1,1-0.1h0.3c0.1,0,0.1,0.1,0.2,0.1
			c0,0.1,0,0.2-0.1,0.3C98.9,27.7,98.8,27.7,98.7,27.8z"/>
		<path class="st3" d="M113.2,28.9h2.7v-6.1h4.2v6.1h3v1.5h-3v13h2.9c0.6-2.2,0.9-5.2,0.9-8.9v-9.4c1.6-0.2,2.9-0.6,4-1.3v1.5h5.9
			c-0.3-1.4-0.6-2.5-0.9-3.1c-0.1-0.1-0.1-0.2-0.1-0.2c0-0.1,0-0.1,0-0.1c0,0,0.1,0,0.3,0c0.1,0,0.2,0,0.2,0.1
			c1.1,0.5,2,1.4,2.9,2.8c0.1,0.2,0.3,0.4,0.3,0.7h2.2l-1.6-1.6l2-1.9l1.9,1.9l-1.7,1.6h2.7v1.5h-4.7c0.5,1.5,1,3.5,1.3,5.8
			c0,0.3,0.1,0.6,0.1,0.8c0.5-0.7,1.1-1.4,1.7-2.2c0.9-1,1.7-2.2,2.4-3.5c0,0,0,0,0.1-0.1c0,0,0.1,0,0.2,0c0,0,0.1,0.1,0.1,0.3
			c-0.2,1.1-0.7,2.8-1.5,5c-0.8,1.9-1.5,3.4-2.2,4.5c0.9,4,2,6.6,3.4,7.8c0.1,0,0.2,0.1,0.2,0.2v0.1c0,0,0,0.1-0.1,0.1
			c-0.1,0-0.2,0-0.3,0.1h-0.8c-0.4,0-0.7-0.1-1.1-0.2c-0.9-0.3-1.7-1-2.4-1.8c-0.6-0.7-1.2-1.7-1.6-2.7c-0.1,0.1-0.1,0.1-0.2,0.2
			c-0.8,1.1-1.7,2.5-2.7,4.2c0,0-0.1,0.1-0.1,0.2c-0.1,0.1-0.2,0.1-0.3,0.1c-0.1,0-0.1-0.1-0.1-0.2c0-0.1,0-0.1,0-0.2
			c0.3-1.6,0.9-3.3,1.7-5.3c0.3-0.6,0.5-1.1,0.7-1.6c-0.3-1.4-0.6-2.9-0.8-4.6c-0.3-2.8-0.6-5.1-0.9-6.9h-6.2v5.5h5.4v11.9h-3.9
			V33.9h-1.6c-0.3,5.6-2.1,9.5-5.4,11.9l-0.2-0.2c0.1-0.2,0.2-0.5,0.3-0.7h-9.9v-1.5h3.4v-13h-2.7V28.9z"/>
		<path class="st3" d="M147.4,22.7h25.3v1.5h-10.3v19.2H175v1.5h-29.8v-1.5h12.6V24.2h-10.4V22.7z"/>
		<path class="st3" d="M178,24.2c0.3,0,0.5-0.1,0.8-0.2c0.6-0.2,1.2-0.4,1.9-0.6c0.5-0.2,1-0.3,1.4-0.3h0.9c0.8,0.1,1.7,0.3,2.6,0.7
			c0.2,0.1,0.4,0.2,0.7,0.2c-0.3,0.1-0.6,0.2-0.9,0.3c-0.6,0.3-1.1,0.6-1.6,0.8c-0.6,0.2-1.1,0.3-1.6,0.3h-0.9
			c-0.3,0-0.7-0.1-0.9-0.2c-0.5-0.2-1.1-0.4-1.6-0.7C178.3,24.5,178.1,24.4,178,24.2z M189.9,32.8h-11v-1.5h5.8l-2-3.5h-4.5v-1.5
			h8.3v-4.5h3.9v4.5h3.7v-4.5h3.9v4.5h8.2v1.5h-3.9l-1.6,3.5h4.6v1.5h-11v1.8c1.6,0.1,3.3,0.3,5.2,0.6c1.9,0.3,3.7,0.4,5.4,0.4
			c0.1,0,0.2,0,0.3,0.1c0,0.1-0.1,0.2-0.2,0.2c-1.7,0.3-3.2,0.5-4.5,0.6c-0.7,0-1.3,0.1-2,0.1c-1.6,0-3,0-4.3-0.1v1.6h12v1.5h-12
			v6.1h-4.5v-6.1H178v-1.5h11.9v-1.9c-1.5-0.1-2.9-0.2-4.4-0.3c-1.2,0-2.4-0.1-3.5-0.1c-1,0-1.9,0-3,0.1c-0.1,0-0.2,0-0.2-0.1
			c0-0.1,0-0.1,0.1-0.2c2.1-0.6,3.9-1,5.6-1.1c1.1-0.2,2.7-0.2,4.9-0.2c0.2,0,0.3,0,0.5,0V32.8z M178,45.6c0.3-0.7,0.7-1.3,1-1.8
			c1.2-1.5,3-2.5,5.4-3c1.1-0.2,1.9-0.4,2.4-0.7h0.2c0,0.1,0,0.1,0,0.2c-0.2,1.1-0.6,2-1.2,2.7c-1,1.3-2.7,2.1-5.1,2.4
			c-1,0.1-1.8,0.2-2.4,0.4c-0.1,0-0.2,0-0.3,0V45.6z M198.1,27.9h-11.1l2,3.5h7.3L198.1,27.9z M206.1,45.8c-0.7-0.2-1.5-0.3-2.4-0.4
			c-2.6-0.3-4.4-1.2-5.4-2.4c-0.6-0.7-1-1.6-1.2-2.7c0-0.1,0-0.2,0.1-0.2c0.1,0,0.2,0,0.2,0c0.5,0.2,1.3,0.4,2.4,0.6
			c2.4,0.4,4.2,1.4,5.4,3c0.3,0.4,0.7,1,1,1.7c0,0,0.1,0.1,0.1,0.2C206.3,45.8,206.2,45.8,206.1,45.8z M198.4,24.1
			c0.3,0,0.5-0.1,0.8-0.2c0.6-0.2,1.2-0.4,1.9-0.6c0.5-0.2,1-0.3,1.4-0.3h0.9c0.8,0.1,1.7,0.3,2.7,0.7c0.2,0.1,0.4,0.2,0.7,0.2
			c-0.3,0.1-0.6,0.2-0.9,0.3c-0.6,0.3-1.1,0.6-1.6,0.8c-0.6,0.2-1.1,0.3-1.6,0.3h-0.9c-0.3,0-0.7-0.1-0.9-0.2
			c-0.5-0.2-1.1-0.4-1.6-0.7C198.7,24.4,198.5,24.2,198.4,24.1z"/>
		<path class="st3" d="M227.3,21.9v1.7h11.2v1.5h-28.3v-1.5h11.7v-1.7H227.3z M210.9,34.9h26.8v11h-4.8v-9.4h-17.3v9.4h-4.7V34.9z
			 M235.1,33.3H214v-4.9c2.6-1.1,6-1.7,10.3-1.8c4.3,0.1,7.9,0.7,10.9,1.9V33.3z M230.7,44.6h-12.4v-6.4h12.4V44.6z M218.7,28.7v3
			h11.6v-3c-1.7-0.5-3.8-0.7-6.1-0.7C221.5,28.1,219.7,28.4,218.7,28.7z M221.8,39.7v3.4h5.1v-3.4H221.8z"/>
		<path class="st3" d="M249,25C249,25,249,25.1,249,25c-0.4,0.4-0.8,0.8-1.1,1.1c-0.4,0.4-0.8,0.7-1.2,0.9c-0.9,0.6-1.9,1.1-2.9,1.4
			c-0.8,0.2-1.5,0.3-2.2,0.4h-0.2c-0.1,0-0.1,0-0.2,0c0,0,0-0.1,0-0.2c0,0,0.1-0.1,0.1-0.1c0.7-0.6,1.2-1.3,1.5-1.9
			c0.8-1.4,1.6-2.5,2.4-3.2c1.4-1,3.3-1.5,5.4-1.5c0.4,0,0.8-0.1,1.3-0.1c0.2,0,0.3,0,0.3,0.1c0,0.1-0.1,0.2-0.2,0.2
			c-0.4,0.2-0.8,0.4-1.1,0.8c-0.2,0.2-0.4,0.3-0.5,0.5h6.6V25H249z M242,33.3h12.4v-2H244v-1.5h10.4v-1.3h4.4v1.3h10.1v1.5h-10.1v2
			h12v1.5H242V33.3z M242.4,37.2h19.1v-1.7h4.6v1.7h4.4v1.5h-4.4v7.2h-7.2v-1.5h2.6v-5.7h-19.1V37.2z M256.1,43.7
			c-0.3,0-0.6-0.1-0.9-0.1c-0.3,0-0.5,0-0.7,0h-0.9c-0.5,0-1.2,0-1.9-0.1c-1.8-0.4-3.1-1.2-4-2.3c-0.3-0.4-0.5-0.8-0.7-1.4
			c0-0.1-0.1-0.2-0.1-0.2c0,0,0-0.1,0.1-0.1c0,0,0.1-0.1,0.1-0.1c0.7,0.2,1.5,0.3,2.4,0.4c2.4,0,4.3,0.7,5.6,2.1
			c0.5,0.5,0.8,0.9,1.1,1.4c0,0.1,0.1,0.2,0.1,0.2c0,0,0,0.1,0,0.2c0,0-0.1,0-0.1,0H256.1z M247.8,27c0.3,0,0.5-0.1,0.8-0.2
			c0.6-0.2,1.2-0.4,1.9-0.6c0.5-0.2,1-0.3,1.4-0.3h0.9c0.8,0.1,1.7,0.3,2.7,0.7c0.2,0.1,0.4,0.2,0.7,0.2c-0.3,0.1-0.6,0.2-0.9,0.3
			c-0.6,0.3-1.1,0.6-1.6,0.8c-0.6,0.2-1.1,0.3-1.6,0.3H251c-0.3,0-0.7-0.1-0.9-0.2c-0.5-0.2-1.1-0.4-1.6-0.7
			C248.1,27.3,247.9,27.2,247.8,27z M263.5,24.9c-0.3,0.4-0.7,0.7-1,1c-0.4,0.3-0.8,0.5-1.1,0.7c-0.9,0.5-1.8,0.8-2.8,1
			c-0.7,0.2-1.4,0.3-2.1,0.3h-0.2c-0.1,0-0.1,0-0.2,0c0,0,0-0.1,0-0.2c0,0,0.1-0.1,0.1-0.1c0.6-0.5,1.1-1.1,1.4-1.6
			c0.7-1.2,1.5-2.1,2.2-2.7c1.4-0.9,3.2-1.3,5.4-1.4c0.4,0,0.8,0,1.3,0c0.2,0,0.3,0,0.3,0.1c0,0.1-0.1,0.2-0.2,0.2
			c-0.4,0.2-0.8,0.4-1.1,0.7c-0.2,0.2-0.3,0.3-0.5,0.5h5.7v1.5H263.5z M262.6,27.1c0.3,0,0.5-0.1,0.8-0.2c0.6-0.2,1.2-0.4,1.9-0.6
			c0.5-0.2,1-0.3,1.4-0.3h0.9c0.8,0.1,1.7,0.3,2.7,0.7c0.2,0.1,0.4,0.2,0.7,0.2c-0.3,0.1-0.6,0.2-0.9,0.3c-0.6,0.3-1.1,0.6-1.6,0.8
			c-0.6,0.2-1.1,0.3-1.6,0.3h-0.9c-0.3,0-0.7-0.1-1-0.2c-0.5-0.2-1-0.4-1.5-0.7C262.9,27.3,262.7,27.2,262.6,27.1z"/>
		<path class="st3" d="M274.4,38.5h19.3v-2c1.6,0.5,3.1,0.8,4.6,0.8v1.3h4.6V40h-4.6v5.9h-8.7v-1.5h4.1V40h-19.3V38.5z M274.8,24.1
			h11.7v-2.2h4.4v2.2h11.7v1.5h-11.7V27c3.7,0.3,7,1.1,9.8,2.3v6.8h-23.9v-6.8c3-1.3,6.2-2.1,9.8-2.4v-1.4h-11.7V24.1z M286.5,44.8
			c-0.3,0-0.6-0.1-0.9-0.1c-0.3,0-0.5,0-0.7,0H284c-0.5,0-1.1,0-2-0.1c-1.7-0.4-3.1-1.1-3.9-2.3c-0.3-0.3-0.5-0.8-0.7-1.4
			c0-0.1,0-0.2,0-0.2c0,0,0-0.1,0-0.1c0,0,0.1-0.1,0.1-0.1c0.7,0.2,1.5,0.3,2.4,0.4c2.4,0,4.3,0.7,5.6,2.1c0.4,0.5,0.8,0.9,1.1,1.3
			c0,0.1,0.1,0.1,0.1,0.2c0,0.1,0,0.1,0,0.2c0,0-0.1,0-0.1,0H286.5z M281.3,29.3v1.4c0.1,0,0.3,0,0.4,0c0.4,0,0.9,0,1.5-0.1h1.4
			c0.7,0,1.3,0.1,1.9,0.1v-2.2C284.8,28.6,283.1,28.9,281.3,29.3z M286.5,32.5c-0.3-0.1-0.7-0.1-0.9-0.2c-1.5-0.3-2.9-0.4-4.2-0.6
			v2.9h5.2V32.5z M290.9,31.2c1,0.2,1.9,0.3,2.8,0.6c0.9,0.1,1.7,0.2,2.4,0.3v-2.8c-1.4-0.4-3.1-0.7-5.2-0.8V31.2z M290.9,34.7h5.2
			v-1.8c-0.7,0.1-1.3,0.2-1.8,0.2c-1,0-2,0-3-0.1c-0.2,0-0.3,0-0.3,0V34.7z"/>
		<path class="st3" d="M316.7,22c0.3,1.2,1.2,2.2,2.7,2.9v6.9H311v14.1h-4.2V22H316.7z M311,23.5V26h4.3v-2.5H311z M311,27.5V30h4.3
			v-2.5H311z M323.7,21.9H335v23.9h-4.2V31.7h-8.6v-9.8H323.7z M330.9,26v-2.6h-4.3V26H330.9z M326.6,27.5v2.7h4.3v-2.7H326.6z"/>
		<path class="st3" d="M339.1,39.3c2.1-0.6,4.6-1,7.2-1c1,0,2.1,0,3.4,0c0.4,0,0.9,0,1.5,0.1v-2.1h3.1c1.1-0.9,1.9-1.9,2.5-2.9
			h-12.2v-1.5H362c-0.7,2.1-2.9,3.9-6.5,5.2v1.7c1.6,0.3,3.4,0.7,5.3,1.2c2,0.5,4,0.8,6.1,0.8c0.1,0,0.2,0,0.2,0
			c0.1,0,0.1,0.1,0.1,0.1c0,0,0,0.1-0.1,0.1c0,0-0.1,0-0.1,0c-1.7,0.2-3.3,0.3-4.6,0.3c-1.2,0-2.6,0-4.2,0c-0.8,0-1.7-0.1-2.7-0.1
			v3.9l-11.1,0v-1.6l6.7,0v-2.8c-1.2-0.2-3-0.5-5.3-0.9c-1.2-0.2-2.9-0.3-5-0.3H339c0,0-0.1-0.1-0.1-0.1
			C338.9,39.4,339,39.4,339.1,39.3z M353.2,27.7c1.8,0,3.6,0.1,5.2,0.3c0.2-0.7,0.3-1.2,0.5-1.6c0.7-1.7,2.1-2.8,4.1-3.4
			c0.8-0.3,1.4-0.5,1.8-0.8c0,0,0.1,0,0.1,0c0.1,0,0.1,0.1,0.1,0.2c0,1.1-0.2,2-0.6,2.8c-0.7,1.5-2,2.4-4,2.8
			c-0.2,0-0.4,0.1-0.5,0.1c2.7,0.3,5.1,0.8,7.3,1.5v3.2h-4.5v-2.7c-2.9-0.7-6.1-1.1-9.5-1.1c-3.8,0.2-7.1,0.6-10,1.1v2.6h-4.3v-3.2
			C343.3,28.4,348,27.8,353.2,27.7z M340.6,24.5c0.3,0,0.5-0.1,0.8-0.2c0.6-0.3,1.2-0.5,1.8-0.7c0.5-0.2,1-0.3,1.4-0.3h0.9
			c0.8,0.1,1.7,0.4,2.7,0.9c0.2,0.1,0.4,0.2,0.7,0.3c-0.3,0.1-0.6,0.2-0.9,0.4c-0.6,0.4-1.1,0.7-1.6,0.9c-0.6,0.2-1.1,0.3-1.6,0.4
			h-0.9c-0.3,0-0.7-0.1-0.9-0.2c-0.5-0.2-1.1-0.4-1.6-0.8C340.9,24.8,340.7,24.7,340.6,24.5z M349.8,24.8c0.3,0,0.5-0.1,0.8-0.2
			c0.6-0.3,1.2-0.5,1.8-0.7c0.5-0.2,1-0.3,1.4-0.3h0.9c0.8,0.1,1.7,0.4,2.7,0.9c0.2,0.1,0.4,0.2,0.7,0.3c-0.3,0.1-0.6,0.2-0.9,0.4
			c-0.6,0.4-1.1,0.7-1.6,0.9c-0.6,0.2-1.1,0.3-1.6,0.4H353c-0.3,0-0.7-0.1-0.9-0.2c-0.5-0.2-1.1-0.4-1.6-0.8
			C350.1,25.1,349.9,25,349.8,24.8z"/>
		<path class="st3" d="M370.6,25.3h4.1v-3.4h3.9v3.4h3.8v1.5h-3.8v19.1h-3.9V26.8h-4.1V25.3z M373.3,27.6c-0.1,0.8-0.2,1.8-0.2,2.9
			c0,0.5,0.1,1.3,0.2,2.3c0.1,1,0.2,2,0.2,2.9c0.1,0.6,0.1,1.3,0.1,2.3c-0.1,1.4-0.2,2.5-0.4,3.3c-0.2,0.9-0.6,1.8-1.1,2.7
			c-0.1,0.1-0.1,0.1-0.2,0.1c-0.1,0-0.1-0.1-0.1-0.2c0-0.1,0-0.3,0-0.7c0-1-0.2-2-0.4-3c-0.4-1.8-0.7-3.4-0.7-4.7c0-0.5,0-1.1,0-1.7
			c0-0.7,0.1-1.4,0.2-2.1c0.2-0.9,0.4-1.7,0.8-2.4c0.4-0.8,0.8-1.5,1.3-1.9c0,0,0.1-0.1,0.1-0.1c0,0,0.1,0,0.1,0
			C373.3,27.4,373.3,27.5,373.3,27.6z M381.5,27.6c0,0.8-0.1,1.7-0.1,2.8c0,0.5,0.1,1.3,0.2,2.2c0.1,1,0.2,1.9,0.3,2.8
			c0,0.4,0.1,1,0.1,1.7c0,1.6-0.1,2.8-0.3,3.7c-0.1,0.9-0.4,1.8-0.7,2.7c-0.1,0.1-0.1,0.1-0.2,0.1c-0.1,0-0.1-0.1-0.1-0.2
			c0-0.1,0-0.3,0-0.7c0-1-0.1-2-0.3-2.9c-0.3-1.7-0.5-3.2-0.6-4.5v-1.3c0-0.8,0.1-1.5,0.1-2.1c0.1-0.9,0.3-1.8,0.5-2.5
			c0.3-0.8,0.5-1.5,0.8-2c0,0,0.1,0,0.1-0.1c0,0,0.1,0,0.1,0V27.6z M390.1,27.4c-0.2,0.1-0.4,0.4-0.7,0.7c-0.5,0.7-1,1.4-1.4,2.2
			c-0.5,0.9-1,1.5-1.5,1.9c-0.6,0.5-1.1,0.8-1.7,1.1c-0.6,0.3-1.1,0.4-1.7,0.5h-0.2c-0.1,0-0.1,0-0.1,0c0,0,0-0.1,0-0.2
			c0,0,0.1-0.1,0.1-0.2c0.4-0.6,0.7-1.3,1-2.1c0.6-1.3,1.1-2.2,1.5-2.6c0.7-0.8,1.7-1.3,3.1-1.5c0.5-0.1,0.9-0.1,1.3-0.1
			c0.2,0,0.3,0,0.3,0.1C390.2,27.2,390.2,27.3,390.1,27.4z M383,24.6h6.2v-1.9h4.2v1.9h6v1.5H383V24.6z M383.5,45.2l-0.2-0.5
			c1.8-0.9,3.2-1.7,4.3-2.5c0.7-0.5,1.3-0.9,1.8-1.4c-1.3-0.9-2.2-1.7-2.9-2.7c-0.9-1.3-1.4-2.6-1.5-3.8v-0.2c0,0,0-0.1,0-0.1
			c0,0,0.1-0.1,0.1-0.1c0.1,0,0.2,0,0.2,0.1c0,0,0.1,0.1,0.1,0.2c1.2,1.3,2.4,2.3,3.6,3c0.8,0.4,1.5,0.9,2.2,1.3
			c1-1.4,1.7-2.9,2.2-4.6h4.2c-0.3,0.9-0.6,1.7-0.9,2.3c-0.7,1.5-1.7,2.9-2.8,4c1.4,1,2.5,1.9,3.3,2.7c0.8,0.9,1.4,1.7,1.6,2.3
			c0,0.2,0.1,0.3,0.1,0.5c0,0.1,0,0.2-0.1,0.2c-0.1,0-0.2,0-0.2-0.1c-0.1-0.1-0.2-0.2-0.3-0.2c-1.3-0.9-2.8-1.7-4.6-2.4
			c-0.8-0.3-1.6-0.7-2.2-1c-0.8,0.5-1.7,1-2.5,1.4C387.1,44.4,385.2,44.9,383.5,45.2z M399.8,33.8c-0.5-0.2-1-0.3-1.7-0.5
			c-1.8-0.4-3-1.3-3.7-2.8c-0.4-0.8-0.7-1.9-0.8-3.1c0-0.1,0-0.2,0.1-0.2c0.1,0,0.2,0,0.2,0c0.4,0.2,0.9,0.5,1.6,0.7
			c1.7,0.5,2.9,1.6,3.6,3.5c0.2,0.5,0.4,1.2,0.7,2c0,0,0.1,0.1,0.1,0.2C399.9,33.8,399.8,33.8,399.8,33.8z"/>
	</g>
	<g>
		<path class="st3" d="M82.3,11.9c1.2-1.2,2.6-3.6,3.1-5c-0.1-0.3-0.1-0.5-0.2-0.6c-1,0.7-1.8,1-2.7,1.3l-0.1-0.1
			c0.4-0.2,1.1-0.6,2.4-2c-0.5-0.9-1.1-1.7-1.4-2.1l0.1-0.1c1.1,0.8,1.5,1.4,1.8,1.8c0.4-0.4,1.3-1.5,1.4-2.4l1.3,0.9
			c0.1,0,0.1,0.1,0.1,0.2c0,0.2-0.1,0.3-0.5,0.3c-0.2,0.3-1,1.1-1.8,1.8c0.9,1.7,1.1,4,1.1,5.2c0,0.3,0,1.5-0.3,2.4
			c0.3,0.1,0.6,0.1,0.8,0.1c0.4,0,1.7-0.1,3.1-0.3V9.8h-1.8c0,0.5,0,0.9-0.1,1c-0.1,0.2-0.4,0.3-0.7,0.3c-0.4,0-0.5-0.2-0.5-0.6
			c0-0.4,0.1-2.1,0.1-2.5c0-0.8,0-1.3,0-1.4c0-0.6-0.1-1.3-0.1-1.6L89,5.8h1.6c0-0.7,0-1.6,0-1.8c0-0.6-0.1-1-0.2-1.3L92,3.2
			c0.1,0,0.2,0.1,0.2,0.2c0,0.2-0.2,0.3-0.4,0.4v2h1.9l0.4-0.4c0.1-0.1,0.1-0.1,0.2-0.1c0.1,0,0.2,0.1,0.3,0.2l0.6,0.5
			c0.1,0.1,0.1,0.1,0.1,0.2c0,0.2-0.2,0.4-0.5,0.6c0,0.5,0.1,2.7,0.1,3.2c0,0.3,0,1-0.7,1c-0.5,0-0.5-0.4-0.5-0.6V9.8h-2V13l1.8-0.3
			c-0.2-0.7-0.5-1-0.9-1.7l0.1-0.1c1.8,1.1,2.8,2.4,2.8,3.6c0,0.7-0.5,0.8-0.7,0.8c-0.5,0-0.7-0.4-0.8-0.7c-0.1-0.3-0.3-1.4-0.3-1.6
			c-0.2,0.1-3.8,1.3-5.7,1.7c0,0.2-0.1,0.5-0.4,0.5c-0.1,0-0.2-0.1-0.2-0.2l-0.8-1.5c-0.5,1.3-1.2,1.5-2.2,1.8
			c-0.2-0.7-0.6-1.5-1.2-1.8l0-0.1c0.6,0.2,1.2,0.3,1.5,0.3c0.5,0,0.7-0.3,0.9-0.6c0.1-0.3,0.4-1.3,0.4-2.8c0-0.7,0-1.1-0.1-1.4
			C84.9,10.2,83.6,11.4,82.3,11.9L82.3,11.9z M88.8,6.1v3.4h1.8V6.1H88.8z M91.8,6.1v3.4h2V6.1H91.8z"/>
		<path class="st3" d="M105.4,14.1l0.7-0.9c0.1-0.2,0.2-0.2,0.2-0.2c0.1,0,0.1,0,0.3,0.1l1.1,0.9c0.1,0.1,0.2,0.1,0.2,0.2
			c0,0.1-0.1,0.2-0.2,0.2H97.2c-0.8,0-1.2,0-1.5,0.1L95.5,14c0.8,0.1,1.8,0.1,2,0.1h4.2c0.9-2.2,1.8-5.9,1.8-7.1c0-0.1,0-0.2,0-0.3
			l1.7,0.8c0.1,0,0.1,0.1,0.1,0.2c0,0.1-0.1,0.2-0.6,0.4c-1.4,3.7-2,5-2.7,6H105.4z M104.7,5.7l0.6-0.9c0.1-0.1,0.1-0.2,0.2-0.2
			c0.1,0,0.2,0.1,0.3,0.1l1.1,0.9c0.1,0.1,0.1,0.1,0.1,0.2c0,0.1-0.1,0.2-0.2,0.2h-8.7c-0.8,0-1.2,0-1.5,0.1l-0.2-0.5
			c0.8,0.1,1.8,0.1,2,0.1h2.7c0-0.5,0-1.2,0-1.3c-0.1-0.7-0.1-0.8-0.3-1.4l1.8,0.4c0.1,0,0.3,0.1,0.3,0.2c0,0.1-0.2,0.3-0.5,0.5
			c0,0.3,0,1.2,0,1.6H104.7z M98.2,6.9c1.3,0.9,2.5,3.4,2.5,5.1c0,0.5-0.3,1-0.8,1c-0.7,0-0.7-0.4-0.8-2.5
			C99.1,10.2,98.9,8.5,98.2,6.9L98.2,6.9z"/>
		<path class="st3" d="M113.1,6.2c0.1,0.1,0.1,0.1,0.1,0.2c0,0.1-0.1,0.2-0.1,0.2c-0.1,0-0.4,0.1-0.5,0.1c-0.3,0.4-0.5,0.6-0.8,1
			c0.2,0.1,0.3,0.2,0.3,0.3c0,0.1,0,0.1-0.1,0.1c0,0-0.1,0.1-0.2,0.1c0,0.5-0.1,0.8-0.1,3.2c0,0.4,0,2.5,0,3c0,0.9-0.7,0.9-0.8,0.9
			c-0.5,0-0.5-0.4-0.5-0.6c0-0.2,0.1-2.5,0.2-2.8c0-1.3,0.1-2.4,0-3.1c-0.8,0.8-1.8,1.5-2.9,1.9l0-0.1c1.3-1.2,2.9-3.2,3.7-4.7
			c0.1-0.2,0.1-0.2,0.3-0.9L113.1,6.2z M112.6,3.6c0,0,0.1,0.1,0.1,0.2c0,0.1-0.1,0.2-0.2,0.2c-0.1,0-0.4,0-0.4,0
			c-1.2,1.2-2.3,2-4.2,2.7l0-0.1c1.1-0.8,2.6-2.4,3.2-3.3c0.1-0.2,0.2-0.6,0.3-0.8L112.6,3.6z M117.7,7.7L117.7,7.7
			c0,0.8,0.1,5.1,0.1,6.1c0,0.4,0,1.5-1.7,1.6c-0.1-0.7-0.6-1.1-1.4-1.6v-0.1c0.3,0,0.9,0.1,1.4,0.1c0.5,0,0.5-0.1,0.5-0.6
			c0-1.4,0-4.2-0.1-5.5h-2.2c-1,0-1.2,0-1.5,0.1l-0.2-0.5c0.6,0.1,1.3,0.1,2,0.1h3.6l0.7-0.8c0.1-0.2,0.2-0.2,0.2-0.2
			c0.1,0,0.2,0.1,0.3,0.1l0.9,0.8c0.1,0.1,0.1,0.1,0.1,0.2c0,0.1-0.1,0.2-0.2,0.2H117.7z M117.6,4l0.6-0.7c0.1-0.2,0.2-0.2,0.2-0.2
			c0.1,0,0.2,0.1,0.3,0.2l0.8,0.7c0.1,0.1,0.1,0.1,0.1,0.2c0,0.1-0.1,0.1-0.2,0.1h-4.4c-0.8,0-1.2,0-1.5,0.1l-0.2-0.5
			c0.7,0.1,1.3,0.1,2,0.1H117.6z"/>
		<path class="st3" d="M131.9,15.1c-0.8-0.4-2.2-1.4-2.9-2.4c-0.7,0.8-2.8,2.2-5.3,2.4l0-0.1c2.9-1,4.4-2.7,4.8-3.3
			c-0.8-1.6-0.8-3.2-0.8-3.6c0-0.4,0-0.7,0-0.9c-0.4,0.7-1.2,2-1.9,2.6l-0.1-0.1c0.1-0.2,0.3-0.5,0.7-1.2c-0.1,0-0.1,0.1-0.2,0.1
			h-1.7v3.5c0.8-0.2,1.6-0.3,2.3-0.5v0.1c-1.2,0.7-4,1.8-5,2.1c-0.1,0.3-0.2,0.4-0.3,0.4c-0.1,0-0.2-0.1-0.2-0.2l-0.7-1.5
			c0.2,0,0.6,0,1,0V9.8c0-0.4,0-2.6-0.1-3c0-0.3-0.1-0.6-0.2-0.8l1.4,0.4c0.1,0,0.2,0.1,0.2,0.2c0,0.1,0,0.2-0.4,0.4
			c0,0.6,0,0.7,0,2v3.6c0.1,0,0.7-0.1,0.9-0.2V4.8h-0.9c-1,0-1.2,0.1-1.5,0.1l-0.2-0.5c0.7,0.1,1.3,0.1,2,0.1h2.2l0.5-0.7
			c0.1-0.2,0.2-0.2,0.2-0.2c0,0,0.1,0,0.3,0.2l0.8,0.7c0.1,0.1,0.1,0.1,0.1,0.2c0,0.1-0.1,0.1-0.2,0.1h-2.3v3.6h0.3l0.5-0.6
			c0.1-0.1,0.1-0.2,0.2-0.2s0.2,0.1,0.3,0.2l0.6,0.6c0.1,0.1,0.1,0.1,0.1,0.2c0.4-0.8,1.6-3.8,1.6-5.3c0-0.1,0-0.2,0-0.3l1.6,0.7
			c0.1,0,0.2,0.1,0.2,0.2c0,0.1-0.1,0.2-0.6,0.3c-0.2,0.4-0.4,1.1-1,2.2h2.7l0.6-0.6c0.1-0.1,0.1-0.2,0.2-0.2s0.2,0.1,0.3,0.1
			l0.9,0.6c0.1,0,0.1,0.1,0.1,0.2c0,0.2-0.1,0.2-0.2,0.2h-2l0.8,0.4c0.1,0,0.1,0.1,0.1,0.2c0,0.1-0.3,0.3-0.5,0.4
			c-0.1,0.6-0.4,2.5-1.5,4.2c0.3,0.3,1.5,1.5,3.6,1.8v0.1C132.1,14.5,132,14.9,131.9,15.1z M127.9,6.7c-0.1,0.1-0.1,0.2-0.2,0.3
			c0.1,1.6,0.7,3.2,1.1,3.9c0.7-1.3,1-2.8,1.1-4.2H127.9z"/>
		<path class="st3" d="M133,6.5c0.6,0,2.2,0.5,2.2,1.5c0,0.3-0.3,0.7-0.7,0.7c-0.2,0-0.5,0-0.7-0.7C133.5,7.4,133.5,7.3,133,6.5
			L133,6.5z M136.9,5.1c-0.2,0.8-0.9,4.3-1.1,5c-0.1,0.3-0.5,1.7-0.6,2c0,0.1-0.1,0.3-0.1,0.4c0,0.3,0.1,0.4,0.2,0.9
			c0.3,1,0.3,1,0.3,1.3c0,0.4-0.2,0.8-0.8,0.8c-0.8,0-0.8-0.7-0.8-0.9c0-0.3,0.1-1.3,0.1-1.6c0-0.5-0.4-1.1-1-1.3l0-0.1
			c0.9-0.2,1-0.4,1.3-0.9c0.4-0.9,0.8-1.9,1.1-2.6C136.7,5.5,136.8,5.2,136.9,5.1L136.9,5.1z M134.3,3.1c1.3,0.2,2.2,0.8,2.2,1.6
			c0,0.2-0.1,0.7-0.6,0.7c-0.4,0-0.6-0.2-0.8-0.8C134.9,4.3,134.3,3.3,134.3,3.1L134.3,3.1z M143.3,9.1l0.7-0.8
			c0.1-0.1,0.1-0.2,0.2-0.2c0.1,0,0.2,0.1,0.3,0.2l1,0.8c0.1,0.1,0.1,0.1,0.1,0.2c0,0.1-0.1,0.2-0.2,0.2h-4.1c0,0.1-1,1.8-2.8,4
			c3-0.3,3.3-0.3,4.1-0.4c-0.4-0.5-0.9-1.2-1.3-1.5l0-0.1c2.6,0.9,3.7,2.2,3.7,3.1c0,0.5-0.4,0.7-0.7,0.7c-0.4,0-0.7-0.4-0.8-0.6
			c-0.4-0.8-0.5-0.9-0.8-1.3c-0.9,0.4-2.3,0.8-2.7,0.9c-0.9,0.2-2,0.5-2.9,0.7c-0.1,0.2-0.2,0.3-0.3,0.3c-0.1,0-0.2-0.1-0.2-0.2
			l-0.6-1.4c0.4,0.1,0.6,0.1,0.9,0.1c0.1,0,0.9-0.1,1-0.1c0.5-0.8,1.3-2.9,1.6-4h-1.6c-0.8,0-1.2,0-1.5,0.1L136.3,9
			c0.7,0.1,1.3,0.1,2,0.1h1.7c0-0.5,0-2.6,0-3h-1.1c-0.8,0-1.2,0-1.5,0.1l-0.2-0.5c0.7,0.1,1.3,0.1,2,0.1h0.8c0-1.3,0-1.6,0-1.9
			c0-0.2-0.2-0.9-0.3-1.2l1.7,0.5c0.2,0,0.3,0.1,0.3,0.2c0,0.2-0.3,0.3-0.4,0.3c0,0.1,0,1.9,0,2.1h1.6l0.6-0.7
			c0.1-0.1,0.2-0.2,0.2-0.2c0.1,0,0.1,0.1,0.3,0.2l0.9,0.7c0.1,0.1,0.1,0.1,0.1,0.2c0,0.1-0.1,0.2-0.2,0.2h-3.5c0,0.5,0,2.6,0,3
			H143.3z"/>
		<path class="st3" d="M158.1,14c-1,0.3-1.2,0.6-1.7,1.2c-1.7-1-2.8-2.8-3.5-4.6c-0.8-2.2-1-4.3-1-6.4l-0.1,0c0,2-0.2,4.7-1.4,7
			c-0.6,1.2-2.1,3.1-4.7,3.8l-0.1-0.1c1.7-1,3.1-3,3.7-4.2c0.9-1.9,1.3-4.8,1.3-6.4c0-0.9-0.1-1.1-0.2-1.3l1.9,0.5
			c0.1,0,0.3,0.1,0.3,0.2c0,0.1-0.1,0.3-0.4,0.4c0.1,3,1,5.7,2.3,7.3C155.5,12.6,156.7,13.3,158.1,14L158.1,14z"/>
		<path class="st3" d="M182.2,4.6c0,2.8,0,3.1,0,3.5c0,1.6,0,3.3,0.1,4.9c0,0.2,0.1,1.2,0.1,1.4c0,0.3,0,0.9-1,0.9
			c-0.3,0-0.4-0.2-0.4-0.4c0-0.1,0-0.5,0-0.6h-8.2c0,0.2,0,0.4,0,0.5c-0.1,0.2-0.5,0.4-0.9,0.4c-0.5,0-0.5-0.4-0.5-0.5
			s0.1-0.8,0.1-0.9c0.2-2.6,0.2-5.2,0.2-7.8c0-1.1,0-2.4-0.2-3.3l1.7,0.9h7.8l0.5-0.4c0.1-0.1,0.2-0.1,0.2-0.1c0.1,0,0.1,0,0.3,0.2
			l0.7,0.6c0.1,0.1,0.1,0.1,0.1,0.2C182.7,4.2,182.7,4.3,182.2,4.6z M181,4h-8.2v10h8.2V4z M180.3,12h-5.4c-1,0-1.2,0-1.5,0.1
			l-0.2-0.5c0.7,0.1,1.3,0.1,2,0.1h0.9V8.8h-0.6c-1,0-1.2,0-1.5,0.1l-0.2-0.5c0.7,0.1,1.3,0.1,2,0.1h0.3V6.1h-0.8
			c-1,0-1.2,0-1.5,0.1l-0.2-0.5c0.7,0.1,1.3,0.1,2,0.1h2.7l0.6-0.6c0.2-0.2,0.2-0.2,0.3-0.2c0.1,0,0.2,0.1,0.3,0.1l0.7,0.6
			c0.1,0.1,0.1,0.1,0.1,0.2c0,0.1-0.1,0.2-0.2,0.2h-2.8v2.3h0.6l0.6-0.5c0.2-0.2,0.2-0.2,0.3-0.2c0.1,0,0.1,0,0.3,0.1l0.7,0.5
			c0.1,0.1,0.2,0.1,0.2,0.2c0,0.1-0.1,0.2-0.2,0.2h-2.2v2.9h1.4l0.6-0.6c0.2-0.2,0.2-0.2,0.2-0.2c0.1,0,0.2,0.1,0.3,0.2l0.6,0.6
			c0.1,0,0.1,0.1,0.1,0.2C180.5,12,180.3,12,180.3,12z M178.5,11.2c-0.5,0-0.6-0.4-0.6-0.5c-0.2-1-0.2-1.1-0.4-1.6l0.1-0.1
			c1.1,0.3,1.5,0.9,1.5,1.5C179.2,10.8,179,11.2,178.5,11.2z"/>
		<path class="st3" d="M193.1,14.1l0.7-0.9C193.9,13,194,13,194,13c0.1,0,0.1,0,0.3,0.1l1.1,0.9c0.1,0.1,0.2,0.1,0.2,0.2
			c0,0.1-0.1,0.2-0.2,0.2h-10.5c-0.8,0-1.2,0-1.5,0.1l-0.2-0.5c0.8,0.1,1.8,0.1,2,0.1h4.2c0.9-2.2,1.8-5.9,1.8-7.1
			c0-0.1,0-0.2,0-0.3l1.7,0.8c0.1,0,0.1,0.1,0.1,0.2c0,0.1-0.1,0.2-0.6,0.4c-1.4,3.7-2,5-2.7,6H193.1z M192.3,5.7l0.6-0.9
			c0.1-0.1,0.1-0.2,0.2-0.2c0.1,0,0.2,0.1,0.3,0.1l1.1,0.9c0.1,0.1,0.1,0.1,0.1,0.2c0,0.1-0.1,0.2-0.2,0.2h-8.7
			c-0.8,0-1.2,0-1.5,0.1L184,5.6c0.8,0.1,1.8,0.1,2,0.1h2.7c0-0.5,0-1.2,0-1.3c-0.1-0.7-0.1-0.8-0.3-1.4l1.8,0.4
			c0.1,0,0.3,0.1,0.3,0.2c0,0.1-0.2,0.3-0.5,0.5c0,0.3,0,1.2,0,1.6H192.3z M185.8,6.9c1.3,0.9,2.5,3.4,2.5,5.1c0,0.5-0.3,1-0.8,1
			c-0.7,0-0.7-0.4-0.8-2.5C186.7,10.2,186.5,8.5,185.8,6.9L185.8,6.9z"/>
		<path class="st3" d="M207.6,5.1h-10c-0.8,0-1.2,0-1.5,0.1l-0.2-0.5c0.8,0.1,1.8,0.1,2,0.1h3.4c0-0.9-0.1-1.7-0.3-2.1l1.7,0.5
			c0.1,0,0.2,0.1,0.2,0.2c0,0.2-0.3,0.3-0.4,0.3c0,0.2,0,0.3,0,1h3.1l0.7-0.8c0.1-0.2,0.2-0.2,0.2-0.2c0.1,0,0.2,0.1,0.3,0.2
			l0.9,0.8c0.1,0.1,0.1,0.1,0.1,0.2C207.8,5,207.7,5.1,207.6,5.1z M207,10.4c0,0.5,0.1,2.8,0.1,3.3c0,0.5,0,0.9-0.7,1.4
			c-0.5,0.3-0.9,0.3-1.1,0.4c0-0.5-0.6-1.2-1.3-1.5v-0.1c0.3,0,0.8,0.1,1.6,0.1c0.4,0,0.4-0.1,0.4-1.1c0-0.5,0-2.3-0.1-2.7h-8
			c0,0.3,0,0.4,0,1c0,0.5,0,2.9,0,3.3c0,0.4,0,0.9-0.8,0.9c-0.3,0-0.5-0.2-0.5-0.5c0-0.5,0.1-1.2,0.1-1.7c0-0.6,0-1,0-1.4
			c0-0.9,0-2.2-0.2-2.7l1.4,0.7h7.7l0.5-0.5c0,0,0.1-0.1,0.2-0.1c0.1,0,0.2,0.1,0.3,0.1l0.7,0.5c0.1,0.1,0.1,0.1,0.1,0.2
			C207.5,10.1,207.4,10.1,207,10.4z M205.1,6.7c0,0.3,0.1,1.5,0.1,1.7c0,0.5-0.8,0.6-0.9,0.6c-0.4,0-0.3-0.6-0.3-0.7h-4.6
			c0,0.4,0,0.5-0.1,0.6c-0.1,0.2-0.5,0.3-0.7,0.3c-0.3,0-0.3-0.2-0.3-0.3c0-0.3,0.1-1.7,0.1-2c0-0.3,0-1.3,0-1.5l1.3,0.6h4.4
			l0.4-0.4c0,0,0.2-0.1,0.2-0.1c0.1,0,0.1,0,0.3,0.1l0.7,0.6c0.1,0.1,0.1,0.1,0.1,0.2C205.6,6.5,205.6,6.5,205.1,6.7z M204.2,11.6
			c0,0.3,0,0.6,0,0.9c0,0.1,0.1,0.6,0.1,0.7c0,0.3-0.2,0.4-0.3,0.5c-0.2,0.1-0.4,0.2-0.6,0.2c-0.2,0-0.4-0.1-0.4-0.3
			c0-0.1,0-0.2,0-0.3h-2.7c0,0.3,0.1,0.8-0.6,0.8c-0.2,0-0.5-0.1-0.5-0.3c0-0.1,0.1-1.5,0.1-1.8c0-0.5-0.1-1.3-0.2-1.6l1.3,0.7h2.5
			l0.4-0.4c0.1-0.1,0.1-0.2,0.2-0.2c0.1,0,0.2,0.1,0.2,0.1l0.6,0.5c0.1,0.1,0.1,0.1,0.1,0.2C204.5,11.3,204.5,11.4,204.2,11.6z
			 M204.1,6.3h-4.6V8h4.6V6.3z M203.1,11.4h-2.7v1.5h2.7V11.4z"/>
		<path class="st3" d="M220.4,9.3h-10.4c-0.8,0-1.2,0-1.5,0.1l-0.2-0.5c0.8,0.1,1.8,0.1,2,0.1h3.6c0-1,0-1.1,0-1.5h-2.3
			c-0.9,0-1.2,0-1.5,0.1l-0.2-0.5c0.8,0.1,1.8,0.1,2,0.1h2c0-0.6-0.2-1.1-0.3-1.3L214,6c0.7-1.1,1.2-2.4,1.3-2.9
			c0.1-0.3,0-0.5,0-0.7l1.5,0.7c0.1,0,0.1,0.1,0.1,0.2c0,0.1-0.2,0.2-0.5,0.3c-0.2,0.3-0.4,0.6-0.8,1.1h2.7l0.7-0.7
			c0.1-0.1,0.1-0.2,0.2-0.2c0.1,0,0.2,0.1,0.3,0.2l0.8,0.7c0.1,0.1,0.1,0.1,0.1,0.2c0,0.1-0.1,0.1-0.2,0.1h-3.7
			c0.3,0.1,1.1,0.6,1.1,1.3c0,0.4-0.3,0.6-0.6,0.6c-0.4,0-0.5-0.3-0.7-1c0-0.2-0.2-0.7-0.3-0.8h-0.7c-0.5,0.6-0.8,0.8-1,1l0.9,0.2
			c0.1,0,0.2,0.1,0.2,0.2c0,0.1,0,0.1-0.1,0.2c-0.1,0.1-0.2,0.2-0.3,0.3v0.3h2.2l0.5-0.6c0.1-0.1,0.1-0.2,0.2-0.2
			c0.1,0,0.2,0.1,0.3,0.1l0.7,0.6c0.1,0.1,0.1,0.1,0.1,0.2c0,0.1-0.1,0.1-0.2,0.1h-3.9c0,0.3,0,1.1,0,1.5h3.7l0.5-0.7
			c0.1-0.1,0.1-0.2,0.2-0.2c0.1,0,0.1,0.1,0.3,0.1l0.9,0.7c0,0,0.1,0.1,0.1,0.2C220.6,9.3,220.5,9.3,220.4,9.3z M213.7,5h-2.6
			c0.3,0.1,1.4,0.7,1.4,1.4c0,0.3-0.3,0.7-0.6,0.7c-0.4,0-0.5-0.3-0.6-0.7c-0.2-0.8-0.3-1-0.4-1.3h-0.2c-0.5,0.6-1,1.3-2.2,2
			l-0.1-0.1c1.2-1.4,2.1-3.8,2.2-3.9c0.1-0.2,0.1-0.3,0-0.6l1.5,0.7c0.1,0,0.1,0.1,0.1,0.2c0,0.2-0.1,0.2-0.6,0.3
			c-0.3,0.4-0.5,0.7-0.7,1h1.4l0.4-0.5c0.1-0.2,0.2-0.2,0.2-0.2c0.1,0,0.1,0,0.3,0.1l0.6,0.5c0.1,0.1,0.1,0.1,0.1,0.2
			C213.9,4.9,213.8,5,213.7,5z M220,11.5h-2.9c0,0.4,0,2.4,0,2.7c-0.1,0.4-0.4,1.2-1.9,1.5c-0.2-0.9-0.5-1.2-1.4-1.7v0
			c0.2,0,1,0.1,1.4,0.1c0.5,0,0.8,0,0.8-0.5v-2h-4.2c1.5,0.7,1.8,1.2,1.8,1.8c0,0.4-0.2,0.7-0.7,0.7c-0.6,0-0.7-0.4-0.8-1.2
			c-0.1-0.4-0.4-1-0.6-1.3h-1c-0.8,0-1.2,0-1.5,0.1l-0.2-0.5c0.8,0.1,1.8,0.1,2,0.1h5.2c0-0.7,0-1-0.3-1.7l1.6,0.4
			c0.1,0,0.1,0.1,0.1,0.2c0,0.1-0.1,0.2-0.4,0.5l0,0.7h1l0.6-0.7c0.1-0.1,0.1-0.2,0.2-0.2s0.2,0.1,0.3,0.2l1,0.7
			c0.1,0,0.1,0.1,0.1,0.2C220.2,11.4,220,11.5,220,11.5z"/>
		<path class="st3" d="M232.7,12.1h-3.2c0,0.3,0,1.5,0,1.8c0,1.2-0.9,1.6-1.8,1.7c-0.2-0.8-0.8-1.3-1.3-1.6l0-0.1
			c0.4,0,1.1,0.1,1.4,0.1c0.4,0,0.5-0.1,0.5-0.2c0-0.2,0-0.3,0-1.7h-6.2c-0.8,0-1.2,0-1.5,0.1l-0.2-0.5c0.8,0.1,1.8,0.1,2,0.1h5.9
			c0-0.8,0-0.9-0.2-1.6l1.4,0.4c0.3,0.1,0.3,0.2,0.3,0.3c0,0.1-0.3,0.3-0.3,0.4c0,0.2,0,0.2,0,0.5h1.4l0.5-0.6
			c0.1-0.1,0.1-0.2,0.2-0.2s0.1,0,0.3,0.2l0.8,0.6c0.1,0.1,0.1,0.1,0.1,0.2C232.9,12,232.7,12.1,232.7,12.1z M232.1,4.7h-4.8v1.4
			h2.5l0.4-0.5c0,0,0.1-0.1,0.2-0.1c0.1,0,0.2,0.1,0.2,0.1l0.8,0.5c0.1,0.1,0.1,0.1,0.1,0.2c0,0.1-0.1,0.1-0.5,0.4
			c0,0.3,0,0.9,0,1.4c0,0.2,0.1,1.5,0.1,1.6c0,0.3,0,0.8-0.8,0.8c-0.5,0-0.5-0.3-0.4-0.6h-6c0,0.3,0,0.8-0.8,0.8
			c-0.5,0-0.5-0.3-0.5-0.5c0-0.2,0-1,0-1.1c0-0.2,0-0.9,0-1.6c0-1.4-0.1-1.8-0.2-2.1l1.3,0.8h2.4c0-0.1,0-0.9,0-1.4h-3.1
			c-0.8,0-1.2,0-1.5,0.1l-0.2-0.5c0.8,0.1,1.8,0.1,2,0.1h2.9c-0.1-1-0.1-1.2-0.3-1.7l1.3,0.3c0.5,0.1,0.6,0.2,0.6,0.3
			c0,0.1-0.1,0.2-0.4,0.4c0,0.2,0,0.3,0,0.6h3l0.5-0.6c0.1-0.1,0.1-0.2,0.2-0.2c0.1,0,0.1,0.1,0.3,0.2l0.8,0.6
			c0.1,0,0.1,0.1,0.1,0.2C232.3,4.7,232.2,4.7,232.1,4.7z M225.3,14.6c-0.5,0-0.5-0.1-0.9-1.2c-0.3-0.8-0.5-1-0.7-1.1l0-0.1
			c0.4,0.1,2.2,0.5,2.2,1.7C226,14.1,225.8,14.6,225.3,14.6z M226.2,6.4h-2.4v1.4h2.4V6.4z M223.8,8.2v1.4h2.4c0-0.2,0-1.2,0-1.4
			H223.8z M229.9,6.4h-2.6l0,1.4h2.5V6.4z M229.9,8.2h-2.5v1.4h2.5V8.2z"/>
		<path class="st3" d="M235.4,8.1c0,1.2,0,3.9,0.1,5.1c0,0.2,0,0.9,0,1.1c0,0.2,0,1-0.9,1c-0.2,0-0.4-0.1-0.4-0.5c0-0.1,0-0.5,0-0.6
			c0-1.4,0.1-4.4,0.1-4.7c0-1.2,0-4.8,0-5.5c0-0.3-0.1-0.6-0.1-0.9l1.3,0.7h2.1l0.3-0.3c0.1-0.1,0.2-0.1,0.3-0.1
			c0.1,0,0.2,0,0.3,0.1l0.5,0.4c0.1,0.1,0.2,0.2,0.2,0.3c0,0.1,0,0.2-0.4,0.5c0,0.6,0.1,3,0.1,3.6c0,0.5-0.3,0.7-0.8,0.7
			c-0.4,0-0.4-0.4-0.4-0.8H235.4z M237.6,5.7V4.1h-2.3v1.6H237.6z M237.6,7.8V6.1h-2.3v1.7H237.6z M243.4,3.8l0.3-0.3
			c0.1-0.1,0.2-0.2,0.3-0.2c0.1,0,0.2,0,0.3,0.1l0.6,0.4c0.1,0.1,0.2,0.1,0.2,0.3c0,0.2,0,0.2-0.5,0.6c0,0.5,0,1.1,0,3.1
			c0,0.9,0.1,5.4,0.1,5.5c0,0.6,0,2-1.7,2.1c-0.1-0.4-0.4-1.1-1.3-1.5v-0.2c1,0.1,1.5,0.1,1.5,0.1c0.2,0,0.3,0,0.3-0.1
			c0-0.2,0-2.8,0-3.1V8.1H241c0,0.3-0.1,0.7-0.7,0.7c-0.4,0-0.4-0.2-0.4-0.4c0-0.4,0-1.9,0-2.3c0-2.4,0-2.5-0.1-3.1l1.2,0.7H243.4z
			 M241,4.1v1.6h2.4V4.1H241z M241,6.1v1.7h2.4V6.1H241z"/>
		<path class="st3" d="M258.1,11.4h-5.6v2.4c0,0.7-0.4,1.5-1.8,1.8c-0.1-0.8-0.6-1.1-1.6-1.6v-0.1c0.3,0,1.3,0.1,1.7,0.1
			c0.5,0,0.6-0.1,0.6-0.4v-2.1h-3.9c-0.8,0-1.2,0-1.5,0.1l-0.2-0.5c0.8,0.1,1.8,0.1,2,0.1h3.7c0-0.9,0-1-0.3-1.8l1.1,0.3
			c0.2-0.2,1-1.2,1.1-1.3h-3.4c-0.8,0-1.2,0-1.5,0.1l-0.2-0.5c0.8,0.1,1.8,0.1,2,0.1h3.3l0.8-0.6c0.1-0.1,0.2-0.1,0.2-0.1
			c0.1,0,0.2,0.1,0.3,0.2l0.8,0.8c0.1,0.1,0.1,0.1,0.1,0.2c0,0.4-0.3,0.4-1.2,0.3c-0.7,0.4-1.3,0.6-1.8,0.9c0.1,0.1,0.1,0.1,0.1,0.2
			c0,0.1-0.1,0.3-0.2,0.4V11h3.4l0.7-0.7c0.1-0.1,0.2-0.3,0.3-0.3c0.1,0,0.1,0,0.3,0.2l1.1,0.8c0,0,0.1,0.1,0.1,0.2
			C258.3,11.4,258.2,11.4,258.1,11.4z M257.2,7.1c-0.1,0.1-0.7,0.6-0.8,0.7c-0.2,0.2-0.4,0.2-0.8,0.5l-0.1-0.1
			c0.2-0.4,0.5-1.7,0.5-1.8H248c0,1.4-0.8,2.5-1.5,2.5c-0.4,0-0.7-0.3-0.7-0.7c0-0.4,0.2-0.5,0.8-1c0.8-0.7,1-1.1,1.2-1.8h0.1
			c0.1,0.2,0.1,0.4,0.1,0.7h5.2c0.4-0.6,1.2-2.1,1.2-3c0-0.1,0-0.1,0-0.2l1.5,0.7c0.1,0,0.2,0.1,0.2,0.2c0,0.3-0.5,0.3-0.6,0.3
			c-0.6,0.7-1.4,1.5-2,2h2.5l0.6-0.5c0.2-0.1,0.2-0.1,0.2-0.1c0.1,0,0.1,0,0.3,0.2l0.9,0.8c0.2,0.1,0.2,0.2,0.2,0.3
			C258.1,6.9,257.8,7,257.2,7.1z M249.3,5.6c-0.4,0-0.5-0.2-0.7-0.8c-0.2-0.5-0.3-1-0.9-1.6l0.1-0.1c1,0.2,2.2,0.9,2.2,1.8
			C249.9,5.1,249.9,5.6,249.3,5.6z M252,5.4c-0.5,0-0.6-0.4-0.8-0.9c-0.1-0.4-0.2-0.7-0.9-1.5l0.1-0.1c1.2,0.2,2.3,1.1,2.3,1.8
			C252.7,5,252.5,5.4,252,5.4z"/>
		<path class="st3" d="M266,7.3h-0.3c-0.3,0.3-1.1,0.9-2.4,1.6c0.1,0.1,0.2,0.3,0.2,0.6c0,0.4-0.3,0.7-0.6,0.7
			c-0.4,0-0.5-0.4-0.6-0.6c-0.2-0.6-0.4-1-0.6-1.2c0,0.9,0.1,5.1,0.1,6c0,0.2,0,0.7-0.1,0.8c0,0-0.2,0.4-0.7,0.4
			c-0.3,0-0.5-0.1-0.5-0.5c0-0.8,0.1-2.1,0.1-2.9c0-0.7,0.1-2.2,0.1-3.2c-0.7,1.3-1.6,2.5-2.8,3.4l-0.1-0.1c0.8-1.1,2.4-3.5,2.7-5.7
			H260c-0.8,0-1.2,0-1.5,0.1l-0.2-0.5c0.8,0.1,1.8,0.1,2,0.1h0.5c0-1.5-0.1-2.9-0.4-3.4l1.6,0.4c0.1,0,0.2,0.1,0.2,0.2
			c0,0.2-0.3,0.3-0.5,0.4c0,0.1,0,0.3,0,2.4h0.3l0.4-0.6c0.1-0.2,0.2-0.2,0.2-0.2c0.1,0,0.2,0.1,0.3,0.2l0.7,0.6
			c0.1,0.1,0.1,0.1,0.1,0.2c0,0.1-0.1,0.2-0.2,0.2h-1.8c0,0.1,0,0.9,0,1.5c0.9,0.2,1.2,0.5,1.4,0.7c0.3-0.3,1-1.1,1-1.2
			c0.4-0.6,0.7-1,0.9-1.4l1.1,0.8c0.1,0,0.1,0.1,0.1,0.2C266.2,7.3,266.1,7.3,266,7.3z M270.4,14.6c-0.5,0.4-0.6,0.6-0.7,0.8
			c-1.5-0.7-2.5-1.3-3.6-2.7c-1.4,1.4-3.2,2.2-4.3,2.3v-0.1c1.4-0.7,2.7-1.8,3.7-3c-0.6-1.1-0.9-2.4-0.9-3.7l0.1,0
			c0.5,1.5,0.9,2.4,1.3,3c0.4-0.6,1.2-1.9,1.1-3.2l1.4,0.7c0.3,0.1,0.3,0.2,0.3,0.3c0,0.1-0.1,0.2-0.5,0.4c-0.5,1.3-1,2-1.5,2.7
			c1.6,1.6,3.5,2,4.4,2v0.1C271.1,14.1,270.8,14.3,270.4,14.6z M270.3,5.6h-5.2c-0.8,0-1.2,0-1.5,0.1l-0.2-0.5
			c0.8,0.1,1.8,0.1,2,0.1h0.6c0-0.6-0.1-1.7-0.2-2.5l1.5,0.4c0.2,0,0.3,0.2,0.3,0.2c0,0.1-0.3,0.3-0.5,0.4v1.5h1.4l0.6-0.7
			c0.1-0.2,0.2-0.2,0.2-0.2c0.1,0,0.1,0,0.3,0.2l0.9,0.7c0.1,0.1,0.1,0.1,0.1,0.2C270.5,5.6,270.4,5.6,270.3,5.6z M269.6,8.8
			c-0.3,0-0.3-0.1-0.9-0.9c-0.6-0.8-0.8-1.2-1.4-1.7v0c0.9,0.1,3,0.8,3,1.9C270.3,8.4,270.1,8.8,269.6,8.8z"/>
		<path class="st3" d="M275,6.4h-1.3v1.3c0.2,0.1,1.3,0.5,1.3,1.2c0,0.1,0,0.6-0.6,0.6c-0.2,0-0.4-0.1-0.5-0.5
			c-0.1-0.7-0.1-0.8-0.3-1c0,1.3,0,3,0,3.9c0.1,2.6,0.1,2.9,0.1,2.9c0,0.3,0,0.8-0.7,0.8c-0.4,0-0.4-0.2-0.4-0.5
			c0-0.1,0.1-0.8,0.1-0.9c0.1-1.3,0.1-1.6,0.1-5c-0.5,1-1.3,2.2-2.1,2.9l-0.1-0.1c1-1.2,2-4.4,2.1-5.5c-0.8,0-1.2,0-1.5,0.1
			l-0.2-0.5c0.7,0.1,1,0.1,1.8,0.1c0-1.2-0.1-2.3-0.4-3.4l1.6,0.5c0.1,0,0.3,0.1,0.3,0.3c0,0.2-0.2,0.3-0.5,0.4c0,0.5,0,1,0,2.3h0.1
			l0.3-0.4c0,0,0.1-0.2,0.2-0.2c0.1,0,0.1,0,0.3,0.2l0.5,0.4c0.1,0.1,0.1,0.1,0.1,0.2C275.2,6.3,275.1,6.4,275,6.4z M283.1,9.9h-3.6
			c0.2,0.9,0.4,1.3,0.6,1.7c0.6-0.8,0.6-1,0.7-1.3l1.2,0.8c0.1,0.1,0.1,0.1,0.1,0.1c0,0.3-0.4,0.3-0.5,0.3c-0.3,0.3-0.5,0.6-0.9,1
			c0.6,0.8,1.3,1.2,1.4,1.2c0.1,0,0.3-0.2,0.3-0.3c0.1-0.2,0.4-0.8,0.5-0.9h0.1c0,0.4,0,1.3,0.2,1.6c0.2,0.4,0.3,0.6,0.3,0.7
			c0,0.3-0.2,0.5-0.5,0.5c-0.2,0-1.6-0.1-2.9-2.1c-1,0.8-2,1.2-3.5,1.6l-0.1-0.1c1.5-0.7,2.6-1.8,3.2-2.3c-0.3-0.7-0.6-1.4-0.9-2.5
			h-1.8c0,0.6-0.1,1-0.1,1.3c0.8,0.1,1.7,0.5,1.7,1.2c0,0.4-0.3,0.6-0.6,0.6c-0.4,0-0.5-0.3-0.6-0.7c-0.1-0.1-0.3-0.6-0.5-0.9
			c-0.2,1.2-0.5,2.8-2.6,3.7L274,15c1.4-1.2,1.8-3.4,1.7-5.1c-0.4,0-0.5,0.1-0.6,0.1l-0.2-0.5c0.8,0.1,1.8,0.1,2,0.1h1.7
			c-0.3-1.4-0.3-2.1-0.4-4.3c-0.1-1.6-0.2-1.9-0.3-2.5l1.6,0.4c0.1,0,0.2,0.1,0.2,0.2c0,0.2-0.3,0.3-0.5,0.5c0,0.4-0.1,0.8-0.1,1.6
			c0,1.4,0.1,2.9,0.4,4.3h2.2l0.4-0.5c0.1-0.1,0.1-0.2,0.2-0.2c0.1,0,0.2,0.1,0.3,0.2l0.6,0.5c0.1,0.1,0.1,0.1,0.1,0.2
			C283.3,9.9,283.2,9.9,283.1,9.9z M276.9,3.9c-0.4,0.3-0.8,0.7-1.2,1c0.2,0.1,0.5,0.3,0.5,0.7c0,0.3-0.2,0.5-0.5,0.5
			c-0.3,0-0.4-0.2-0.6-0.5c-0.4-0.7-0.6-0.8-0.8-0.9V4.6c0.3,0,0.7,0,1.1,0.2c0.3-0.6,0.6-1.4,0.6-2l1.1,0.7
			c0.1,0.1,0.2,0.1,0.2,0.2C277.4,3.8,277.3,3.8,276.9,3.9z M277.5,8.3c-0.4,0-0.4-0.2-0.5-0.9c-0.6,0.2-1.6,0.6-1.8,0.6
			c-0.2,0.3-0.2,0.3-0.3,0.3c-0.1,0-0.1-0.1-0.1-0.2l-0.4-1.1c0.6,0.1,0.8,0.1,1.1,0.1c0.5-0.9,1.2-2.1,1.3-2.9l0.9,0.6
			c0.1,0.1,0.2,0.1,0.2,0.2c0,0.1-0.1,0.1-0.4,0.2c-0.3,0.3-1.6,1.7-1.8,1.9c0.4,0,0.5,0,1.1,0c-0.1-0.4-0.2-0.6-0.2-0.8l0-0.1
			c0.9,0.3,1.2,1,1.2,1.4C278,8.3,277.6,8.3,277.5,8.3z M282.5,8.4c-0.3,0-0.3-0.1-0.7-1c-0.6,0.2-1.1,0.3-1.6,0.4
			c-0.2,0-0.2,0.1-0.3,0.1c-0.2,0.2-0.2,0.2-0.3,0.2c-0.1,0-0.2-0.1-0.2-0.2l-0.3-1c0.4,0,0.6,0,0.8,0.1c0.6-0.6,1.5-2.1,1.6-2.7
			l1,0.6c0.1,0,0.2,0.1,0.2,0.2c0,0.1-0.1,0.2-0.4,0.2c-0.6,0.5-1.4,1.2-1.8,1.5c-0.1,0.1-0.2,0.1-0.2,0.2h1.4
			c-0.1-0.3-0.3-0.4-0.4-0.6l0.1-0.1c0.5,0.2,1.7,0.5,1.7,1.5C283.1,8.3,282.6,8.4,282.5,8.4z M281.4,4c-0.3,0.3-0.6,0.5-1.2,0.8
			c0.2,0.1,0.5,0.3,0.5,0.8c0,0.4-0.4,0.5-0.6,0.5c-0.3,0-0.4-0.2-0.4-0.4c-0.2-0.7-0.3-0.8-0.5-1.1l0-0.1c0.2,0,0.4,0,0.8,0.2
			c0.3-0.8,0.5-1.4,0.6-1.8l1,0.6c0.1,0.1,0.2,0.1,0.2,0.2C281.9,3.9,281.7,3.9,281.4,4z M281,9.5c-0.2,0-0.4-0.2-0.5-0.3
			c-0.4-0.5-0.4-0.6-0.7-0.8l0-0.1c0.1,0,0.2-0.1,0.4-0.1c0.2,0,1.2,0.1,1.2,0.8C281.5,9.3,281.2,9.5,281,9.5z"/>
		<path class="st3" d="M287,9.5c-0.4,0-0.6-0.3-0.7-0.9c-0.2-0.7-0.2-0.8-0.3-0.9c0,1.1,0,6.1,0,7.1c0,0.3,0,0.4-0.2,0.5
			c-0.2,0.1-0.3,0.2-0.5,0.2c-0.4,0-0.5-0.2-0.5-0.4c0-0.1,0-0.4,0-0.5c0-0.9,0-4.6,0-5.4c-0.2,0.3-1,2-2.1,2.6l-0.1-0.1
			c1.1-1.8,1.9-4,2.1-5.6c-0.8,0-1.2,0-1.6,0.1L283,5.7c0.7,0.1,1,0.1,1.8,0.1c0-1.8,0-2.5-0.3-3.1l1.7,0.5c0.1,0,0.2,0.1,0.2,0.3
			c0,0.1-0.1,0.3-0.5,0.4c0,0.2,0,1.1,0,1.9h0.1l0.3-0.6c0.1-0.1,0.1-0.2,0.2-0.2c0.1,0,0.2,0.1,0.3,0.2l0.4,0.6
			c0.1,0.1,0.1,0.2,0.1,0.2c0,0.1-0.1,0.2-0.2,0.2h-1.2v1.2c0.2,0.1,1.6,0.7,1.6,1.6C287.5,9.4,287.2,9.5,287,9.5z M295.7,12.3
			c-0.1,0-0.4,0-0.6,0h-1.3c0,0.5,0.1,1.4,0.1,1.5c0,1.2-0.8,1.6-1.6,1.6c-0.1-0.5-0.3-1-1.3-1.6v-0.1c0.3,0,1.3,0.1,1.5,0.1
			c0.3,0,0.4-0.1,0.4-0.4c0-0.4,0-0.9,0-1.2h-3.7c0,0.2,0,2.2,0,2.5c0,0.3-0.1,0.7-0.7,0.7c-0.3,0-0.4-0.2-0.4-0.6
			c0-0.3,0-2.2,0.1-2.6c-0.5,0-0.8,0-1.2,0.1l-0.2-0.5c0.2,0,0.7,0.1,1.4,0.1c0-0.3,0-1.5,0-1.7c0-0.7,0-1.6-0.1-2.2l1.5,0.8h0.9
			V7.7h-1.7c-0.8,0-1.2,0-1.5,0.1l-0.2-0.5c0.8,0.1,1.8,0.1,2,0.1V6.7V6.1c-0.5,0-0.7,0-0.9,0.1l-0.2-0.5c0.4,0,0.5,0,1.1,0.1
			c0-0.2,0-1.1,0-1.2c-0.8,0-1.2,0-1.6,0.1l-0.2-0.5c0.6,0.1,1,0.1,1.8,0.1c0-0.3,0-0.8-0.3-1.5l1.5,0.5c0.1,0,0.3,0.1,0.3,0.3
			c0,0.1-0.3,0.4-0.5,0.5v0.3h1.4c0-0.8,0-0.8-0.3-1.5l1.5,0.5c0.1,0,0.2,0.1,0.2,0.2c0,0.1-0.2,0.3-0.4,0.4v0.4h0.9l0.5-0.6
			c0.1-0.1,0.2-0.2,0.2-0.2c0.1,0,0.2,0.1,0.3,0.2l0.6,0.6c0.1,0.1,0.1,0.1,0.1,0.2c0,0.1-0.1,0.2-0.2,0.2h-2.4v1.3h0.6l0.4-0.5
			c0.1-0.1,0.1-0.2,0.2-0.2c0.1,0,0.2,0.1,0.3,0.2l0.6,0.5c0.1,0.1,0.1,0.1,0.1,0.2c0,0.1-0.1,0.2-0.2,0.2h-2v1.3h1.3l0.4-0.6
			c0.1-0.1,0.1-0.2,0.2-0.2c0.1,0,0.2,0.1,0.3,0.1l0.7,0.6c0.1,0.1,0.1,0.1,0.1,0.2c0,0.1-0.1,0.1-0.2,0.1h-3.8v1.2h1.2l0.5-0.5
			c0.1-0.1,0.2-0.1,0.2-0.1c0.1,0,0.2,0,0.2,0.1l0.6,0.5c0.1,0,0.1,0.1,0.1,0.2c0,0.1,0,0.2-0.1,0.2c-0.1,0-0.2,0.2-0.3,0.3
			c0,0.4,0,2.1,0,2.5h0.2l0.5-0.7c0.1-0.1,0.2-0.2,0.2-0.2c0.1,0,0.2,0.1,0.3,0.2l0.7,0.7c0.1,0.1,0.1,0.2,0.1,0.2
			C295.8,12.3,295.7,12.3,295.7,12.3z M290.3,9.2h-1.2v1.1h1.2V9.2z M290.3,10.6h-1.2V12h1.2V10.6z M291.3,4.5h-1.4v1.3h1.4V4.5z
			 M291.3,6.1h-1.4v1.3h1.4C291.3,7.2,291.3,6.3,291.3,6.1z M292.8,9.2h-1.4v1.1h1.4V9.2z M292.8,10.6h-1.4V12h1.4V10.6z"/>
	</g>
	<g>
		<path class="st4" d="M82.8,53.9v3.4c0,0.8,0,1.3,0,1.6c0,0.2,0.1,0.4,0.1,0.4c0.1,0,0.2,0.1,0.5,0.1l0.3,0v0.3c-0.4,0-0.7,0-1,0
			c-0.2,0-0.7,0-1.4,0v-0.3h0.3c0.2,0,0.3,0,0.4-0.1s0.1-0.2,0.1-0.3c0-0.4,0.1-0.8,0.1-1.5v-2.4c0-0.5,0-0.9,0-1.3
			c0-0.2,0-0.3-0.1-0.4c0-0.1-0.1-0.1-0.2-0.2c-0.1-0.1-0.2-0.1-0.4-0.1h-0.3v-0.3c0.4,0,0.7,0,0.9,0c0.2,0,0.5,0,0.8,0
			c0.3,0.4,0.6,0.8,0.9,1.1c0.3,0.4,0.6,0.7,0.9,1.1l1.7,2c0.6,0.7,1,1.2,1.3,1.5v-3.1c0-1.3,0-2-0.1-2.1c0-0.1-0.2-0.2-0.6-0.2
			l-0.4,0v-0.3c0.5,0,0.9,0,1.2,0c0.3,0,0.7,0,1.2,0v0.3h-0.4c-0.3,0-0.5,0.1-0.5,0.3c0,0.1,0,0.8,0,2.1v2.2c0,0.6,0,1.3,0.1,2.1
			c-0.4-0.1-0.7-0.1-0.8-0.1c-0.1,0-0.1-0.1-0.2-0.2c-0.4-0.4-0.7-0.8-1.1-1.3L82.8,53.9z"/>
		<path class="st4" d="M91.2,56.3l0-0.3l0-0.3l0.5-0.3c0.2-0.1,0.4-0.2,0.6-0.3c0.2-0.1,0.4-0.1,0.6-0.1c0.4,0,0.8,0.1,1.1,0.3
			c0.3,0.2,0.4,0.5,0.5,0.8c0,0.2,0.1,0.8,0.1,1.7c0,0.9,0,1.3,0.1,1.4c0,0.1,0.1,0.1,0.2,0.1h0.4v0.3c-0.4,0-0.6,0-0.8,0
			c-0.2,0-0.4,0-0.7,0l0-0.4c0-0.1,0-0.3,0-0.4l-1,0.8c-0.1,0.1-0.2,0.1-0.3,0.1c-0.1,0-0.2,0-0.4,0c-0.4,0-0.7-0.1-1-0.3
			c-0.2-0.2-0.3-0.5-0.3-0.8c0-0.3,0.1-0.6,0.2-0.9c0.2-0.2,0.4-0.4,0.7-0.5c0.3-0.1,1-0.3,2-0.5c0-0.4-0.1-0.7-0.3-0.9
			c-0.2-0.3-0.5-0.4-0.9-0.4c-0.2,0-0.3,0-0.4,0.1c-0.1,0-0.3,0.1-0.4,0.2c-0.1,0.2-0.2,0.5-0.3,0.7L91.2,56.3z M93.7,57.1
			c-0.9,0.2-1.5,0.4-1.7,0.5c-0.2,0.2-0.4,0.4-0.4,0.8c0,0.2,0.1,0.4,0.2,0.6c0.1,0.1,0.3,0.2,0.5,0.2c0.2,0,0.5-0.1,0.7-0.2
			c0.2-0.1,0.4-0.3,0.6-0.6l0-1.1L93.7,57.1z"/>
		<path class="st4" d="M98.2,55.9v1.9c0,0.5,0,0.8,0,1c0,0.1,0.1,0.2,0.2,0.3c0.1,0.1,0.2,0.1,0.4,0.1c0.1,0,0.2,0,0.3-0.1
			c0.1,0,0.2-0.1,0.3-0.2l0.1,0.2l-0.5,0.6c-0.1,0-0.2,0.1-0.3,0.1c-0.1,0-0.2,0-0.3,0c-0.2,0-0.4,0-0.6-0.1
			c-0.2-0.1-0.3-0.2-0.4-0.3c-0.1-0.1-0.1-0.3-0.1-0.6l0-0.9v-1.8c-0.2,0-0.5,0-0.8,0v-0.2c0.3-0.1,0.5-0.2,0.8-0.3c0-0.5,0-1,0-1.5
			c0.4-0.2,0.6-0.3,0.8-0.4l0.1,0.1c0,0.3-0.1,0.8-0.1,1.8c0.4,0,0.7,0,1,0l0.4,0l-0.1,0.5l-0.2,0l-0.9,0H98.2z"/>
		<path class="st4" d="M102.5,55l0.1,0.1c0,0.2,0,0.5,0,0.8c0,0.9,0,1.6,0,2.1c0,0.4,0,0.8,0,1.1c0,0.1,0,0.2,0.1,0.2
			s0.2,0.1,0.3,0.1l0.3,0v0.3c-0.5,0-0.9,0-1.3,0c-0.4,0-0.8,0-1.2,0v-0.3l0.4,0c0.2,0,0.3,0,0.3-0.1c0,0,0.1-0.2,0.1-0.5
			c0-0.4,0-1,0-1.7c0-0.5,0-0.9,0-1.2c0-0.1,0-0.2-0.1-0.2s-0.2-0.1-0.3-0.1h-0.4v-0.3c0.4-0.1,0.7-0.1,0.9-0.2
			C102,55.2,102.2,55.1,102.5,55z M102.1,52.8c0.1,0,0.3,0.1,0.4,0.2s0.2,0.2,0.2,0.4c0,0.2-0.1,0.3-0.2,0.4
			c-0.1,0.1-0.2,0.2-0.4,0.2c-0.2,0-0.3-0.1-0.4-0.2c-0.1-0.1-0.2-0.2-0.2-0.4c0-0.2,0.1-0.3,0.2-0.4
			C101.8,52.9,102,52.8,102.1,52.8z"/>
		<path class="st4" d="M104.9,57.4c0-0.4,0.1-0.8,0.3-1.2c0.2-0.4,0.5-0.6,0.9-0.8c0.4-0.2,0.8-0.3,1.3-0.3c0.7,0,1.2,0.2,1.7,0.6
			c0.4,0.4,0.6,1,0.6,1.6c0,0.8-0.3,1.4-0.8,1.9c-0.5,0.4-1.1,0.6-1.7,0.6c-0.6,0-1.2-0.2-1.6-0.7S104.9,58.1,104.9,57.4z M105.8,57
			c0,0.7,0.1,1.2,0.4,1.7c0.3,0.5,0.7,0.7,1.2,0.7c0.4,0,0.7-0.1,0.9-0.4c0.2-0.3,0.4-0.7,0.4-1.4c0-0.5-0.1-0.9-0.2-1.3
			c-0.1-0.4-0.3-0.6-0.6-0.8c-0.2-0.2-0.5-0.2-0.8-0.2c-0.3,0-0.5,0.1-0.7,0.2c-0.2,0.1-0.4,0.3-0.5,0.5
			C105.9,56.4,105.8,56.7,105.8,57z"/>
		<path class="st4" d="M112.7,55.9l0.7-0.7c0.1-0.1,0.2-0.1,0.3-0.2c0.2-0.1,0.4-0.1,0.6-0.1c0.3,0,0.6,0.1,0.9,0.2
			c0.3,0.1,0.4,0.3,0.5,0.5c0.1,0.2,0.2,0.6,0.2,1.1l0,1.5c0,0.5,0,0.8,0.1,0.9c0.1,0.1,0.2,0.2,0.4,0.2h0.3v0.3c-0.3,0-0.6,0-0.9,0
			c-0.2,0-0.5,0-0.8,0c0.1-0.6,0.1-1.5,0.1-2.6c0-0.4,0-0.7-0.1-0.9c-0.1-0.2-0.2-0.3-0.4-0.4c-0.2-0.1-0.4-0.2-0.6-0.2
			c-0.3,0-0.6,0.1-0.8,0.2c-0.2,0.2-0.4,0.3-0.4,0.5c0,0.1,0,0.5,0,1c0,0.6,0,1.1,0,1.6c0,0.2,0,0.2,0.1,0.3
			c0.1,0.1,0.2,0.1,0.4,0.1h0.3v0.3c-0.5,0-1,0-1.3,0c-0.3,0-0.7,0-1.2,0v-0.3h0.3c0.2,0,0.4-0.1,0.4-0.2c0-0.1,0.1-0.8,0.1-2
			c0-0.6,0-1,0-1.3c0-0.1,0-0.2-0.1-0.2s-0.2-0.1-0.4-0.1h-0.3v-0.3c0.3,0,0.5-0.1,0.7-0.1c0.2-0.1,0.5-0.1,0.7-0.3c0,0,0.1,0,0.1,0
			c0.1,0,0.1,0,0.1,0.1l0,0.2L112.7,55.9z"/>
		<path class="st4" d="M118.4,56.3l0-0.3l0-0.3l0.5-0.3c0.2-0.1,0.4-0.2,0.6-0.3c0.2-0.1,0.4-0.1,0.6-0.1c0.4,0,0.8,0.1,1.1,0.3
			c0.3,0.2,0.4,0.5,0.5,0.8c0,0.2,0.1,0.8,0.1,1.7c0,0.9,0,1.3,0.1,1.4c0,0.1,0.1,0.1,0.2,0.1h0.4v0.3c-0.4,0-0.6,0-0.8,0
			c-0.2,0-0.4,0-0.7,0l0-0.4c0-0.1,0-0.3,0-0.4l-1,0.8c-0.1,0.1-0.2,0.1-0.3,0.1c-0.1,0-0.2,0-0.4,0c-0.4,0-0.7-0.1-1-0.3
			c-0.2-0.2-0.3-0.5-0.3-0.8c0-0.3,0.1-0.6,0.2-0.9c0.2-0.2,0.4-0.4,0.7-0.5c0.3-0.1,1-0.3,2-0.5c0-0.4-0.1-0.7-0.3-0.9
			c-0.2-0.3-0.5-0.4-0.9-0.4c-0.2,0-0.3,0-0.4,0.1c-0.1,0-0.3,0.1-0.4,0.2c-0.1,0.2-0.2,0.5-0.3,0.7L118.4,56.3z M121,57.1
			c-0.9,0.2-1.5,0.4-1.7,0.5c-0.2,0.2-0.4,0.4-0.4,0.8c0,0.2,0.1,0.4,0.2,0.6c0.1,0.1,0.3,0.2,0.5,0.2c0.2,0,0.5-0.1,0.7-0.2
			s0.4-0.3,0.6-0.6l0-1.1L121,57.1z"/>
		<path class="st4" d="M125.7,52.5c-0.1,0.9-0.1,1.8-0.1,2.6v2.5c0,1,0,1.6,0.1,1.7c0,0.1,0.1,0.1,0.3,0.1l0.4,0v0.3
			c-0.4,0-0.7,0-1,0c-0.4,0-0.8,0-1.4,0v-0.3l0.4,0c0.2,0,0.3-0.1,0.3-0.1c0-0.1,0.1-0.7,0.1-1.7V55l0-0.9l0-0.6
			c0-0.2,0-0.3-0.1-0.3c-0.1-0.1-0.2-0.1-0.3-0.1H124v-0.3C124.6,52.8,125.2,52.6,125.7,52.5L125.7,52.5z"/>
		<path class="st4" d="M131.4,59.4h0.3c0.3,0,0.5-0.1,0.5-0.2c0.1-0.1,0.1-0.8,0.1-2.1v-1.6c0-1.3,0-2-0.1-2.1
			c-0.1-0.1-0.2-0.2-0.5-0.2h-0.4v-0.3c0.5,0,1.1,0,1.6,0c0.4,0,0.8,0,1.2,0v0.3h-0.4c-0.2,0-0.4,0-0.4,0.1
			c-0.1,0.1-0.1,0.2-0.1,0.4c0,0.3,0,1,0,1.8v1.7c0,1.3,0,2,0.1,2.1c0.1,0.1,0.2,0.2,0.5,0.2h0.3v0.3c-0.4,0-0.8,0-1.3,0
			c-0.5,0-1,0-1.5,0V59.4z"/>
		<path class="st4" d="M137.2,55.9l0.7-0.7c0.1-0.1,0.2-0.1,0.3-0.2c0.2-0.1,0.4-0.1,0.6-0.1c0.3,0,0.6,0.1,0.9,0.2s0.4,0.3,0.5,0.5
			c0.1,0.2,0.2,0.6,0.2,1.1l0,1.5c0,0.5,0,0.8,0.1,0.9c0.1,0.1,0.2,0.2,0.4,0.2h0.3v0.3c-0.3,0-0.6,0-0.9,0c-0.2,0-0.5,0-0.8,0
			c0.1-0.6,0.1-1.5,0.1-2.6c0-0.4,0-0.7-0.1-0.9c-0.1-0.2-0.2-0.3-0.4-0.4c-0.2-0.1-0.4-0.2-0.6-0.2c-0.3,0-0.6,0.1-0.8,0.2
			c-0.2,0.2-0.4,0.3-0.4,0.5c0,0.1,0,0.5,0,1c0,0.6,0,1.1,0,1.6c0,0.2,0,0.2,0.1,0.3c0.1,0.1,0.2,0.1,0.4,0.1h0.3v0.3
			c-0.5,0-1,0-1.3,0c-0.3,0-0.7,0-1.2,0v-0.3h0.3c0.2,0,0.4-0.1,0.4-0.2c0-0.1,0.1-0.8,0.1-2c0-0.6,0-1,0-1.3c0-0.1,0-0.2-0.1-0.2
			c0,0-0.2-0.1-0.4-0.1h-0.3v-0.3c0.3,0,0.5-0.1,0.7-0.1s0.5-0.1,0.7-0.3c0,0,0.1,0,0.1,0c0.1,0,0.1,0,0.1,0.1l0,0.2L137.2,55.9z"/>
		<path class="st4" d="M142.9,58.2v0.3c0,0.3,0,0.4,0.1,0.5c0.1,0.1,0.2,0.2,0.5,0.3c0.2,0.1,0.5,0.1,0.8,0.1c0.3,0,0.6-0.1,0.8-0.3
			c0.2-0.2,0.3-0.4,0.3-0.6c0-0.2-0.1-0.4-0.2-0.5s-0.4-0.2-0.7-0.3c-0.6-0.1-1.1-0.2-1.3-0.3c-0.2-0.1-0.4-0.2-0.5-0.4
			c-0.1-0.2-0.2-0.4-0.2-0.6c0-0.4,0.2-0.8,0.5-1c0.3-0.3,0.8-0.4,1.3-0.4c0.5,0,0.9,0.1,1.4,0.3c0,0.2-0.1,0.6-0.1,1.1h-0.3
			c0-0.3,0-0.5-0.1-0.6c-0.1-0.1-0.2-0.2-0.4-0.3c-0.2-0.1-0.4-0.1-0.6-0.1c-0.3,0-0.5,0.1-0.7,0.2c-0.2,0.2-0.3,0.3-0.3,0.6
			c0,0.2,0.1,0.4,0.2,0.5c0.1,0.1,0.5,0.2,1.2,0.4c0.5,0.1,0.8,0.2,0.9,0.3c0.1,0.1,0.3,0.2,0.4,0.4c0.1,0.2,0.1,0.4,0.1,0.6
			c0,0.4-0.2,0.8-0.6,1.1s-0.9,0.5-1.5,0.5c-0.4,0-0.8-0.1-1.3-0.2c-0.1,0-0.1-0.1-0.1-0.1l0-0.1c0,0,0-0.1,0-0.3c0-0.3,0-0.6,0-0.7
			l0-0.2H142.9z"/>
		<path class="st4" d="M149.2,55.9v1.9c0,0.5,0,0.8,0,1s0.1,0.2,0.2,0.3c0.1,0.1,0.2,0.1,0.4,0.1c0.1,0,0.2,0,0.3-0.1
			c0.1,0,0.2-0.1,0.3-0.2l0.1,0.2l-0.5,0.6c-0.1,0-0.2,0.1-0.3,0.1c-0.1,0-0.2,0-0.3,0c-0.2,0-0.4,0-0.6-0.1
			c-0.2-0.1-0.3-0.2-0.4-0.3c-0.1-0.1-0.1-0.3-0.1-0.6l0-0.9v-1.8c-0.2,0-0.5,0-0.8,0v-0.2c0.3-0.1,0.5-0.2,0.8-0.3c0-0.5,0-1,0-1.5
			c0.4-0.2,0.6-0.3,0.8-0.4l0.1,0.1c0,0.3-0.1,0.8-0.1,1.8c0.4,0,0.7,0,1,0l0.4,0l-0.1,0.5l-0.2,0l-0.9,0H149.2z"/>
		<path class="st4" d="M153.5,55l0.1,0.1c0,0.2,0,0.5,0,0.8c0,0.9,0,1.6,0,2.1c0,0.4,0,0.8,0,1.1c0,0.1,0,0.2,0.1,0.2
			s0.2,0.1,0.3,0.1l0.3,0v0.3c-0.5,0-0.9,0-1.3,0c-0.4,0-0.8,0-1.2,0v-0.3l0.4,0c0.2,0,0.3,0,0.3-0.1c0,0,0.1-0.2,0.1-0.5
			c0-0.4,0-1,0-1.7c0-0.5,0-0.9,0-1.2c0-0.1,0-0.2-0.1-0.2c0,0-0.2-0.1-0.3-0.1h-0.4v-0.3c0.4-0.1,0.7-0.1,0.9-0.2
			S153.2,55.1,153.5,55z M153.1,52.8c0.1,0,0.3,0.1,0.4,0.2s0.2,0.2,0.2,0.4c0,0.2-0.1,0.3-0.2,0.4c-0.1,0.1-0.2,0.2-0.4,0.2
			c-0.2,0-0.3-0.1-0.4-0.2c-0.1-0.1-0.2-0.2-0.2-0.4c0-0.2,0.1-0.3,0.2-0.4S152.9,52.8,153.1,52.8z"/>
		<path class="st4" d="M157.3,55.9v1.9c0,0.5,0,0.8,0,1s0.1,0.2,0.2,0.3c0.1,0.1,0.2,0.1,0.4,0.1c0.1,0,0.2,0,0.3-0.1
			c0.1,0,0.2-0.1,0.3-0.2l0.1,0.2l-0.5,0.6c-0.1,0-0.2,0.1-0.3,0.1c-0.1,0-0.2,0-0.3,0c-0.2,0-0.4,0-0.6-0.1
			c-0.2-0.1-0.3-0.2-0.4-0.3c-0.1-0.1-0.1-0.3-0.1-0.6l0-0.9v-1.8c-0.2,0-0.5,0-0.8,0v-0.2c0.3-0.1,0.5-0.2,0.8-0.3c0-0.5,0-1,0-1.5
			c0.4-0.2,0.6-0.3,0.8-0.4l0.1,0.1c0,0.3-0.1,0.8-0.1,1.8c0.4,0,0.7,0,1,0l0.4,0l-0.1,0.5l-0.2,0l-0.9,0H157.3z"/>
		<path class="st4" d="M163.8,59.7l0.1-0.9l-0.3,0.3c-0.2,0.2-0.4,0.4-0.7,0.5c-0.2,0.1-0.5,0.1-0.9,0.1c-0.3,0-0.5-0.1-0.8-0.2
			c-0.2-0.1-0.4-0.3-0.5-0.5c-0.1-0.2-0.1-0.5-0.1-0.9c0-0.2,0-0.5,0-0.8l0-0.8c0-0.5,0-0.9,0-0.9c0-0.1-0.1-0.1-0.3-0.1h-0.4v-0.3
			c0.4,0,0.8-0.1,1.2-0.2l0.4-0.2c0.1,0,0.1,0,0.1,0.1l0,0.5c0,0.7-0.1,1.3-0.1,1.9c0,0.6,0,1,0.1,1.1c0,0.2,0.1,0.3,0.3,0.4
			c0.2,0.1,0.3,0.2,0.6,0.2c0.3,0,0.6-0.1,0.8-0.3c0.3-0.2,0.4-0.4,0.5-0.6c0-0.1,0.1-0.5,0.1-1c0-1,0-1.5-0.1-1.6
			c0-0.1-0.2-0.1-0.4-0.1H163v-0.3c0.3,0,0.6-0.1,0.8-0.1c0.2-0.1,0.5-0.1,0.7-0.2c0,0,0.1,0,0.1,0c0.1,0,0.1,0,0.1,0.1l0,0.5
			c0,1.1-0.1,2.1-0.1,2.9c0,0.5,0,0.7,0.1,0.8c0.1,0.1,0.2,0.2,0.5,0.2h0.3v0.3c-0.4,0-0.7,0-1,0C164.2,59.7,164,59.7,163.8,59.7z"
			/>
		<path class="st4" d="M168.5,55.9v1.9c0,0.5,0,0.8,0,1s0.1,0.2,0.2,0.3c0.1,0.1,0.2,0.1,0.4,0.1c0.1,0,0.2,0,0.3-0.1
			c0.1,0,0.2-0.1,0.3-0.2l0.1,0.2l-0.5,0.6c-0.1,0-0.2,0.1-0.3,0.1c-0.1,0-0.2,0-0.3,0c-0.2,0-0.4,0-0.6-0.1
			c-0.2-0.1-0.3-0.2-0.4-0.3c-0.1-0.1-0.1-0.3-0.1-0.6l0-0.9v-1.8c-0.2,0-0.5,0-0.8,0v-0.2c0.3-0.1,0.5-0.2,0.8-0.3c0-0.5,0-1,0-1.5
			c0.4-0.2,0.6-0.3,0.8-0.4l0.1,0.1c0,0.3-0.1,0.8-0.1,1.8c0.4,0,0.7,0,1,0l0.4,0l-0.1,0.5l-0.2,0l-0.9,0H168.5z"/>
		<path class="st4" d="M172.2,57.4c0,0.6,0.2,1.1,0.5,1.5c0.3,0.3,0.7,0.5,1.2,0.5c0.2,0,0.5,0,0.7-0.1c0.2-0.1,0.4-0.2,0.7-0.3
			l0.1,0.1l-0.2,0.4c-0.3,0.2-0.5,0.3-0.8,0.3c-0.3,0.1-0.6,0.1-0.9,0.1c-0.7,0-1.2-0.2-1.6-0.6c-0.4-0.4-0.6-1-0.6-1.7
			c0-0.5,0.1-1,0.3-1.4c0.1-0.3,0.4-0.5,0.8-0.7c0.4-0.2,0.8-0.3,1.2-0.3c0.6,0,1,0.2,1.4,0.5c0.3,0.3,0.5,0.8,0.5,1.4l0,0.3
			c-0.2,0.1-0.4,0.1-0.6,0.1c-0.3,0-0.8,0-1.4,0H172.2z M172.2,57c0.5,0,1.1,0,1.7,0c0.2,0,0.5,0,0.7,0v-0.3c0-0.3-0.1-0.6-0.2-0.8
			c-0.1-0.2-0.2-0.3-0.4-0.4c-0.2-0.1-0.4-0.2-0.6-0.2c-0.4,0-0.7,0.1-0.9,0.4C172.3,56,172.2,56.4,172.2,57z"/>
		<path class="st4" d="M180.5,57.4c0-0.4,0.1-0.8,0.3-1.2c0.2-0.4,0.5-0.6,0.9-0.8c0.4-0.2,0.8-0.3,1.3-0.3c0.7,0,1.2,0.2,1.7,0.6
			c0.4,0.4,0.6,1,0.6,1.6c0,0.8-0.3,1.4-0.8,1.9c-0.5,0.4-1.1,0.6-1.7,0.6c-0.6,0-1.2-0.2-1.6-0.7C180.7,58.7,180.5,58.1,180.5,57.4
			z M181.5,57c0,0.7,0.1,1.2,0.4,1.7c0.3,0.5,0.7,0.7,1.2,0.7c0.4,0,0.7-0.1,0.9-0.4s0.4-0.7,0.4-1.4c0-0.5-0.1-0.9-0.2-1.3
			c-0.1-0.4-0.3-0.6-0.6-0.8c-0.2-0.2-0.5-0.2-0.8-0.2c-0.3,0-0.5,0.1-0.7,0.2c-0.2,0.1-0.4,0.3-0.5,0.5
			C181.5,56.4,181.5,56.7,181.5,57z"/>
		<path class="st4" d="M188.4,55.9v1.9c0,0.9,0,1.4,0.1,1.5c0.1,0.1,0.2,0.2,0.5,0.2h0.4v0.3c-0.5,0-0.9,0-1.1,0l-1.5,0v-0.3h0.3
			c0.3,0,0.4,0,0.4-0.2c0.1-0.1,0.1-0.6,0.1-1.5v-1.9l-0.7,0v-0.2c0.2-0.1,0.5-0.2,0.7-0.4v-0.6c0-0.3,0-0.6,0.1-0.8
			c0.1-0.2,0.3-0.4,0.5-0.7c0.3-0.4,0.6-0.6,0.8-0.7c0.1-0.1,0.3-0.1,0.5-0.1c0.1,0,0.3,0,0.4,0.1c0,0.2,0,0.3,0,0.4
			c0,0.1,0,0.2,0,0.4l-0.1,0.1c-0.2-0.2-0.4-0.3-0.7-0.3c-0.3,0-0.5,0.1-0.6,0.3c-0.1,0.2-0.2,0.6-0.2,1.4v0.6c0.5,0,1,0,1.3,0l0,0
			l-0.1,0.5l-0.6,0C188.9,55.8,188.7,55.8,188.4,55.9z"/>
		<path class="st4" d="M197.9,53.2c0,0.5-0.1,1-0.1,1.5v2.8c0,1,0,1.6,0.1,1.7c0.1,0.1,0.2,0.2,0.6,0.2h0.4v0.3c-0.6,0-1.1,0-1.5,0
			c-0.4,0-0.9,0-1.4,0v-0.3h0.4c0.2,0,0.4,0,0.4-0.1s0.1-0.2,0.1-0.3c0-0.4,0-0.9,0-1.5v-2.8c0-0.5,0-1,0-1.5h-0.5
			c-0.8,0-1.2,0-1.3,0.1c-0.1,0-0.1,0.2-0.2,0.4l-0.1,0.7h-0.3l0-0.6c0-0.2,0-0.6-0.1-1c1.7,0,2.8,0,3.1,0l2.7,0
			c-0.1,0.5-0.1,1.1-0.1,1.6h-0.3l0-0.6c0-0.2,0-0.4-0.1-0.4c0,0-0.1-0.1-0.2-0.1c-0.4,0-0.8,0-1.2,0H197.9z"/>
		<path class="st4" d="M202.7,57.4c0,0.6,0.2,1.1,0.5,1.5c0.3,0.3,0.7,0.5,1.2,0.5c0.2,0,0.5,0,0.7-0.1c0.2-0.1,0.4-0.2,0.7-0.3
			l0.1,0.1l-0.2,0.4c-0.3,0.2-0.5,0.3-0.8,0.3s-0.6,0.1-0.9,0.1c-0.7,0-1.2-0.2-1.6-0.6c-0.4-0.4-0.6-1-0.6-1.7c0-0.5,0.1-1,0.3-1.4
			c0.1-0.3,0.4-0.5,0.8-0.7c0.4-0.2,0.8-0.3,1.2-0.3c0.6,0,1,0.2,1.4,0.5c0.3,0.3,0.5,0.8,0.5,1.4l0,0.3c-0.2,0.1-0.4,0.1-0.6,0.1
			c-0.3,0-0.8,0-1.4,0H202.7z M202.7,57c0.5,0,1.1,0,1.7,0c0.2,0,0.5,0,0.7,0v-0.3c0-0.3-0.1-0.6-0.2-0.8c-0.1-0.2-0.2-0.3-0.4-0.4
			c-0.2-0.1-0.4-0.2-0.6-0.2c-0.4,0-0.7,0.1-0.9,0.4S202.7,56.4,202.7,57z"/>
		<path class="st4" d="M211.2,59l0.1,0.1l-0.2,0.3c-0.2,0.1-0.4,0.2-0.7,0.3c-0.2,0.1-0.5,0.1-0.7,0.1c-0.5,0-0.9-0.1-1.2-0.3
			c-0.3-0.2-0.6-0.4-0.8-0.8c-0.2-0.3-0.3-0.8-0.3-1.2c0-0.4,0.1-0.8,0.2-1.1s0.3-0.6,0.6-0.7c0.3-0.2,0.6-0.3,0.9-0.5
			c0.3-0.1,0.6-0.2,0.9-0.2c0.2,0,0.5,0,0.6,0.1c0.2,0,0.4,0.1,0.6,0.2c-0.1,0.4-0.1,0.9-0.1,1.3h-0.3v-0.2c0-0.2,0-0.4-0.1-0.4
			c-0.1-0.1-0.2-0.2-0.4-0.3s-0.4-0.1-0.7-0.1c-0.4,0-0.8,0.1-1,0.4c-0.2,0.3-0.4,0.7-0.4,1.2c0,0.7,0.2,1.2,0.5,1.6
			c0.3,0.4,0.7,0.6,1.2,0.6c0.2,0,0.4,0,0.6-0.1C210.8,59.2,211,59.1,211.2,59z"/>
		<path class="st4" d="M214.4,55.9l0.6-0.6c0.1-0.1,0.3-0.2,0.4-0.3c0.1-0.1,0.3-0.1,0.5-0.1c0.4,0,0.7,0.1,0.9,0.2
			c0.3,0.1,0.4,0.3,0.5,0.6c0.1,0.2,0.2,0.6,0.2,1.1l0,1.4c0,0.3,0,0.6,0,0.8c0,0.1,0,0.1,0.1,0.2s0.1,0.1,0.3,0.1l0.4,0v0.3
			c-0.3,0-0.6,0-0.9,0c-0.3,0-0.5,0-0.8,0c0.1-0.8,0.1-1.6,0.1-2.4c0-0.5,0-0.9-0.1-1.1s-0.2-0.3-0.4-0.4c-0.2-0.1-0.4-0.2-0.7-0.2
			c-0.3,0-0.5,0.1-0.7,0.2c-0.2,0.1-0.4,0.3-0.5,0.4c-0.1,0.1-0.1,0.4-0.1,0.9V58c0,0.8,0,1.2,0.1,1.3c0,0.1,0.2,0.1,0.4,0.2l0.4,0
			v0.3c-0.5,0-0.9,0-1.2,0c-0.3,0-0.7,0-1.3,0v-0.3l0.3,0c0.2,0,0.3,0,0.4-0.1c0,0,0.1-0.1,0.1-0.2c0-0.2,0-0.6,0-1.2v-3.3
			c0-0.9,0-1.3-0.1-1.4c0-0.1-0.2-0.1-0.4-0.1h-0.3v-0.3c0.5-0.1,0.9-0.1,1.2-0.2l0.4-0.1c0.1,0,0.1,0,0.1,0.1l0,0.2l0,0.9
			c0,0.4,0,0.8,0,1V55.9z"/>
		<path class="st4" d="M221.2,55.9l0.7-0.7c0.1-0.1,0.2-0.1,0.3-0.2c0.2-0.1,0.4-0.1,0.6-0.1c0.3,0,0.6,0.1,0.9,0.2s0.4,0.3,0.5,0.5
			c0.1,0.2,0.2,0.6,0.2,1.1l0,1.5c0,0.5,0,0.8,0.1,0.9c0.1,0.1,0.2,0.2,0.4,0.2h0.3v0.3c-0.3,0-0.6,0-0.9,0c-0.2,0-0.5,0-0.8,0
			c0.1-0.6,0.1-1.5,0.1-2.6c0-0.4,0-0.7-0.1-0.9c-0.1-0.2-0.2-0.3-0.4-0.4c-0.2-0.1-0.4-0.2-0.6-0.2c-0.3,0-0.6,0.1-0.8,0.2
			c-0.2,0.2-0.4,0.3-0.4,0.5c0,0.1,0,0.5,0,1c0,0.6,0,1.1,0,1.6c0,0.2,0,0.2,0.1,0.3c0.1,0.1,0.2,0.1,0.4,0.1h0.3v0.3
			c-0.5,0-1,0-1.3,0c-0.3,0-0.7,0-1.2,0v-0.3h0.3c0.2,0,0.4-0.1,0.4-0.2c0-0.1,0.1-0.8,0.1-2c0-0.6,0-1,0-1.3c0-0.1,0-0.2-0.1-0.2
			c0,0-0.2-0.1-0.4-0.1h-0.3v-0.3c0.3,0,0.5-0.1,0.7-0.1c0.2-0.1,0.5-0.1,0.7-0.3c0,0,0.1,0,0.1,0c0.1,0,0.1,0,0.1,0.1l0,0.2
			L221.2,55.9z"/>
		<path class="st4" d="M226.5,57.4c0-0.4,0.1-0.8,0.3-1.2c0.2-0.4,0.5-0.6,0.9-0.8c0.4-0.2,0.8-0.3,1.3-0.3c0.7,0,1.2,0.2,1.7,0.6
			c0.4,0.4,0.6,1,0.6,1.6c0,0.8-0.3,1.4-0.8,1.9c-0.5,0.4-1.1,0.6-1.7,0.6c-0.6,0-1.2-0.2-1.6-0.7C226.7,58.7,226.5,58.1,226.5,57.4
			z M227.4,57c0,0.7,0.1,1.2,0.4,1.7c0.3,0.5,0.7,0.7,1.2,0.7c0.4,0,0.7-0.1,0.9-0.4c0.2-0.3,0.4-0.7,0.4-1.4c0-0.5-0.1-0.9-0.2-1.3
			c-0.1-0.4-0.3-0.6-0.6-0.8c-0.2-0.2-0.5-0.2-0.8-0.2c-0.3,0-0.5,0.1-0.7,0.2c-0.2,0.1-0.4,0.3-0.5,0.5
			C227.5,56.4,227.4,56.7,227.4,57z"/>
		<path class="st4" d="M234.5,52.5c-0.1,0.9-0.1,1.8-0.1,2.6v2.5c0,1,0,1.6,0.1,1.7c0,0.1,0.1,0.1,0.3,0.1l0.4,0v0.3
			c-0.4,0-0.7,0-1,0c-0.4,0-0.8,0-1.4,0v-0.3l0.4,0c0.2,0,0.3-0.1,0.3-0.1c0-0.1,0.1-0.7,0.1-1.7V55l0-0.9l0-0.6
			c0-0.2,0-0.3-0.1-0.3c-0.1-0.1-0.2-0.1-0.3-0.1h-0.4v-0.3C233.5,52.8,234,52.6,234.5,52.5L234.5,52.5z"/>
		<path class="st4" d="M236.8,57.4c0-0.4,0.1-0.8,0.3-1.2c0.2-0.4,0.5-0.6,0.9-0.8c0.4-0.2,0.8-0.3,1.3-0.3c0.7,0,1.2,0.2,1.7,0.6
			c0.4,0.4,0.6,1,0.6,1.6c0,0.8-0.3,1.4-0.8,1.9c-0.5,0.4-1.1,0.6-1.7,0.6c-0.6,0-1.2-0.2-1.6-0.7C237,58.7,236.8,58.1,236.8,57.4z
			 M237.7,57c0,0.7,0.1,1.2,0.4,1.7c0.3,0.5,0.7,0.7,1.2,0.7c0.4,0,0.7-0.1,0.9-0.4c0.2-0.3,0.4-0.7,0.4-1.4c0-0.5-0.1-0.9-0.2-1.3
			c-0.1-0.4-0.3-0.6-0.6-0.8c-0.2-0.2-0.5-0.2-0.8-0.2c-0.3,0-0.5,0.1-0.7,0.2c-0.2,0.1-0.4,0.3-0.5,0.5
			C237.8,56.4,237.7,56.7,237.7,57z"/>
		<path class="st4" d="M247.2,55.9c0.1,0.2,0.1,0.4,0.1,0.5c0,0.3-0.1,0.6-0.3,0.8c-0.2,0.3-0.4,0.5-0.7,0.6s-0.7,0.2-1,0.2l-0.2,0
			c-0.2,0.2-0.3,0.3-0.4,0.4c-0.1,0.1-0.1,0.2-0.1,0.2c0,0.1,0.1,0.2,0.2,0.3c0.1,0.1,0.4,0.1,0.8,0.1c0.1,0,0.4,0,0.6,0
			c0.4,0,0.7,0,0.9,0c0.3,0,0.5,0,0.6,0.1c0.1,0.1,0.3,0.2,0.3,0.4c0.1,0.2,0.1,0.4,0.1,0.7c0,0.4-0.1,0.7-0.3,1
			c-0.2,0.3-0.5,0.6-1,0.8s-0.9,0.3-1.5,0.3c-0.7,0-1.2-0.1-1.5-0.4s-0.5-0.6-0.5-1.1c0-0.3,0.1-0.5,0.3-0.8
			c0.3-0.2,0.6-0.3,0.8-0.5c-0.3-0.1-0.4-0.2-0.5-0.2c-0.1-0.1-0.1-0.2-0.1-0.3c0-0.1,0-0.3,0.1-0.4c0-0.1,0.1-0.2,0.3-0.3l0.5-0.3
			c-0.4-0.1-0.7-0.2-0.8-0.4c-0.2-0.2-0.3-0.5-0.3-0.9c0-0.3,0.1-0.6,0.3-0.9c0.2-0.3,0.4-0.5,0.7-0.6c0.4-0.2,0.8-0.3,1.2-0.3
			c0.2,0,0.5,0,0.6,0.1c0.2,0.1,0.4,0.2,0.6,0.3h0.4c0.4,0,0.7,0,1,0l0.1,0.1c-0.1,0.1-0.2,0.3-0.3,0.4H247.2z M245.2,59.8
			c-0.2,0-0.4,0-0.5,0.1c-0.3,0.2-0.4,0.3-0.5,0.4c-0.1,0.2-0.1,0.4-0.1,0.6c0,0.4,0.1,0.6,0.4,0.9c0.3,0.2,0.6,0.3,1.1,0.3
			c0.4,0,0.7-0.1,0.9-0.2c0.3-0.1,0.5-0.3,0.6-0.5c0.1-0.2,0.2-0.5,0.2-0.7c0-0.2-0.1-0.4-0.2-0.6c-0.1-0.2-0.2-0.3-0.4-0.3
			c-0.1,0-0.2,0-0.5,0H245.2z M246.5,56.7c0-0.4-0.1-0.7-0.3-1c-0.2-0.2-0.5-0.4-0.8-0.4c-0.3,0-0.6,0.1-0.8,0.3
			c-0.2,0.2-0.3,0.5-0.3,0.8c0,0.4,0.1,0.8,0.3,1c0.2,0.2,0.5,0.4,0.8,0.4c0.3,0,0.6-0.1,0.8-0.3C246.4,57.3,246.5,57.1,246.5,56.7z
			"/>
		<path class="st4" d="M249.7,62.3l0.2-0.8h0.1c0.1,0.1,0.2,0.2,0.3,0.2c0.1,0.1,0.2,0.1,0.3,0.1c0.2,0,0.4-0.1,0.5-0.3
			c0.2-0.2,0.4-0.7,0.8-1.6c-0.1-0.4-0.4-1.1-0.9-2.1l-0.5-1.1l-0.4-0.8c-0.1-0.3-0.3-0.4-0.5-0.4h-0.2v-0.3c0.3,0,0.6,0,0.9,0
			c0.2,0,0.7,0,1.4,0v0.3h-0.4c-0.1,0-0.2,0-0.3,0.1c-0.1,0-0.1,0.1-0.1,0.2c0,0.1,0,0.2,0.1,0.3c0.3,0.9,0.7,1.9,1.2,2.9
			c0.4-0.9,0.8-1.8,1.1-2.7c0.1-0.3,0.1-0.4,0.1-0.5c0-0.1-0.1-0.2-0.3-0.2l-0.4-0.1v-0.3c0.4,0,0.7,0,1,0c0.3,0,0.6,0,0.8,0v0.3
			h-0.2c-0.1,0-0.2,0-0.2,0.1c-0.1,0-0.1,0.1-0.2,0.2c-0.1,0.2-0.4,0.8-0.9,1.9c-0.1,0.3-0.5,1.1-1,2.4c-0.5,1.1-0.8,1.7-0.8,1.8
			c-0.1,0.2-0.3,0.4-0.5,0.5c-0.2,0.1-0.4,0.2-0.6,0.2c-0.1,0-0.2,0-0.3,0C249.9,62.4,249.8,62.4,249.7,62.3z"/>
		<path class="st4" d="M259.1,62.1l-0.2,0.2c-0.5-0.5-1-1.1-1.2-1.5c-0.3-0.5-0.5-1-0.7-1.6s-0.2-1.2-0.2-1.8c0-0.7,0.1-1.4,0.3-2.1
			s0.5-1.2,0.8-1.6c0.3-0.4,0.7-0.9,1.1-1.2l0.2,0.3c-0.4,0.4-0.7,0.9-0.9,1.3c-0.2,0.4-0.4,0.9-0.5,1.4c-0.1,0.5-0.2,1.1-0.2,1.8
			c0,0.7,0.1,1.3,0.2,1.9s0.3,1,0.4,1.5C258.3,61,258.6,61.5,259.1,62.1z"/>
		<path class="st4" d="M263.3,55.9l3.3,3.1l0.3,0.3c0.1,0.1,0.1,0.1,0.2,0.1c0.1,0,0.2,0,0.3,0v0.3c-0.3,0-0.5,0-0.7,0
			c-0.2,0-0.4,0-0.7,0l-3.3-3.2c-0.1-0.1-0.2-0.2-0.2-0.2c-0.1,0-0.1,0.1-0.1,0.2V58c0,0.7,0,1.1,0,1.2c0,0.1,0.2,0.2,0.5,0.2h0.4
			v0.3c-0.5,0-1,0-1.4,0c-0.4,0-0.9,0-1.4,0v-0.3h0.4c0.3,0,0.4,0,0.5-0.1c0.1-0.1,0.1-0.5,0.1-1.2v-3.2c0-0.9,0-1.4-0.1-1.5
			s-0.2-0.2-0.5-0.2h-0.4v-0.3c0.6,0,1,0,1.3,0c0.2,0,0.7,0,1.5,0v0.3l-0.4,0c-0.2,0-0.4,0-0.4,0.1c-0.1,0-0.1,0.1-0.1,0.3
			c0,0.1,0,0.6,0,1.3v1.3h0.1c0.3-0.2,0.5-0.4,0.7-0.6s0.5-0.5,0.9-0.9l1.4-1.4v-0.3c0.4,0,0.6,0,0.9,0c0.2,0,0.5,0,0.8,0v0.3h-0.3
			c-0.2,0-0.4,0-0.6,0.1c-0.2,0.1-0.5,0.4-1.1,0.9L263.3,55.9z"/>
		<path class="st4" d="M268.7,56.3c0-1.1,0.3-1.9,1-2.6c0.7-0.7,1.6-1,2.7-1c1.1,0,2,0.3,2.6,0.9c0.6,0.6,1,1.4,1,2.4
			c0,1.1-0.4,2-1.1,2.7c-0.7,0.7-1.7,1.1-2.8,1.1c-0.7,0-1.3-0.1-1.8-0.4c-0.5-0.3-0.9-0.7-1.2-1.2C268.8,57.6,268.7,57,268.7,56.3z
			 M269.7,55.9c0,0.7,0.1,1.4,0.4,1.9c0.3,0.5,0.6,0.9,1,1.2c0.4,0.3,0.9,0.4,1.4,0.4c0.5,0,0.9-0.1,1.3-0.3c0.4-0.2,0.7-0.6,0.9-1
			c0.2-0.5,0.3-1,0.3-1.7c0-0.7-0.1-1.3-0.4-1.8c-0.2-0.5-0.6-0.9-1-1.1c-0.4-0.2-0.9-0.4-1.5-0.4c-0.5,0-1,0.1-1.3,0.3
			c-0.4,0.2-0.7,0.5-0.9,1C269.8,54.8,269.7,55.3,269.7,55.9z"/>
		<path class="st4" d="M281.9,53.1c-0.1,0.3-0.1,0.8-0.1,1.3h-0.3v-0.4c0-0.3,0-0.4-0.1-0.5c-0.1-0.1-0.2-0.2-0.5-0.3
			s-0.6-0.2-0.9-0.2c-0.5,0-0.9,0.1-1.2,0.4s-0.4,0.6-0.4,1c0,0.3,0.1,0.5,0.2,0.7c0.1,0.2,0.3,0.3,0.5,0.4s0.6,0.2,1.3,0.2
			c0.7,0.1,1.1,0.2,1.4,0.3c0.2,0.1,0.4,0.3,0.6,0.5c0.1,0.2,0.2,0.5,0.2,0.8c0,0.7-0.3,1.2-0.8,1.7c-0.5,0.5-1.3,0.7-2.2,0.7
			c-0.3,0-0.6,0-0.9-0.1s-0.6-0.2-1-0.3c0.1-0.4,0.1-0.9,0.1-1.5h0.3v0.2c0,0.3,0,0.5,0,0.6c0,0.1,0.1,0.2,0.2,0.2
			c0.2,0.1,0.4,0.2,0.6,0.3s0.5,0.1,0.8,0.1c0.6,0,1.1-0.1,1.4-0.4c0.3-0.3,0.5-0.7,0.5-1.1c0-0.3-0.1-0.5-0.2-0.7
			c-0.1-0.2-0.3-0.3-0.5-0.4s-0.6-0.2-1.1-0.2c-0.7-0.1-1.2-0.1-1.5-0.3c-0.3-0.1-0.5-0.3-0.6-0.6c-0.1-0.3-0.2-0.6-0.2-0.9
			c0-0.6,0.2-1.1,0.7-1.5c0.5-0.4,1.1-0.6,1.9-0.6c0.3,0,0.6,0,1,0.1C281.3,52.9,281.6,53,281.9,53.1z"/>
		<path class="st4" d="M285.7,56.4v1.2l0,0.7c0,0.4,0,0.7,0,0.9c0.5,0,1,0.1,1.5,0.1c0.4,0,0.7,0,0.9,0c0.2,0,0.3-0.1,0.5-0.1
			c0.1-0.3,0.2-0.6,0.2-1.1h0.3c-0.1,0.7-0.1,1.2-0.1,1.4l0,0.2c-0.4,0-0.7,0-1.1,0l-0.8,0c-0.8,0-1.5,0-1.9,0c-0.4,0-0.9,0-1.5,0
			v-0.3h0.2c0.3,0,0.5,0,0.5-0.1c0.1-0.1,0.1-0.2,0.1-0.4c0-0.2,0-0.7,0-1.3v-2.7c0-0.4,0-0.8,0-1.1c0-0.3,0-0.4-0.1-0.5
			s-0.1-0.1-0.1-0.1c0,0-0.2-0.1-0.4-0.1l-0.4,0v-0.3h0.5l0.5,0c0.3,0,0.5,0,0.7,0l1.9,0l0.9,0c0.3,0,0.6,0,0.9,0
			c-0.1,0.4-0.2,0.9-0.2,1.5h-0.3c0-0.4,0-0.7-0.1-0.9c-0.4-0.1-0.9-0.2-1.4-0.2c-0.4,0-0.9,0-1.4,0.1c0,0.3,0,0.6,0,0.9l0,0.7v1
			c0.3,0,0.6,0,0.8,0c0.8,0,1.2,0,1.3-0.1s0.2-0.2,0.2-0.5v-0.3h0.3c0,0.5,0,0.9,0,1.2c0,0.3,0,0.7,0,1.1H288V57
			c0-0.3-0.1-0.5-0.2-0.6c-0.1-0.1-0.5-0.1-1.3-0.1C286.2,56.4,285.9,56.4,285.7,56.4z"/>
		<path class="st4" d="M292.1,53.9v3.4c0,0.8,0,1.3,0,1.6c0,0.2,0.1,0.4,0.1,0.4c0.1,0,0.2,0.1,0.5,0.1l0.3,0v0.3c-0.4,0-0.7,0-1,0
			c-0.2,0-0.7,0-1.4,0v-0.3h0.3c0.2,0,0.3,0,0.4-0.1s0.1-0.2,0.1-0.3c0-0.4,0.1-0.8,0.1-1.5v-2.4c0-0.5,0-0.9,0-1.3
			c0-0.2,0-0.3-0.1-0.4c0-0.1-0.1-0.1-0.2-0.2c-0.1-0.1-0.2-0.1-0.4-0.1h-0.3v-0.3c0.4,0,0.7,0,0.9,0c0.2,0,0.5,0,0.8,0
			c0.3,0.4,0.6,0.8,0.9,1.1s0.6,0.7,0.9,1.1l1.7,2c0.6,0.7,1,1.2,1.3,1.5v-3.1c0-1.3,0-2-0.1-2.1s-0.2-0.2-0.6-0.2l-0.4,0v-0.3
			c0.5,0,0.9,0,1.2,0c0.3,0,0.7,0,1.2,0v0.3h-0.4c-0.3,0-0.5,0.1-0.5,0.3c0,0.1,0,0.8,0,2.1v2.2c0,0.6,0,1.3,0.1,2.1
			c-0.4-0.1-0.7-0.1-0.8-0.1c-0.1,0-0.1-0.1-0.2-0.2c-0.4-0.4-0.7-0.8-1.1-1.3L292.1,53.9z"/>
		<path class="st4" d="M300,52.7l0.2-0.2c0.5,0.5,1,1,1.2,1.5s0.5,1,0.7,1.6c0.2,0.6,0.2,1.2,0.2,1.8c0,0.7-0.1,1.4-0.3,2.1
			s-0.5,1.2-0.8,1.6c-0.3,0.4-0.7,0.9-1.1,1.3l-0.2-0.3c0.4-0.4,0.7-0.9,0.9-1.3s0.4-0.9,0.5-1.4c0.1-0.5,0.2-1.1,0.2-1.8
			c0-0.7-0.1-1.3-0.2-1.9c-0.1-0.5-0.3-1-0.4-1.5C300.7,53.8,300.4,53.3,300,52.7z"/>
		<path class="st4" d="M309.5,58.3l0.1,0.1c-0.2,0.4-0.4,0.9-0.6,1.2c-0.2,0.4-0.5,0.8-0.9,1.2l-0.4,0.2l-0.1-0.2
			c0.3-0.4,0.5-0.8,0.6-1.2c0.1-0.4,0.2-0.7,0.3-1.1C308.9,58.5,309.2,58.4,309.5,58.3z"/>
		<path class="st4" d="M314.8,59.4h0.3c0.3,0,0.5-0.1,0.5-0.2c0.1-0.1,0.1-0.8,0.1-2.1v-1.6c0-1.3,0-2-0.1-2.1
			c-0.1-0.1-0.2-0.2-0.5-0.2h-0.4v-0.3c0.5,0,1.1,0,1.6,0c0.4,0,0.8,0,1.2,0v0.3h-0.4c-0.2,0-0.4,0-0.4,0.1
			c-0.1,0.1-0.1,0.2-0.1,0.4c0,0.3,0,1,0,1.8v1.7c0,1.3,0,2,0.1,2.1c0.1,0.1,0.2,0.2,0.5,0.2h0.3v0.3c-0.4,0-0.8,0-1.3,0
			c-0.5,0-1,0-1.5,0V59.4z"/>
		<path class="st4" d="M318.9,53.1v-0.3c0.3,0,0.6-0.1,0.9-0.1c0.2,0,0.4-0.1,0.7-0.2c0,0,0.1,0,0.1,0c0.1,0,0.1,0.1,0.1,0.2l0,0.2
			c0,0.2,0,0.3,0,0.4c0,0.4,0,1,0,1.7v1l0.6-0.6c0.1-0.1,0.3-0.2,0.5-0.3c0.2-0.1,0.4-0.1,0.7-0.1c0.5,0,0.9,0.2,1.3,0.5
			c0.3,0.4,0.5,0.8,0.5,1.4c0,0.3-0.1,0.6-0.2,1c-0.1,0.3-0.3,0.6-0.4,0.7c-0.1,0.1-0.3,0.3-0.6,0.5c-0.4,0.3-0.6,0.4-0.7,0.5
			c-0.2,0.1-0.4,0.1-0.7,0.1c-0.2,0-0.5,0-0.7-0.1c-0.2-0.1-0.4-0.2-0.6-0.3l-0.4,0.4l-0.2-0.1c0.1-0.5,0.1-1,0.1-1.6V55
			c0-0.5,0-1,0-1.5c0-0.2,0-0.4-0.1-0.4c0,0-0.1-0.1-0.3-0.1H318.9z M320.6,58.1c0,0.3,0,0.5,0,0.6c0.1,0.1,0.2,0.2,0.4,0.4
			c0.2,0.1,0.5,0.2,0.7,0.2c0.5,0,0.8-0.2,1.1-0.6c0.3-0.4,0.4-0.8,0.4-1.4c0-0.6-0.1-1-0.4-1.3c-0.2-0.3-0.6-0.4-1-0.4
			c-0.3,0-0.5,0.1-0.8,0.2c-0.2,0.2-0.4,0.4-0.5,0.6c0,0.1,0,0.3,0,0.6V58.1z"/>
		<path class="st4" d="M326,56.3l0-0.3l0-0.3l0.5-0.3c0.2-0.1,0.4-0.2,0.6-0.3c0.2-0.1,0.4-0.1,0.6-0.1c0.4,0,0.8,0.1,1.1,0.3
			c0.3,0.2,0.4,0.5,0.5,0.8c0,0.2,0.1,0.8,0.1,1.7c0,0.9,0,1.3,0.1,1.4c0,0.1,0.1,0.1,0.2,0.1h0.4v0.3c-0.4,0-0.6,0-0.8,0
			c-0.2,0-0.4,0-0.7,0l0-0.4c0-0.1,0-0.3,0-0.4l-1,0.8c-0.1,0.1-0.2,0.1-0.3,0.1s-0.2,0-0.4,0c-0.4,0-0.7-0.1-1-0.3
			c-0.2-0.2-0.3-0.5-0.3-0.8c0-0.3,0.1-0.6,0.2-0.9c0.2-0.2,0.4-0.4,0.7-0.5c0.3-0.1,1-0.3,2-0.5c0-0.4-0.1-0.7-0.3-0.9
			c-0.2-0.3-0.5-0.4-0.9-0.4c-0.2,0-0.3,0-0.4,0.1c-0.1,0-0.3,0.1-0.4,0.2c-0.1,0.2-0.2,0.5-0.3,0.7L326,56.3z M328.6,57.1
			c-0.9,0.2-1.5,0.4-1.7,0.5c-0.2,0.2-0.4,0.4-0.4,0.8c0,0.2,0.1,0.4,0.2,0.6c0.1,0.1,0.3,0.2,0.5,0.2c0.2,0,0.5-0.1,0.7-0.2
			c0.2-0.1,0.4-0.3,0.6-0.6l0-1.1L328.6,57.1z"/>
		<path class="st4" d="M333.1,56.1c0.1-0.1,0.3-0.3,0.4-0.5c0.2-0.2,0.4-0.4,0.5-0.5c0.2-0.1,0.3-0.1,0.5-0.1c0.2,0,0.3,0,0.4,0.1
			c0,0,0.1,0,0.1,0.1l0,0c-0.1,0.3-0.1,0.6-0.1,1.1h-0.2c-0.1-0.2-0.2-0.3-0.3-0.3c-0.1-0.1-0.2-0.1-0.4-0.1c-0.2,0-0.4,0.1-0.5,0.2
			c-0.2,0.1-0.3,0.3-0.3,0.5c-0.1,0.2-0.1,0.7-0.1,1.4c0,0.4,0,0.8,0.1,1.1c0,0.1,0,0.2,0.1,0.2c0.1,0.1,0.3,0.1,0.5,0.1h0.3v0.3
			c-0.5,0-1,0-1.4,0c-0.4,0-0.9,0-1.3,0v-0.3l0.5,0c0.2,0,0.3,0,0.3-0.1c0,0,0.1-0.2,0.1-0.5c0-0.5,0-1,0-1.7c0-0.8,0-1.2-0.1-1.4
			c0-0.1-0.2-0.1-0.4-0.1h-0.4v-0.3c0.3,0,0.6-0.1,0.8-0.1c0.2-0.1,0.5-0.1,0.7-0.2c0,0,0.1,0,0.1,0c0,0,0.1,0,0.1,0
			c0,0,0,0.1,0,0.1L333.1,56.1z"/>
		<path class="st4" d="M336.9,56.3l0-0.3l0-0.3l0.5-0.3c0.2-0.1,0.4-0.2,0.6-0.3c0.2-0.1,0.4-0.1,0.6-0.1c0.4,0,0.8,0.1,1.1,0.3
			c0.3,0.2,0.4,0.5,0.5,0.8c0,0.2,0.1,0.8,0.1,1.7c0,0.9,0,1.3,0.1,1.4c0,0.1,0.1,0.1,0.2,0.1h0.4v0.3c-0.4,0-0.6,0-0.8,0
			c-0.2,0-0.4,0-0.7,0l0-0.4c0-0.1,0-0.3,0-0.4l-1,0.8c-0.1,0.1-0.2,0.1-0.3,0.1s-0.2,0-0.4,0c-0.4,0-0.7-0.1-1-0.3
			c-0.2-0.2-0.3-0.5-0.3-0.8c0-0.3,0.1-0.6,0.2-0.9c0.2-0.2,0.4-0.4,0.7-0.5c0.3-0.1,1-0.3,2-0.5c0-0.4-0.1-0.7-0.3-0.9
			c-0.2-0.3-0.5-0.4-0.9-0.4c-0.2,0-0.3,0-0.4,0.1c-0.1,0-0.3,0.1-0.4,0.2c-0.1,0.2-0.2,0.5-0.3,0.7L336.9,56.3z M339.5,57.1
			c-0.9,0.2-1.5,0.4-1.7,0.5c-0.2,0.2-0.4,0.4-0.4,0.8c0,0.2,0.1,0.4,0.2,0.6c0.1,0.1,0.3,0.2,0.5,0.2c0.2,0,0.5-0.1,0.7-0.2
			s0.4-0.3,0.6-0.6l0-1.1L339.5,57.1z"/>
		<path class="st4" d="M344,57.3v0.6c0,0.8,0,1.3,0.1,1.4c0.1,0.1,0.2,0.2,0.5,0.2h0.3v0.3l-0.3,0c-0.5,0-0.8,0-0.9,0l-1.3,0v-0.3
			h0.3c0.2,0,0.4,0,0.4-0.1c0-0.1,0.1-0.6,0.1-1.4V55c0-1.1,0-1.7-0.1-1.8c0-0.1-0.2-0.1-0.4-0.1h-0.4v-0.3c0.3,0,0.7-0.1,1.2-0.2
			l0.5-0.2c0.1,0,0.1,0,0.1,0.1l0,0.5c0,0.1,0,0.8,0,2V57l0.1,0c0.3-0.2,0.5-0.4,0.8-0.6c0.1-0.1,0.3-0.3,0.7-0.7l0.7-0.7h1v0.3
			h-0.2c-0.1,0-0.3,0.1-0.4,0.2c-0.4,0.2-0.9,0.7-1.7,1.3c0.6,0.6,1,1,1.1,1.1c0.6,0.6,1,0.9,1.2,1.1c0.1,0.1,0.2,0.1,0.2,0.1
			c0.1,0,0.1,0,0.2,0.1v0.2c-0.3,0.1-0.6,0.2-0.9,0.3c-0.2-0.2-0.6-0.6-1.4-1.3C344.8,58,344.4,57.6,344,57.3L344,57.3z"/>
		<path class="st4" d="M350.5,55l0.1,0.1c0,0.2,0,0.5,0,0.8c0,0.9,0,1.6,0,2.1c0,0.4,0,0.8,0,1.1c0,0.1,0,0.2,0.1,0.2
			c0,0,0.2,0.1,0.3,0.1l0.3,0v0.3c-0.5,0-0.9,0-1.3,0c-0.4,0-0.8,0-1.2,0v-0.3l0.4,0c0.2,0,0.3,0,0.3-0.1c0,0,0.1-0.2,0.1-0.5
			c0-0.4,0-1,0-1.7c0-0.5,0-0.9,0-1.2c0-0.1,0-0.2-0.1-0.2c0,0-0.2-0.1-0.3-0.1h-0.4v-0.3c0.4-0.1,0.7-0.1,0.9-0.2
			S350.2,55.1,350.5,55z M350.1,52.8c0.1,0,0.3,0.1,0.4,0.2s0.2,0.2,0.2,0.4c0,0.2-0.1,0.3-0.2,0.4c-0.1,0.1-0.2,0.2-0.4,0.2
			c-0.2,0-0.3-0.1-0.4-0.2c-0.1-0.1-0.2-0.2-0.2-0.4c0-0.2,0.1-0.3,0.2-0.4S350,52.8,350.1,52.8z"/>
		<path class="st4" d="M362.3,54.6l0-0.9c-0.3-0.2-0.6-0.3-0.9-0.4s-0.6-0.1-1-0.1c-0.9,0-1.6,0.3-2.1,0.8c-0.5,0.5-0.8,1.2-0.8,2.1
			c0,0.6,0.1,1.2,0.4,1.7c0.3,0.5,0.6,0.9,1.1,1.2c0.5,0.3,1,0.4,1.6,0.4c0.4,0,0.9,0,1.3-0.2c0.3-0.1,0.6-0.2,1-0.5l0.1,0.1
			c-0.1,0.1-0.1,0.3-0.2,0.5c-0.4,0.2-0.8,0.3-1.1,0.4c-0.4,0.1-0.8,0.1-1.2,0.1c-0.8,0-1.5-0.2-2.1-0.5s-1.1-0.7-1.4-1.3
			c-0.3-0.5-0.5-1.2-0.5-1.8s0.2-1.3,0.5-1.8c0.3-0.5,0.8-1,1.4-1.3c0.6-0.3,1.3-0.4,2.2-0.4c0.5,0,1,0.1,1.6,0.2
			c0.3,0.1,0.6,0.1,0.7,0.2c-0.1,0.3-0.2,0.8-0.3,1.5H362.3z"/>
		<path class="st4" d="M364.4,57.4c0-0.4,0.1-0.8,0.3-1.2c0.2-0.4,0.5-0.6,0.9-0.8c0.4-0.2,0.8-0.3,1.3-0.3c0.7,0,1.2,0.2,1.7,0.6
			c0.4,0.4,0.6,1,0.6,1.6c0,0.8-0.3,1.4-0.8,1.9c-0.5,0.4-1.1,0.6-1.7,0.6c-0.6,0-1.2-0.2-1.6-0.7S364.4,58.1,364.4,57.4z M365.3,57
			c0,0.7,0.1,1.2,0.4,1.7c0.3,0.5,0.7,0.7,1.2,0.7c0.4,0,0.7-0.1,0.9-0.4s0.4-0.7,0.4-1.4c0-0.5-0.1-0.9-0.2-1.3
			c-0.1-0.4-0.3-0.6-0.6-0.8c-0.2-0.2-0.5-0.2-0.8-0.2c-0.3,0-0.5,0.1-0.7,0.2c-0.2,0.1-0.4,0.3-0.5,0.5
			C365.4,56.4,365.3,56.7,365.3,57z"/>
		<path class="st4" d="M372.4,52.5c-0.1,0.9-0.1,1.8-0.1,2.6v2.5c0,1,0,1.6,0.1,1.7c0,0.1,0.1,0.1,0.3,0.1l0.4,0v0.3
			c-0.4,0-0.7,0-1,0c-0.4,0-0.8,0-1.4,0v-0.3l0.4,0c0.2,0,0.3-0.1,0.3-0.1c0-0.1,0.1-0.7,0.1-1.7V55l0-0.9l0-0.6
			c0-0.2,0-0.3-0.1-0.3c-0.1-0.1-0.2-0.1-0.3-0.1h-0.4v-0.3C371.4,52.8,372,52.6,372.4,52.5L372.4,52.5z"/>
		<path class="st4" d="M376.3,52.5c-0.1,0.9-0.1,1.8-0.1,2.6v2.5c0,1,0,1.6,0.1,1.7c0,0.1,0.1,0.1,0.3,0.1l0.4,0v0.3
			c-0.4,0-0.7,0-1,0c-0.4,0-0.8,0-1.4,0v-0.3l0.4,0c0.2,0,0.3-0.1,0.3-0.1c0-0.1,0.1-0.7,0.1-1.7V55l0-0.9l0-0.6
			c0-0.2,0-0.3-0.1-0.3c-0.1-0.1-0.2-0.1-0.3-0.1h-0.4v-0.3C375.3,52.8,375.8,52.6,376.3,52.5L376.3,52.5z"/>
		<path class="st4" d="M379.5,57.4c0,0.6,0.2,1.1,0.5,1.5c0.3,0.3,0.7,0.5,1.2,0.5c0.2,0,0.5,0,0.7-0.1c0.2-0.1,0.4-0.2,0.7-0.3
			l0.1,0.1l-0.2,0.4c-0.3,0.2-0.5,0.3-0.8,0.3c-0.3,0.1-0.6,0.1-0.9,0.1c-0.7,0-1.2-0.2-1.6-0.6c-0.4-0.4-0.6-1-0.6-1.7
			c0-0.5,0.1-1,0.3-1.4c0.1-0.3,0.4-0.5,0.8-0.7c0.4-0.2,0.8-0.3,1.2-0.3c0.6,0,1,0.2,1.4,0.5c0.3,0.3,0.5,0.8,0.5,1.4l0,0.3
			c-0.2,0.1-0.4,0.1-0.6,0.1c-0.3,0-0.8,0-1.4,0H379.5z M379.5,57c0.5,0,1.1,0,1.7,0c0.2,0,0.5,0,0.7,0v-0.3c0-0.3-0.1-0.6-0.2-0.8
			c-0.1-0.2-0.2-0.3-0.4-0.4c-0.2-0.1-0.4-0.2-0.6-0.2c-0.4,0-0.7,0.1-0.9,0.4C379.6,56,379.5,56.4,379.5,57z"/>
		<path class="st4" d="M388.4,55.9c0.1,0.2,0.1,0.4,0.1,0.5c0,0.3-0.1,0.6-0.3,0.8c-0.2,0.3-0.4,0.5-0.7,0.6s-0.7,0.2-1,0.2l-0.2,0
			c-0.2,0.2-0.3,0.3-0.4,0.4c-0.1,0.1-0.1,0.2-0.1,0.2c0,0.1,0.1,0.2,0.2,0.3c0.1,0.1,0.4,0.1,0.8,0.1c0.1,0,0.4,0,0.6,0
			c0.4,0,0.7,0,0.9,0c0.3,0,0.5,0,0.6,0.1c0.1,0.1,0.3,0.2,0.3,0.4c0.1,0.2,0.1,0.4,0.1,0.7c0,0.4-0.1,0.7-0.3,1
			c-0.2,0.3-0.5,0.6-1,0.8s-0.9,0.3-1.5,0.3c-0.7,0-1.2-0.1-1.5-0.4c-0.4-0.3-0.5-0.6-0.5-1.1c0-0.3,0.1-0.5,0.3-0.8
			c0.3-0.2,0.6-0.3,0.8-0.5c-0.3-0.1-0.4-0.2-0.5-0.2c-0.1-0.1-0.1-0.2-0.1-0.3c0-0.1,0-0.3,0.1-0.4c0-0.1,0.1-0.2,0.3-0.3l0.5-0.3
			c-0.4-0.1-0.7-0.2-0.8-0.4c-0.2-0.2-0.3-0.5-0.3-0.9c0-0.3,0.1-0.6,0.3-0.9c0.2-0.3,0.4-0.5,0.7-0.6c0.4-0.2,0.8-0.3,1.2-0.3
			c0.2,0,0.5,0,0.6,0.1c0.2,0.1,0.4,0.2,0.6,0.3h0.4c0.4,0,0.7,0,1,0l0.1,0.1c-0.1,0.1-0.2,0.3-0.3,0.4H388.4z M386.3,59.8
			c-0.2,0-0.4,0-0.5,0.1c-0.3,0.2-0.4,0.3-0.5,0.4c-0.1,0.2-0.1,0.4-0.1,0.6c0,0.4,0.1,0.6,0.4,0.9c0.3,0.2,0.6,0.3,1.1,0.3
			c0.4,0,0.7-0.1,0.9-0.2c0.3-0.1,0.5-0.3,0.6-0.5c0.1-0.2,0.2-0.5,0.2-0.7c0-0.2-0.1-0.4-0.2-0.6c-0.1-0.2-0.2-0.3-0.4-0.3
			c-0.1,0-0.2,0-0.5,0H386.3z M387.6,56.7c0-0.4-0.1-0.7-0.3-1c-0.2-0.2-0.5-0.4-0.8-0.4c-0.3,0-0.6,0.1-0.8,0.3
			c-0.2,0.2-0.3,0.5-0.3,0.8c0,0.4,0.1,0.8,0.3,1c0.2,0.2,0.5,0.4,0.8,0.4c0.3,0,0.6-0.1,0.8-0.3C387.5,57.3,387.6,57.1,387.6,56.7z
			"/>
		<path class="st4" d="M391.7,57.4c0,0.6,0.2,1.1,0.5,1.5c0.3,0.3,0.7,0.5,1.2,0.5c0.2,0,0.5,0,0.7-0.1c0.2-0.1,0.4-0.2,0.7-0.3
			l0.1,0.1l-0.2,0.4c-0.3,0.2-0.5,0.3-0.8,0.3c-0.3,0.1-0.6,0.1-0.9,0.1c-0.7,0-1.2-0.2-1.6-0.6c-0.4-0.4-0.6-1-0.6-1.7
			c0-0.5,0.1-1,0.3-1.4c0.1-0.3,0.4-0.5,0.8-0.7c0.4-0.2,0.8-0.3,1.2-0.3c0.6,0,1,0.2,1.4,0.5c0.3,0.3,0.5,0.8,0.5,1.4l0,0.3
			c-0.2,0.1-0.4,0.1-0.6,0.1c-0.3,0-0.8,0-1.4,0H391.7z M391.8,57c0.5,0,1.1,0,1.7,0c0.2,0,0.5,0,0.7,0v-0.3c0-0.3-0.1-0.6-0.2-0.8
			c-0.1-0.2-0.2-0.3-0.4-0.4c-0.2-0.1-0.4-0.2-0.6-0.2c-0.4,0-0.7,0.1-0.9,0.4S391.8,56.4,391.8,57z"/>
	</g>
</g>
</svg>
