<svg xmlns="http://www.w3.org/2000/svg" xml:space="preserve" id="logo_00000152256466475496654580000011528719097944234141_" width="399.9" height="65" x="0" y="0" version="1.1" viewBox="0 0 399.9 65">
  <style>
    .st0,.st3{fill:#fff}
  </style>
  <g id="原寸_1_">
    <path d="M27.7 30c-6-4.5-6.4-12.2-6.4-12.3h.5c0 .1.4 7.6 6.2 11.9l-.3.4zm.6-.9c-3.8-6.1-3.1-13-3-13.3l.5.1c0 .3-.7 7 3 13l-.5.2zm1.4-.9c-3.2-7.6-.7-13.4-.6-13.5l.4.2c0 .1-2.5 5.7.6 13.1l-.4.2zm1.1-3.9c-.1-5.6 2.3-10 2.3-10l.4.2s-2.4 4.3-2.2 9.8h-.5zm4.2-5-.5-.1c.9-3.1 2.5-4.5 2.6-4.5l.3.4c.1-.1-1.5 1.3-2.4 4.2zm1.3 6.7-.4-.2c3.7-6.7 8.7-8 8.9-8.1l.1.5c-.1-.1-5.1 1.3-8.6 7.8zm2 .3-.3-.4c4.4-4.3 10-5.5 10-5.5l.1.5c-.1 0-5.5 1.2-9.8 5.4zm-.5 2-.3-.4c6.1-4.6 13.1-4.4 13.2-4.4v.5c-.1 0-6.9-.2-12.9 4.3zm1.3 1.7-.3-.4c6.2-4.2 13.4-2.3 13.5-2.3l-.1.5c-.1-.1-7.1-1.9-13.1 2.2zM53 32c-.1 0-5.8-3.1-12.5-1.2l-.1-.5c6.9-1.9 12.8 1.2 12.9 1.2l-.3.5zm-.6 7.8s-4.1-4.9-11.6-6.2l.1-.5c7.7 1.3 11.9 6.3 11.9 6.3l-.4.4zm-1.7 3.6-.3-.1.2-.1-.2.1c0-.1-3.3-5.9-9.5-7.9l.2-.5c3.3 1.1 5.8 3.3 7.3 4.9 1.3 1.4 2.3 2.8 2.5 3.3v.1l-.2.2zm-2.5 3.7c0-.1-3-8.3-8.6-10.4l.2-.5c5.8 2.2 8.8 10.4 8.9 10.7l-.5.2z" class="st0"/>
    <path d="M45.4 50c0-.1-.5-7.8-7.4-13.2l.3-.4c7.1 5.5 7.6 13.5 7.6 13.6h-.5z" class="st0"/>
    <path d="m42.1 51.9-.5-.1c0-.1 1.6-7.1-3.3-13.4l.4-.3c5.1 6.5 3.5 13.8 3.4 13.8zm-7.3 1.6-.4-.3s.7-1.1 1.3-3.8l.5.1c-.7 2.8-1.4 3.9-1.4 4zm-5 0-.4-.3s3.6-4 4.7-10l.5.1c-1 6.1-4.7 10.1-4.8 10.2zM26 52.4l-.3-.4s4.3-2.7 6.5-8.6l.5.2c-2.2 6.1-6.7 8.8-6.7 8.8zm-3.4-1.8-.1-.5s4-1.3 7.8-6.7l.4.3c-3.9 5.6-7.9 6.9-8.1 6.9zm-3.7-2.8v-.5c.1 0 5.5-.4 10-5.2l.4.3c-4.8 5-10.4 5.4-10.4 5.4zm-.3-6.4c-2.2 0-3.7-.4-3.8-.4l.1-.5c.1 0 7.3 1.8 13.9-2.8l.3.4c-3.7 2.8-7.7 3.3-10.5 3.3zm9.1-4.1c-1.2.2-2.3.3-3.5.5-1.2.1-2.3.2-3.5.1h-.3c-4-.3-6.4-1.8-6.4-1.8l-.3.4c.1.1 3 2 7.9 2 .5 0 1 0 1.6-.1h1c1.2-.3 2.4-.6 3.5-1.1zm-3.2-.9c-6.8 0-10.7-3.7-10.8-3.8l.3-.3s4.6 4.4 12.4 3.5l.1.5c-.7.1-1.3.1-2 .1zm2.2-1.4c-7.7-1.5-12-6.4-12-6.5l.4-.3s4.2 4.9 11.7 6.3l-.1.5zm-.9-2.5c-7-2.5-9.6-8.5-9.6-8.6l.4-.2c0 .1 2.5 5.8 9.3 8.3l-.1.5z" class="st0"/>
    <path d="M25.8 31.6c-2.1-.8-5-3-7.1-6.7-1.5-2.7-3-7.2-1.4-12.8C20.4 1.4 30 .1 34 0c2.7 0 6 1 8.8 2.9 2.3 1.6 5.4 4.4 6.8 9l-.8.2C46.6 4.4 38.8.8 34.2.8h-.1c-3.8.1-13 1.3-15.9 11.4-1.5 5.4-.1 9.6 1.3 12.2 1.9 3.5 4.7 5.6 6.7 6.3l-.4.9z" class="st0"/>
    <path d="m59.4 42.5-.4-.7c3.3-1.9 6.8-6.7 7.4-12.4.3-3.5-.4-8.6-5.8-13.2-4.8-4.1-9.9-4.2-13.3-3.6-4.9.9-8.8 3.8-10.1 6.1l-.7-.4c1.4-2.5 5.4-5.5 10.6-6.5 3.6-.7 8.9-.6 14 3.8 5.6 4.8 6.4 10.2 6 13.9-.5 5.9-4.2 11-7.7 13z" class="st0"/>
    <path d="M43.6 64.8c-3.6 0-7.2-1.2-10.3-3.5l.5-.6c4.4 3.3 9.9 4.2 15 2.5 5.1-1.8 9-6 10.3-11 1.4-5.2.2-10.6-3.1-14.5-3.5-4.2-8.9-6.2-15.2-5.7l-.1-.8c6.5-.5 12.2 1.6 15.8 6 3.5 4.2 4.7 9.9 3.3 15.3-1.4 5.3-5.5 9.7-10.9 11.5-1.6.5-3.4.8-5.3.8z" class="st0"/>
    <path d="M23.1 64.9c-5.7 0-10.5-2.3-13.6-6.7-3.3-4.6-4.1-10.9-2-16.1l.7.3c-2 4.9-1.3 10.9 1.9 15.3C13 61.8 17.6 64 23 64h1.2c5.8-.3 10.4-3.2 13.1-8 2.7-4.8 2.9-11.1.7-15.3l.7-.4c2.5 4.5 2.2 10.9-.7 16.1-2.8 5.1-7.7 8.1-13.8 8.4-.3 0-.7.1-1.1.1z" class="st0"/>
    <path d="M17 45.1h-.9c-3.7-.2-10.4-1.7-14.4-9.6-2.6-5.9-2.2-11.8 1.2-16.6 3.4-4.8 9.3-7.7 15-7.2l-.1.8c-5.4-.4-11 2.3-14.2 6.9C.4 24 0 29.6 2.5 35.2c3.8 7.6 10.2 9 13.7 9.1 5.8.3 10.9-2.2 12.5-4.8l.7.4c-1.7 2.6-6.7 5.2-12.4 5.2z" class="st0"/>
    <path d="M14.4 36.2c0 .3-.2.5-.5.5s-.5-.2-.5-.5.2-.5.5-.5c.2.1.5.3.5.5zm1 4.6c0 .3-.2.5-.5.5s-.5-.2-.5-.5.2-.5.5-.5c.3.1.5.3.5.5zm-1-8.4c0 .3-.2.5-.5.5s-.5-.2-.5-.5.2-.5.5-.5c.2.1.5.3.5.5zm1-4c0 .3-.2.5-.5.5s-.5-.2-.5-.5.2-.5.5-.5.5.2.5.5zm1.5-4.5c0 .3-.2.5-.5.5s-.5-.2-.5-.5.2-.5.5-.5.5.2.5.5zm5.1-6.2c0 .3-.2.5-.5.5s-.5-.2-.5-.5.2-.5.5-.5.5.2.5.5zm4-1.8c0 .3-.2.5-.5.5s-.5-.2-.5-.5.2-.5.5-.5.5.2.5.5zm3.8-1.1c0 .3-.2.5-.5.5s-.5-.2-.5-.5.2-.5.5-.5.5.2.5.5zm4.1-.5c0 .3-.2.5-.5.5s-.5-.2-.5-.5.2-.5.5-.5.5.2.5.5zm3.9.5c0 .3-.2.5-.5.5s-.5-.2-.5-.5.2-.5.5-.5.5.2.5.5zm7.5 3.1c0 .3-.2.5-.5.5s-.5-.2-.5-.5.2-.5.5-.5.5.2.5.5zm3.2 2.8c0 .3-.2.5-.5.5s-.5-.2-.5-.5.2-.5.5-.5.5.2.5.5zm2.8 3.1c0 .3-.2.5-.5.5s-.5-.2-.5-.5.2-.5.5-.5.5.2.5.5zm1.5 3.7c0 .3-.2.5-.5.5s-.5-.2-.5-.5.2-.5.5-.5c.3.1.5.3.5.5zm.8 4.4c0 .3-.2.5-.5.5s-.5-.2-.5-.5.2-.5.5-.5.5.2.5.5zm-.5 7.8c0 .3-.2.5-.5.5s-.5-.2-.5-.5.2-.5.5-.5.5.2.5.5zm-1.8 3.9c0 .3-.2.5-.5.5s-.5-.2-.5-.5.2-.5.5-.5.5.2.5.5zM48.8 47c0 .3-.2.5-.5.5s-.5-.2-.5-.5.2-.5.5-.5.5.2.5.5zm-2.7 3c0 .3-.2.5-.5.5s-.5-.2-.5-.5.2-.5.5-.5.5.3.5.5zm-3.7 1.9c0 .3-.2.5-.5.5s-.5-.2-.5-.5.2-.5.5-.5.5.2.5.5zM35 53.4c0 .3-.2.5-.5.5s-.5-.2-.5-.5.2-.5.5-.5.5.2.5.5zm-4.9-.1c0 .3-.2.5-.5.5s-.5-.2-.5-.5.2-.5.5-.5c.3.1.5.3.5.5zm-3.8-1.1c0 .3-.2.5-.5.5s-.5-.2-.5-.5.2-.5.5-.5c.3.1.5.3.5.5zM23 50.4c0 .3-.2.5-.5.5s-.5-.2-.5-.5.2-.5.5-.5.5.2.5.5zm-3.8-2.8c0 .3-.2.5-.5.5s-.5-.2-.5-.5.2-.5.5-.5c.3.1.5.3.5.5zM27 35.8c-.2-.7-.4-1.5-.4-2.2 0-3.7 3-6.8 6.8-6.8 3.4 0 6.3 2.6 6.7 6h-.2c-.4-3.3-3.2-5.8-6.6-5.8-3.6 0-6.6 3-6.6 6.6 0 .7.1 1.5.4 2.2H27z" class="st0"/>
    <path d="M26.4 19.8h14.4c1.3 0 1.3-1.9 0-1.9H26.4c-1.3-.1-1.3 1.9 0 1.9zm5 2.6h4.8c1.3 0 1.3-1.9 0-1.9h-4.8c-1.3-.1-1.3 1.9 0 1.9zm.2 7.5h4.8c1.3 0 1.3-1.9 0-1.9h-4.8c-1.2-.1-1.2 1.9 0 1.9zm0 2.4h4.7c1.3 0 1.3-1.9 0-1.9h-4.7c-1.3-.1-1.3 1.9 0 1.9zM27 27.5h13.5c1.3 0 1.3-1.9 0-1.9H27c-1.2-.1-1.2 1.9 0 1.9zm5-2.6h3.6c1.3 0 1.3-1.9 0-1.9H32c-1.2 0-1.2 1.9 0 1.9z" class="st0"/>
    <path d="M30.1 19.2v4.2c0 1.3 1.9 1.3 1.9 0v-4.2c.1-1.2-1.9-1.2-1.9 0zm-.6 7.4v4.2c0 1.3 1.9 1.3 1.9 0v-4.2c.1-1.2-1.9-1.2-1.9 0zm6.7 0v4.2c0 1.3 1.9 1.3 1.9 0v-4.2c0-1.2-1.9-1.2-1.9 0zm-10.3-.1c0 2.1-.1 4.3-.1 6.4 0 1.3 1.9 1.3 1.9 0 0-2.1.1-4.3.1-6.4 0-1.3-1.9-1.3-1.9 0zm13.8 0v6.4c0 1.3 1.9 1.3 1.9 0v-6.4c0-1.2-1.9-1.2-1.9 0zm-4-7.3v4.2c0 1.3 1.9 1.3 1.9 0v-4.2c0-1.2-1.9-1.2-1.9 0zm-6.3 20.1h8.2c1.3 0 1.3-1.9 0-1.9h-8.2c-1.3 0-1.3 1.9 0 1.9zm0 2.5h8.2c1.3 0 1.3-1.9 0-1.9h-8.2c-1.3 0-1.3 1.9 0 1.9zm.4 2.5h7.3c1.3 0 1.3-1.9 0-1.9h-7.3c-1.2-.1-1.2 1.9 0 1.9zm-3.8 3h15.3c1.3 0 1.3-1.9 0-1.9H26c-1.2 0-1.2 1.9 0 1.9zm-.2-10.5h15c1.3 0 1.3-1.9 0-1.9h-15c-1.3-.1-1.3 1.9 0 1.9z" class="st0"/>
    <path d="M27.9 35.8v7c0 1.3 1.9 1.3 1.9 0v-7c.1-1.3-1.9-1.3-1.9 0zm8.9 0v7c0 1.3 1.9 1.3 1.9 0v-7c.1-1.3-1.9-1.3-1.9 0zm-4.7.3v6.8c0 1.6 2.4 1.6 2.4 0v-6.8c.1-1.6-2.4-1.6-2.4 0z" class="st0"/>
    <path d="M36.6 45.5v3.8c0 1.6 2.4 1.6 2.4 0v-3.8c0-1.6-2.4-1.6-2.4 0z" class="st0"/>
    <path d="M31.3 50.5h6.5c.9 0 .9-1.5 0-1.5h-6.5c-.9.1-.9 1.5 0 1.5z" class="st0"/>
    <path d="M31.3 49.1s-.5 0-.9.4c-.4.3-.3.9.1 1h.8v-1.4zm-4-1.9.6 1.1s.2.6 1.3.6c1.2 0 .6-1.2.6-1.2s-.2-.5-.1-.8c.1-.2-2.4.3-2.4.3zM31.6 35s.3-.1.5-.9c.3-.8 1.1-.8 1.4-.8.3 0 1.1.2 1 .9l.2.9-3.1-.1zm.4-16.7s.1-.1.4-.9c.3-.8 1.1-.8 1.4-.8.3 0 1 .2 1.1 1l.1.9-3-.2zm.1 6.6c-1.1 0-2-.4-2-1.5m5.5 1.5c1.1 0 2-.4 2-1.5m-6.1 8.9c-1.1 0-2-.4-2-1.5m6.6 1.5c1.1 0 2-.4 2-1.5m-8.2 13.5c-1.1 0-2-.4-2-1.5m8.9 1.5c1.1 0 2-.4 2-1.5" class="st0"/>
  </g>
  <path d="m87 24.1 2.4-2.2 2.3 2.1c1.3-.1 2.7-.1 3.9-.1 1.5 0 2.9 0 4.4.1l2.2-2.1 2.5 2.2v.1c1.7.1 3.4.3 5.1.5v1.5c-1.7-.2-3.4-.4-5.1-.5v1.1h-4.9v-1.4c-1.4 0-2.8-.1-4.2-.1-1.2 0-2.4 0-3.7.1v1.4H87v-1.1c-1.8.1-3.7.3-5.6.6v-1.6c1.9-.2 3.8-.4 5.6-.5v-.1zm-5.3 6.4h8.2V32h-8.2v-1.5zm7.1 5c.1 0 .2.2.2.4 0 1-.1 1.8-.3 2.3-.2 1.2-.6 2.1-1.2 2.9-.8 1.1-2.1 2.3-3.8 3.6-.3.2-.6.5-1 .9-.1.1-.3.2-.4.2-.1 0-.2-.1-.3-.4v-1.5c0-.5.1-1 .2-1.5.3-1.2.9-2.3 1.9-3.3.6-.6 1.4-1.2 2.2-1.7.7-.5 1.5-1 2.2-1.7 0-.1.1-.2.3-.2zm.3 10c2.8-1.6 4.9-3.2 6.3-5 1.2-1.4 1.9-2.8 2-4.4v-3.7h4.2v3.7c0 .6-.1 1.1-.2 1.6.3.1.6.2 1 .4 1 .4 1.8 1.1 2.5 2.1.2.3.6 1 1.2 2 1 1.4 2.2 2.4 3.8 3.2.2.1.3.2.3.2s.1.1.1.2-.1.2-.3.2h-.4c-2.2-.2-4-.7-5.5-1.5-1-.6-1.8-1.3-2.2-2.1-.4-1.1-.7-1.9-.8-2.2-.1-.3-.3-.6-.4-.9-.3.5-.6 1-1 1.4-.7.7-1.5 1.3-2.2 1.8-2.4 1.6-5.1 2.8-8 3.6-.1-.2-.3-.4-.4-.6zm9.6-17.7c-.3.2-.8.7-1.3 1.4h11.7v5.4h-4.6v-3.8h-8.2c-1.2 2.1-2.5 3.6-4.1 4.5-.5.3-1.2.6-2.1.9-.1.1-.3.1-.3.1-.1 0-.1 0-.2-.1 0-.1-.1-.2-.1-.3 0-.1.1-.3.2-.3.4-.7.7-1.3.9-1.9.6-1.7 1.3-3 2.2-3.8 1.3-1.4 2.8-2.2 4.7-2.5.3 0 .6-.1 1-.1h.3c.1 0 .1.1.2.1 0 .1 0 .2-.1.3 0 0-.1 0-.2.1zm14.5 1.1h2.7v-6.1h4.2v6.1h3v1.5h-3v13h2.9c.6-2.2.9-5.2.9-8.9v-9.4c1.6-.2 2.9-.6 4-1.3v1.5h5.9c-.3-1.4-.6-2.5-.9-3.1-.1-.1-.1-.2-.1-.2v-.1h.3c.1 0 .2 0 .2.1 1.1.5 2 1.4 2.9 2.8.1.2.3.4.3.7h2.2l-1.6-1.6 2-1.9 1.9 1.9-1.7 1.6h2.7V27h-4.7c.5 1.5 1 3.5 1.3 5.8 0 .3.1.6.1.8.5-.7 1.1-1.4 1.7-2.2.9-1 1.7-2.2 2.4-3.5l.1-.1h.2s.1.1.1.3c-.2 1.1-.7 2.8-1.5 5-.8 1.9-1.5 3.4-2.2 4.5.9 4 2 6.6 3.4 7.8.1 0 .2.1.2.2v.1s0 .1-.1.1-.2 0-.3.1h-.8c-.4 0-.7-.1-1.1-.2-.9-.3-1.7-1-2.4-1.8-.6-.7-1.2-1.7-1.6-2.7l-.2.2c-.8 1.1-1.7 2.5-2.7 4.2 0 0-.1.1-.1.2-.1.1-.2.1-.3.1-.1 0-.1-.1-.1-.2v-.2c.3-1.6.9-3.3 1.7-5.3.3-.6.5-1.1.7-1.6-.3-1.4-.6-2.9-.8-4.6-.3-2.8-.6-5.1-.9-6.9h-6.2v5.5h5.4v11.9h-3.9V33.9h-1.6c-.3 5.6-2.1 9.5-5.4 11.9l-.2-.2c.1-.2.2-.5.3-.7h-9.9v-1.5h3.4v-13h-2.7v-1.5zm34.2-6.2h25.3v1.5h-10.3v19.2H175v1.5h-29.8v-1.5h12.6V24.2h-10.4v-1.5zm30.6 1.5c.3 0 .5-.1.8-.2.6-.2 1.2-.4 1.9-.6.5-.2 1-.3 1.4-.3h.9c.8.1 1.7.3 2.6.7.2.1.4.2.7.2l-.9.3c-.6.3-1.1.6-1.6.8-.6.2-1.1.3-1.6.3h-.9c-.3 0-.7-.1-.9-.2-.5-.2-1.1-.4-1.6-.7-.5 0-.7-.1-.8-.3zm11.9 8.6h-11v-1.5h5.8l-2-3.5h-4.5v-1.5h8.3v-4.5h3.9v4.5h3.7v-4.5h3.9v4.5h8.2v1.5h-3.9l-1.6 3.5h4.6v1.5h-11v1.8c1.6.1 3.3.3 5.2.6 1.9.3 3.7.4 5.4.4.1 0 .2 0 .3.1 0 .1-.1.2-.2.2-1.7.3-3.2.5-4.5.6-.7 0-1.3.1-2 .1-1.6 0-3 0-4.3-.1v1.6h12v1.5h-12v6.1h-4.5v-6.1H178v-1.5h11.9v-1.9c-1.5-.1-2.9-.2-4.4-.3-1.2 0-2.4-.1-3.5-.1-1 0-1.9 0-3 .1-.1 0-.2 0-.2-.1s0-.1.1-.2c2.1-.6 3.9-1 5.6-1.1 1.1-.2 2.7-.2 4.9-.2h.5v-1.5zM178 45.6c.3-.7.7-1.3 1-1.8 1.2-1.5 3-2.5 5.4-3 1.1-.2 1.9-.4 2.4-.7h.2v.2c-.2 1.1-.6 2-1.2 2.7-1 1.3-2.7 2.1-5.1 2.4-1 .1-1.8.2-2.4.4h-.3v-.2zm20.1-17.7H187l2 3.5h7.3l1.8-3.5zm8 17.9c-.7-.2-1.5-.3-2.4-.4-2.6-.3-4.4-1.2-5.4-2.4-.6-.7-1-1.6-1.2-2.7 0-.1 0-.2.1-.2h.2c.5.2 1.3.4 2.4.6 2.4.4 4.2 1.4 5.4 3 .3.4.7 1 1 1.7 0 0 .1.1.1.2 0 .2-.1.2-.2.2zm-7.7-21.7c.3 0 .5-.1.8-.2.6-.2 1.2-.4 1.9-.6.5-.2 1-.3 1.4-.3h.9c.8.1 1.7.3 2.7.7.2.1.4.2.7.2l-.9.3c-.6.3-1.1.6-1.6.8-.6.2-1.1.3-1.6.3h-.9c-.3 0-.7-.1-.9-.2-.5-.2-1.1-.4-1.6-.7-.6 0-.8-.2-.9-.3zm28.9-2.2v1.7h11.2v1.5h-28.3v-1.5h11.7v-1.7h5.4zm-16.4 13h26.8v11h-4.8v-9.4h-17.3v9.4h-4.7v-11zm24.2-1.6H214v-4.9c2.6-1.1 6-1.7 10.3-1.8 4.3.1 7.9.7 10.9 1.9v4.8zm-4.4 11.3h-12.4v-6.4h12.4v6.4zm-12-15.9v3h11.6v-3c-1.7-.5-3.8-.7-6.1-.7-2.7.1-4.5.4-5.5.7zm3.1 11v3.4h5.1v-3.4h-5.1zM249 25s0 .1 0 0l-1.1 1.1c-.4.4-.8.7-1.2.9-.9.6-1.9 1.1-2.9 1.4-.8.2-1.5.3-2.2.4h-.4v-.2l.1-.1c.7-.6 1.2-1.3 1.5-1.9.8-1.4 1.6-2.5 2.4-3.2 1.4-1 3.3-1.5 5.4-1.5.4 0 .8-.1 1.3-.1.2 0 .3 0 .3.1s-.1.2-.2.2c-.4.2-.8.4-1.1.8-.2.2-.4.3-.5.5h6.6V25h-8zm-7 8.3h12.4v-2H244v-1.5h10.4v-1.3h4.4v1.3h10.1v1.5h-10.1v2h12v1.5H242v-1.5zm.4 3.9h19.1v-1.7h4.6v1.7h4.4v1.5h-4.4v7.2h-7.2v-1.5h2.6v-5.7h-19.1v-1.5zm13.7 6.5c-.3 0-.6-.1-.9-.1h-1.6c-.5 0-1.2 0-1.9-.1-1.8-.4-3.1-1.2-4-2.3-.3-.4-.5-.8-.7-1.4 0-.1-.1-.2-.1-.2s0-.1.1-.1l.1-.1c.7.2 1.5.3 2.4.4 2.4 0 4.3.7 5.6 2.1.5.5.8.9 1.1 1.4 0 .1.1.2.1.2v.2h-.2zM247.8 27c.3 0 .5-.1.8-.2.6-.2 1.2-.4 1.9-.6.5-.2 1-.3 1.4-.3h.9c.8.1 1.7.3 2.7.7.2.1.4.2.7.2l-.9.3c-.6.3-1.1.6-1.6.8-.6.2-1.1.3-1.6.3H251c-.3 0-.7-.1-.9-.2-.5-.2-1.1-.4-1.6-.7-.4 0-.6-.1-.7-.3zm15.7-2.1c-.3.4-.7.7-1 1-.4.3-.8.5-1.1.7-.9.5-1.8.8-2.8 1-.7.2-1.4.3-2.1.3h-.4v-.2l.1-.1c.6-.5 1.1-1.1 1.4-1.6.7-1.2 1.5-2.1 2.2-2.7 1.4-.9 3.2-1.3 5.4-1.4h1.3c.2 0 .3 0 .3.1s-.1.2-.2.2c-.4.2-.8.4-1.1.7l-.5.5h5.7v1.5h-7.2zm-.9 2.2c.3 0 .5-.1.8-.2.6-.2 1.2-.4 1.9-.6.5-.2 1-.3 1.4-.3h.9c.8.1 1.7.3 2.7.7.2.1.4.2.7.2l-.9.3c-.6.3-1.1.6-1.6.8-.6.2-1.1.3-1.6.3h-.9c-.3 0-.7-.1-1-.2-.5-.2-1-.4-1.5-.7-.6-.1-.8-.2-.9-.3zm11.8 11.4h19.3v-2c1.6.5 3.1.8 4.6.8v1.3h4.6V40h-4.6v5.9h-8.7v-1.5h4.1V40h-19.3v-1.5zm.4-14.4h11.7v-2.2h4.4v2.2h11.7v1.5h-11.7V27c3.7.3 7 1.1 9.8 2.3v6.8h-23.9v-6.8c3-1.3 6.2-2.1 9.8-2.4v-1.4h-11.7v-1.4zm11.7 20.7c-.3 0-.6-.1-.9-.1H284c-.5 0-1.1 0-2-.1-1.7-.4-3.1-1.1-3.9-2.3-.3-.3-.5-.8-.7-1.4v-.3l.1-.1c.7.2 1.5.3 2.4.4 2.4 0 4.3.7 5.6 2.1.4.5.8.9 1.1 1.3 0 .1.1.1.1.2v.2h-.2zm-5.2-15.5v1.4h.4c.4 0 .9 0 1.5-.1h1.4c.7 0 1.3.1 1.9.1v-2.2c-1.7.1-3.4.4-5.2.8zm5.2 3.2c-.3-.1-.7-.1-.9-.2-1.5-.3-2.9-.4-4.2-.6v2.9h5.2v-2.1zm4.4-1.3c1 .2 1.9.3 2.8.6.9.1 1.7.2 2.4.3v-2.8c-1.4-.4-3.1-.7-5.2-.8v2.7zm0 3.5h5.2v-1.8c-.7.1-1.3.2-1.8.2-1 0-2 0-3-.1h-.3v1.7zM316.7 22c.3 1.2 1.2 2.2 2.7 2.9v6.9H311v14.1h-4.2V22h9.9zm-5.7 1.5V26h4.3v-2.5H311zm0 4V30h4.3v-2.5H311zm12.7-5.6H335v23.9h-4.2V31.7h-8.6v-9.8h1.5zm7.2 4.1v-2.6h-4.3V26h4.3zm-4.3 1.5v2.7h4.3v-2.7h-4.3zm12.5 11.8c2.1-.6 4.6-1 7.2-1h3.4c.4 0 .9 0 1.5.1v-2.1h3.1c1.1-.9 1.9-1.9 2.5-2.9h-12.2v-1.5H362c-.7 2.1-2.9 3.9-6.5 5.2v1.7c1.6.3 3.4.7 5.3 1.2 2 .5 4 .8 6.1.8h.2c.1 0 .1.1.1.1s0 .1-.1.1h-.1c-1.7.2-3.3.3-4.6.3h-4.2c-.8 0-1.7-.1-2.7-.1v3.9h-11.1v-1.6h6.7v-2.8c-1.2-.2-3-.5-5.3-.9-1.2-.2-2.9-.3-5-.3H339l-.1-.1s.1 0 .2-.1zm14.1-11.6c1.8 0 3.6.1 5.2.3.2-.7.3-1.2.5-1.6.7-1.7 2.1-2.8 4.1-3.4.8-.3 1.4-.5 1.8-.8h.1c.1 0 .1.1.1.2 0 1.1-.2 2-.6 2.8-.7 1.5-2 2.4-4 2.8-.2 0-.4.1-.5.1 2.7.3 5.1.8 7.3 1.5v3.2h-4.5v-2.7c-2.9-.7-6.1-1.1-9.5-1.1-3.8.2-7.1.6-10 1.1v2.6h-4.3v-3.2c4.4-1.1 9.1-1.7 14.3-1.8zm-12.6-3.2c.3 0 .5-.1.8-.2.6-.3 1.2-.5 1.8-.7.5-.2 1-.3 1.4-.3h.9c.8.1 1.7.4 2.7.9.2.1.4.2.7.3-.3.1-.6.2-.9.4-.6.4-1.1.7-1.6.9-.6.2-1.1.3-1.6.4h-.9c-.3 0-.7-.1-.9-.2-.5-.2-1.1-.4-1.6-.8s-.7-.5-.8-.7zm9.2.3c.3 0 .5-.1.8-.2.6-.3 1.2-.5 1.8-.7.5-.2 1-.3 1.4-.3h.9c.8.1 1.7.4 2.7.9.2.1.4.2.7.3-.3.1-.6.2-.9.4-.6.4-1.1.7-1.6.9-.6.2-1.1.3-1.6.4h-1c-.3 0-.7-.1-.9-.2-.5-.2-1.1-.4-1.6-.8-.4-.4-.6-.5-.7-.7zm20.8.5h4.1v-3.4h3.9v3.4h3.8v1.5h-3.8v19.1h-3.9V26.8h-4.1v-1.5zm2.7 2.3c-.1.8-.2 1.8-.2 2.9 0 .5.1 1.3.2 2.3.1 1 .2 2 .2 2.9.1.6.1 1.3.1 2.3-.1 1.4-.2 2.5-.4 3.3-.2.9-.6 1.8-1.1 2.7-.1.1-.1.1-.2.1s-.1-.1-.1-.2v-.7c0-1-.2-2-.4-3-.4-1.8-.7-3.4-.7-4.7v-1.7c0-.7.1-1.4.2-2.1.2-.9.4-1.7.8-2.4.4-.8.8-1.5 1.3-1.9l.1-.1h.1c.1.1.1.2.1.3zm8.2 0c0 .8-.1 1.7-.1 2.8 0 .5.1 1.3.2 2.2.1 1 .2 1.9.3 2.8 0 .4.1 1 .1 1.7 0 1.6-.1 2.8-.3 3.7-.1.9-.4 1.8-.7 2.7-.1.1-.1.1-.2.1s-.1-.1-.1-.2v-.7c0-1-.1-2-.3-2.9-.3-1.7-.5-3.2-.6-4.5V34c0-.8.1-1.5.1-2.1.1-.9.3-1.8.5-2.5.3-.8.5-1.5.8-2 0 0 .1 0 .1-.1h.1v.3zm8.6-.2c-.2.1-.4.4-.7.7-.5.7-1 1.4-1.4 2.2-.5.9-1 1.5-1.5 1.9-.6.5-1.1.8-1.7 1.1-.6.3-1.1.4-1.7.5h-.3v-.2s.1-.1.1-.2c.4-.6.7-1.3 1-2.1.6-1.3 1.1-2.2 1.5-2.6.7-.8 1.7-1.3 3.1-1.5.5-.1.9-.1 1.3-.1.2 0 .3 0 .3.1.1 0 .1.1 0 .2zm-7.1-2.8h6.2v-1.9h4.2v1.9h6v1.5H383v-1.5zm.5 20.6-.2-.5c1.8-.9 3.2-1.7 4.3-2.5.7-.5 1.3-.9 1.8-1.4-1.3-.9-2.2-1.7-2.9-2.7-.9-1.3-1.4-2.6-1.5-3.8V34l.1-.1c.1 0 .2 0 .2.1 0 0 .1.1.1.2 1.2 1.3 2.4 2.3 3.6 3 .8.4 1.5.9 2.2 1.3 1-1.4 1.7-2.9 2.2-4.6h4.2c-.3.9-.6 1.7-.9 2.3-.7 1.5-1.7 2.9-2.8 4 1.4 1 2.5 1.9 3.3 2.7.8.9 1.4 1.7 1.6 2.3 0 .2.1.3.1.5 0 .1 0 .2-.1.2s-.2 0-.2-.1c-.1-.1-.2-.2-.3-.2-1.3-.9-2.8-1.7-4.6-2.4-.8-.3-1.6-.7-2.2-1-.8.5-1.7 1-2.5 1.4-1.9.8-3.8 1.3-5.5 1.6zm16.3-11.4c-.5-.2-1-.3-1.7-.5-1.8-.4-3-1.3-3.7-2.8-.4-.8-.7-1.9-.8-3.1 0-.1 0-.2.1-.2h.2c.4.2.9.5 1.6.7 1.7.5 2.9 1.6 3.6 3.5.2.5.4 1.2.7 2 0 0 .1.1.1.2 0 .2-.1.2-.1.2zM82.3 11.9c1.2-1.2 2.6-3.6 3.1-5-.1-.3-.1-.5-.2-.6-1 .7-1.8 1-2.7 1.3l-.1-.1c.4-.2 1.1-.6 2.4-2-.5-.9-1.1-1.7-1.4-2.1l.1-.1c1.1.8 1.5 1.4 1.8 1.8.4-.4 1.3-1.5 1.4-2.4l1.3.9c.1 0 .1.1.1.2 0 .2-.1.3-.5.3-.2.3-1 1.1-1.8 1.8.9 1.7 1.1 4 1.1 5.2 0 .3 0 1.5-.3 2.4.3.1.6.1.8.1.4 0 1.7-.1 3.1-.3V9.8h-1.8c0 .5 0 .9-.1 1-.1.2-.4.3-.7.3-.4 0-.5-.2-.5-.6 0-.4.1-2.1.1-2.5V6.6c0-.6-.1-1.3-.1-1.6l1.6.8h1.6V4c0-.6-.1-1-.2-1.3l1.6.5c.1 0 .2.1.2.2 0 .2-.2.3-.4.4v2h1.9l.4-.4c.1-.1.1-.1.2-.1s.2.1.3.2l.6.5c.1.1.1.1.1.2 0 .2-.2.4-.5.6 0 .5.1 2.7.1 3.2 0 .3 0 1-.7 1-.5 0-.5-.4-.5-.6v-.6h-2V13l1.8-.3c-.2-.7-.5-1-.9-1.7l.1-.1c1.8 1.1 2.8 2.4 2.8 3.6 0 .7-.5.8-.7.8-.5 0-.7-.4-.8-.7-.1-.3-.3-1.4-.3-1.6-.2.1-3.8 1.3-5.7 1.7 0 .2-.1.5-.4.5-.1 0-.2-.1-.2-.2l-.8-1.5c-.5 1.3-1.2 1.5-2.2 1.8-.2-.7-.6-1.5-1.2-1.8v-.1c.6.2 1.2.3 1.5.3.5 0 .7-.3.9-.6.1-.3.4-1.3.4-2.8 0-.7 0-1.1-.1-1.4-1 1.3-2.3 2.5-3.6 3zm6.5-5.8v3.4h1.8V6.1h-1.8zm3 0v3.4h2V6.1h-2zm13.6 8 .7-.9c.1-.2.2-.2.2-.2.1 0 .1 0 .3.1l1.1.9c.1.1.2.1.2.2s-.1.2-.2.2H97.2c-.8 0-1.2 0-1.5.1l-.2-.5c.8.1 1.8.1 2 .1h4.2c.9-2.2 1.8-5.9 1.8-7.1v-.3l1.7.8c.1 0 .1.1.1.2s-.1.2-.6.4c-1.4 3.7-2 5-2.7 6h3.4zm-.7-8.4.6-.9c.1-.1.1-.2.2-.2s.2.1.3.1l1.1.9c.1.1.1.1.1.2s-.1.2-.2.2h-8.7c-.8 0-1.2 0-1.5.1l-.2-.5c.8.1 1.8.1 2 .1h2.7V4.4c-.1-.7-.1-.8-.3-1.4l1.8.4c.1 0 .3.1.3.2s-.2.3-.5.5v1.6h2.3zm-6.5 1.2c1.3.9 2.5 3.4 2.5 5.1 0 .5-.3 1-.8 1-.7 0-.7-.4-.8-2.5 0-.3-.2-2-.9-3.6zm14.9-.7c.1.1.1.1.1.2s-.1.2-.1.2c-.1 0-.4.1-.5.1-.3.4-.5.6-.8 1 .2.1.3.2.3.3 0 .1 0 .1-.1.1 0 0-.1.1-.2.1 0 .5-.1.8-.1 3.2v3c0 .9-.7.9-.8.9-.5 0-.5-.4-.5-.6 0-.2.1-2.5.2-2.8 0-1.3.1-2.4 0-3.1-.8.8-1.8 1.5-2.9 1.9v-.1c1.3-1.2 2.9-3.2 3.7-4.7.1-.2.1-.2.3-.9l1.4 1.2zm-.5-2.6s.1.1.1.2-.1.2-.2.2h-.4c-1.2 1.2-2.3 2-4.2 2.7v-.1c1.1-.8 2.6-2.4 3.2-3.3.1-.2.2-.6.3-.8l1.2 1.1zm5.1 4.1c0 .8.1 5.1.1 6.1 0 .4 0 1.5-1.7 1.6-.1-.7-.6-1.1-1.4-1.6v-.1c.3 0 .9.1 1.4.1.5 0 .5-.1.5-.6 0-1.4 0-4.2-.1-5.5h-2.2c-1 0-1.2 0-1.5.1l-.2-.5c.6.1 1.3.1 2 .1h3.6l.7-.8c.1-.2.2-.2.2-.2.1 0 .2.1.3.1l.9.8c.1.1.1.1.1.2s-.1.2-.2.2h-2.5zm-.1-3.7.6-.7c.1-.2.2-.2.2-.2.1 0 .2.1.3.2l.8.7c.1.1.1.1.1.2s-.1.1-.2.1H115c-.8 0-1.2 0-1.5.1l-.2-.5c.7.1 1.3.1 2 .1h2.3zm14.3 11.1c-.8-.4-2.2-1.4-2.9-2.4-.7.8-2.8 2.2-5.3 2.4V15c2.9-1 4.4-2.7 4.8-3.3-.8-1.6-.8-3.2-.8-3.6v-.9c-.4.7-1.2 2-1.9 2.6l-.1-.1c.1-.2.3-.5.7-1.2-.1 0-.1.1-.2.1h-1.7v3.5c.8-.2 1.6-.3 2.3-.5v.1c-1.2.7-4 1.8-5 2.1-.1.3-.2.4-.3.4-.1 0-.2-.1-.2-.2l-.7-1.5h1V9.8c0-.4 0-2.6-.1-3 0-.3-.1-.6-.2-.8l1.4.4c.1 0 .2.1.2.2s0 .2-.4.4v5.6c.1 0 .7-.1.9-.2V4.8h-.9c-1 0-1.2.1-1.5.1l-.2-.5c.7.1 1.3.1 2 .1h2.2l.5-.7c.1-.2.2-.2.2-.2s.1 0 .3.2l.8.7c.1.1.1.1.1.2s-.1.1-.2.1h-2.3v3.6h.3l.5-.6c.1-.1.1-.2.2-.2s.2.1.3.2l.6.6c.1.1.1.1.1.2.4-.8 1.6-3.8 1.6-5.3V3l1.6.7c.1 0 .2.1.2.2s-.1.2-.6.3c-.2.4-.4 1.1-1 2.2h2.7l.6-.6c.1-.1.1-.2.2-.2s.2.1.3.1l.9.6c.1 0 .1.1.1.2 0 .2-.1.2-.2.2h-2l.8.4c.1 0 .1.1.1.2s-.3.3-.5.4c-.1.6-.4 2.5-1.5 4.2.3.3 1.5 1.5 3.6 1.8v.1c-1.2.7-1.3 1.1-1.4 1.3zm-4-8.4c-.1.1-.1.2-.2.3.1 1.6.7 3.2 1.1 3.9.7-1.3 1-2.8 1.1-4.2h-2z" class="st3"/>
  <path d="M133 6.5c.6 0 2.2.5 2.2 1.5 0 .3-.3.7-.7.7-.2 0-.5 0-.7-.7-.3-.6-.3-.7-.8-1.5zm3.9-1.4c-.2.8-.9 4.3-1.1 5-.1.3-.5 1.7-.6 2 0 .1-.1.3-.1.4 0 .3.1.4.2.9.3 1 .3 1 .3 1.3 0 .4-.2.8-.8.8-.8 0-.8-.7-.8-.9 0-.3.1-1.3.1-1.6 0-.5-.4-1.1-1-1.3v-.1c.9-.2 1-.4 1.3-.9.4-.9.8-1.9 1.1-2.6 1.2-2.6 1.3-2.9 1.4-3zm-2.6-2c1.3.2 2.2.8 2.2 1.6 0 .2-.1.7-.6.7-.4 0-.6-.2-.8-.8-.2-.3-.8-1.3-.8-1.5zm9 6 .7-.8c.1-.1.1-.2.2-.2s.2.1.3.2l1 .8c.1.1.1.1.1.2s-.1.2-.2.2h-4.1c0 .1-1 1.8-2.8 4 3-.3 3.3-.3 4.1-.4-.4-.5-.9-1.2-1.3-1.5v-.1c2.6.9 3.7 2.2 3.7 3.1 0 .5-.4.7-.7.7-.4 0-.7-.4-.8-.6-.4-.8-.5-.9-.8-1.3-.9.4-2.3.8-2.7.9-.9.2-2 .5-2.9.7-.1.2-.2.3-.3.3-.1 0-.2-.1-.2-.2l-.6-1.4c.4.1.6.1.9.1.1 0 .9-.1 1-.1.5-.8 1.3-2.9 1.6-4h-1.6c-.8 0-1.2 0-1.5.1l-.1-.8c.7.1 1.3.1 2 .1h1.7v-3h-1.1c-.8 0-1.2 0-1.5.1l-.2-.5c.7.1 1.3.1 2 .1h.8V3.9c0-.2-.2-.9-.3-1.2l1.7.5c.2 0 .3.1.3.2 0 .2-.3.3-.4.3v2.1h1.6l.6-.7.2-.2c.1 0 .1.1.3.2l.9.7c.1.1.1.1.1.2s-.1.2-.2.2h-3.5v3h2zm14.8 4.9c-1 .3-1.2.6-1.7 1.2-1.7-1-2.8-2.8-3.5-4.6-.8-2.2-1-4.3-1-6.4h-.1c0 2-.2 4.7-1.4 7-.6 1.2-2.1 3.1-4.7 3.8l-.1-.1c1.7-1 3.1-3 3.7-4.2.9-1.9 1.3-4.8 1.3-6.4 0-.9-.1-1.1-.2-1.3l1.9.5c.1 0 .3.1.3.2s-.1.3-.4.4c.1 3 1 5.7 2.3 7.3 1 1.2 2.2 1.9 3.6 2.6zm24.1-9.4v3.5c0 1.6 0 3.3.1 4.9 0 .2.1 1.2.1 1.4 0 .3 0 .9-1 .9-.3 0-.4-.2-.4-.4v-.6h-8.2v.5c-.1.2-.5.4-.9.4-.5 0-.5-.4-.5-.5s.1-.8.1-.9c.2-2.6.2-5.2.2-7.8 0-1.1 0-2.4-.2-3.3l1.7.9h7.8l.5-.4c.1-.1.2-.1.2-.1.1 0 .1 0 .3.2l.7.6c.1.1.1.1.1.2-.1.1-.1.2-.6.5zM181 4h-8.2v10h8.2V4zm-.7 8h-5.4c-1 0-1.2 0-1.5.1l-.2-.5c.7.1 1.3.1 2 .1h.9V8.8h-.6c-1 0-1.2 0-1.5.1l-.2-.5c.7.1 1.3.1 2 .1h.3V6.1h-.8c-1 0-1.2 0-1.5.1l-.2-.5c.7.1 1.3.1 2 .1h2.7l.6-.6c.2-.2.2-.2.3-.2.1 0 .2.1.3.1l.7.6c.1.1.1.1.1.2s-.1.2-.2.2h-2.8v2.3h.6l.6-.5c.2-.2.2-.2.3-.2.1 0 .1 0 .3.1l.7.5c.1.1.2.1.2.2s-.1.2-.2.2h-2.2v2.9h1.4l.6-.6.2-.2c.1 0 .2.1.3.2l.6.6c.1 0 .1.1.1.2-.3.2-.5.2-.5.2zm-1.8-.8c-.5 0-.6-.4-.6-.5-.2-1-.2-1.1-.4-1.6l.1-.1c1.1.3 1.5.9 1.5 1.5.1.3-.1.7-.6.7zm14.6 2.9.7-.9c.1-.2.2-.2.2-.2.1 0 .1 0 .3.1l1.1.9c.1.1.2.1.2.2s-.1.2-.2.2h-10.5c-.8 0-1.2 0-1.5.1l-.2-.5c.8.1 1.8.1 2 .1h4.2c.9-2.2 1.8-5.9 1.8-7.1v-.3l1.7.8c.1 0 .1.1.1.2s-.1.2-.6.4c-1.4 3.7-2 5-2.7 6h3.4zm-.8-8.4.6-.9c.1-.1.1-.2.2-.2s.2.1.3.1l1.1.9c.1.1.1.1.1.2s-.1.2-.2.2h-8.7c-.8 0-1.2 0-1.5.1l-.2-.5c.8.1 1.8.1 2 .1h2.7V4.4c-.1-.7-.1-.8-.3-1.4l1.8.4c.1 0 .3.1.3.2s-.2.3-.5.5v1.6h2.3zm-6.5 1.2c1.3.9 2.5 3.4 2.5 5.1 0 .5-.3 1-.8 1-.7 0-.7-.4-.8-2.5 0-.3-.2-2-.9-3.6zm21.8-1.8h-10c-.8 0-1.2 0-1.5.1l-.2-.5c.8.1 1.8.1 2 .1h3.4c0-.9-.1-1.7-.3-2.1l1.7.5c.1 0 .2.1.2.2 0 .2-.3.3-.4.3v1h3.1l.7-.8c.1-.2.2-.2.2-.2.1 0 .2.1.3.2l.9.8c.1.1.1.1.1.2s-.1.2-.2.2zm-.6 5.3c0 .5.1 2.8.1 3.3s0 .9-.7 1.4c-.5.3-.9.3-1.1.4 0-.5-.6-1.2-1.3-1.5v-.1c.3 0 .8.1 1.6.1.4 0 .4-.1.4-1.1 0-.5 0-2.3-.1-2.7h-8v4.3c0 .4 0 .9-.8.9-.3 0-.5-.2-.5-.5 0-.5.1-1.2.1-1.7v-1.4c0-.9 0-2.2-.2-2.7l1.4.7h7.7l.5-.5s.1-.1.2-.1.2.1.3.1l.7.5c.1.1.1.1.1.2.1.1 0 .1-.4.4zm-1.9-3.7c0 .3.1 1.5.1 1.7 0 .5-.8.6-.9.6-.4 0-.3-.6-.3-.7h-4.6c0 .4 0 .5-.1.6-.1.2-.5.3-.7.3-.3 0-.3-.2-.3-.3 0-.3.1-1.7.1-2V5.4l1.3.6h4.4l.4-.4.2-.1c.1 0 .1 0 .3.1l.7.6c.1.1.1.1.1.2-.2.1-.2.1-.7.3zm-.9 4.9v.9c0 .1.1.6.1.7 0 .3-.2.4-.3.5-.2.1-.4.2-.6.2-.2 0-.4-.1-.4-.3v-.3h-2.7c0 .3.1.8-.6.8-.2 0-.5-.1-.5-.3 0-.1.1-1.5.1-1.8 0-.5-.1-1.3-.2-1.6l1.3.7h2.5l.4-.4c.1-.1.1-.2.2-.2s.2.1.2.1l.6.5c.1.1.1.1.1.2.1 0 .1.1-.2.3zm-.1-5.3h-4.6V8h4.6V6.3zm-1 5.1h-2.7v1.5h2.7v-1.5zm17.3-2.1H210c-.8 0-1.2 0-1.5.1l-.2-.5c.8.1 1.8.1 2 .1h3.6V7.5h-2.3c-.9 0-1.2 0-1.5.1l-.2-.5c.8.1 1.8.1 2 .1h2c0-.6-.2-1.1-.3-1.3l.4.1c.7-1.1 1.2-2.4 1.3-2.9.1-.3 0-.5 0-.7l1.5.7c.1 0 .1.1.1.2s-.2.2-.5.3c-.2.3-.4.6-.8 1.1h2.7l.7-.7c.1-.1.1-.2.2-.2s.2.1.3.2l.8.7c.1.1.1.1.1.2s-.1.1-.2.1h-3.7c.3.1 1.1.6 1.1 1.3 0 .4-.3.6-.6.6-.4 0-.5-.3-.7-1 0-.2-.2-.7-.3-.8h-.7c-.5.6-.8.8-1 1l.9.2c.1 0 .2.1.2.2s0 .1-.1.2l-.3.3v.3h2.2l.5-.6c.1-.1.1-.2.2-.2s.2.1.3.1l.7.6c.1.1.1.1.1.2s-.1.1-.2.1h-3.9V9h3.7l.5-.7c.1-.1.1-.2.2-.2s.1.1.3.1l.9.7s.1.1.1.2c0 .2-.1.2-.2.2zM213.7 5h-2.6c.3.1 1.4.7 1.4 1.4 0 .3-.3.7-.6.7-.4 0-.5-.3-.6-.7-.2-.8-.3-1-.4-1.3h-.2c-.5.6-1 1.3-2.2 2l-.1-.1c1.2-1.4 2.1-3.8 2.2-3.9.1-.2.1-.3 0-.6l1.5.7c.1 0 .1.1.1.2 0 .2-.1.2-.6.3-.3.4-.5.7-.7 1h1.4l.4-.5c.1-.2.2-.2.2-.2.1 0 .1 0 .3.1l.6.5c.1.1.1.1.1.2s-.1.2-.2.2zm6.3 6.5h-2.9v2.7c-.1.4-.4 1.2-1.9 1.5-.2-.9-.5-1.2-1.4-1.7.2 0 1 .1 1.4.1.5 0 .8 0 .8-.5v-2h-4.2c1.5.7 1.8 1.2 1.8 1.8 0 .4-.2.7-.7.7-.6 0-.7-.4-.8-1.2-.1-.4-.4-1-.6-1.3h-1c-.8 0-1.2 0-1.5.1l-.2-.5c.8.1 1.8.1 2 .1h5.2c0-.7 0-1-.3-1.7l1.6.4c.1 0 .1.1.1.2s-.1.2-.4.5v.7h1l.6-.7c.1-.1.1-.2.2-.2s.2.1.3.2l1 .7c.1 0 .1.1.1.2 0-.2-.2-.1-.2-.1zm12.7.6h-3.2v1.8c0 1.2-.9 1.6-1.8 1.7-.2-.8-.8-1.3-1.3-1.6v-.1c.4 0 1.1.1 1.4.1.4 0 .5-.1.5-.2v-1.7h-6.2c-.8 0-1.2 0-1.5.1l-.2-.5c.8.1 1.8.1 2 .1h5.9c0-.8 0-.9-.2-1.6l1.4.4c.3.1.3.2.3.3 0 .1-.3.3-.3.4v.5h1.4l.5-.6c.1-.1.1-.2.2-.2s.1 0 .3.2l.8.6c.1.1.1.1.1.2.1 0-.1.1-.1.1zm-.6-7.4h-4.8v1.4h2.5l.4-.5s.1-.1.2-.1.2.1.2.1l.8.5c.1.1.1.1.1.2s-.1.1-.5.4v1.4c0 .2.1 1.5.1 1.6 0 .3 0 .8-.8.8-.5 0-.5-.3-.4-.6h-6c0 .3 0 .8-.8.8-.5 0-.5-.3-.5-.5V7.5c0-1.4-.1-1.8-.2-2.1l1.3.8h2.4V4.8H223c-.8 0-1.2 0-1.5.1l-.2-.5c.8.1 1.8.1 2 .1h2.9c-.1-1-.1-1.2-.3-1.7l1.3.3c.5.1.6.2.6.3 0 .1-.1.2-.4.4v.6h3l.5-.6c.1-.1.1-.2.2-.2s.1.1.3.2l.8.6c.1 0 .1.1.1.2s-.1.1-.2.1zm-6.8 9.9c-.5 0-.5-.1-.9-1.2-.3-.8-.5-1-.7-1.1v-.1c.4.1 2.2.5 2.2 1.7.1.2-.1.7-.6.7zm.9-8.2h-2.4v1.4h2.4V6.4zm-2.4 1.8v1.4h2.4V8.2h-2.4zm6.1-1.8h-2.6v1.4h2.5V6.4zm0 1.8h-2.5v1.4h2.5V8.2zm5.5-.1c0 1.2 0 3.9.1 5.1v1.1c0 .2 0 1-.9 1-.2 0-.4-.1-.4-.5v-.6c0-1.4.1-4.4.1-4.7V4c0-.3-.1-.6-.1-.9l1.3.7h2.1l.3-.3c.1-.1.2-.1.3-.1.1 0 .2 0 .3.1l.5.4c.1.1.2.2.2.3 0 .1 0 .2-.4.5 0 .6.1 3 .1 3.6 0 .5-.3.7-.8.7-.4 0-.4-.4-.4-.8h-2.3zm2.2-2.4V4.1h-2.3v1.6h2.3zm0 2.1V6.1h-2.3v1.7h2.3zm5.8-4 .3-.3c.1-.1.2-.2.3-.2.1 0 .2 0 .3.1l.6.4c.1.1.2.1.2.3 0 .2 0 .2-.5.6v3.1c0 .9.1 5.4.1 5.5 0 .6 0 2-1.7 2.1-.1-.4-.4-1.1-1.3-1.5v-.2c1 .1 1.5.1 1.5.1.2 0 .3 0 .3-.1V8.1H241c0 .3-.1.7-.7.7-.4 0-.4-.2-.4-.4V6.1c0-2.4 0-2.5-.1-3.1l1.2.7h2.4zm-2.4.3v1.6h2.4V4.1H241zm0 2v1.7h2.4V6.1H241zm17.1 5.3h-5.6v2.4c0 .7-.4 1.5-1.8 1.8-.1-.8-.6-1.1-1.6-1.6v-.1c.3 0 1.3.1 1.7.1.5 0 .6-.1.6-.4v-2.1h-3.9c-.8 0-1.2 0-1.5.1l-.2-.5c.8.1 1.8.1 2 .1h3.7c0-.9 0-1-.3-1.8l1.1.3c.2-.2 1-1.2 1.1-1.3H250c-.8 0-1.2 0-1.5.1l-.2-.5c.8.1 1.8.1 2 .1h3.3l.8-.6c.1-.1.2-.1.2-.1.1 0 .2.1.3.2l.8.8c.1.1.1.1.1.2 0 .4-.3.4-1.2.3-.7.4-1.3.6-1.8.9.1.1.1.1.1.2s-.1.3-.2.4v.6h3.4l.7-.7c.1-.1.2-.3.3-.3.1 0 .1 0 .3.2l1.1.8s.1.1.1.2c-.3.2-.4.2-.5.2zm-.9-4.3c-.1.1-.7.6-.8.7-.2.2-.4.2-.8.5l-.1-.1c.2-.4.5-1.7.5-1.8h-8c0 1.4-.8 2.5-1.5 2.5-.4 0-.7-.3-.7-.7 0-.4.2-.5.8-1 .8-.7 1-1.1 1.2-1.8h.1c.1.2.1.4.1.7h5.2c.4-.6 1.2-2.1 1.2-3v-.2l1.5.7c.1 0 .2.1.2.2 0 .3-.5.3-.6.3-.6.7-1.4 1.5-2 2h2.5l.6-.5.2-.1c.1 0 .1 0 .3.2l.9.8c.2.1.2.2.2.3-.1.1-.4.2-1 .3zm-7.9-1.5c-.4 0-.5-.2-.7-.8-.2-.5-.3-1-.9-1.6l.1-.1c1 .2 2.2.9 2.2 1.8-.1.2-.1.7-.7.7zm2.7-.2c-.5 0-.6-.4-.8-.9-.1-.4-.2-.7-.9-1.5l.1-.1c1.2.2 2.3 1.1 2.3 1.8 0 .3-.2.7-.7.7z" class="st3"/>
  <path d="M266 7.3h-.3c-.3.3-1.1.9-2.4 1.6.1.1.2.3.2.6 0 .4-.3.7-.6.7-.4 0-.5-.4-.6-.6-.2-.6-.4-1-.6-1.2 0 .9.1 5.1.1 6 0 .2 0 .7-.1.8 0 0-.2.4-.7.4-.3 0-.5-.1-.5-.5 0-.8.1-2.1.1-2.9 0-.7.1-2.2.1-3.2-.7 1.3-1.6 2.5-2.8 3.4l-.1-.1c.8-1.1 2.4-3.5 2.7-5.7h-.5c-.8 0-1.2 0-1.5.1l-.2-.5c.8.1 1.8.1 2 .1h.5c0-1.5-.1-2.9-.4-3.4l1.6.4c.1 0 .2.1.2.2 0 .2-.3.3-.5.4v2.4h.3l.4-.6c.1-.2.2-.2.2-.2.1 0 .2.1.3.2l.7.6c.1.1.1.1.1.2s-.1.2-.2.2h-1.8v1.5c.9.2 1.2.5 1.4.7.3-.3 1-1.1 1-1.2.4-.6.7-1 .9-1.4l1.1.8c.1 0 .1.1.1.2h-.2zm4.4 7.3c-.5.4-.6.6-.7.8-1.5-.7-2.5-1.3-3.6-2.7-1.4 1.4-3.2 2.2-4.3 2.3v-.1c1.4-.7 2.7-1.8 3.7-3-.6-1.1-.9-2.4-.9-3.7h.1c.5 1.5.9 2.4 1.3 3 .4-.6 1.2-1.9 1.1-3.2l1.4.7c.3.1.3.2.3.3 0 .1-.1.2-.5.4-.5 1.3-1 2-1.5 2.7 1.6 1.6 3.5 2 4.4 2v.1c-.1-.1-.4.1-.8.4zm-.1-9h-5.2c-.8 0-1.2 0-1.5.1l-.2-.5c.8.1 1.8.1 2 .1h.6c0-.6-.1-1.7-.2-2.5l1.5.4c.2 0 .3.2.3.2 0 .1-.3.3-.5.4v1.5h1.4l.6-.7c.1-.2.2-.2.2-.2.1 0 .1 0 .3.2l.9.7c.1.1.1.1.1.2-.1.1-.2.1-.3.1zm-.7 3.2c-.3 0-.3-.1-.9-.9-.6-.8-.8-1.2-1.4-1.7.9.1 3 .8 3 1.9 0 .3-.2.7-.7.7zm5.4-2.4h-1.3v1.3c.2.1 1.3.5 1.3 1.2 0 .1 0 .6-.6.6-.2 0-.4-.1-.5-.5-.1-.7-.1-.8-.3-1v3.9c.1 2.6.1 2.9.1 2.9 0 .3 0 .8-.7.8-.4 0-.4-.2-.4-.5 0-.1.1-.8.1-.9.1-1.3.1-1.6.1-5-.5 1-1.3 2.2-2.1 2.9l-.1-.1c1-1.2 2-4.4 2.1-5.5-.8 0-1.2 0-1.5.1l-.2-.5c.7.1 1 .1 1.8.1 0-1.2-.1-2.3-.4-3.4l1.6.5c.1 0 .3.1.3.3 0 .2-.2.3-.5.4v2.3h.1l.3-.4s.1-.2.2-.2.1 0 .3.2l.5.4c.1.1.1.1.1.2-.1-.2-.2-.1-.3-.1zm8.1 3.5h-3.6c.2.9.4 1.3.6 1.7.6-.8.6-1 .7-1.3l1.2.8.1.1c0 .3-.4.3-.5.3-.3.3-.5.6-.9 1 .6.8 1.3 1.2 1.4 1.2.1 0 .3-.2.3-.3.1-.2.4-.8.5-.9h.1c0 .4 0 1.3.2 1.6.2.4.3.6.3.7 0 .3-.2.5-.5.5-.2 0-1.6-.1-2.9-2.1-1 .8-2 1.2-3.5 1.6l-.1-.1c1.5-.7 2.6-1.8 3.2-2.3-.3-.7-.6-1.4-.9-2.5H277c0 .6-.1 1-.1 1.3.8.1 1.7.5 1.7 1.2 0 .4-.3.6-.6.6-.4 0-.5-.3-.6-.7-.1-.1-.3-.6-.5-.9-.2 1.2-.5 2.8-2.6 3.7l-.3-.1c1.4-1.2 1.8-3.4 1.7-5.1-.4 0-.5.1-.6.1l-.2-.5c.8.1 1.8.1 2 .1h1.7c-.3-1.4-.3-2.1-.4-4.3-.1-1.6-.2-1.9-.3-2.5l1.6.4c.1 0 .2.1.2.2 0 .2-.3.3-.5.5 0 .4-.1.8-.1 1.6 0 1.4.1 2.9.4 4.3h2.2l.4-.5c.1-.1.1-.2.2-.2s.2.1.3.2l.6.5c.1.1.1.1.1.2 0-.1-.1-.1-.2-.1zm-6.2-6c-.4.3-.8.7-1.2 1 .2.1.5.3.5.7 0 .3-.2.5-.5.5s-.4-.2-.6-.5c-.4-.7-.6-.8-.8-.9v-.1c.3 0 .7 0 1.1.2.3-.6.6-1.4.6-2l1.1.7c.1.1.2.1.2.2.1.1 0 .1-.4.2zm.6 4.4c-.4 0-.4-.2-.5-.9-.6.2-1.6.6-1.8.6-.2.3-.2.3-.3.3-.1 0-.1-.1-.1-.2l-.4-1.1c.6.1.8.1 1.1.1.5-.9 1.2-2.1 1.3-2.9l.9.6c.1.1.2.1.2.2s-.1.1-.4.2c-.3.3-1.6 1.7-1.8 1.9h1.1c-.1-.4-.2-.6-.2-.8v-.1c.9.3 1.2 1 1.2 1.4.2.7-.2.7-.3.7zm5 .1c-.3 0-.3-.1-.7-1-.6.2-1.1.3-1.6.4-.2 0-.2.1-.3.1-.2.2-.2.2-.3.2-.1 0-.2-.1-.2-.2l-.3-1c.4 0 .6 0 .8.1.6-.6 1.5-2.1 1.6-2.7l1 .6c.1 0 .2.1.2.2s-.1.2-.4.2c-.6.5-1.4 1.2-1.8 1.5-.1.1-.2.1-.2.2h1.4c-.1-.3-.3-.4-.4-.6l.1-.1c.5.2 1.7.5 1.7 1.5 0 .5-.5.6-.6.6zM281.4 4c-.3.3-.6.5-1.2.8.2.1.5.3.5.8 0 .4-.4.5-.6.5-.3 0-.4-.2-.4-.4-.2-.7-.3-.8-.5-1.1v-.1c.2 0 .4 0 .8.2.3-.8.5-1.4.6-1.8l1 .6c.1.1.2.1.2.2.1.2-.1.2-.4.3zm-.4 5.5c-.2 0-.4-.2-.5-.3-.4-.5-.4-.6-.7-.8v-.1c.1 0 .2-.1.4-.1s1.2.1 1.2.8c.1.3-.2.5-.4.5z" class="st3"/>
  <path d="M287 9.5c-.4 0-.6-.3-.7-.9-.2-.7-.2-.8-.3-.9v7.1c0 .3 0 .4-.2.5-.2.1-.3.2-.5.2-.4 0-.5-.2-.5-.4V9.2c-.2.3-1 2-2.1 2.6l-.1-.1c1.1-1.8 1.9-4 2.1-5.6-.8 0-1.2 0-1.6.1l-.1-.5c.7.1 1 .1 1.8.1 0-1.8 0-2.5-.3-3.1l1.7.5c.1 0 .2.1.2.3 0 .1-.1.3-.5.4v1.9h.1l.3-.6c.1-.1.1-.2.2-.2s.2.1.3.2l.4.6c.1.1.1.2.1.2 0 .1-.1.2-.2.2h-1.2v1.2c.2.1 1.6.7 1.6 1.6 0 .4-.3.5-.5.5zm8.7 2.8h-1.9c0 .5.1 1.4.1 1.5 0 1.2-.8 1.6-1.6 1.6-.1-.5-.3-1-1.3-1.6v-.1c.3 0 1.3.1 1.5.1.3 0 .4-.1.4-.4v-1.2h-3.7v2.5c0 .3-.1.7-.7.7-.3 0-.4-.2-.4-.6 0-.3 0-2.2.1-2.6-.5 0-.8 0-1.2.1l-.2-.5c.2 0 .7.1 1.4.1v-1.7c0-.7 0-1.6-.1-2.2l1.5.8h.9V7.7h-1.7c-.8 0-1.2 0-1.5.1l-.2-.5c.8.1 1.8.1 2 .1V6.1c-.5 0-.7 0-.9.1l-.2-.5c.4 0 .5 0 1.1.1V4.6c-.8 0-1.2 0-1.6.1l-.2-.5c.6.1 1 .1 1.8.1 0-.3 0-.8-.3-1.5l1.5.5c.1 0 .3.1.3.3 0 .1-.3.4-.5.5v.3h1.4c0-.8 0-.8-.3-1.5l1.5.5c.1 0 .2.1.2.2s-.2.3-.4.4v.4h.9l.5-.6.2-.2c.1 0 .2.1.3.2l.6.6c.1.1.1.1.1.2s-.1.2-.2.2h-2.4v1.3h.6l.4-.5c.1-.1.1-.2.2-.2s.2.1.3.2l.6.5c.1.1.1.1.1.2s-.1.2-.2.2h-2v1.3h1.3l.4-.6c.1-.1.1-.2.2-.2s.2.1.3.1l.7.6c.1.1.1.1.1.2s-.1.1-.2.1h-3.8v1.2h1.2l.5-.5c.1-.1.2-.1.2-.1.1 0 .2 0 .2.1l.6.5c.1 0 .1.1.1.2s0 .2-.1.2-.2.2-.3.3v2.5h.2l.5-.7.2-.2c.1 0 .2.1.3.2l.7.7c.1.1.1.2.1.2-.1-.3-.2-.3-.2-.3zm-5.4-3.1h-1.2v1.1h1.2V9.2zm0 1.4h-1.2V12h1.2v-1.4zm1-6.1h-1.4v1.3h1.4V4.5zm0 1.6h-1.4v1.3h1.4V6.1zm1.5 3.1h-1.4v1.1h1.4V9.2zm0 1.4h-1.4V12h1.4v-1.4z" class="st3"/>
  <path fill="#fff" d="M82.8 53.9v5c0 .2.1.4.1.4.1 0 .2.1.5.1h.3v.3h-2.4v-.3h.3c.2 0 .3 0 .4-.1s.1-.2.1-.3c0-.4.1-.8.1-1.5v-3.7c0-.2 0-.3-.1-.4 0-.1-.1-.1-.2-.2s-.2-.1-.4-.1h-.3v-.3h1.7c.3.4.6.8.9 1.1.3.4.6.7.9 1.1l1.7 2c.6.7 1 1.2 1.3 1.5v-3.1c0-1.3 0-2-.1-2.1 0-.1-.2-.2-.6-.2h-.4v-.3H89v.3h-.4c-.3 0-.5.1-.5.3v4.3c0 .6 0 1.3.1 2.1-.4-.1-.7-.1-.8-.1-.1 0-.1-.1-.2-.2-.4-.4-.7-.8-1.1-1.3l-3.3-4.3zm8.4 2.4v-.6l.5-.3.6-.3c.2-.1.4-.1.6-.1.4 0 .8.1 1.1.3.3.2.4.5.5.8 0 .2.1.8.1 1.7 0 .9 0 1.3.1 1.4 0 .1.1.1.2.1h.4v.3h-1.5v-.8l-1 .8c-.1.1-.2.1-.3.1h-.4c-.4 0-.7-.1-1-.3-.2-.2-.3-.5-.3-.8 0-.3.1-.6.2-.9.2-.2.4-.4.7-.5.3-.1 1-.3 2-.5 0-.4-.1-.7-.3-.9-.2-.3-.5-.4-.9-.4-.2 0-.3 0-.4.1-.1 0-.3.1-.4.2-.1.2-.2.5-.3.7l-.2-.1zm2.5.8c-.9.2-1.5.4-1.7.5-.2.2-.4.4-.4.8 0 .2.1.4.2.6.1.1.3.2.5.2s.5-.1.7-.2c.2-.1.4-.3.6-.6v-1.1l.1-.2zm4.5-1.2v2.9c0 .1.1.2.2.3.1.1.2.1.4.1.1 0 .2 0 .3-.1.1 0 .2-.1.3-.2l.1.2-.5.6c-.1 0-.2.1-.3.1h-.3c-.2 0-.4 0-.6-.1-.2-.1-.3-.2-.4-.3-.1-.1-.1-.3-.1-.6v-2.7h-.8v-.2c.3-.1.5-.2.8-.3v-1.5l.8-.4.1.1c0 .3-.1.8-.1 1.8h1.4l-.1.5h-1.2zm4.3-.9.1.1v4c0 .1 0 .2.1.2s.2.1.3.1h.3v.3h-2.5v-.3h.4c.2 0 .3 0 .3-.1 0 0 .1-.2.1-.5v-2.9c0-.1 0-.2-.1-.2s-.2-.1-.3-.1h-.4v-.3c.4-.1.7-.1.9-.2.3.1.5 0 .8-.1zm-.4-2.2c.1 0 .3.1.4.2s.2.2.2.4-.1.3-.2.4c-.1.1-.2.2-.4.2s-.3-.1-.4-.2c-.1-.1-.2-.2-.2-.4s.1-.3.2-.4c.1-.1.3-.2.4-.2zm2.8 4.6c0-.4.1-.8.3-1.2.2-.4.5-.6.9-.8.4-.2.8-.3 1.3-.3.7 0 1.2.2 1.7.6.4.4.6 1 .6 1.6 0 .8-.3 1.4-.8 1.9-.5.4-1.1.6-1.7.6-.6 0-1.2-.2-1.6-.7s-.7-1-.7-1.7zm.9-.4c0 .7.1 1.2.4 1.7.3.5.7.7 1.2.7.4 0 .7-.1.9-.4.2-.3.4-.7.4-1.4 0-.5-.1-.9-.2-1.3s-.3-.6-.6-.8c-.2-.2-.5-.2-.8-.2-.3 0-.5.1-.7.2-.2.1-.4.3-.5.5 0 .4-.1.7-.1 1zm6.9-1.1.7-.7c.1-.1.2-.1.3-.2.2-.1.4-.1.6-.1.3 0 .6.1.9.2.3.1.4.3.5.5.1.2.2.6.2 1.1v1.5c0 .5 0 .8.1.9.1.1.2.2.4.2h.3v.3H115c.1-.6.1-1.5.1-2.6 0-.4 0-.7-.1-.9-.1-.2-.2-.3-.4-.4-.2-.1-.4-.2-.6-.2-.3 0-.6.1-.8.2-.2.2-.4.3-.4.5v2.6c0 .2 0 .2.1.3.1.1.2.1.4.1h.3v.3h-2.5v-.3h.3c.2 0 .4-.1.4-.2s.1-.8.1-2v-1.3c0-.1 0-.2-.1-.2s-.2-.1-.4-.1h-.3v-.3c.3 0 .5-.1.7-.1.2-.1.5-.1.7-.3h.1c.1 0 .1 0 .1.1v1.1zm5.7.4v-.6l.5-.3.6-.3c.2-.1.4-.1.6-.1.4 0 .8.1 1.1.3.3.2.4.5.5.8 0 .2.1.8.1 1.7 0 .9 0 1.3.1 1.4 0 .1.1.1.2.1h.4v.3H121v-.8l-1 .8c-.1.1-.2.1-.3.1h-.4c-.4 0-.7-.1-1-.3-.2-.2-.3-.5-.3-.8 0-.3.1-.6.2-.9.2-.2.4-.4.7-.5.3-.1 1-.3 2-.5 0-.4-.1-.7-.3-.9-.2-.3-.5-.4-.9-.4-.2 0-.3 0-.4.1-.1 0-.3.1-.4.2-.1.2-.2.5-.3.7l-.2-.1zm2.6.8c-.9.2-1.5.4-1.7.5-.2.2-.4.4-.4.8 0 .2.1.4.2.6.1.1.3.2.5.2s.5-.1.7-.2.4-.3.6-.6v-1.1l.1-.2zm4.7-4.6c-.1.9-.1 1.8-.1 2.6v2.5c0 1 0 1.6.1 1.7 0 .1.1.1.3.1h.4v.3H124v-.3h.4c.2 0 .3-.1.3-.1 0-.1.1-.7.1-1.7v-4.1c0-.2 0-.3-.1-.3-.1-.1-.2-.1-.3-.1h-.4v-.3c.6 0 1.2-.2 1.7-.3zm5.7 6.9h.3c.3 0 .5-.1.5-.2.1-.1.1-.8.1-2.1v-1.6c0-1.3 0-2-.1-2.1-.1-.1-.2-.2-.5-.2h-.4v-.3h2.8v.3h-.4c-.2 0-.4 0-.4.1-.1.1-.1.2-.1.4v3.5c0 1.3 0 2 .1 2.1.1.1.2.2.5.2h.3v.3h-2.8v-.4zm5.8-3.5.7-.7c.1-.1.2-.1.3-.2.2-.1.4-.1.6-.1.3 0 .6.1.9.2s.4.3.5.5c.1.2.2.6.2 1.1v1.5c0 .5 0 .8.1.9.1.1.2.2.4.2h.3v.3h-1.7c.1-.6.1-1.5.1-2.6 0-.4 0-.7-.1-.9-.1-.2-.2-.3-.4-.4-.2-.1-.4-.2-.6-.2-.3 0-.6.1-.8.2-.2.2-.4.3-.4.5v2.6c0 .2 0 .2.1.3.1.1.2.1.4.1h.3v.3h-2.5v-.3h.3c.2 0 .4-.1.4-.2s.1-.8.1-2v-1.3c0-.1 0-.2-.1-.2 0 0-.2-.1-.4-.1h-.3v-.3c.3 0 .5-.1.7-.1s.5-.1.7-.3h.1c.1 0 .1 0 .1.1v1.1zm5.7 2.3v.3c0 .3 0 .4.1.5.1.1.2.2.5.3.2.1.5.1.8.1.3 0 .6-.1.8-.3.2-.2.3-.4.3-.6 0-.2-.1-.4-.2-.5s-.4-.2-.7-.3c-.6-.1-1.1-.2-1.3-.3-.2-.1-.4-.2-.5-.4-.1-.2-.2-.4-.2-.6 0-.4.2-.8.5-1 .3-.3.8-.4 1.3-.4s.9.1 1.4.3c0 .2-.1.6-.1 1.1h-.3c0-.3 0-.5-.1-.6-.1-.1-.2-.2-.4-.3-.2-.1-.4-.1-.6-.1-.3 0-.5.1-.7.2-.2.2-.3.3-.3.6 0 .2.1.4.2.5.1.1.5.2 1.2.4.5.1.8.2.9.3.1.1.3.2.4.4.1.2.1.4.1.6 0 .4-.2.8-.6 1.1s-.9.5-1.5.5c-.4 0-.8-.1-1.3-.2-.1 0-.1-.1-.1-.1v-1.3h.4zm6.3-2.3v2.9c0 .2.1.2.2.3.1.1.2.1.4.1.1 0 .2 0 .3-.1.1 0 .2-.1.3-.2l.1.2-.5.6c-.1 0-.2.1-.3.1h-.3c-.2 0-.4 0-.6-.1-.2-.1-.3-.2-.4-.3-.1-.1-.1-.3-.1-.6v-2.7h-.8v-.2c.3-.1.5-.2.8-.3v-1.5l.8-.4.1.1c0 .3-.1.8-.1 1.8h1.4l-.1.5h-1.2zm4.3-.9.1.1v4c0 .1 0 .2.1.2s.2.1.3.1h.3v.3h-2.5v-.3h.4c.2 0 .3 0 .3-.1 0 0 .1-.2.1-.5v-2.9c0-.1 0-.2-.1-.2 0 0-.2-.1-.3-.1h-.4v-.3c.4-.1.7-.1.9-.2s.5 0 .8-.1zm-.4-2.2c.1 0 .3.1.4.2s.2.2.2.4-.1.3-.2.4c-.1.1-.2.2-.4.2s-.3-.1-.4-.2c-.1-.1-.2-.2-.2-.4s.1-.3.2-.4.2-.2.4-.2zm4.2 3.1v2.9c0 .2.1.2.2.3.1.1.2.1.4.1.1 0 .2 0 .3-.1.1 0 .2-.1.3-.2l.1.2-.5.6c-.1 0-.2.1-.3.1h-.3c-.2 0-.4 0-.6-.1-.2-.1-.3-.2-.4-.3-.1-.1-.1-.3-.1-.6v-2.7h-.8v-.2c.3-.1.5-.2.8-.3v-1.5l.8-.4.1.1c0 .3-.1.8-.1 1.8h1.4l-.1.5h-1.2zm6.5 3.8.1-.9-.3.3c-.2.2-.4.4-.7.5-.2.1-.5.1-.9.1-.3 0-.5-.1-.8-.2-.2-.1-.4-.3-.5-.5-.1-.2-.1-.5-.1-.9v-2.5c0-.1-.1-.1-.3-.1h-.4v-.3c.4 0 .8-.1 1.2-.2l.4-.2c.1 0 .1 0 .1.1v.5c0 .7-.1 1.3-.1 1.9 0 .6 0 1 .1 1.1 0 .2.1.3.3.4.2.1.3.2.6.2s.6-.1.8-.3c.3-.2.4-.4.5-.6 0-.1.1-.5.1-1 0-1 0-1.5-.1-1.6 0-.1-.2-.1-.4-.1h-.4v-.3c.3 0 .6-.1.8-.1.2-.1.5-.1.7-.2h.1c.1 0 .1 0 .1.1v.5c0 1.1-.1 2.1-.1 2.9 0 .5 0 .7.1.8.1.1.2.2.5.2h.3v.3h-1c-.3.1-.5.1-.7.1zm4.7-3.8v2.9c0 .2.1.2.2.3.1.1.2.1.4.1.1 0 .2 0 .3-.1.1 0 .2-.1.3-.2l.1.2-.5.6c-.1 0-.2.1-.3.1h-.3c-.2 0-.4 0-.6-.1-.2-.1-.3-.2-.4-.3-.1-.1-.1-.3-.1-.6v-2.7h-.8v-.2c.3-.1.5-.2.8-.3v-1.5l.8-.4.1.1c0 .3-.1.8-.1 1.8h1.4l-.1.5h-1.2zm3.7 1.5c0 .6.2 1.1.5 1.5.3.3.7.5 1.2.5.2 0 .5 0 .7-.1.2-.1.4-.2.7-.3l.1.1-.2.4c-.3.2-.5.3-.8.3-.3.1-.6.1-.9.1-.7 0-1.2-.2-1.6-.6-.4-.4-.6-1-.6-1.7 0-.5.1-1 .3-1.4.1-.3.4-.5.8-.7.4-.2.8-.3 1.2-.3.6 0 1 .2 1.4.5.3.3.5.8.5 1.4v.3c-.2.1-.4.1-.6.1h-2.7zm0-.4h2.4v-.3c0-.3-.1-.6-.2-.8-.1-.2-.2-.3-.4-.4-.2-.1-.4-.2-.6-.2-.4 0-.7.1-.9.4-.2.3-.3.7-.3 1.3zm8.3.4c0-.4.1-.8.3-1.2.2-.4.5-.6.9-.8.4-.2.8-.3 1.3-.3.7 0 1.2.2 1.7.6.4.4.6 1 .6 1.6 0 .8-.3 1.4-.8 1.9-.5.4-1.1.6-1.7.6-.6 0-1.2-.2-1.6-.7-.5-.4-.7-1-.7-1.7zm1-.4c0 .7.1 1.2.4 1.7.3.5.7.7 1.2.7.4 0 .7-.1.9-.4s.4-.7.4-1.4c0-.5-.1-.9-.2-1.3s-.3-.6-.6-.8c-.2-.2-.5-.2-.8-.2-.3 0-.5.1-.7.2-.2.1-.4.3-.5.5-.1.4-.1.7-.1 1zm6.9-1.1v1.9c0 .9 0 1.4.1 1.5.1.1.2.2.5.2h.4v.3h-2.6v-.3h.3c.3 0 .4 0 .4-.2.1-.1.1-.6.1-1.5v-1.9h-.7v-.2c.2-.1.5-.2.7-.4v-.6c0-.3 0-.6.1-.8.1-.2.3-.4.5-.7.3-.4.6-.6.8-.7.1-.1.3-.1.5-.1.1 0 .3 0 .4.1v.8l-.1.1c-.2-.2-.4-.3-.7-.3-.3 0-.5.1-.6.3-.1.2-.2.6-.2 1.4v.6h1.3l-.1.5h-.6c0-.1-.2-.1-.5 0zm9.5-2.7c0 .5-.1 1-.1 1.5v2.8c0 1 0 1.6.1 1.7.1.1.2.2.6.2h.4v.3H196v-.3h.4c.2 0 .4 0 .4-.1s.1-.2.1-.3v-5.8h-.5c-.8 0-1.2 0-1.3.1-.1 0-.1.2-.2.4l-.1.7h-.3v-.6c0-.2 0-.6-.1-1h5.8c-.1.5-.1 1.1-.1 1.6h-.3v-.6c0-.2 0-.4-.1-.4 0 0-.1-.1-.2-.1h-1.6zm4.8 4.2c0 .6.2 1.1.5 1.5.3.3.7.5 1.2.5.2 0 .5 0 .7-.1.2-.1.4-.2.7-.3l.1.1-.2.4c-.3.2-.5.3-.8.3s-.6.1-.9.1c-.7 0-1.2-.2-1.6-.6-.4-.4-.6-1-.6-1.7 0-.5.1-1 .3-1.4.1-.3.4-.5.8-.7.4-.2.8-.3 1.2-.3.6 0 1 .2 1.4.5.3.3.5.8.5 1.4v.3c-.2.1-.4.1-.6.1h-2.7zm0-.4h2.4v-.3c0-.3-.1-.6-.2-.8-.1-.2-.2-.3-.4-.4-.2-.1-.4-.2-.6-.2-.4 0-.7.1-.9.4s-.3.7-.3 1.3zm8.5 2 .1.1-.2.3c-.2.1-.4.2-.7.3-.2.1-.5.1-.7.1-.5 0-.9-.1-1.2-.3-.3-.2-.6-.4-.8-.8-.2-.3-.3-.8-.3-1.2 0-.4.1-.8.2-1.1s.3-.6.6-.7c.3-.2.6-.3.9-.5.3-.1.6-.2.9-.2.2 0 .5 0 .6.1.2 0 .4.1.6.2-.1.4-.1.9-.1 1.3h-.3v-.2c0-.2 0-.4-.1-.4-.1-.1-.2-.2-.4-.3s-.4-.1-.7-.1c-.4 0-.8.1-1 .4-.2.3-.4.7-.4 1.2 0 .7.2 1.2.5 1.6.3.4.7.6 1.2.6.2 0 .4 0 .6-.1.3-.1.5-.2.7-.3zm3.2-3.1.6-.6c.1-.1.3-.2.4-.3.1-.1.3-.1.5-.1.4 0 .7.1.9.2.3.1.4.3.5.6.1.2.2.6.2 1.1V59c0 .1 0 .1.1.2s.1.1.3.1h.4v.3h-1.7c.1-.8.1-1.6.1-2.4 0-.5 0-.9-.1-1.1s-.2-.3-.4-.4c-.2-.1-.4-.2-.7-.2-.3 0-.5.1-.7.2-.2.1-.4.3-.5.4-.1.1-.1.4-.1.9v1c0 .8 0 1.2.1 1.3 0 .1.2.1.4.2h.4v.3h-2.5v-.3h.3c.2 0 .3 0 .4-.1 0 0 .1-.1.1-.2v-4.5c0-.9 0-1.3-.1-1.4 0-.1-.2-.1-.4-.1h-.3v-.3c.5-.1.9-.1 1.2-.2l.4-.1c.1 0 .1 0 .1.1v3.2zm6.8 0 .7-.7c.1-.1.2-.1.3-.2.2-.1.4-.1.6-.1.3 0 .6.1.9.2s.4.3.5.5c.1.2.2.6.2 1.1v1.5c0 .5 0 .8.1.9.1.1.2.2.4.2h.3v.3h-1.7c.1-.6.1-1.5.1-2.6 0-.4 0-.7-.1-.9-.1-.2-.2-.3-.4-.4-.2-.1-.4-.2-.6-.2-.3 0-.6.1-.8.2-.2.2-.4.3-.4.5v2.6c0 .2 0 .2.1.3.1.1.2.1.4.1h.3v.3h-2.5v-.3h.3c.2 0 .4-.1.4-.2s.1-.8.1-2v-1.3c0-.1 0-.2-.1-.2 0 0-.2-.1-.4-.1h-.3v-.3c.3 0 .5-.1.7-.1.2-.1.5-.1.7-.3h.1c.1 0 .1 0 .1.1v1.1zm5.3 1.5c0-.4.1-.8.3-1.2.2-.4.5-.6.9-.8.4-.2.8-.3 1.3-.3.7 0 1.2.2 1.7.6.4.4.6 1 .6 1.6 0 .8-.3 1.4-.8 1.9-.5.4-1.1.6-1.7.6-.6 0-1.2-.2-1.6-.7-.5-.4-.7-1-.7-1.7zm.9-.4c0 .7.1 1.2.4 1.7.3.5.7.7 1.2.7.4 0 .7-.1.9-.4.2-.3.4-.7.4-1.4 0-.5-.1-.9-.2-1.3s-.3-.6-.6-.8c-.2-.2-.5-.2-.8-.2-.3 0-.5.1-.7.2-.2.1-.4.3-.5.5 0 .4-.1.7-.1 1zm7.1-4.5c-.1.9-.1 1.8-.1 2.6v2.5c0 1 0 1.6.1 1.7 0 .1.1.1.3.1h.4v.3h-2.4v-.3h.4c.2 0 .3-.1.3-.1 0-.1.1-.7.1-1.7v-4.1c0-.2 0-.3-.1-.3-.1-.1-.2-.1-.3-.1h-.4v-.3c.7 0 1.2-.2 1.7-.3zm2.3 4.9c0-.4.1-.8.3-1.2.2-.4.5-.6.9-.8.4-.2.8-.3 1.3-.3.7 0 1.2.2 1.7.6.4.4.6 1 .6 1.6 0 .8-.3 1.4-.8 1.9-.5.4-1.1.6-1.7.6-.6 0-1.2-.2-1.6-.7-.5-.4-.7-1-.7-1.7zm.9-.4c0 .7.1 1.2.4 1.7.3.5.7.7 1.2.7.4 0 .7-.1.9-.4.2-.3.4-.7.4-1.4 0-.5-.1-.9-.2-1.3s-.3-.6-.6-.8c-.2-.2-.5-.2-.8-.2-.3 0-.5.1-.7.2-.2.1-.4.3-.5.5 0 .4-.1.7-.1 1zm9.5-1.1c.1.2.1.4.1.5 0 .3-.1.6-.3.8-.2.3-.4.5-.7.6s-.7.2-1 .2h-.2l-.4.4c-.1.1-.1.2-.1.2 0 .1.1.2.2.3.1.1.4.1.8.1h1.5c.3 0 .5 0 .6.1.1.1.3.2.3.4.1.2.1.4.1.7 0 .4-.1.7-.3 1-.2.3-.5.6-1 .8s-.9.3-1.5.3c-.7 0-1.2-.1-1.5-.4s-.5-.6-.5-1.1c0-.3.1-.5.3-.8.3-.2.6-.3.8-.5-.3-.1-.4-.2-.5-.2-.1-.1-.1-.2-.1-.3 0-.1 0-.3.1-.4 0-.1.1-.2.3-.3l.5-.3c-.4-.1-.7-.2-.8-.4-.2-.2-.3-.5-.3-.9 0-.3.1-.6.3-.9.2-.3.4-.5.7-.6.4-.2.8-.3 1.2-.3.2 0 .5 0 .6.1l.6.3h1.4l.1.1c-.1.1-.2.3-.3.4h-1zm-2 3.9c-.2 0-.4 0-.5.1-.3.2-.4.3-.5.4-.1.2-.1.4-.1.6 0 .4.1.6.4.9.3.2.6.3 1.1.3.4 0 .7-.1.9-.2.3-.1.5-.3.6-.5.1-.2.2-.5.2-.7 0-.2-.1-.4-.2-.6-.1-.2-.2-.3-.4-.3h-1.5zm1.3-3.1c0-.4-.1-.7-.3-1-.2-.2-.5-.4-.8-.4-.3 0-.6.1-.8.3-.2.2-.3.5-.3.8 0 .4.1.8.3 1 .2.2.5.4.8.4.3 0 .6-.1.8-.3.2-.2.3-.4.3-.8zm3.2 5.6.2-.8h.1c.1.1.2.2.3.2.1.1.2.1.3.1.2 0 .4-.1.5-.3.2-.2.4-.7.8-1.6-.1-.4-.4-1.1-.9-2.1l-.5-1.1-.4-.8c-.1-.3-.3-.4-.5-.4h-.2v-.3h2.3v.3h-.4c-.1 0-.2 0-.3.1-.1 0-.1.1-.1.2s0 .2.1.3c.3.9.7 1.9 1.2 2.9.4-.9.8-1.8 1.1-2.7.1-.3.1-.4.1-.5 0-.1-.1-.2-.3-.2l-.4-.1v-.3h1.8v.3h-.2c-.1 0-.2 0-.2.1-.1 0-.1.1-.2.2-.1.2-.4.8-.9 1.9-.1.3-.5 1.1-1 2.4-.5 1.1-.8 1.7-.8 1.8-.1.2-.3.4-.5.5-.2.1-.4.2-.6.2h-.3c.1-.2 0-.2-.1-.3zm9.4-.2-.2.2c-.5-.5-1-1.1-1.2-1.5-.3-.5-.5-1-.7-1.6s-.2-1.2-.2-1.8c0-.7.1-1.4.3-2.1s.5-1.2.8-1.6c.3-.4.7-.9 1.1-1.2l.2.3c-.4.4-.7.9-.9 1.3-.2.4-.4.9-.5 1.4-.1.5-.2 1.1-.2 1.8s.1 1.3.2 1.9.3 1 .4 1.5c.1.3.4.8.9 1.4zm4.2-6.2 3.3 3.1.3.3c.1.1.1.1.2.1h.3v.3H266l-3.3-3.2-.2-.2c-.1 0-.1.1-.1.2v2.7c0 .1.2.2.5.2h.4v.3h-2.8v-.3h.4c.3 0 .4 0 .5-.1.1-.1.1-.5.1-1.2v-3.2c0-.9 0-1.4-.1-1.5s-.2-.2-.5-.2h-.4v-.3h2.8v.3h-.4c-.2 0-.4 0-.4.1-.1 0-.1.1-.1.3v2.6h.1c.3-.2.5-.4.7-.6l.9-.9 1.4-1.4V53h1.7v.3h-.3c-.2 0-.4 0-.6.1-.2.1-.5.4-1.1.9l-1.9 1.6zm5.4.4c0-1.1.3-1.9 1-2.6.7-.7 1.6-1 2.7-1s2 .3 2.6.9c.6.6 1 1.4 1 2.4 0 1.1-.4 2-1.1 2.7-.7.7-1.7 1.1-2.8 1.1-.7 0-1.3-.1-1.8-.4-.5-.3-.9-.7-1.2-1.2-.3-.6-.4-1.2-.4-1.9zm1-.4c0 .7.1 1.4.4 1.9.3.5.6.9 1 1.2.4.3.9.4 1.4.4.5 0 .9-.1 1.3-.3.4-.2.7-.6.9-1 .2-.5.3-1 .3-1.7s-.1-1.3-.4-1.8c-.2-.5-.6-.9-1-1.1-.4-.2-.9-.4-1.5-.4-.5 0-1 .1-1.3.3-.4.2-.7.5-.9 1-.1.4-.2.9-.2 1.5zm12.2-2.8c-.1.3-.1.8-.1 1.3h-.3V54c0-.3 0-.4-.1-.5-.1-.1-.2-.2-.5-.3s-.6-.2-.9-.2c-.5 0-.9.1-1.2.4s-.4.6-.4 1c0 .3.1.5.2.7.1.2.3.3.5.4s.6.2 1.3.2c.7.1 1.1.2 1.4.3.2.1.4.3.6.5.1.2.2.5.2.8 0 .7-.3 1.2-.8 1.7s-1.3.7-2.2.7c-.3 0-.6 0-.9-.1s-.6-.2-1-.3c.1-.4.1-.9.1-1.5h.3v.8c0 .1.1.2.2.2l.6.3c.2.1.5.1.8.1.6 0 1.1-.1 1.4-.4.3-.3.5-.7.5-1.1 0-.3-.1-.5-.2-.7-.1-.2-.3-.3-.5-.4s-.6-.2-1.1-.2c-.7-.1-1.2-.1-1.5-.3-.3-.1-.5-.3-.6-.6-.1-.3-.2-.6-.2-.9 0-.6.2-1.1.7-1.5.5-.4 1.1-.6 1.9-.6.3 0 .6 0 1 .1.2.3.5.4.8.5zm3.8 3.3v2.8c.5 0 1 .1 1.5.1h.9c.2 0 .3-.1.5-.1.1-.3.2-.6.2-1.1h.3c-.1.7-.1 1.2-.1 1.4v.2h-5.3v-.3h.2c.3 0 .5 0 .5-.1.1-.1.1-.2.1-.4v-5.1c0-.3 0-.4-.1-.5l-.1-.1s-.2-.1-.4-.1h-.4v-.3h5.4c-.1.4-.2.9-.2 1.5h-.3c0-.4 0-.7-.1-.9-.4-.1-.9-.2-1.4-.2-.4 0-.9 0-1.4.1v2.6h.8c.8 0 1.2 0 1.3-.1s.2-.2.2-.5V55h.3v2.3h-.1V57c0-.3-.1-.5-.2-.6-.1-.1-.5-.1-1.3-.1-.3.1-.6.1-.8.1zm6.4-2.5v5c0 .2.1.4.1.4.1 0 .2.1.5.1h.3v.3h-2.4v-.3h.3c.2 0 .3 0 .4-.1s.1-.2.1-.3c0-.4.1-.8.1-1.5v-3.7c0-.2 0-.3-.1-.4 0-.1-.1-.1-.2-.2s-.2-.1-.4-.1h-.3v-.3h1.7c.3.4.6.8.9 1.1s.6.7.9 1.1l1.7 2c.6.7 1 1.2 1.3 1.5v-3.1c0-1.3 0-2-.1-2.1s-.2-.2-.6-.2h-.4v-.3h2.4v.3h-.4c-.3 0-.5.1-.5.3v4.3c0 .6 0 1.3.1 2.1-.4-.1-.7-.1-.8-.1-.1 0-.1-.1-.2-.2-.4-.4-.7-.8-1.1-1.3l-3.3-4.3zm7.9-1.2.2-.2c.5.5 1 1 1.2 1.5s.5 1 .7 1.6c.2.6.2 1.2.2 1.8 0 .7-.1 1.4-.3 2.1s-.5 1.2-.8 1.6c-.3.4-.7.9-1.1 1.3l-.2-.3c.4-.4.7-.9.9-1.3s.4-.9.5-1.4c.1-.5.2-1.1.2-1.8s-.1-1.3-.2-1.9c-.1-.5-.3-1-.4-1.5-.2-.4-.5-.9-.9-1.5zm9.5 5.6.1.1c-.2.4-.4.9-.6 1.2-.2.4-.5.8-.9 1.2l-.4.2-.1-.2c.3-.4.5-.8.6-1.2.1-.4.2-.7.3-1.1.4 0 .7-.1 1-.2zm5.3 1.1h.3c.3 0 .5-.1.5-.2.1-.1.1-.8.1-2.1v-1.6c0-1.3 0-2-.1-2.1-.1-.1-.2-.2-.5-.2h-.4v-.3h2.8v.3h-.4c-.2 0-.4 0-.4.1-.1.1-.1.2-.1.4v3.5c0 1.3 0 2 .1 2.1.1.1.2.2.5.2h.3v.3h-2.8v-.4zm4.1-6.3v-.3c.3 0 .6-.1.9-.1.2 0 .4-.1.7-.2h.1c.1 0 .1.1.1.2V56l.6-.6c.1-.1.3-.2.5-.3.2-.1.4-.1.7-.1.5 0 .9.2 1.3.5.3.4.5.8.5 1.4 0 .3-.1.6-.2 1-.1.3-.3.6-.4.7-.1.1-.3.3-.6.5-.4.3-.6.4-.7.5-.2.1-.4.1-.7.1-.2 0-.5 0-.7-.1l-.6-.3-.4.4-.2-.1c.1-.5.1-1 .1-1.6v-4.5c0-.2 0-.4-.1-.4 0 0-.1-.1-.3-.1h-.6zm1.7 5v.6l.4.4c.2.1.5.2.7.2.5 0 .8-.2 1.1-.6.3-.4.4-.8.4-1.4 0-.6-.1-1-.4-1.3-.2-.3-.6-.4-1-.4-.3 0-.5.1-.8.2-.2.2-.4.4-.5.6v1.7zm5.4-1.8v-.6l.5-.3.6-.3c.2-.1.4-.1.6-.1.4 0 .8.1 1.1.3.3.2.4.5.5.8 0 .2.1.8.1 1.7 0 .9 0 1.3.1 1.4 0 .1.1.1.2.1h.4v.3h-1.5v-.8l-1 .8c-.1.1-.2.1-.3.1h-.4c-.4 0-.7-.1-1-.3-.2-.2-.3-.5-.3-.8 0-.3.1-.6.2-.9.2-.2.4-.4.7-.5.3-.1 1-.3 2-.5 0-.4-.1-.7-.3-.9-.2-.3-.5-.4-.9-.4-.2 0-.3 0-.4.1-.1 0-.3.1-.4.2-.1.2-.2.5-.3.7l-.2-.1zm2.6.8c-.9.2-1.5.4-1.7.5-.2.2-.4.4-.4.8 0 .2.1.4.2.6.1.1.3.2.5.2s.5-.1.7-.2c.2-.1.4-.3.6-.6v-1.1l.1-.2zm4.5-1c.1-.1.3-.3.4-.5l.5-.5c.2-.1.3-.1.5-.1s.3 0 .4.1c0 0 .1 0 .1.1-.1.3-.1.6-.1 1.1h-.2c-.1-.2-.2-.3-.3-.3-.1-.1-.2-.1-.4-.1s-.4.1-.5.2c-.2.1-.3.3-.3.5-.1.2-.1.7-.1 1.4 0 .4 0 .8.1 1.1 0 .1 0 .2.1.2.1.1.3.1.5.1h.3v.3h-2.7v-.3h.5c.2 0 .3 0 .3-.1 0 0 .1-.2.1-.5v-1.7c0-.8 0-1.2-.1-1.4 0-.1-.2-.1-.4-.1h-.4v-.3c.3 0 .6-.1.8-.1.2-.1.5-.1.7-.2h.2v1.1zm3.8.2v-.6l.5-.3.6-.3c.2-.1.4-.1.6-.1.4 0 .8.1 1.1.3.3.2.4.5.5.8 0 .2.1.8.1 1.7 0 .9 0 1.3.1 1.4 0 .1.1.1.2.1h.4v.3h-1.5v-.8l-1 .8c-.1.1-.2.1-.3.1h-.4c-.4 0-.7-.1-1-.3-.2-.2-.3-.5-.3-.8 0-.3.1-.6.2-.9.2-.2.4-.4.7-.5.3-.1 1-.3 2-.5 0-.4-.1-.7-.3-.9-.2-.3-.5-.4-.9-.4-.2 0-.3 0-.4.1-.1 0-.3.1-.4.2-.1.2-.2.5-.3.7l-.2-.1zm2.6.8c-.9.2-1.5.4-1.7.5-.2.2-.4.4-.4.8 0 .2.1.4.2.6.1.1.3.2.5.2s.5-.1.7-.2.4-.3.6-.6v-1.1l.1-.2zm4.5.2v.6c0 .8 0 1.3.1 1.4.1.1.2.2.5.2h.3v.3h-2.5v-.3h.3c.2 0 .4 0 .4-.1s.1-.6.1-1.4v-3c0-1.1 0-1.7-.1-1.8 0-.1-.2-.1-.4-.1h-.4v-.3c.3 0 .7-.1 1.2-.2l.5-.2c.1 0 .1 0 .1.1V57h.1c.3-.2.5-.4.8-.6l.7-.7.7-.7h1v.3h-.2c-.1 0-.3.1-.4.2-.4.2-.9.7-1.7 1.3l1.1 1.1c.6.6 1 .9 1.2 1.1.1.1.2.1.2.1.1 0 .1 0 .2.1v.2l-.9.3c-.2-.2-.6-.6-1.4-1.3-.7-.4-1.1-.8-1.5-1.1zm6.5-2.3.1.1v4c0 .1 0 .2.1.2 0 0 .2.1.3.1h.3v.3h-2.5v-.3h.4c.2 0 .3 0 .3-.1 0 0 .1-.2.1-.5v-2.9c0-.1 0-.2-.1-.2 0 0-.2-.1-.3-.1h-.4v-.3c.4-.1.7-.1.9-.2s.5 0 .8-.1zm-.4-2.2c.1 0 .3.1.4.2s.2.2.2.4-.1.3-.2.4c-.1.1-.2.2-.4.2s-.3-.1-.4-.2c-.1-.1-.2-.2-.2-.4s.1-.3.2-.4.3-.2.4-.2zm12.2 1.8v-.9c-.3-.2-.6-.3-.9-.4s-.6-.1-1-.1c-.9 0-1.6.3-2.1.8s-.8 1.2-.8 2.1c0 .6.1 1.2.4 1.7.3.5.6.9 1.1 1.2.5.3 1 .4 1.6.4.4 0 .9 0 1.3-.2.3-.1.6-.2 1-.5l.1.1c-.1.1-.1.3-.2.5-.4.2-.8.3-1.1.4-.4.1-.8.1-1.2.1-.8 0-1.5-.2-2.1-.5s-1.1-.7-1.4-1.3c-.3-.5-.5-1.2-.5-1.8s.2-1.3.5-1.8.8-1 1.4-1.3c.6-.3 1.3-.4 2.2-.4.5 0 1 .1 1.6.2.3.1.6.1.7.2-.1.3-.2.8-.3 1.5h-.3zm2.1 2.8c0-.4.1-.8.3-1.2.2-.4.5-.6.9-.8.4-.2.8-.3 1.3-.3.7 0 1.2.2 1.7.6.4.4.6 1 .6 1.6 0 .8-.3 1.4-.8 1.9-.5.4-1.1.6-1.7.6-.6 0-1.2-.2-1.6-.7s-.7-1-.7-1.7zm.9-.4c0 .7.1 1.2.4 1.7.3.5.7.7 1.2.7.4 0 .7-.1.9-.4s.4-.7.4-1.4c0-.5-.1-.9-.2-1.3s-.3-.6-.6-.8c-.2-.2-.5-.2-.8-.2-.3 0-.5.1-.7.2-.2.1-.4.3-.5.5 0 .4-.1.7-.1 1zm7.1-4.5c-.1.9-.1 1.8-.1 2.6v2.5c0 1 0 1.6.1 1.7 0 .1.1.1.3.1h.4v.3h-2.4v-.3h.4c.2 0 .3-.1.3-.1 0-.1.1-.7.1-1.7v-4.1c0-.2 0-.3-.1-.3-.1-.1-.2-.1-.3-.1h-.4v-.3c.7 0 1.3-.2 1.7-.3zm3.9 0c-.1.9-.1 1.8-.1 2.6v2.5c0 1 0 1.6.1 1.7 0 .1.1.1.3.1h.4v.3h-2.4v-.3h.4c.2 0 .3-.1.3-.1 0-.1.1-.7.1-1.7v-4.1c0-.2 0-.3-.1-.3-.1-.1-.2-.1-.3-.1h-.4v-.3c.7 0 1.2-.2 1.7-.3zm3.2 4.9c0 .6.2 1.1.5 1.5.3.3.7.5 1.2.5.2 0 .5 0 .7-.1.2-.1.4-.2.7-.3l.1.1-.2.4c-.3.2-.5.3-.8.3-.3.1-.6.1-.9.1-.7 0-1.2-.2-1.6-.6-.4-.4-.6-1-.6-1.7 0-.5.1-1 .3-1.4.1-.3.4-.5.8-.7.4-.2.8-.3 1.2-.3.6 0 1 .2 1.4.5.3.3.5.8.5 1.4v.3c-.2.1-.4.1-.6.1h-2.7zm0-.4h2.4v-.3c0-.3-.1-.6-.2-.8-.1-.2-.2-.3-.4-.4-.2-.1-.4-.2-.6-.2-.4 0-.7.1-.9.4-.2.3-.3.7-.3 1.3zm8.9-1.1c.1.2.1.4.1.5 0 .3-.1.6-.3.8-.2.3-.4.5-.7.6s-.7.2-1 .2h-.2l-.4.4c-.1.1-.1.2-.1.2 0 .1.1.2.2.3.1.1.4.1.8.1h1.5c.3 0 .5 0 .6.1.1.1.3.2.3.4.1.2.1.4.1.7 0 .4-.1.7-.3 1-.2.3-.5.6-1 .8s-.9.3-1.5.3c-.7 0-1.2-.1-1.5-.4-.4-.3-.5-.6-.5-1.1 0-.3.1-.5.3-.8.3-.2.6-.3.8-.5-.3-.1-.4-.2-.5-.2-.1-.1-.1-.2-.1-.3 0-.1 0-.3.1-.4 0-.1.1-.2.3-.3l.5-.3c-.4-.1-.7-.2-.8-.4-.2-.2-.3-.5-.3-.9 0-.3.1-.6.3-.9.2-.3.4-.5.7-.6.4-.2.8-.3 1.2-.3.2 0 .5 0 .6.1l.6.3h1.4l.1.1c-.1.1-.2.3-.3.4h-1zm-2.1 3.9c-.2 0-.4 0-.5.1-.3.2-.4.3-.5.4-.1.2-.1.4-.1.6 0 .4.1.6.4.9.3.2.6.3 1.1.3.4 0 .7-.1.9-.2.3-.1.5-.3.6-.5.1-.2.2-.5.2-.7 0-.2-.1-.4-.2-.6-.1-.2-.2-.3-.4-.3h-1.5zm1.3-3.1c0-.4-.1-.7-.3-1-.2-.2-.5-.4-.8-.4-.3 0-.6.1-.8.3-.2.2-.3.5-.3.8 0 .4.1.8.3 1 .2.2.5.4.8.4.3 0 .6-.1.8-.3.2-.2.3-.4.3-.8zm4.1.7c0 .6.2 1.1.5 1.5.3.3.7.5 1.2.5.2 0 .5 0 .7-.1.2-.1.4-.2.7-.3l.1.1-.2.4c-.3.2-.5.3-.8.3-.3.1-.6.1-.9.1-.7 0-1.2-.2-1.6-.6-.4-.4-.6-1-.6-1.7 0-.5.1-1 .3-1.4.1-.3.4-.5.8-.7.4-.2.8-.3 1.2-.3.6 0 1 .2 1.4.5.3.3.5.8.5 1.4v.3c-.2.1-.4.1-.6.1h-2.7zm.1-.4h2.4v-.3c0-.3-.1-.6-.2-.8-.1-.2-.2-.3-.4-.4-.2-.1-.4-.2-.6-.2-.4 0-.7.1-.9.4s-.3.7-.3 1.3z"/>
</svg>
